<?xml version="1.0" encoding="UTF-8" standalone="no"?>
<svg xmlns="http://www.w3.org/2000/svg" version="1.2" baseProfile="tiny" height="1771" width="1080"><g stroke-linejoin="round" stroke-linecap="round" fill="none" stroke="black"><path stroke-width="16" d="M659,158c0,0 0,0 0,0 "/><path stroke-width="17" d="M659,158c0,-1 0,-1 -1,-2 "/><path stroke-width="16" d="M658,156c0,0 0,0 0,0 "/><path stroke-width="15" d="M658,156c-3,-1 -2,-3 -5,-2 "/><path stroke-width="10" d="M653,154c-13,2 -13,1 -26,6 "/><path stroke-width="8" d="M627,160c-45,18 -47,15 -89,38 -48,25 -48,26 -91,58 -44,32 -44,32 -83,70 -39,39 -39,39 -73,82 -30,40 -32,40 -55,84 -19,38 -20,39 -30,80 -8,36 -9,38 -5,74 3,34 2,37 19,66 18,30 21,32 50,52 36,25 38,24 79,39 47,17 49,13 98,23 50,11 51,8 101,21 47,11 47,11 92,26 40,14 42,11 78,31 31,18 34,19 55,46 18,24 20,27 24,57 5,33 4,37 -5,69 -13,41 -16,42 -40,79 -28,45 -29,45 -63,85 -40,46 -42,45 -85,88 -42,41 -42,41 -86,81 -38,35 -39,34 -78,68 -32,28 -31,28 -63,56 -21,18 -21,18 -43,36 "/><path stroke-width="10" d="M334,1569c0,0 0,0 0,0 "/></g></svg>