<?xml version="1.0" encoding="UTF-8" standalone="no"?>
<svg xmlns="http://www.w3.org/2000/svg" version="1.2" baseProfile="tiny" height="1771" width="1080"><g stroke-linejoin="round" stroke-linecap="round" fill="none" stroke="black"><path stroke-width="16" d="M663,287c0,0 0,0 0,0 -1,0 -1,0 -2,0 "/><path stroke-width="14" d="M661,287c-3,1 -3,1 -5,3 "/><path stroke-width="12" d="M656,290c-6,5 -6,5 -11,11 "/><path stroke-width="8" d="M645,301c-32,35 -34,33 -63,71 -47,63 -48,64 -89,131 -36,59 -35,60 -66,122 -29,61 -30,61 -54,124 -23,58 -23,59 -41,119 -15,54 -16,55 -25,111 -8,45 -9,46 -9,92 1,36 1,38 11,72 8,28 7,32 26,53 19,21 22,21 49,31 35,14 37,13 75,17 44,6 45,3 90,3 47,0 48,-4 95,-3 40,2 41,0 80,8 28,6 29,6 54,21 18,11 22,12 32,30 9,18 9,21 6,42 -5,32 -6,34 -21,64 -19,40 -22,39 -48,76 -27,39 -27,39 -58,76 -32,37 -32,37 -67,72 -32,31 -33,30 -66,58 -27,23 -25,25 -54,44 -17,12 -19,19 -38,17 -21,-2 -21,-13 -42,-26 "/><path stroke-width="11" d="M422,1726c0,0 0,0 0,0 "/></g></svg>