<?xml version="1.0" encoding="UTF-8" standalone="no"?>
<svg xmlns="http://www.w3.org/2000/svg" version="1.2" baseProfile="tiny" height="1771" width="1080"><g stroke-linejoin="round" stroke-linecap="round" fill="none" stroke="black"><path stroke-width="16" d="M457,745c0,0 0,0 0,0 "/><path stroke-width="17" d="M457,745c2,0 2,0 3,-1 "/><path stroke-width="15" d="M460,744c1,-1 1,-2 3,-3 "/><path stroke-width="11" d="M463,741c10,-5 11,-5 21,-11 "/><path stroke-width="8" d="M484,730c29,-17 29,-16 57,-36 26,-18 26,-18 50,-39 22,-20 22,-20 42,-42 20,-22 21,-22 39,-46 19,-25 20,-25 34,-53 15,-27 16,-27 26,-57 9,-29 9,-29 14,-59 4,-30 4,-30 3,-59 0,-28 1,-28 -4,-55 -4,-17 -2,-20 -12,-33 -8,-11 -11,-14 -23,-15 -18,-1 -20,2 -38,9 -29,13 -29,13 -56,30 -34,22 -35,22 -64,49 -34,31 -34,31 -62,67 -32,41 -31,43 -58,88 -28,47 -30,46 -53,97 -22,49 -20,50 -36,102 -12,42 -13,42 -20,86 -5,36 -5,36 -3,73 1,30 0,31 10,60 7,25 7,27 24,46 19,22 21,22 47,37 29,17 31,14 63,27 34,15 35,13 69,28 34,15 34,15 67,33 30,16 30,15 60,33 25,15 25,15 49,33 16,12 17,12 30,27 11,14 11,14 19,30 6,15 8,16 8,33 1,19 0,20 -7,39 -7,24 -7,25 -21,46 -18,28 -19,28 -42,53 -27,29 -27,29 -56,56 -29,26 -29,25 -60,48 -27,21 -27,21 -56,39 -24,15 -24,15 -49,29 -20,10 -20,11 -41,19 -13,6 -13,6 -28,9 -8,2 -10,5 -17,2 "/><path stroke-width="9" d="M389,1564c-7,-3 -6,-7 -10,-14 -1,-2 -1,-2 -1,-5 "/></g></svg>