<?xml version="1.0" encoding="UTF-8" standalone="no"?>
<svg xmlns="http://www.w3.org/2000/svg" version="1.2" baseProfile="tiny" height="1771" width="1080"><g stroke-linejoin="round" stroke-linecap="round" fill="none" stroke="black"><path stroke-width="16" d="M335,743c0,0 0,0 0,0 "/><path stroke-width="18" d="M335,743c-1,-1 -1,-1 -2,-1 "/><path stroke-width="17" d="M333,742c0,0 0,0 -1,0 0,0 0,0 0,0 -1,1 -1,1 -1,2 "/><path stroke-width="12" d="M331,744c1,13 2,13 3,26 "/><path stroke-width="8" d="M334,770c3,52 3,52 5,105 2,51 3,51 3,102 0,36 0,36 -2,71 0,18 -2,18 -3,37 "/><path stroke-width="9" d="M337,1085c0,5 0,6 0,11 "/><path stroke-width="12" d="M337,1096c0,1 -1,2 -2,1 "/><path stroke-width="13" d="M335,1097c-3,-3 -3,-4 -6,-9 "/><path stroke-width="10" d="M329,1088c-12,-15 -10,-16 -24,-30 "/><path stroke-width="8" d="M305,1058c-23,-25 -24,-25 -50,-47 -20,-18 -21,-17 -43,-33 -18,-12 -18,-12 -36,-25 -14,-11 -15,-10 -27,-23 -11,-11 -12,-11 -18,-24 -6,-15 -10,-17 -6,-31 7,-33 10,-35 29,-65 31,-50 32,-51 71,-96 47,-54 48,-54 101,-103 49,-44 50,-44 102,-83 39,-28 40,-27 81,-51 19,-12 20,-13 41,-22 "/><path stroke-width="9" d="M550,455c3,-1 7,-1 7,1 "/><path stroke-width="10" d="M557,456c-1,3 -5,5 -9,10 "/><path stroke-width="13" d="M422,666c0,0 0,0 0,0 "/><path stroke-width="16" d="M422,666c1,0 1,0 2,0 1,1 1,1 2,1 "/><path stroke-width="15" d="M426,667c2,3 4,2 4,5 "/><path stroke-width="11" d="M430,672c1,19 4,20 0,39 "/><path stroke-width="8" d="M430,711c-9,41 -12,41 -27,82 -14,36 -16,35 -30,71 -9,26 -11,25 -16,52 -4,17 -5,19 0,34 5,11 8,13 19,18 18,8 20,9 40,8 26,-3 28,-3 51,-17 32,-18 29,-24 59,-48 "/><path stroke-width="10" d="M526,911c0,0 0,0 0,0 "/><path stroke-width="14" d="M427,844c0,0 0,0 0,0 "/><path stroke-width="16" d="M427,844c-3,2 -2,2 -5,4 "/><path stroke-width="15" d="M422,848c-2,1 -2,1 -4,1 "/><path stroke-width="14" d="M418,849c-2,1 -2,1 -4,2 "/><path stroke-width="15" d="M414,851c-1,0 -2,1 -3,0 0,-1 0,-2 1,-4 "/><path stroke-width="11" d="M412,847c16,-25 16,-26 35,-50 "/><path stroke-width="8" d="M447,797c38,-48 38,-48 78,-94 26,-29 28,-27 56,-55 10,-10 11,-9 21,-20 "/><path stroke-width="11" d="M602,628c1,-1 2,-4 1,-3 -8,7 -10,9 -19,19 "/><path stroke-width="8" d="M584,644c-27,28 -28,28 -55,57 -22,25 -23,24 -42,52 -13,18 -14,19 -21,40 -4,12 -5,16 0,27 6,12 9,14 22,19 28,11 30,9 60,14 34,5 34,3 69,8 25,3 26,0 49,7 11,4 13,6 18,15 "/><path stroke-width="9" d="M684,883c3,6 2,9 -2,15 -10,12 -11,13 -25,20 "/><path stroke-width="8" d="M657,918c-16,8 -18,10 -35,10 -13,-1 -17,-2 -26,-11 -12,-15 -14,-18 -16,-38 -4,-32 -4,-35 4,-67 7,-29 8,-31 25,-56 17,-23 19,-24 43,-39 21,-13 24,-14 48,-17 16,-3 22,-4 33,5 12,10 11,16 13,33 2,29 -2,30 -6,60 -5,32 -4,32 -12,64 -5,19 -7,19 -15,38 -3,7 -3,9 -8,13 "/><path stroke-width="10" d="M705,913c-2,2 -4,1 -6,-1 -8,-8 -8,-9 -14,-19 "/><path stroke-width="8" d="M685,893c-16,-25 -15,-26 -31,-51 -16,-23 -16,-23 -33,-45 -9,-12 -10,-11 -20,-23 "/><path stroke-width="9" d="M601,774c-5,-5 -7,-4 -10,-11 "/><path stroke-width="10" d="M591,763c-3,-4 -4,-5 -3,-10 "/><path stroke-width="9" d="M588,753c3,-10 3,-12 12,-20 "/><path stroke-width="8" d="M600,733c28,-27 30,-27 62,-50 54,-40 56,-38 111,-77 33,-22 33,-22 66,-44 "/><path stroke-width="10" d="M844,631c0,0 0,0 0,0 "/><path stroke-width="13" d="M844,631c1,3 1,3 1,6 1,5 1,5 2,9 "/><path stroke-width="10" d="M847,646c1,20 0,20 3,39 "/><path stroke-width="8" d="M850,685c7,50 6,50 16,100 8,37 7,38 20,73 14,35 17,33 35,66 "/><path stroke-width="10" d="M921,924c0,0 0,0 0,1 "/></g></svg>