<?xml version="1.0" encoding="UTF-8" standalone="no"?>
<svg xmlns="http://www.w3.org/2000/svg" version="1.2" baseProfile="tiny" height="1835" width="1080"><g stroke-linejoin="round" stroke-linecap="round" fill="none" stroke="black"><path stroke-width="18" d="M621,897c0,0 0,0 0,0 "/><path stroke-width="15" d="M621,897c-16,-22 -16,-21 -32,-44 "/><path stroke-width="9" d="M589,853c-15,-23 -12,-26 -29,-47 -11,-13 -12,-13 -27,-21 -10,-5 -14,-9 -22,-4 -9,4 -8,10 -13,22 -12,33 -16,34 -21,69 -4,30 -2,32 3,62 3,22 3,23 13,42 12,21 13,25 32,38 16,11 21,14 38,10 19,-3 22,-8 34,-24 21,-28 21,-30 33,-64 12,-32 9,-33 16,-67 5,-24 5,-24 9,-47 2,-8 1,-9 3,-16 "/><path stroke-width="14" d="M658,806c0,-1 1,-1 1,0 "/><path stroke-width="16" d="M659,806c1,4 0,4 1,9 "/><path stroke-width="12" d="M660,815c1,37 2,37 3,75 "/><path stroke-width="9" d="M663,890c1,45 -2,45 1,90 3,28 3,29 10,54 3,9 4,12 11,16 "/><path stroke-width="11" d="M685,1050c3,2 6,0 9,-4 11,-14 12,-14 19,-30 "/><path stroke-width="9" d="M713,1016c9,-21 7,-22 12,-43 5,-23 5,-23 9,-45 4,-20 4,-20 6,-40 1,-13 3,-14 0,-26 "/><path stroke-width="10" d="M740,862c-1,-7 -2,-11 -8,-13 -8,-3 -12,-2 -21,3 "/><path stroke-width="9" d="M711,852c-26,13 -26,15 -49,33 -39,31 -37,34 -76,66 -39,32 -38,34 -80,62 -33,23 -34,23 -70,40 -28,14 -29,11 -58,22 -21,8 -20,10 -41,18 -16,6 -16,6 -33,11 "/><path stroke-width="10" d="M304,1104c-7,1 -7,1 -14,0 "/><path stroke-width="13" d="M290,1104c-2,0 -3,-1 -3,-3 4,-9 5,-10 13,-19 "/><path stroke-width="9" d="M300,1082c29,-35 27,-38 61,-68 36,-33 36,-36 78,-58 35,-19 38,-17 77,-24 30,-6 33,-6 62,-2 9,2 11,4 14,13 7,17 6,19 6,39 0,42 -1,42 -6,85 -4,43 -5,43 -13,86 -6,31 -6,31 -13,62 -3,14 -4,14 -7,28 "/><path stroke-width="11" d="M559,1243c-1,4 -2,5 -3,7 "/><path stroke-width="15" d="M556,1250c0,1 -1,-1 -1,-2 "/><path stroke-width="14" d="M555,1248c2,-9 2,-10 4,-19 "/><path stroke-width="9" d="M559,1229c14,-51 12,-52 29,-102 28,-76 27,-76 61,-149 46,-98 45,-99 100,-191 52,-85 55,-83 114,-162 52,-68 69,-82 110,-132 "/></g></svg>