<?xml version="1.0" encoding="UTF-8" standalone="no"?>
<svg xmlns="http://www.w3.org/2000/svg" version="1.2" baseProfile="tiny" height="1343" width="720"><g stroke-linejoin="round" stroke-linecap="round" fill="none" stroke="black"><path stroke-width="10" d="M252,875c0,0 0,0 0,0 "/><path stroke-width="12" d="M252,875c0,0 0,0 0,0 0,0 0,0 0,0 0,0 0,0 0,0 "/><path stroke-width="11" d="M252,875c0,-2 0,-2 0,-3 "/><path stroke-width="8" d="M252,872c3,-10 3,-10 6,-20 "/><path stroke-width="5" d="M258,852c4,-13 4,-13 9,-25 6,-14 7,-14 12,-29 7,-18 7,-18 13,-36 7,-20 6,-20 12,-40 7,-21 7,-21 13,-43 7,-24 7,-24 13,-48 6,-25 6,-25 10,-50 4,-24 3,-25 6,-49 3,-22 3,-22 6,-44 2,-19 3,-19 4,-39 1,-18 0,-18 -1,-35 -1,-15 0,-15 -4,-29 -3,-11 -4,-11 -9,-20 -5,-9 -5,-9 -11,-16 "/><path stroke-width="6" d="M331,349c-6,-6 -6,-7 -13,-10 -7,-4 -8,-3 -16,-4 -7,-1 -7,-1 -13,1 "/><path stroke-width="7" d="M289,336c-5,2 -5,3 -9,6 -7,5 -8,5 -14,11 "/><path stroke-width="5" d="M266,353c-12,11 -11,12 -21,24 -11,14 -11,15 -21,29 -8,10 -9,9 -16,19 -5,8 -5,8 -8,16 "/><path stroke-width="6" d="M200,441c-2,8 -3,8 -2,16 1,9 1,10 4,18 4,10 4,10 9,19 "/><path stroke-width="5" d="M211,494c7,11 7,11 16,21 9,10 8,10 18,17 13,9 13,8 27,15 14,8 14,8 29,14 17,7 17,7 33,13 17,6 18,4 34,11 14,6 13,7 27,14 13,7 13,6 26,14 11,6 11,6 20,14 10,9 10,10 18,20 8,10 9,9 15,19 6,10 7,10 9,21 2,10 2,11 1,21 -1,10 -1,10 -4,19 -4,11 -3,11 -9,20 -6,9 -6,9 -14,15 -9,8 -10,7 -20,13 -11,6 -10,7 -22,11 -12,5 -12,6 -25,8 -13,2 -13,2 -25,2 -13,0 -13,0 -26,-2 -9,-1 -9,-2 -17,-5 "/><path stroke-width="6" d="M322,789c-7,-2 -7,-2 -13,-5 "/><path stroke-width="7" d="M309,784c-4,-2 -4,-2 -8,-4 "/><path stroke-width="8" d="M301,780c-2,-1 -2,-1 -4,-3 "/><path stroke-width="10" d="M297,777c-1,-1 -1,-1 -2,-2 "/><path stroke-width="11" d="M295,775c0,0 0,-1 0,-1 1,0 1,1 2,2 "/><path stroke-width="10" d="M297,776c2,2 2,2 4,5 "/><path stroke-width="8" d="M301,781c2,4 2,4 4,8 "/><path stroke-width="7" d="M305,789c4,8 5,8 7,16 "/><path stroke-width="6" d="M312,805c5,16 4,16 7,32 "/><path stroke-width="5" d="M319,837c4,26 4,27 7,53 4,32 4,34 7,65 "/></g></svg>