<?xml version="1.0" encoding="UTF-8" standalone="no"?>
<svg xmlns="http://www.w3.org/2000/svg" version="1.2" baseProfile="tiny" height="1771" width="1080"><g stroke-linejoin="round" stroke-linecap="round" fill="none" stroke="black"><path stroke-width="16" d="M594,920c0,0 0,0 0,0 "/><path stroke-width="14" d="M594,920c-3,-7 -3,-7 -6,-14 "/><path stroke-width="9" d="M588,906c-5,-16 -5,-16 -10,-32 "/><path stroke-width="8" d="M578,874c-8,-22 -6,-24 -16,-45 -24,-48 -20,-53 -53,-94 -24,-29 -28,-35 -61,-46 -23,-7 -30,-2 -52,10 -28,14 -29,19 -50,44 -20,24 -19,26 -32,55 -11,23 -13,25 -14,49 -1,18 0,22 10,35 12,14 16,16 34,19 26,3 30,3 55,-7 33,-13 33,-16 60,-38 33,-25 32,-27 61,-56 25,-26 23,-27 48,-54 12,-13 12,-13 25,-25 "/><path stroke-width="9" d="M593,721c3,-2 6,-5 7,-3 "/><path stroke-width="10" d="M600,718c2,4 1,8 -1,16 "/><path stroke-width="9" d="M599,734c-10,30 -11,30 -23,60 "/><path stroke-width="8" d="M576,794c-13,33 -14,32 -27,65 -10,24 -9,24 -18,49 -4,10 -3,12 -9,19 "/><path stroke-width="10" d="M522,927c-1,2 -4,2 -5,0 -3,-10 -3,-12 -1,-23 "/><path stroke-width="8" d="M516,904c3,-33 4,-33 11,-65 4,-22 4,-22 10,-43 "/><path stroke-width="9" d="M537,796c1,-4 3,-4 4,-8 "/><path stroke-width="13" d="M541,788c0,0 -1,-1 -1,0 "/><path stroke-width="12" d="M540,788c-9,1 -8,3 -17,4 "/><path stroke-width="9" d="M523,792c-20,3 -21,6 -41,3 "/><path stroke-width="8" d="M482,795c-24,-4 -27,-4 -46,-18 -17,-11 -22,-14 -27,-33 -6,-30 -4,-34 4,-64 16,-56 15,-58 44,-108 42,-72 48,-69 99,-136 36,-47 38,-46 75,-92 "/></g></svg>