<?xml version="1.0" encoding="UTF-8" standalone="no"?>
<svg xmlns="http://www.w3.org/2000/svg" version="1.2" baseProfile="tiny" height="1863" width="1080"><g stroke-linejoin="round" stroke-linecap="round" fill="none" stroke="black"><path stroke-width="18" d="M488,1403c0,0 0,0 0,0 "/><path stroke-width="21" d="M488,1403c0,0 0,0 0,0 "/><path stroke-width="16" d="M488,1403c-2,-17 -3,-17 -4,-35 "/><path stroke-width="10" d="M484,1368c-2,-38 -4,-38 -2,-75 "/><path stroke-width="9" d="M482,1293c3,-53 3,-53 11,-105 8,-52 7,-53 20,-104 14,-56 13,-57 33,-111 17,-47 17,-47 41,-91 21,-39 22,-38 49,-73 19,-26 20,-26 43,-48 18,-19 19,-19 39,-35 16,-12 16,-12 34,-22 11,-6 11,-8 24,-10 14,-3 16,-4 29,-1 "/><path stroke-width="10" d="M805,693c7,2 11,3 11,9 2,17 1,21 -7,37 "/><path stroke-width="9" d="M809,739c-18,40 -20,40 -44,77 -32,48 -33,48 -66,94 -35,47 -37,46 -72,94 -33,45 -32,46 -65,92 -26,37 -25,38 -51,75 -18,25 -19,25 -38,49 -10,13 -10,14 -21,25 -6,7 -8,6 -14,11 "/></g></svg>