<?xml version="1.0" encoding="UTF-8" standalone="no"?>
<svg xmlns="http://www.w3.org/2000/svg" version="1.2" baseProfile="tiny" height="1343" width="720"><g stroke-linejoin="round" stroke-linecap="round" fill="none" stroke="black"><path stroke-width="10" d="M257,804c0,0 0,0 0,0 "/><path stroke-width="12" d="M257,804c0,0 0,0 0,0 0,0 0,0 0,0 "/><path stroke-width="10" d="M257,804c4,-4 5,-4 8,-8 "/><path stroke-width="6" d="M265,796c10,-12 10,-12 18,-24 "/><path stroke-width="5" d="M283,772c9,-14 8,-14 16,-28 9,-16 10,-16 18,-32 10,-18 10,-18 17,-37 8,-18 7,-18 13,-37 6,-17 6,-17 10,-35 5,-20 4,-21 7,-41 3,-20 3,-20 6,-41 3,-20 3,-20 6,-40 2,-19 3,-19 4,-38 1,-15 1,-15 1,-30 0,-13 0,-13 -2,-26 -1,-8 0,-9 -3,-16 "/><path stroke-width="7" d="M376,371c-2,-5 -2,-6 -6,-9 -3,-3 -4,-3 -8,-4 -6,-2 -6,-2 -11,-2 -5,0 -5,1 -9,3 -5,3 -5,3 -9,7 "/><path stroke-width="6" d="M333,366c-8,7 -8,7 -15,15 "/><path stroke-width="5" d="M318,381c-12,14 -12,14 -22,29 -11,16 -11,16 -20,33 -11,19 -12,19 -21,39 -8,16 -9,16 -14,34 -4,13 -4,13 -4,27 0,12 -1,13 4,25 5,12 6,12 14,21 11,14 11,14 24,25 15,13 16,12 32,23 17,11 17,11 35,20 20,9 21,7 41,15 18,8 19,7 36,17 15,9 15,10 29,21 12,11 12,11 22,24 10,13 10,13 16,27 6,14 7,15 9,29 2,14 3,14 0,28 -3,12 -3,13 -10,24 -7,11 -7,12 -17,19 -12,8 -13,7 -28,11 -13,4 -13,4 -27,6 -13,2 -14,2 -27,1 -11,0 -12,0 -22,-3 -13,-4 -13,-5 -24,-10 -10,-5 -10,-5 -18,-10 "/><path stroke-width="6" d="M326,856c-7,-4 -6,-5 -12,-9 "/><path stroke-width="7" d="M314,847c-3,-2 -3,-2 -6,-4 "/><path stroke-width="9" d="M308,843c0,0 -1,0 -1,0 "/><path stroke-width="11" d="M307,843c0,0 0,0 0,0 "/><path stroke-width="9" d="M307,843c4,6 4,5 7,11 "/><path stroke-width="6" d="M314,854c5,12 5,12 9,24 "/><path stroke-width="5" d="M323,878c5,14 5,14 9,27 4,16 4,16 7,32 3,17 3,17 5,34 3,18 3,18 5,37 3,18 2,18 5,37 3,17 3,17 6,34 2,11 2,11 5,22 3,9 3,9 7,16 "/><path stroke-width="7" d="M372,1117c2,4 3,6 6,7 "/><path stroke-width="8" d="M378,1124c3,1 5,0 6,-2 "/><path stroke-width="7" d="M384,1122c5,-7 3,-9 6,-17 "/><path stroke-width="6" d="M390,1105c4,-11 3,-11 7,-21 "/><path stroke-width="5" d="M397,1084c5,-12 4,-12 10,-23 6,-12 7,-11 13,-22 7,-12 6,-12 12,-24 7,-13 7,-13 14,-26 8,-14 8,-14 16,-28 8,-12 8,-12 15,-25 8,-14 7,-14 14,-28 9,-17 10,-17 19,-33 10,-17 9,-18 19,-35 10,-16 9,-16 20,-32 8,-11 9,-10 18,-20 "/><path stroke-width="6" d="M567,788c5,-6 5,-7 10,-12 "/><path stroke-width="7" d="M577,776c2,-2 3,-3 4,-2 "/><path stroke-width="9" d="M581,774c1,1 1,3 0,5 "/><path stroke-width="7" d="M581,779c-3,12 -4,12 -8,23 "/><path stroke-width="5" d="M573,802c-7,20 -8,19 -15,39 -8,21 -8,21 -15,43 -7,19 -8,19 -12,39 -5,20 -5,20 -6,41 -1,17 -2,18 3,34 4,14 7,14 14,26 "/><path stroke-width="8" d="M89,195c0,0 0,0 0,0 "/><path stroke-width="11" d="M89,195c0,0 0,0 0,0 "/><path stroke-width="12" d="M89,195c0,0 0,0 0,0 "/><path stroke-width="9" d="M89,195c1,11 1,11 2,22 "/><path stroke-width="5" d="M91,217c2,15 2,15 3,30 1,19 0,19 2,38 2,17 1,17 5,34 3,11 3,12 9,21 5,7 5,7 12,11 "/><path stroke-width="6" d="M122,351c7,4 8,4 15,5 7,1 8,0 14,-2 10,-4 11,-4 19,-10 "/><path stroke-width="5" d="M170,344c12,-9 12,-9 22,-19 14,-13 14,-14 27,-27 13,-13 13,-14 25,-26 "/><path stroke-width="7" d="M126,290c0,0 0,0 0,0 "/><path stroke-width="11" d="M126,290c0,0 0,0 0,0 "/><path stroke-width="12" d="M126,290c0,0 0,0 0,0 "/><path stroke-width="9" d="M126,290c3,-9 3,-9 6,-18 "/><path stroke-width="5" d="M132,272c5,-14 6,-14 11,-27 "/><path stroke-width="8" d="M108,194c0,0 0,0 0,0 "/><path stroke-width="11" d="M108,194c0,0 0,0 0,0 "/><path stroke-width="12" d="M108,194c0,0 0,0 0,0 0,0 0,0 0,0 "/><path stroke-width="9" d="M108,194c12,-11 13,-11 25,-23 "/><path stroke-width="6" d="M133,171c9,-10 8,-10 17,-21 "/></g></svg>