<?xml version="1.0" encoding="UTF-8" standalone="no"?>
<svg xmlns="http://www.w3.org/2000/svg" version="1.2" baseProfile="tiny" height="1863" width="1080"><g stroke-linejoin="round" stroke-linecap="round" fill="none" stroke="black"><path stroke-width="18" d="M488,1403c0,0 0,0 0,0 "/><path stroke-width="21" d="M488,1403c0,0 0,0 0,0 "/><path stroke-width="16" d="M488,1403c-2,-17 -3,-17 -4,-35 "/><path stroke-width="10" d="M484,1368c-2,-38 -4,-38 -2,-75 "/><path stroke-width="9" d="M482,1293c3,-53 3,-53 11,-105 8,-52 7,-53 20,-104 14,-56 13,-57 33,-111 17,-47 17,-47 41,-91 21,-39 22,-38 49,-73 19,-26 20,-26 43,-48 18,-19 19,-19 39,-35 16,-12 16,-12 34,-22 11,-6 11,-8 24,-10 14,-3 16,-4 29,-1 "/><path stroke-width="10" d="M805,693c7,2 11,3 11,9 2,17 1,21 -7,37 "/><path stroke-width="9" d="M809,739c-18,40 -20,40 -44,77 -32,48 -33,48 -66,94 -35,47 -37,46 -72,94 -33,45 -32,46 -65,92 -26,37 -25,38 -51,75 -18,25 -19,25 -38,49 -10,13 -10,14 -21,25 -6,7 -8,6 -14,11 "/><path stroke-width="9" d="M809,739c-18,40 -20,40 -44,77 -32,48 -33,48 -66,94 -35,47 -37,46 -72,94 -33,45 -32,46 -65,92 -26,37 -25,38 -51,75 -18,25 -19,25 -38,49 -10,13 -10,14 -21,25 -6,7 -8,6 -14,11 "/><path stroke-width="9" d="M809,739c-18,40 -20,40 -44,77 -32,48 -33,48 -66,94 -35,47 -37,46 -72,94 -33,45 -32,46 -65,92 -26,37 -25,38 -51,75 -18,25 -19,25 -38,49 -10,13 -10,14 -21,25 -6,7 -8,6 -14,11 "/><path stroke-width="14" d="M780,1549c0,0 0,0 0,0 "/><path stroke-width="20" d="M780,1549c0,0 0,0 0,0 "/><path stroke-width="15" d="M780,1549c-14,-14 -17,-11 -28,-27 "/><path stroke-width="9" d="M752,1522c-32,-47 -32,-48 -59,-98 -26,-51 -28,-51 -47,-104 -19,-49 -19,-50 -29,-101 -7,-39 -6,-39 -6,-79 0,-35 0,-35 5,-70 4,-27 4,-28 13,-54 9,-26 8,-27 22,-51 21,-33 21,-34 48,-63 35,-38 36,-37 76,-70 45,-36 46,-37 95,-68 33,-21 35,-19 70,-37 19,-9 19,-9 39,-17 12,-5 13,-4 25,-8 "/><path stroke-width="11" d="M1004,702c4,-1 4,-1 7,-2 "/><path stroke-width="16" d="M1011,700c1,0 2,0 2,0 "/><path stroke-width="14" d="M1013,700c-23,20 -23,24 -49,42 "/><path stroke-width="9" d="M964,742c-70,49 -76,41 -143,93 -90,68 -92,68 -172,148 -75,75 -76,76 -139,163 -43,59 -41,61 -72,127 -20,43 -16,45 -30,89 -4,13 -4,13 -7,25 -4,14 -4,14 -8,28 "/><path stroke-width="13" d="M393,1415c0,0 0,0 0,0 "/><path stroke-width="13" d="M393,1415c0,0 0,0 0,0 "/><path stroke-width="19" d="M0,1433c0,0 0,0 0,0 "/><path stroke-width="21" d="M10,1032c0,0 0,0 0,0 0,0 0,0 0,0 0,0 0,0 0,0 0,0 0,0 0,0 0,0 0,0 0,0 0,0 0,0 0,0 0,0 0,0 0,0 0,0 0,0 0,0 0,0 0,0 0,0 0,0 0,0 0,0 "/><path stroke-width="21" d="M1068,1246c0,0 0,0 0,0 0,0 0,0 0,0 0,0 0,0 0,0 0,0 0,0 0,0 0,0 0,0 0,0 0,0 0,0 0,0 0,0 0,0 0,0 0,0 0,0 0,0 0,0 0,0 0,0 0,0 0,0 0,0 0,0 0,0 0,0 0,0 0,0 0,0 0,0 0,0 0,0 0,0 0,0 0,0 0,0 0,0 0,0 0,0 0,0 0,0 0,0 0,0 0,0 0,0 0,0 0,0 0,0 0,0 0,0 0,0 0,0 0,0 0,0 0,0 0,0 0,0 0,0 0,0 0,0 0,0 0,0 0,0 0,0 0,0 0,0 0,0 0,0 0,0 0,0 0,0 0,0 0,0 0,0 0,0 0,0 0,0 0,0 0,0 0,0 0,0 0,0 0,0 0,0 0,0 0,0 0,0 0,0 0,0 0,0 0,0 0,0 0,0 0,0 0,0 0,0 0,0 0,0 0,0 0,0 0,0 0,0 0,0 0,0 0,0 0,0 0,0 "/><path stroke-width="21" d="M1068,1246c0,0 0,0 0,0 0,0 0,0 0,0 0,0 0,0 0,0 0,0 0,0 0,0 0,0 0,0 0,0 0,0 0,0 0,0 0,0 0,0 0,0 0,0 0,0 0,0 0,0 0,0 0,0 0,0 0,0 0,0 0,0 0,0 0,0 0,0 0,0 0,0 0,0 0,0 0,0 0,0 0,0 0,0 0,0 0,0 0,0 0,0 0,0 0,0 0,0 0,0 0,0 0,0 0,0 0,0 0,0 0,0 0,0 0,0 0,0 0,0 0,0 0,0 0,0 0,0 0,0 0,0 0,0 0,0 0,0 0,0 0,0 0,0 0,0 0,0 0,0 0,0 0,0 0,0 0,0 0,0 0,0 0,0 0,0 0,0 0,0 0,0 0,0 0,0 0,0 0,0 0,0 0,0 0,0 0,0 0,0 0,0 0,0 0,0 0,0 0,0 0,0 0,0 0,0 0,0 0,0 0,0 0,0 0,0 0,0 0,0 0,0 0,0 0,0 0,0 "/><path stroke-width="21" d="M1068,1246c0,0 0,0 0,0 0,0 0,0 0,0 0,0 0,0 0,0 0,0 0,0 0,0 0,0 0,0 0,0 0,0 0,0 0,0 0,0 0,0 0,0 0,0 0,0 0,0 0,0 0,0 0,0 0,0 0,0 0,0 0,0 0,0 0,0 0,0 0,0 0,0 0,0 0,0 0,0 0,0 0,0 0,0 0,0 0,0 0,0 0,0 0,0 0,0 0,0 0,0 0,0 0,0 0,0 0,0 0,0 0,0 0,0 0,0 0,0 0,0 0,0 0,0 0,0 0,0 0,0 0,0 0,0 0,0 0,0 0,0 0,0 0,0 0,0 0,0 0,0 0,0 0,0 0,0 0,0 0,0 0,0 0,0 0,0 0,0 0,0 0,0 0,0 0,0 0,0 0,0 0,0 0,0 0,0 0,0 0,0 0,0 0,0 0,0 0,0 0,0 0,0 0,0 0,0 0,0 0,0 0,0 0,0 0,0 0,0 0,0 0,0 0,0 0,0 0,0 "/><path stroke-width="21" d="M977,323c0,0 0,0 0,0 0,0 0,0 0,0 0,0 0,0 0,0 0,0 0,0 0,0 0,0 0,0 0,0 0,0 0,0 0,0 0,0 0,0 0,0 0,0 0,0 0,0 0,0 0,0 0,0 "/><path stroke-width="20" d="M977,323c1,-3 1,-3 1,-6 0,0 0,0 0,0 "/><path stroke-width="20" d="M977,323c1,-3 1,-3 1,-6 0,0 0,0 0,0 "/><path stroke-width="21" d="M905,354c0,0 0,0 0,0 0,0 0,0 0,0 0,0 0,0 0,0 0,0 0,0 0,0 0,0 0,0 0,0 0,0 0,0 0,0 0,0 0,0 0,0 0,0 0,0 0,0 0,0 0,0 0,0 0,0 0,0 0,0 0,0 0,0 0,0 0,0 0,0 0,0 0,0 0,0 0,0 "/><path stroke-width="21" d="M905,354c0,0 0,0 0,0 0,0 0,0 0,0 0,0 0,0 0,0 0,0 0,0 0,0 0,0 0,0 0,0 0,0 0,0 0,0 0,0 0,0 0,0 0,0 0,0 0,0 0,0 0,0 0,0 0,0 0,0 0,0 0,0 0,0 0,0 0,0 0,0 0,0 0,0 0,0 0,0 "/><path stroke-width="21" d="M905,354c0,0 0,0 0,0 0,0 0,0 0,0 0,0 0,0 0,0 0,0 0,0 0,0 0,0 0,0 0,0 0,0 0,0 0,0 0,0 0,0 0,0 0,0 0,0 0,0 0,0 0,0 0,0 0,0 0,0 0,0 0,0 0,0 0,0 0,0 0,0 0,0 0,0 0,0 0,0 "/><path stroke-width="21" d="M466,414c0,0 0,0 0,0 0,0 0,0 0,0 0,0 0,0 0,0 0,0 0,0 0,0 "/><path stroke-width="21" d="M607,213c0,0 0,0 0,0 0,0 0,0 0,0 "/><path stroke-width="19" d="M607,213c-3,2 -4,1 -6,4 "/><path stroke-width="13" d="M601,217c-9,16 -7,17 -16,33 "/><path stroke-width="9" d="M585,250c-6,11 -6,11 -14,22 -7,10 -7,10 -15,19 "/><path stroke-width="10" d="M556,291c-5,6 -6,5 -12,10 "/><path stroke-width="12" d="M544,301c-3,3 -3,3 -5,5 "/><path stroke-width="17" d="M539,306c0,0 0,1 0,1 "/><path stroke-width="20" d="M362,478c0,0 0,0 0,0 "/><path stroke-width="21" d="M362,478c0,0 0,0 0,0 "/><path stroke-width="19" d="M362,478c5,-2 5,-1 10,-3 "/><path stroke-width="13" d="M372,475c17,-8 16,-9 33,-17 "/><path stroke-width="9" d="M405,458c11,-5 11,-4 23,-8 "/><path stroke-width="13" d="M428,450c0,0 0,0 0,0 "/><path stroke-width="19" d="M273,655c0,0 0,0 0,0 "/><path stroke-width="21" d="M273,655c0,0 0,0 0,0 "/><path stroke-width="15" d="M273,655c10,-6 10,-6 19,-11 "/><path stroke-width="14" d="M292,644c0,0 0,0 0,0 "/><path stroke-width="20" d="M239,846c0,0 0,0 0,0 "/><path stroke-width="21" d="M239,846c0,0 0,0 0,0 "/><path stroke-width="21" d="M229,1007c0,0 0,0 0,0 0,0 0,0 0,0 "/><path stroke-width="20" d="M229,1007c1,-1 1,0 1,-1 "/><path stroke-width="14" d="M230,1006c15,-23 15,-23 29,-46 "/><path stroke-width="9" d="M259,960c16,-27 16,-29 32,-55 "/><path stroke-width="12" d="M244,1315c0,0 0,0 0,0 "/><path stroke-width="15" d="M244,1315c2,-4 2,-4 3,-8 "/><path stroke-width="12" d="M247,1307c7,-23 8,-23 14,-47 "/><path stroke-width="9" d="M261,1260c14,-47 14,-51 25,-95 "/><path stroke-width="11" d="M410,1545c0,0 0,0 0,0 "/><path stroke-width="13" d="M410,1545c1,-6 1,-6 2,-11 "/><path stroke-width="11" d="M412,1534c4,-25 4,-25 8,-50 "/><path stroke-width="13" d="M420,1484c0,0 0,0 0,0 "/><path stroke-width="18" d="M864,1196c0,0 0,0 0,0 -1,-5 -1,-5 -2,-10 "/><path stroke-width="18" d="M911,1363c0,0 0,0 0,0 "/><path stroke-width="21" d="M911,1363c0,0 0,0 0,0 "/><path stroke-width="20" d="M911,1363c0,0 0,-1 0,-1 "/><path stroke-width="15" d="M911,1362c1,-10 1,-10 2,-20 "/><path stroke-width="14" d="M941,955c0,0 0,0 0,0 "/><path stroke-width="16" d="M941,955c2,-10 1,-10 3,-21 "/><path stroke-width="11" d="M944,934c5,-20 6,-20 12,-41 "/><path stroke-width="9" d="M956,893c7,-24 7,-26 13,-48 "/><path stroke-width="13" d="M848,491c0,0 0,0 0,0 "/><path stroke-width="18" d="M848,491c0,0 0,0 0,0 "/><path stroke-width="21" d="M848,491c0,0 0,0 0,0 "/><path stroke-width="15" d="M848,491c1,-13 0,-14 3,-27 "/><path stroke-width="9" d="M851,464c2,-9 3,-9 7,-18 "/><path stroke-width="14" d="M585,666c0,0 0,0 0,0 "/><path stroke-width="17" d="M585,666c-7,-5 -7,-4 -15,-9 0,0 0,-1 -1,-1 "/><path stroke-width="19" d="M144,221c0,0 0,0 0,0 -2,2 -2,2 -3,4 "/><path stroke-width="13" d="M141,225c-7,15 -6,16 -12,31 "/><path stroke-width="13" d="M110,546c0,0 0,0 0,0 "/><path stroke-width="18" d="M110,546c0,4 0,4 -1,7 "/><path stroke-width="19" d="M132,826c0,0 0,0 0,0 "/><path stroke-width="21" d="M132,826c0,0 0,0 0,0 0,0 0,0 0,0 "/><path stroke-width="15" d="M132,826c-2,12 -2,12 -4,23 "/><path stroke-width="14" d="M136,1360c0,0 0,0 0,0 "/><path stroke-width="19" d="M136,1360c0,0 0,0 0,0 "/><path stroke-width="21" d="M265,1639c0,0 0,0 0,0 1,-1 1,-1 2,-3 "/><path stroke-width="20" d="M267,1636c0,0 0,0 0,0 "/><path stroke-width="21" d="M592,1660c0,0 0,0 0,0 0,0 0,0 0,0 "/><path stroke-width="21" d="M561,1673c0,0 0,0 0,0 "/><path stroke-width="21" d="M548,1637c0,0 0,0 0,0 0,0 0,0 0,0 0,0 0,0 0,0 0,0 0,0 0,0 "/><path stroke-width="17" d="M548,1637c7,1 7,1 15,1 "/><path stroke-width="16" d="M563,1638c0,0 0,0 0,0 "/><path stroke-width="20" d="M883,1639c0,0 0,0 0,0 1,-3 2,-3 3,-6 "/><path stroke-width="16" d="M886,1633c2,-4 1,-4 3,-8 "/><path stroke-width="16" d="M806,233c0,0 0,0 0,0 "/><path stroke-width="20" d="M806,233c0,0 0,0 0,0 "/><path stroke-width="21" d="M806,233c0,0 0,0 0,0 "/><path stroke-width="21" d="M841,93c0,0 0,0 0,0 0,0 0,0 0,0 0,0 0,0 0,0 "/><path stroke-width="18" d="M841,93c-1,3 -1,3 -2,6 "/><path stroke-width="13" d="M839,99c-4,10 -3,10 -7,20 "/><path stroke-width="10" d="M832,119c-4,10 -5,10 -9,20 -4,8 -5,7 -8,15 "/><path stroke-width="9" d="M815,154c-3,8 -3,9 -5,16 "/></g></svg>