<?xml version="1.0" encoding="UTF-8" standalone="no"?>
<svg xmlns="http://www.w3.org/2000/svg" version="1.2" baseProfile="tiny" height="1771" width="1080"><g stroke-linejoin="round" stroke-linecap="round" fill="none" stroke="black"><path stroke-width="16" d="M730,414c0,0 0,0 0,0 "/><path stroke-width="17" d="M730,414c-3,-3 -2,-3 -5,-5 "/><path stroke-width="12" d="M725,409c-13,-10 -13,-10 -26,-19 "/><path stroke-width="8" d="M699,390c-37,-26 -38,-26 -75,-51 -22,-15 -21,-16 -44,-31 -11,-7 -11,-7 -22,-13 "/><path stroke-width="9" d="M558,295c-5,-2 -6,-2 -11,-4 "/><path stroke-width="11" d="M547,291c-4,-2 -4,-2 -8,-3 -5,-1 -5,-1 -11,-2 "/><path stroke-width="10" d="M528,286c-9,0 -9,0 -19,1 "/><path stroke-width="8" d="M509,287c-19,1 -19,1 -38,4 -30,4 -30,3 -59,9 -27,6 -28,5 -53,15 -21,7 -21,8 -40,19 -13,9 -13,9 -24,20 -10,10 -9,10 -17,21 -9,13 -10,12 -18,26 -8,14 -9,14 -14,30 -6,16 -7,16 -8,33 0,15 0,16 6,31 8,21 8,22 21,40 17,23 18,23 38,44 24,24 24,24 50,46 28,25 28,24 57,48 29,24 29,24 58,47 26,21 26,21 51,42 22,18 21,18 42,36 18,14 19,13 36,28 16,14 16,15 31,30 11,11 11,10 21,22 8,11 9,11 15,23 8,14 8,14 13,29 3,12 2,12 3,25 1,10 1,10 0,21 -1,10 -1,10 -4,20 -3,9 -3,9 -8,16 "/><path stroke-width="9" d="M668,1012c-4,8 -4,8 -10,15 -6,7 -6,7 -13,13 "/><path stroke-width="8" d="M645,1040c-8,7 -7,8 -16,12 -11,6 -11,6 -23,9 -17,3 -17,2 -33,3 -19,2 -19,2 -39,2 -20,0 -20,0 -41,-1 -21,-1 -21,-2 -42,-4 -19,-3 -20,-2 -39,-6 -18,-4 -18,-4 -36,-11 -15,-5 -15,-5 -29,-13 -12,-7 -13,-7 -24,-16 -11,-9 -11,-9 -20,-20 -10,-11 -10,-11 -17,-24 -10,-17 -9,-18 -15,-37 -8,-21 -8,-21 -14,-43 -5,-21 -5,-22 -8,-43 -3,-22 -3,-22 -5,-44 -2,-21 -2,-21 -3,-42 0,-20 0,-20 1,-40 0,-17 0,-17 0,-33 0,-17 -2,-17 -2,-34 0,-10 1,-10 2,-20 "/><path stroke-width="10" d="M242,635c0,-3 -1,-3 0,-6 "/><path stroke-width="14" d="M242,629c1,-1 1,-1 2,-1 "/><path stroke-width="16" d="M244,628c1,-1 1,0 1,-1 "/><path stroke-width="17" d="M245,627c1,0 1,0 0,0 0,0 0,0 0,1 0,0 0,0 -1,0 0,0 1,0 1,0 "/><path stroke-width="18" d="M245,628c0,0 0,0 0,1 1,0 0,0 0,0 1,0 1,0 1,0 "/><path stroke-width="17" d="M246,629c0,0 -1,0 -1,0 0,0 0,0 0,0 "/><path stroke-width="18" d="M245,629c0,0 0,1 0,1 "/><path stroke-width="17" d="M245,630c1,0 1,0 1,0 1,0 1,0 1,0 1,0 1,0 1,0 1,0 1,0 1,0 0,1 0,1 1,1 "/><path stroke-width="18" d="M250,631c0,0 0,0 0,0 1,0 1,0 1,0 1,0 1,0 1,0 "/><path stroke-width="17" d="M252,631c1,0 1,1 3,1 "/><path stroke-width="15" d="M255,632c3,1 3,0 6,1 "/><path stroke-width="12" d="M261,633c6,1 6,1 13,2 "/><path stroke-width="10" d="M274,635c8,1 8,1 16,3 "/><path stroke-width="9" d="M290,638c11,1 11,1 21,3 "/><path stroke-width="8" d="M311,641c13,2 13,3 25,5 15,4 15,3 30,7 26,5 26,5 52,11 27,6 27,6 53,13 23,6 23,6 45,12 16,4 16,3 32,7 11,4 11,4 20,9 9,4 8,4 16,9 "/><path stroke-width="9" d="M584,714c6,3 6,3 11,6 "/><path stroke-width="11" d="M595,720c5,1 5,1 9,2 6,2 6,2 11,5 5,3 5,3 10,6 5,2 5,2 9,5 4,2 4,2 8,5 "/><path stroke-width="12" d="M642,743c3,1 3,1 6,3 "/><path stroke-width="13" d="M648,746c3,2 3,2 5,3 2,2 2,2 4,3 "/><path stroke-width="14" d="M657,752c2,2 2,2 4,3 2,0 2,0 3,1 "/><path stroke-width="16" d="M664,756c1,0 1,0 2,0 "/><path stroke-width="17" d="M666,756c0,0 0,1 0,1 0,0 -1,-1 -1,-1 0,0 1,0 1,0 0,0 0,0 0,1 "/><path stroke-width="18" d="M666,757c0,0 0,0 0,0 "/></g></svg>