<?xml version="1.0" encoding="UTF-8" standalone="no"?>
<svg xmlns="http://www.w3.org/2000/svg" version="1.2" baseProfile="tiny" height="1863" width="1080"><g stroke-linejoin="round" stroke-linecap="round" fill="none" stroke="black"><path stroke-width="18" d="M460,1344c0,0 0,0 0,0 "/><path stroke-width="15" d="M460,1344c8,-30 11,-29 17,-60 "/><path stroke-width="9" d="M477,1284c7,-47 10,-48 9,-96 -2,-84 -6,-84 -15,-167 -7,-62 -5,-62 -18,-122 -9,-43 -10,-43 -26,-84 -15,-39 -15,-40 -36,-76 -21,-38 -22,-37 -48,-72 -25,-33 -26,-32 -53,-63 -18,-22 -18,-22 -37,-44 -12,-14 -12,-14 -23,-29 -8,-10 -6,-11 -15,-21 "/><path stroke-width="10" d="M215,510c-4,-4 -4,-4 -9,-7 "/><path stroke-width="14" d="M206,503c-2,-1 -2,-1 -3,-2 "/><path stroke-width="18" d="M203,501c-1,0 -2,-1 -1,-1 "/><path stroke-width="14" d="M202,500c42,32 45,31 86,67 "/><path stroke-width="9" d="M288,567c75,64 78,61 147,131 60,60 63,60 112,128 31,43 29,46 49,94 15,38 13,39 21,78 5,25 4,26 4,51 0,15 -1,16 -3,31 -2,14 -3,14 -6,28 "/><path stroke-width="10" d="M612,1108c-2,7 -2,7 -5,14 "/><path stroke-width="14" d="M607,1122c-1,2 -1,2 -2,3 "/></g></svg>