<?xml version="1.0" encoding="UTF-8" standalone="no"?>
<svg xmlns="http://www.w3.org/2000/svg" version="1.2" baseProfile="tiny" height="1771" width="1080"><g stroke-linejoin="round" stroke-linecap="round" fill="none" stroke="black"><path stroke-width="16" d="M343,693c0,0 0,0 0,0 "/><path stroke-width="17" d="M343,693c1,1 1,1 1,1 1,1 1,1 1,1 "/><path stroke-width="15" d="M345,695c1,3 1,3 2,6 "/><path stroke-width="10" d="M347,701c2,17 1,18 3,35 "/><path stroke-width="8" d="M350,736c5,35 6,34 12,69 7,34 7,34 12,69 5,35 5,35 9,70 3,33 3,33 6,65 2,28 0,29 3,56 3,22 4,21 7,43 3,15 1,15 5,29 "/><path stroke-width="9" d="M404,1137c1,4 3,4 6,7 "/><path stroke-width="13" d="M410,1144c1,0 1,-1 1,-1 "/><path stroke-width="16" d="M200,769c0,0 0,0 0,0 "/><path stroke-width="17" d="M200,769c-1,-1 -1,-1 -2,-2 "/><path stroke-width="15" d="M198,767c-1,-1 -1,-1 -2,-2 "/><path stroke-width="14" d="M196,765c-2,-3 -2,-2 -4,-5 -1,-2 -3,-1 -3,-4 "/><path stroke-width="12" d="M189,756c1,-7 0,-9 4,-15 "/><path stroke-width="9" d="M193,741c25,-34 25,-36 56,-66 "/><path stroke-width="8" d="M249,675c47,-45 48,-45 99,-85 51,-41 51,-41 105,-77 43,-29 43,-30 88,-54 29,-15 30,-16 61,-24 17,-4 22,-4 36,1 6,3 3,8 6,16 "/><path stroke-width="12" d="M528,670c0,0 0,0 0,0 "/><path stroke-width="17" d="M528,670c0,0 0,0 0,0 0,1 0,1 0,2 "/><path stroke-width="16" d="M528,672c0,2 0,2 -1,4 "/><path stroke-width="11" d="M527,676c-10,22 -11,21 -21,44 "/><path stroke-width="8" d="M506,720c-18,42 -21,41 -35,85 -10,36 -11,37 -13,74 -1,31 -2,33 6,63 7,25 8,27 24,46 13,16 15,19 34,25 18,7 22,8 39,1 20,-7 23,-10 35,-29 14,-23 9,-26 16,-54 4,-15 2,-16 5,-32 "/><path stroke-width="11" d="M537,828c0,0 0,0 0,0 "/><path stroke-width="14" d="M537,828c-4,1 -4,1 -8,2 "/><path stroke-width="13" d="M529,830c-3,1 -3,1 -6,2 "/><path stroke-width="11" d="M523,832c-7,1 -7,2 -15,2 "/><path stroke-width="9" d="M508,834c-8,1 -10,3 -17,1 "/><path stroke-width="11" d="M491,835c-2,0 -1,-3 1,-4 15,-16 16,-15 32,-31 "/><path stroke-width="8" d="M524,800c37,-39 37,-39 74,-79 30,-33 30,-33 60,-67 16,-17 16,-17 32,-34 "/><path stroke-width="9" d="M690,620c4,-5 4,-5 7,-10 "/><path stroke-width="12" d="M697,610c0,0 0,-1 -1,-1 "/><path stroke-width="13" d="M696,609c-5,3 -5,4 -10,8 "/><path stroke-width="9" d="M686,617c-13,15 -14,14 -26,30 "/><path stroke-width="8" d="M660,647c-19,28 -21,27 -35,57 -12,25 -12,26 -17,53 -4,24 -5,26 -1,49 4,19 6,20 18,36 12,15 14,15 31,25 13,8 14,7 29,11 10,3 10,1 20,3 "/><path stroke-width="11" d="M705,881c2,0 3,0 3,1 "/><path stroke-width="15" d="M708,882c0,0 0,1 -1,1 "/><path stroke-width="13" d="M707,883c-6,4 -6,4 -13,7 "/><path stroke-width="9" d="M694,890c-11,4 -11,6 -22,6 "/><path stroke-width="8" d="M672,896c-12,1 -15,2 -25,-5 -14,-10 -17,-12 -22,-28 -10,-32 -11,-35 -8,-68 2,-33 3,-35 17,-64 10,-21 12,-22 30,-37 14,-12 16,-12 34,-15 14,-3 18,-5 30,1 12,6 14,10 18,23 9,27 6,29 8,58 3,34 3,34 2,68 -1,29 -1,29 -5,58 -2,13 -1,14 -5,25 "/><path stroke-width="10" d="M746,912c-2,4 -4,5 -7,4 -10,-3 -11,-4 -19,-13 "/><path stroke-width="8" d="M720,903c-18,-21 -19,-21 -33,-46 -15,-25 -13,-27 -26,-54 -7,-15 -8,-15 -14,-30 -2,-7 -2,-7 -3,-15 "/><path stroke-width="10" d="M644,758c0,-5 0,-6 2,-11 "/><path stroke-width="9" d="M646,747c5,-12 5,-12 11,-22 "/><path stroke-width="8" d="M657,725c20,-31 20,-31 42,-60 35,-45 35,-46 73,-89 44,-50 45,-49 91,-98 "/><path stroke-width="9" d="M863,478c0,-1 0,-1 0,-1 "/></g></svg>