<?xml version="1.0" encoding="UTF-8" standalone="no"?>
<svg xmlns="http://www.w3.org/2000/svg" version="1.2" baseProfile="tiny" height="1771" width="1080"><g stroke-linejoin="round" stroke-linecap="round" fill="none" stroke="black"><path stroke-width="16" d="M806,553c0,0 0,0 0,0 -1,-3 -1,-3 -1,-6 "/><path stroke-width="14" d="M805,547c-1,-2 -1,-3 -3,-5 "/><path stroke-width="11" d="M802,542c-7,-9 -6,-10 -15,-18 "/><path stroke-width="8" d="M787,524c-28,-27 -26,-29 -58,-51 -38,-27 -39,-27 -80,-48 -41,-20 -42,-19 -85,-34 -33,-12 -33,-11 -67,-19 -17,-4 -17,-3 -34,-4 -7,0 -7,1 -14,3 "/><path stroke-width="10" d="M449,371c-6,1 -6,1 -11,4 "/><path stroke-width="9" d="M438,375c-9,5 -10,5 -18,12 "/><path stroke-width="8" d="M420,387c-16,13 -18,12 -29,29 -15,22 -17,23 -24,49 -6,27 -5,29 -1,57 4,36 7,36 18,71 15,44 18,43 33,88 16,47 17,47 31,94 14,52 16,52 26,105 10,51 10,52 15,103 5,46 6,47 5,92 -2,37 -3,37 -10,73 -5,27 -6,27 -15,53 -5,16 -7,15 -15,31 -3,7 -3,7 -7,14 "/><path stroke-width="10" d="M447,1246c-2,3 -1,3 -4,5 "/><path stroke-width="12" d="M443,1251c-4,3 -5,3 -9,4 "/><path stroke-width="11" d="M434,1255c-7,2 -7,2 -14,3 "/><path stroke-width="9" d="M420,1258c-14,0 -14,0 -28,-2 "/><path stroke-width="8" d="M392,1256c-25,-3 -25,-3 -50,-9 -23,-7 -24,-6 -46,-16 -13,-6 -13,-6 -23,-16 -7,-6 -7,-6 -11,-14 -7,-15 -7,-16 -11,-32 -5,-23 -6,-24 -8,-47 -2,-22 0,-22 0,-44 1,-22 -2,-23 2,-45 6,-26 8,-26 18,-52 11,-28 10,-29 24,-54 17,-29 16,-31 38,-55 26,-28 26,-31 59,-50 38,-22 40,-21 83,-31 41,-9 42,-6 85,-7 32,-1 32,2 65,4 20,0 20,0 40,0 13,0 13,1 25,-1 14,-2 15,-1 28,-6 23,-8 23,-10 46,-19 "/><path stroke-width="11" d="M756,762c0,0 0,0 0,0 "/></g></svg>