<?xml version="1.0" encoding="UTF-8" standalone="no"?>
<svg xmlns="http://www.w3.org/2000/svg" version="1.2" baseProfile="tiny" height="1863" width="1080"><g stroke-linejoin="round" stroke-linecap="round" fill="none" stroke="black"><path stroke-width="18" d="M488,1403c0,0 0,0 0,0 "/><path stroke-width="21" d="M488,1403c0,0 0,0 0,0 "/><path stroke-width="16" d="M488,1403c-2,-17 -3,-17 -4,-35 "/><path stroke-width="10" d="M484,1368c-2,-38 -4,-38 -2,-75 "/><path stroke-width="9" d="M482,1293c3,-53 3,-53 11,-105 8,-52 7,-53 20,-104 14,-56 13,-57 33,-111 17,-47 17,-47 41,-91 21,-39 22,-38 49,-73 19,-26 20,-26 43,-48 18,-19 19,-19 39,-35 16,-12 16,-12 34,-22 11,-6 11,-8 24,-10 14,-3 16,-4 29,-1 "/><path stroke-width="10" d="M805,693c7,2 11,3 11,9 2,17 1,21 -7,37 "/><path stroke-width="9" d="M809,739c-18,40 -20,40 -44,77 -32,48 -33,48 -66,94 -35,47 -37,46 -72,94 -33,45 -32,46 -65,92 -26,37 -25,38 -51,75 -18,25 -19,25 -38,49 -10,13 -10,14 -21,25 -6,7 -8,6 -14,11 "/><path stroke-width="9" d="M809,739c-18,40 -20,40 -44,77 -32,48 -33,48 -66,94 -35,47 -37,46 -72,94 -33,45 -32,46 -65,92 -26,37 -25,38 -51,75 -18,25 -19,25 -38,49 -10,13 -10,14 -21,25 -6,7 -8,6 -14,11 "/><path stroke-width="9" d="M809,739c-18,40 -20,40 -44,77 -32,48 -33,48 -66,94 -35,47 -37,46 -72,94 -33,45 -32,46 -65,92 -26,37 -25,38 -51,75 -18,25 -19,25 -38,49 -10,13 -10,14 -21,25 -6,7 -8,6 -14,11 "/><path stroke-width="14" d="M780,1549c0,0 0,0 0,0 "/><path stroke-width="20" d="M780,1549c0,0 0,0 0,0 "/><path stroke-width="15" d="M780,1549c-14,-14 -17,-11 -28,-27 "/><path stroke-width="9" d="M752,1522c-32,-47 -32,-48 -59,-98 -26,-51 -28,-51 -47,-104 -19,-49 -19,-50 -29,-101 -7,-39 -6,-39 -6,-79 0,-35 0,-35 5,-70 4,-27 4,-28 13,-54 9,-26 8,-27 22,-51 21,-33 21,-34 48,-63 35,-38 36,-37 76,-70 45,-36 46,-37 95,-68 33,-21 35,-19 70,-37 19,-9 19,-9 39,-17 12,-5 13,-4 25,-8 "/><path stroke-width="11" d="M1004,702c4,-1 4,-1 7,-2 "/><path stroke-width="16" d="M1011,700c1,0 2,0 2,0 "/><path stroke-width="14" d="M1013,700c-23,20 -23,24 -49,42 "/><path stroke-width="9" d="M964,742c-70,49 -76,41 -143,93 -90,68 -92,68 -172,148 -75,75 -76,76 -139,163 -43,59 -41,61 -72,127 -20,43 -16,45 -30,89 -4,13 -4,13 -7,25 -4,14 -4,14 -8,28 "/><path stroke-width="13" d="M393,1415c0,0 0,0 0,0 "/><path stroke-width="13" d="M393,1415c0,0 0,0 0,0 "/><path stroke-width="19" d="M0,1433c0,0 0,0 0,0 "/><path stroke-width="21" d="M10,1032c0,0 0,0 0,0 0,0 0,0 0,0 0,0 0,0 0,0 0,0 0,0 0,0 0,0 0,0 0,0 0,0 0,0 0,0 0,0 0,0 0,0 0,0 0,0 0,0 0,0 0,0 0,0 0,0 0,0 0,0 "/><path stroke-width="21" d="M1068,1246c0,0 0,0 0,0 0,0 0,0 0,0 0,0 0,0 0,0 0,0 0,0 0,0 0,0 0,0 0,0 0,0 0,0 0,0 0,0 0,0 0,0 0,0 0,0 0,0 0,0 0,0 0,0 0,0 0,0 0,0 0,0 0,0 0,0 0,0 0,0 0,0 0,0 0,0 0,0 0,0 0,0 0,0 0,0 0,0 0,0 0,0 0,0 0,0 0,0 0,0 0,0 0,0 0,0 0,0 0,0 0,0 0,0 0,0 0,0 0,0 0,0 0,0 0,0 0,0 0,0 0,0 0,0 0,0 0,0 0,0 0,0 0,0 0,0 0,0 0,0 0,0 0,0 0,0 0,0 0,0 0,0 0,0 0,0 0,0 0,0 0,0 0,0 0,0 0,0 0,0 0,0 0,0 0,0 0,0 0,0 0,0 0,0 0,0 0,0 0,0 0,0 0,0 0,0 0,0 0,0 0,0 0,0 0,0 0,0 0,0 0,0 0,0 0,0 0,0 "/><path stroke-width="21" d="M1068,1246c0,0 0,0 0,0 0,0 0,0 0,0 0,0 0,0 0,0 0,0 0,0 0,0 0,0 0,0 0,0 0,0 0,0 0,0 0,0 0,0 0,0 0,0 0,0 0,0 0,0 0,0 0,0 0,0 0,0 0,0 0,0 0,0 0,0 0,0 0,0 0,0 0,0 0,0 0,0 0,0 0,0 0,0 0,0 0,0 0,0 0,0 0,0 0,0 0,0 0,0 0,0 0,0 0,0 0,0 0,0 0,0 0,0 0,0 0,0 0,0 0,0 0,0 0,0 0,0 0,0 0,0 0,0 0,0 0,0 0,0 0,0 0,0 0,0 0,0 0,0 0,0 0,0 0,0 0,0 0,0 0,0 0,0 0,0 0,0 0,0 0,0 0,0 0,0 0,0 0,0 0,0 0,0 0,0 0,0 0,0 0,0 0,0 0,0 0,0 0,0 0,0 0,0 0,0 0,0 0,0 0,0 0,0 0,0 0,0 0,0 0,0 0,0 0,0 0,0 "/><path stroke-width="21" d="M1068,1246c0,0 0,0 0,0 0,0 0,0 0,0 0,0 0,0 0,0 0,0 0,0 0,0 0,0 0,0 0,0 0,0 0,0 0,0 0,0 0,0 0,0 0,0 0,0 0,0 0,0 0,0 0,0 0,0 0,0 0,0 0,0 0,0 0,0 0,0 0,0 0,0 0,0 0,0 0,0 0,0 0,0 0,0 0,0 0,0 0,0 0,0 0,0 0,0 0,0 0,0 0,0 0,0 0,0 0,0 0,0 0,0 0,0 0,0 0,0 0,0 0,0 0,0 0,0 0,0 0,0 0,0 0,0 0,0 0,0 0,0 0,0 0,0 0,0 0,0 0,0 0,0 0,0 0,0 0,0 0,0 0,0 0,0 0,0 0,0 0,0 0,0 0,0 0,0 0,0 0,0 0,0 0,0 0,0 0,0 0,0 0,0 0,0 0,0 0,0 0,0 0,0 0,0 0,0 0,0 0,0 0,0 0,0 0,0 0,0 0,0 0,0 0,0 0,0 0,0 "/><path stroke-width="21" d="M977,323c0,0 0,0 0,0 0,0 0,0 0,0 0,0 0,0 0,0 0,0 0,0 0,0 0,0 0,0 0,0 0,0 0,0 0,0 0,0 0,0 0,0 0,0 0,0 0,0 0,0 0,0 0,0 "/><path stroke-width="20" d="M977,323c1,-3 1,-3 1,-6 0,0 0,0 0,0 "/><path stroke-width="20" d="M977,323c1,-3 1,-3 1,-6 0,0 0,0 0,0 "/><path stroke-width="21" d="M905,354c0,0 0,0 0,0 0,0 0,0 0,0 0,0 0,0 0,0 0,0 0,0 0,0 0,0 0,0 0,0 0,0 0,0 0,0 0,0 0,0 0,0 0,0 0,0 0,0 0,0 0,0 0,0 0,0 0,0 0,0 0,0 0,0 0,0 0,0 0,0 0,0 0,0 0,0 0,0 "/></g></svg>