<?xml version="1.0" encoding="UTF-8" standalone="no"?>
<svg xmlns="http://www.w3.org/2000/svg" version="1.2" baseProfile="tiny" height="1771" width="1080"><g stroke-linejoin="round" stroke-linecap="round" fill="none" stroke="black"><path stroke-width="16" d="M799,350c0,0 0,0 0,0 "/><path stroke-width="17" d="M799,350c0,-3 0,-3 -1,-5 "/><path stroke-width="15" d="M798,345c-1,-1 0,-2 -1,-2 -1,-1 -2,-2 -3,-2 "/><path stroke-width="14" d="M794,341c-3,1 -3,1 -6,3 "/><path stroke-width="10" d="M788,344c-31,18 -32,16 -62,36 "/><path stroke-width="8" d="M726,380c-54,37 -55,36 -105,77 -47,39 -47,39 -89,83 -44,45 -44,45 -82,96 -39,53 -40,53 -72,110 -30,55 -32,55 -53,113 -18,50 -20,52 -25,105 -4,43 -3,45 7,87 9,35 10,39 33,67 24,30 29,28 63,49 35,22 37,20 76,37 38,17 39,16 78,32 38,16 39,14 75,32 32,16 34,14 61,36 20,16 23,17 34,40 9,20 9,24 4,46 -5,26 -8,28 -24,50 -22,31 -23,30 -51,57 -31,30 -32,29 -66,56 -34,27 -35,27 -71,52 -35,24 -35,24 -71,47 -40,25 -41,24 -82,49 "/><path stroke-width="10" d="M366,1701c0,0 0,0 0,0 "/></g></svg>