<?xml version="1.0" encoding="UTF-8" standalone="no"?>
<svg xmlns="http://www.w3.org/2000/svg" version="1.2" baseProfile="tiny" height="1835" width="1080"><g stroke-linejoin="round" stroke-linecap="round" fill="none" stroke="black"><path stroke-width="18" d="M469,988c0,0 0,0 0,0 "/><path stroke-width="20" d="M469,988c-1,0 -1,0 -1,0 "/><path stroke-width="18" d="M468,988c-4,0 -4,0 -8,0 "/><path stroke-width="14" d="M460,988c-7,1 -7,0 -14,2 "/><path stroke-width="12" d="M446,990c-8,1 -8,0 -15,4 "/><path stroke-width="10" d="M431,994c-15,8 -15,8 -28,19 -7,5 -6,6 -10,14 "/><path stroke-width="12" d="M393,1027c-4,8 -5,10 -6,17 "/><path stroke-width="15" d="M387,1044c-1,1 2,-1 3,-2 6,-6 7,-6 11,-13 "/><path stroke-width="11" d="M401,1029c27,-42 27,-41 51,-85 "/><path stroke-width="9" d="M452,944c12,-23 11,-23 21,-48 15,-38 15,-38 29,-77 "/><path stroke-width="10" d="M502,819c3,-9 3,-9 6,-18 "/><path stroke-width="12" d="M508,801c2,-6 4,-11 6,-13 "/><path stroke-width="15" d="M514,788c0,-1 0,4 0,8 "/><path stroke-width="14" d="M514,796c0,6 0,6 0,13 "/><path stroke-width="12" d="M514,809c0,7 -1,7 0,14 0,6 -1,7 1,13 "/><path stroke-width="14" d="M515,836c0,3 0,5 2,7 "/><path stroke-width="15" d="M517,843c2,1 4,1 6,-1 "/><path stroke-width="12" d="M523,842c9,-8 9,-9 16,-20 "/><path stroke-width="9" d="M539,822c14,-23 14,-23 26,-48 19,-37 17,-38 35,-75 9,-18 9,-18 18,-36 "/></g></svg>