<?xml version="1.0" encoding="UTF-8" standalone="no"?>
<svg xmlns="http://www.w3.org/2000/svg" version="1.2" baseProfile="tiny" height="1863" width="1080"><g stroke-linejoin="round" stroke-linecap="round" fill="none" stroke="black"><path stroke-width="18" d="M559,1358c0,0 0,0 0,0 "/><path stroke-width="19" d="M559,1358c-3,0 -3,1 -6,1 "/><path stroke-width="13" d="M553,1359c-16,0 -16,2 -32,-1 "/><path stroke-width="9" d="M521,1358c-23,-4 -27,0 -46,-12 -23,-15 -25,-17 -39,-41 -21,-38 -22,-40 -30,-83 -11,-54 -9,-56 -6,-111 4,-65 6,-66 20,-129 17,-71 19,-71 43,-141 23,-67 22,-68 52,-133 28,-58 29,-58 63,-112 27,-44 27,-44 59,-84 26,-32 27,-32 57,-61 18,-18 19,-19 39,-33 12,-9 13,-11 26,-13 10,-2 13,-1 21,5 10,8 14,10 15,23 2,29 2,33 -10,61 -24,59 -28,59 -63,113 -44,70 -48,68 -96,136 -50,70 -53,69 -101,140 -45,68 -44,69 -86,139 -36,60 -36,60 -70,121 -29,51 -28,52 -56,104 -22,41 -21,41 -44,81 -14,25 -15,25 -29,49 -7,13 -6,13 -13,25 "/><path stroke-width="11" d="M227,1402c-2,4 -2,4 -5,7 "/><path stroke-width="15" d="M222,1409c-1,1 -1,1 -2,1 "/></g></svg>