<?xml version="1.0" encoding="UTF-8" standalone="no"?>
<svg xmlns="http://www.w3.org/2000/svg" version="1.2" baseProfile="tiny" height="1835" width="1080"><g stroke-linejoin="round" stroke-linecap="round" fill="none" stroke="black"><path stroke-width="18" d="M507,1120c0,0 0,0 0,0 "/><path stroke-width="20" d="M507,1120c-1,0 -1,0 -2,-1 0,0 0,1 -1,0 0,0 0,0 -1,-1 "/><path stroke-width="18" d="M503,1118c-2,-4 -3,-3 -5,-7 "/><path stroke-width="16" d="M498,1111c-1,-3 -1,-3 -2,-5 "/><path stroke-width="15" d="M496,1106c-1,-5 -1,-5 -2,-10 "/><path stroke-width="13" d="M494,1096c-2,-7 -2,-7 -4,-14 "/><path stroke-width="10" d="M490,1082c-4,-20 -3,-20 -8,-39 "/><path stroke-width="9" d="M482,1043c-3,-11 -3,-11 -6,-22 "/><path stroke-width="10" d="M476,1021c-3,-10 -3,-10 -7,-18 -9,-16 -9,-17 -20,-31 "/><path stroke-width="11" d="M449,972c-4,-5 -4,-7 -10,-8 "/><path stroke-width="12" d="M439,964c-10,-2 -13,-3 -23,2 "/><path stroke-width="10" d="M416,966c-14,7 -14,9 -24,22 "/><path stroke-width="9" d="M392,988c-9,12 -10,13 -14,27 -10,29 -12,30 -15,60 -1,12 1,13 5,25 8,19 8,21 20,37 "/><path stroke-width="10" d="M388,1137c5,7 7,6 15,8 9,2 10,2 19,0 12,-3 12,-4 24,-9 "/><path stroke-width="9" d="M446,1136c16,-8 16,-8 31,-18 14,-9 14,-9 28,-20 15,-10 14,-11 28,-22 12,-9 12,-9 25,-18 10,-8 10,-9 21,-16 9,-5 9,-6 19,-9 "/><path stroke-width="10" d="M598,1033c5,-2 6,-2 12,-1 "/><path stroke-width="13" d="M610,1032c1,1 1,2 2,4 "/><path stroke-width="14" d="M612,1036c1,5 1,5 2,11 "/><path stroke-width="12" d="M614,1047c0,6 0,6 -1,12 0,5 0,5 -1,11 "/><path stroke-width="14" d="M612,1070c0,3 1,5 -1,6 "/><path stroke-width="16" d="M611,1076c0,1 -1,-1 -2,-2 -1,-3 -1,-3 -1,-7 "/><path stroke-width="12" d="M608,1067c0,-11 0,-11 2,-23 "/><path stroke-width="9" d="M610,1044c2,-21 2,-21 6,-42 6,-27 7,-27 15,-54 9,-31 9,-31 20,-61 12,-35 13,-35 25,-69 14,-39 16,-47 26,-78 "/></g></svg>