<?xml version="1.0" encoding="UTF-8" standalone="no"?>
<svg xmlns="http://www.w3.org/2000/svg" version="1.2" baseProfile="tiny" height="1192" width="720"><g stroke-linejoin="round" stroke-linecap="round" fill="none" stroke="black"><path stroke-width="12" d="M369,799c0,0 0,0 0,0 "/><path stroke-width="14" d="M369,799c0,0 0,0 1,0 "/><path stroke-width="12" d="M370,799c2,-3 2,-3 4,-6 "/><path stroke-width="9" d="M374,793c4,-7 4,-7 7,-15 "/><path stroke-width="7" d="M381,778c5,-13 4,-13 8,-26 "/><path stroke-width="6" d="M389,752c6,-19 6,-19 10,-37 5,-21 5,-21 8,-42 3,-22 3,-22 5,-44 2,-20 2,-20 3,-40 1,-17 2,-17 1,-34 0,-20 1,-20 -3,-39 -4,-24 -5,-24 -13,-47 -8,-21 -8,-21 -19,-42 -9,-20 -10,-20 -21,-38 -11,-17 -10,-17 -23,-32 -10,-14 -10,-14 -22,-26 -10,-9 -10,-9 -21,-17 -7,-5 -7,-5 -15,-8 "/><path stroke-width="7" d="M279,306c-6,-2 -6,-1 -13,-2 "/><path stroke-width="8" d="M266,304c-6,0 -6,0 -12,0 -6,0 -6,1 -12,2 -7,1 -7,0 -14,2 -5,2 -6,2 -10,6 -4,4 -5,5 -6,11 -1,8 -1,9 1,18 "/><path stroke-width="7" d="M213,343c4,16 5,16 11,33 "/><path stroke-width="6" d="M224,376c7,19 8,19 16,37 10,22 10,22 21,43 12,26 12,26 25,52 13,25 12,26 27,49 10,16 10,17 23,31 10,11 10,11 21,19 "/><path stroke-width="7" d="M357,607c7,5 7,6 15,8 9,2 10,2 20,0 "/><path stroke-width="6" d="M392,615c13,-2 14,-1 26,-7 14,-7 14,-8 26,-18 14,-10 14,-10 26,-22 8,-8 8,-9 15,-17 "/><path stroke-width="7" d="M485,551c3,-4 3,-4 6,-7 "/></g></svg>