<?xml version="1.0" encoding="UTF-8" standalone="no"?>
<svg xmlns="http://www.w3.org/2000/svg" version="1.2" baseProfile="tiny" height="1192" width="720"><g stroke-linejoin="round" stroke-linecap="round" fill="none" stroke="black"><path stroke-width="12" d="M132,845c0,0 0,0 0,0 "/><path stroke-width="14" d="M132,845c0,0 0,0 0,0 -1,0 -1,0 -1,0 0,0 0,0 0,0 0,0 0,0 0,0 0,0 0,0 0,0 0,1 0,1 0,2 "/><path stroke-width="13" d="M150,629c0,0 0,0 0,0 "/><path stroke-width="14" d="M150,629c0,0 1,0 1,-1 "/><path stroke-width="13" d="M151,628c0,-1 -1,-1 0,-2 0,-1 1,0 1,-1 0,-1 0,-1 0,-2 "/><path stroke-width="12" d="M152,623c0,-1 0,-1 1,-2 "/><path stroke-width="13" d="M153,621c0,-1 0,-1 0,-2 1,-1 1,-1 1,-2 "/><path stroke-width="12" d="M154,617c1,-2 1,-2 2,-3 "/><path stroke-width="11" d="M156,614c2,-3 2,-3 4,-6 "/><path stroke-width="10" d="M160,608c2,-5 1,-5 3,-9 "/><path stroke-width="9" d="M163,599c2,-5 2,-5 4,-9 "/><path stroke-width="8" d="M167,590c4,-8 3,-8 7,-15 "/><path stroke-width="7" d="M174,575c4,-10 3,-10 8,-19 "/><path stroke-width="6" d="M182,556c4,-10 5,-10 10,-19 5,-10 6,-10 12,-21 6,-12 5,-12 12,-23 7,-12 7,-13 15,-24 8,-10 8,-11 16,-20 8,-9 9,-9 17,-17 10,-10 10,-10 20,-19 10,-8 9,-9 20,-16 8,-6 8,-6 17,-11 8,-5 8,-5 16,-9 "/><path stroke-width="7" d="M337,377c8,-4 8,-4 15,-8 7,-3 7,-3 15,-6 7,-2 7,-3 14,-4 "/><path stroke-width="8" d="M381,359c6,-1 6,0 12,1 6,2 6,2 12,5 "/><path stroke-width="7" d="M405,365c11,7 11,7 22,15 "/><path stroke-width="6" d="M427,380c14,11 15,10 28,23 13,12 13,12 24,25 10,12 11,11 20,24 7,11 7,11 13,23 5,9 5,9 10,19 3,7 3,8 6,15 "/><path stroke-width="7" d="M528,509c3,9 4,9 6,17 2,9 1,9 2,18 1,9 1,9 2,17 1,8 1,8 1,17 "/><path stroke-width="8" d="M539,578c1,6 1,6 1,13 0,4 1,4 0,9 "/><path stroke-width="9" d="M540,600c-1,4 -1,5 -3,7 "/><path stroke-width="10" d="M537,607c-2,2 -4,1 -7,1 "/><path stroke-width="9" d="M530,608c-7,-1 -8,-1 -15,-4 "/><path stroke-width="7" d="M515,604c-12,-5 -12,-5 -22,-12 "/><path stroke-width="6" d="M493,592c-15,-10 -15,-10 -28,-22 -17,-14 -16,-15 -32,-31 -16,-16 -16,-16 -33,-32 -14,-15 -15,-14 -29,-29 -11,-13 -10,-14 -21,-28 -8,-10 -9,-10 -17,-20 -13,-15 -12,-16 -25,-31 -17,-19 -17,-20 -35,-38 -15,-15 -16,-13 -32,-27 -9,-9 -8,-10 -18,-18 "/><path stroke-width="7" d="M223,316c-4,-4 -4,-3 -9,-6 "/><path stroke-width="9" d="M214,310c-2,-1 -2,0 -5,-2 "/><path stroke-width="10" d="M209,308c-3,-1 -3,-1 -6,-2 -2,-2 -2,-2 -5,-5 -3,-3 -3,-3 -6,-6 "/><path stroke-width="9" d="M192,295c-3,-4 -3,-4 -7,-8 -3,-3 -3,-3 -6,-6 -2,-3 -2,-3 -5,-6 "/><path stroke-width="10" d="M174,275c-2,-1 -2,-1 -4,-3 "/><path stroke-width="12" d="M170,272c-1,0 -1,0 -1,-1 "/><path stroke-width="13" d="M169,271c0,0 0,0 0,0 -1,-1 -1,0 -1,0 -1,-1 0,-1 0,-2 -1,0 -1,0 -1,0 -1,0 0,0 0,-1 "/><path stroke-width="14" d="M167,268c0,0 0,0 0,0 -1,0 -1,0 -1,0 0,0 0,0 0,0 0,0 0,0 0,0 0,-1 0,-1 0,-2 "/><path stroke-width="13" d="M166,266c0,0 0,0 0,0 "/><path stroke-width="14" d="M166,266c0,0 0,0 0,0 0,0 0,0 0,-1 "/><path stroke-width="13" d="M166,265c0,0 -1,0 -1,0 0,0 0,0 0,0 "/></g></svg>