<?xml version="1.0" encoding="UTF-8" standalone="no"?>
<svg xmlns="http://www.w3.org/2000/svg" version="1.2" baseProfile="tiny" height="1192" width="720"><g stroke-linejoin="round" stroke-linecap="round" fill="none" stroke="black"><path stroke-width="12" d="M339,835c0,0 0,0 0,0 "/><path stroke-width="13" d="M339,835c1,-1 1,-1 2,-1 1,-1 1,-1 2,-1 "/><path stroke-width="12" d="M343,833c2,-1 2,-1 3,-2 "/><path stroke-width="11" d="M346,831c3,-3 4,-3 7,-6 "/><path stroke-width="8" d="M353,825c7,-6 8,-6 13,-13 "/><path stroke-width="7" d="M366,812c8,-13 8,-13 14,-27 "/><path stroke-width="6" d="M380,785c10,-20 12,-19 19,-40 7,-22 6,-23 11,-46 4,-19 4,-19 6,-38 1,-14 1,-15 0,-29 -2,-16 -2,-17 -7,-32 -6,-23 -6,-23 -15,-46 -15,-34 -15,-34 -32,-67 -18,-36 -16,-37 -37,-71 -18,-28 -19,-29 -41,-53 -13,-14 -14,-15 -31,-24 -8,-4 -9,-2 -19,-2 "/><path stroke-width="7" d="M234,337c-6,0 -6,3 -12,3 "/><path stroke-width="9" d="M222,340c-3,1 -4,0 -7,0 "/><path stroke-width="10" d="M215,340c-2,-1 -2,0 -4,-1 "/><path stroke-width="11" d="M211,339c-2,0 -2,-1 -5,-1 -3,0 -3,1 -5,2 -1,0 -2,-1 -3,1 -1,3 -1,4 0,8 "/><path stroke-width="8" d="M198,349c3,10 3,11 8,21 "/><path stroke-width="6" d="M206,370c8,19 9,19 19,38 14,24 15,24 30,48 16,27 16,26 33,53 16,26 15,26 31,52 15,23 14,23 29,46 12,17 12,16 24,33 9,10 9,10 18,20 7,9 7,10 14,19 8,10 9,9 17,20 6,8 5,9 10,18 "/><path stroke-width="8" d="M431,717c1,1 1,1 2,2 "/></g></svg>