<?xml version="1.0" encoding="UTF-8" standalone="no"?>
<svg xmlns="http://www.w3.org/2000/svg" version="1.2" baseProfile="tiny" height="1192" width="720"><g stroke-linejoin="round" stroke-linecap="round" fill="none" stroke="black"><path stroke-width="12" d="M338,753c0,0 0,0 0,0 "/><path stroke-width="14" d="M338,753c0,0 0,0 0,0 0,0 0,0 0,0 -1,0 -1,0 -1,0 "/><path stroke-width="13" d="M337,753c-1,0 -1,-1 -1,-1 -1,0 -1,0 -3,-1 "/><path stroke-width="11" d="M333,751c-3,-1 -3,-2 -7,-4 "/><path stroke-width="9" d="M326,747c-6,-3 -6,-2 -12,-5 "/><path stroke-width="7" d="M314,742c-9,-5 -9,-5 -18,-11 "/><path stroke-width="6" d="M296,731c-11,-9 -12,-9 -22,-19 -9,-10 -9,-11 -16,-22 -8,-12 -8,-12 -14,-25 -7,-16 -9,-15 -13,-32 -4,-18 -5,-18 -4,-37 0,-29 0,-30 7,-59 8,-36 7,-37 21,-71 12,-28 14,-28 31,-53 15,-21 16,-21 34,-38 15,-13 16,-13 32,-22 13,-7 14,-7 28,-11 12,-3 12,-3 24,-4 9,0 9,1 18,2 "/><path stroke-width="7" d="M422,340c7,1 7,1 14,2 "/><path stroke-width="8" d="M436,342c6,2 7,1 13,4 6,3 6,3 10,8 5,5 7,6 7,12 "/><path stroke-width="7" d="M466,366c1,14 1,15 -4,28 "/><path stroke-width="6" d="M462,394c-12,33 -13,34 -30,64 -24,42 -25,42 -53,80 -27,37 -29,36 -58,71 -24,27 -24,27 -50,53 -15,16 -14,18 -32,31 -10,7 -11,5 -23,8 "/><path stroke-width="7" d="M216,701c-4,1 -4,1 -8,0 "/><path stroke-width="10" d="M208,701c-1,0 -1,-1 -1,-2 "/><path stroke-width="11" d="M207,699c-2,-3 -2,-2 -3,-5 "/><path stroke-width="9" d="M204,694c-2,-8 -3,-8 -4,-17 "/><path stroke-width="7" d="M200,677c-2,-19 -3,-19 -3,-39 "/><path stroke-width="6" d="M197,638c0,-29 -2,-30 3,-59 5,-31 4,-32 16,-61 10,-27 12,-27 29,-51 13,-19 15,-18 30,-35 2,-2 3,-2 5,-4 "/></g></svg>