<?xml version="1.0" encoding="UTF-8" standalone="no"?>
<svg xmlns="http://www.w3.org/2000/svg" version="1.2" baseProfile="tiny" height="1192" width="720"><g stroke-linejoin="round" stroke-linecap="round" fill="none" stroke="black"><path stroke-width="12" d="M369,635c0,0 0,0 0,0 "/><path stroke-width="14" d="M369,635c0,0 0,0 0,0 0,0 0,0 0,0 0,0 0,0 0,0 "/><path stroke-width="13" d="M369,635c2,-1 2,-1 3,-1 "/><path stroke-width="10" d="M372,634c5,-4 6,-4 10,-9 "/><path stroke-width="7" d="M382,625c10,-9 11,-9 19,-20 "/><path stroke-width="6" d="M401,605c11,-16 11,-17 20,-35 12,-27 12,-27 21,-56 12,-38 13,-38 21,-77 9,-40 8,-40 14,-82 4,-34 5,-34 6,-68 1,-26 5,-29 -3,-52 -5,-15 -9,-18 -23,-23 -15,-6 -19,-3 -36,0 -25,6 -26,6 -50,17 -22,11 -24,10 -43,25 -16,14 -16,15 -27,34 -9,15 -9,16 -13,34 -4,15 -4,16 -3,32 0,12 0,14 5,24 4,9 6,9 14,15 13,10 13,11 29,18 19,8 20,8 40,12 27,5 27,4 55,6 28,2 28,0 57,3 28,3 29,1 56,10 25,8 26,10 48,25 21,15 19,17 38,35 8,9 8,9 16,18 "/></g></svg>