<?xml version="1.0" encoding="UTF-8" standalone="no"?>
<svg xmlns="http://www.w3.org/2000/svg" version="1.2" baseProfile="tiny" height="1192" width="720"><g stroke-linejoin="round" stroke-linecap="round" fill="none" stroke="black"><path stroke-width="12" d="M155,589c0,0 0,0 0,0 "/><path stroke-width="14" d="M155,589c0,1 -1,1 0,1 "/><path stroke-width="13" d="M155,590c0,1 0,0 0,0 "/><path stroke-width="12" d="M155,590c6,-1 7,0 12,-2 "/><path stroke-width="10" d="M167,588c6,-2 6,-3 11,-7 "/><path stroke-width="7" d="M178,581c8,-7 8,-6 16,-14 "/><path stroke-width="6" d="M194,567c10,-9 10,-9 19,-19 10,-11 10,-11 20,-23 10,-13 10,-13 21,-26 9,-11 9,-12 19,-23 11,-11 10,-12 22,-21 11,-9 11,-9 23,-16 12,-7 12,-8 25,-13 12,-5 12,-4 24,-7 12,-2 12,-2 25,-4 12,-1 12,-3 24,-2 10,1 10,2 19,7 9,6 9,6 16,14 12,12 12,12 22,25 13,17 13,17 24,35 11,19 12,19 20,39 7,18 6,19 10,38 3,14 3,14 4,29 1,12 1,12 1,23 -1,9 -2,8 -3,17 "/><path stroke-width="8" d="M529,640c-1,4 0,4 -1,8 "/><path stroke-width="10" d="M528,648c-1,1 -2,1 -2,1 "/><path stroke-width="12" d="M526,649c-2,-1 -2,-1 -3,-3 "/><path stroke-width="9" d="M523,646c-6,-11 -5,-12 -11,-23 "/><path stroke-width="6" d="M512,623c-15,-28 -14,-28 -30,-55 -20,-33 -20,-33 -43,-63 -22,-29 -24,-28 -47,-56 -17,-22 -18,-22 -35,-44 -9,-12 -8,-13 -17,-26 "/><path stroke-width="7" d="M340,379c-4,-6 -4,-6 -9,-13 -3,-5 -4,-5 -8,-10 "/><path stroke-width="8" d="M323,356c-4,-5 -4,-5 -8,-10 "/><path stroke-width="7" d="M315,346c-7,-8 -7,-8 -14,-16 "/><path stroke-width="6" d="M301,330c-11,-12 -11,-12 -23,-24 -13,-13 -14,-13 -27,-27 -9,-10 -7,-12 -17,-21 "/><path stroke-width="7" d="M234,258c-5,-5 -6,-4 -12,-7 "/><path stroke-width="8" d="M222,251c-4,-2 -5,-1 -9,-3 "/><path stroke-width="9" d="M213,248c-4,-2 -4,-2 -8,-5 -3,-2 -3,-1 -6,-3 "/><path stroke-width="10" d="M199,240c-3,-2 -3,-3 -6,-5 -2,-1 -2,-1 -4,-3 "/><path stroke-width="11" d="M189,232c-1,0 -1,0 -2,-1 "/><path stroke-width="12" d="M187,231c-1,0 -1,0 -1,0 "/><path stroke-width="13" d="M186,231c-1,0 0,0 0,0 "/><path stroke-width="14" d="M186,231c-1,1 -1,1 -1,1 0,0 0,0 0,0 "/><path stroke-width="13" d="M185,232c0,1 0,1 0,1 0,0 0,0 0,0 "/><path stroke-width="14" d="M185,233c0,1 0,0 0,0 "/><path stroke-width="13" d="M185,233c1,1 1,1 1,2 "/><path stroke-width="11" d="M186,235c3,3 3,3 5,6 "/><path stroke-width="9" d="M191,241c4,6 4,6 8,12 "/><path stroke-width="7" d="M199,253c8,11 8,11 16,22 "/><path stroke-width="6" d="M215,275c14,20 14,20 29,39 21,28 23,26 43,54 20,29 20,30 37,60 16,27 16,27 29,55 10,20 9,21 16,43 5,14 4,14 8,28 3,10 2,10 5,20 3,12 4,12 8,24 3,10 3,10 7,21 3,9 3,9 6,17 "/><path stroke-width="7" d="M403,636c2,7 3,6 5,12 "/><path stroke-width="9" d="M408,648c1,3 1,3 2,6 "/><path stroke-width="10" d="M410,654c1,3 1,3 1,6 "/><path stroke-width="11" d="M411,660c1,2 1,2 2,4 0,1 0,1 1,3 0,2 1,2 2,4 "/><path stroke-width="12" d="M416,671c0,1 0,1 0,1 0,1 0,1 0,2 "/></g></svg>