<?xml version="1.0" encoding="UTF-8" standalone="no"?>
<svg xmlns="http://www.w3.org/2000/svg" version="1.2" baseProfile="tiny" height="1863" width="1080"><g stroke-linejoin="round" stroke-linecap="round" fill="none" stroke="black"><path stroke-width="18" d="M426,1122c0,0 0,0 0,0 "/><path stroke-width="15" d="M426,1122c13,7 13,8 26,14 "/><path stroke-width="9" d="M452,1136c16,6 16,7 32,10 11,2 12,3 22,0 16,-5 22,-2 32,-15 16,-23 17,-27 20,-56 6,-52 6,-54 -2,-106 -7,-47 -14,-45 -27,-91 -7,-25 -6,-25 -12,-50 -3,-12 -3,-12 -6,-23 "/><path stroke-width="11" d="M511,805c-1,-4 -1,-4 -3,-7 "/><path stroke-width="15" d="M508,798c-1,-2 -1,-3 -2,-3 "/><path stroke-width="17" d="M506,795c-1,0 -3,0 -3,2 "/><path stroke-width="13" d="M503,797c2,37 1,38 7,76 "/><path stroke-width="9" d="M510,873c6,35 7,35 17,69 5,17 7,16 12,32 "/><path stroke-width="10" d="M539,974c3,8 3,8 5,16 "/><path stroke-width="12" d="M544,990c1,4 1,4 2,8 "/><path stroke-width="15" d="M546,998c0,1 0,1 0,2 "/><path stroke-width="15" d="M546,998c0,1 0,1 0,2 "/><path stroke-width="19" d="M243,1687c0,0 0,0 0,0 "/><path stroke-width="15" d="M243,1687c20,-34 21,-34 40,-68 "/><path stroke-width="9" d="M283,1619c14,-25 14,-25 27,-51 15,-26 17,-25 29,-53 14,-33 14,-34 23,-70 11,-44 16,-45 17,-90 2,-48 -6,-48 -11,-96 "/><path stroke-width="10" d="M368,1259c-2,-15 -3,-15 -3,-30 -1,-44 1,-45 1,-89 "/><path stroke-width="9" d="M366,1140c0,-1 0,-1 0,-2 "/><path stroke-width="11" d="M366,1138c0,-1 -1,-1 -1,-2 "/><path stroke-width="15" d="M365,1136c-1,-2 0,-2 -1,-3 "/><path stroke-width="17" d="M364,1133c-1,-2 -1,-2 -2,-3 "/><path stroke-width="18" d="M362,1130c-1,-1 0,-1 -1,-2 -1,-1 -1,-1 -2,-2 -1,-1 -1,-1 -2,-1 -1,0 -2,0 -3,0 "/><path stroke-width="17" d="M354,1125c-2,1 -2,1 -4,2 "/><path stroke-width="16" d="M350,1127c-2,1 -2,1 -4,3 -2,2 -2,2 -4,4 "/><path stroke-width="17" d="M342,1134c0,0 0,0 -1,1 "/><path stroke-width="18" d="M341,1135c-2,2 -1,2 -3,3 -1,0 -1,1 -2,0 "/><path stroke-width="16" d="M336,1138c-3,-3 -4,-3 -5,-7 "/><path stroke-width="12" d="M331,1131c-3,-11 -1,-12 -3,-23 "/><path stroke-width="10" d="M328,1108c-1,-7 -2,-7 -3,-13 "/><path stroke-width="12" d="M325,1095c-1,-5 -1,-5 -2,-9 "/><path stroke-width="15" d="M323,1086c-1,-3 -1,-3 -2,-5 "/><path stroke-width="17" d="M321,1081c-1,-1 -1,-1 -1,-3 0,-2 0,-2 0,-4 "/><path stroke-width="16" d="M320,1074c0,-3 1,-3 1,-6 "/><path stroke-width="14" d="M321,1068c1,-6 2,-6 1,-12 "/><path stroke-width="11" d="M322,1056c-1,-9 -1,-9 -4,-18 -2,-7 -3,-6 -6,-12 "/><path stroke-width="12" d="M312,1026c-2,-4 -2,-4 -4,-8 "/><path stroke-width="15" d="M308,1018c-1,-2 0,-2 -1,-3 "/><path stroke-width="17" d="M307,1015c-1,-2 -1,-2 -2,-3 "/><path stroke-width="15" d="M305,1012c-3,-3 -3,-4 -7,-6 "/><path stroke-width="12" d="M298,1006c-8,-6 -8,-5 -17,-10 "/><path stroke-width="10" d="M281,996c-5,-4 -5,-3 -11,-7 "/><path stroke-width="9" d="M270,989c-5,-3 -5,-4 -11,-7 "/><path stroke-width="10" d="M259,982c-5,-4 -6,-4 -11,-8 "/><path stroke-width="12" d="M248,974c-4,-3 -4,-3 -7,-5 "/><path stroke-width="14" d="M241,969c-3,-2 -3,-2 -5,-3 "/><path stroke-width="16" d="M236,966c-2,-1 -2,-1 -3,-2 "/><path stroke-width="18" d="M233,964c-1,0 0,-1 -1,-1 "/><path stroke-width="19" d="M232,963c0,0 -1,0 -1,0 "/><path stroke-width="20" d="M231,963c-1,0 -1,0 -1,0 -1,0 -1,0 -1,0 0,0 0,1 0,2 "/><path stroke-width="19" d="M229,965c0,0 -1,-1 -1,-1 -1,0 -1,1 -1,1 -1,1 -2,1 -2,1 0,0 0,1 0,1 "/><path stroke-width="20" d="M225,967c0,1 -1,0 -1,1 "/><path stroke-width="18" d="M224,968c-1,2 -1,2 -1,4 "/><path stroke-width="16" d="M223,972c0,3 1,3 2,6 "/><path stroke-width="15" d="M225,978c1,4 2,4 3,7 2,3 2,3 3,6 "/><path stroke-width="16" d="M231,991c1,1 2,2 1,3 "/><path stroke-width="15" d="M232,994c-4,5 -5,5 -10,9 "/><path stroke-width="14" d="M222,1003c-1,1 -1,1 -2,2 "/><path stroke-width="19" d="M577,892c0,0 0,0 0,0 "/><path stroke-width="21" d="M577,892c0,0 0,0 0,0 0,0 0,0 0,0 "/><path stroke-width="21" d="M808,1394c0,0 0,0 0,0 0,0 0,0 0,0 "/></g></svg>