<?xml version="1.0" encoding="UTF-8" standalone="no"?>
<svg xmlns="http://www.w3.org/2000/svg" version="1.2" baseProfile="tiny" height="1863" width="1080"><g stroke-linejoin="round" stroke-linecap="round" fill="none" stroke="black"><path stroke-width="18" d="M426,1122c0,0 0,0 0,0 "/><path stroke-width="15" d="M426,1122c13,7 13,8 26,14 "/><path stroke-width="9" d="M452,1136c16,6 16,7 32,10 11,2 12,3 22,0 16,-5 22,-2 32,-15 16,-23 17,-27 20,-56 6,-52 6,-54 -2,-106 -7,-47 -14,-45 -27,-91 -7,-25 -6,-25 -12,-50 -3,-12 -3,-12 -6,-23 "/><path stroke-width="11" d="M511,805c-1,-4 -1,-4 -3,-7 "/><path stroke-width="15" d="M508,798c-1,-2 -1,-3 -2,-3 "/><path stroke-width="17" d="M506,795c-1,0 -3,0 -3,2 "/><path stroke-width="13" d="M503,797c2,37 1,38 7,76 "/><path stroke-width="9" d="M510,873c6,35 7,35 17,69 5,17 7,16 12,32 "/><path stroke-width="10" d="M539,974c3,8 3,8 5,16 "/><path stroke-width="12" d="M544,990c1,4 1,4 2,8 "/><path stroke-width="15" d="M546,998c0,1 0,1 0,2 "/></g></svg>