<?xml version="1.0" encoding="UTF-8" standalone="no"?>
<svg xmlns="http://www.w3.org/2000/svg" version="1.2" baseProfile="tiny" height="1863" width="1080"><g stroke-linejoin="round" stroke-linecap="round" fill="none" stroke="black"><path stroke-width="18" d="M409,1530c0,0 0,0 0,0 "/><path stroke-width="17" d="M409,1530c7,-18 6,-18 14,-36 "/><path stroke-width="11" d="M423,1494c15,-31 17,-31 32,-62 "/><path stroke-width="9" d="M455,1432c16,-34 14,-35 31,-69 16,-33 19,-32 35,-64 15,-28 11,-30 27,-57 19,-33 21,-32 42,-63 23,-35 22,-36 47,-71 18,-25 20,-24 39,-49 16,-21 16,-21 32,-44 12,-18 12,-18 23,-38 5,-9 5,-9 9,-18 3,-9 3,-9 5,-17 "/><path stroke-width="10" d="M745,942c3,-11 3,-11 5,-22 2,-8 1,-8 2,-16 "/><path stroke-width="11" d="M752,904c1,-7 1,-7 1,-13 0,-8 0,-8 -2,-15 -2,-8 -2,-8 -6,-14 -4,-7 -5,-7 -10,-12 -6,-6 -6,-7 -13,-10 -6,-4 -6,-4 -14,-5 -9,-2 -9,-2 -18,-2 "/><path stroke-width="10" d="M690,833c-9,0 -10,0 -18,3 "/><path stroke-width="9" d="M672,836c-16,5 -16,5 -31,11 -15,7 -15,7 -29,16 -18,11 -18,11 -35,24 -16,12 -15,13 -31,27 -15,13 -16,12 -31,27 -11,10 -11,10 -20,23 -9,11 -8,11 -15,23 -6,11 -8,10 -12,21 -4,10 -4,11 -3,21 "/><path stroke-width="10" d="M465,1029c1,9 1,10 5,17 6,11 6,12 15,19 "/><path stroke-width="9" d="M485,1065c14,10 15,9 32,15 20,7 20,6 41,11 23,5 23,4 46,8 21,4 21,5 43,8 22,4 22,4 45,6 17,2 17,0 35,3 15,3 15,3 30,7 10,3 10,3 19,7 11,5 11,4 21,11 9,6 9,7 16,14 "/><path stroke-width="10" d="M813,1155c6,7 6,7 10,14 "/><path stroke-width="11" d="M823,1169c3,6 3,6 5,12 "/><path stroke-width="12" d="M828,1181c2,5 3,5 3,11 "/><path stroke-width="11" d="M831,1192c0,13 0,14 -3,26 "/><path stroke-width="9" d="M828,1218c-3,12 -4,12 -10,22 -7,12 -9,11 -18,21 -13,14 -13,14 -27,27 -11,10 -11,10 -24,18 -9,6 -10,6 -20,9 -14,5 -14,5 -29,7 -12,2 -13,2 -26,2 -15,0 -15,0 -31,-2 -10,-2 -11,-1 -20,-5 -12,-5 -11,-6 -22,-14 -8,-5 -8,-6 -16,-12 "/><path stroke-width="10" d="M585,1291c-6,-4 -7,-4 -13,-8 "/><path stroke-width="12" d="M572,1283c-5,-3 -5,-3 -9,-6 "/><path stroke-width="14" d="M563,1277c-3,-2 -3,-1 -5,-3 "/><path stroke-width="16" d="M558,1274c-1,-1 -1,-1 -2,-2 "/><path stroke-width="19" d="M556,1272c0,0 -1,0 -1,0 0,0 0,-2 0,-1 "/><path stroke-width="17" d="M555,1271c-2,1 -3,2 -4,5 "/><path stroke-width="12" d="M551,1276c-5,19 -6,20 -7,40 "/><path stroke-width="9" d="M544,1316c-3,30 -2,31 -1,61 1,34 3,35 5,67 "/></g></svg>