<?xml version="1.0" encoding="UTF-8" standalone="no"?>
<svg xmlns="http://www.w3.org/2000/svg" version="1.2" baseProfile="tiny" height="1863" width="1080"><g stroke-linejoin="round" stroke-linecap="round" fill="none" stroke="black"><path stroke-width="18" d="M183,1193c0,0 0,0 0,0 "/><path stroke-width="21" d="M183,1193c0,0 0,0 0,0 "/><path stroke-width="18" d="M183,1193c1,-5 2,-5 3,-11 "/><path stroke-width="12" d="M186,1182c4,-16 3,-17 7,-33 "/><path stroke-width="9" d="M193,1149c5,-21 4,-21 9,-41 7,-27 7,-27 14,-55 8,-31 9,-30 17,-61 10,-40 8,-41 18,-80 10,-40 14,-39 23,-80 9,-39 8,-39 14,-79 5,-39 4,-39 8,-78 3,-36 3,-36 6,-71 3,-25 1,-25 6,-50 4,-22 5,-23 12,-44 4,-11 3,-12 10,-22 6,-9 5,-12 15,-16 19,-8 22,-9 43,-8 32,1 33,4 64,12 32,9 33,7 62,22 34,18 35,18 65,43 33,28 33,29 61,62 23,28 23,29 41,60 13,23 13,24 22,49 9,23 7,23 14,47 7,25 8,24 14,49 5,25 5,25 8,50 2,18 3,18 1,36 -2,19 1,22 -9,39 -10,18 -11,22 -30,30 -28,12 -34,15 -64,8 -47,-11 -49,-17 -92,-44 -46,-29 -44,-32 -86,-67 -38,-33 -36,-35 -72,-69 -42,-40 -41,-41 -86,-79 -31,-26 -33,-24 -65,-50 -26,-22 -25,-23 -51,-47 -24,-22 -25,-22 -48,-45 -10,-10 -10,-10 -19,-20 "/></g></svg>