<?xml version="1.0" encoding="UTF-8" standalone="no"?>
<svg xmlns="http://www.w3.org/2000/svg" version="1.2" baseProfile="tiny" height="1863" width="1080"><g stroke-linejoin="round" stroke-linecap="round" fill="none" stroke="black"><path stroke-width="18" d="M354,1150c0,0 0,0 0,0 "/><path stroke-width="21" d="M354,1150c0,0 0,0 0,0 "/><path stroke-width="19" d="M354,1150c3,1 3,1 7,1 "/><path stroke-width="16" d="M361,1151c4,1 4,1 9,0 "/><path stroke-width="14" d="M370,1151c5,-1 5,-1 9,-2 "/><path stroke-width="12" d="M379,1149c8,-2 8,-2 15,-4 "/><path stroke-width="9" d="M394,1145c11,-3 11,-3 21,-7 "/><path stroke-width="10" d="M415,1138c7,-3 8,-2 14,-6 "/><path stroke-width="11" d="M429,1132c7,-4 7,-4 13,-9 "/><path stroke-width="10" d="M442,1123c8,-7 7,-8 14,-16 "/><path stroke-width="9" d="M456,1107c10,-10 11,-10 20,-20 "/><path stroke-width="10" d="M476,1087c7,-7 6,-8 11,-16 6,-7 6,-7 11,-15 "/><path stroke-width="9" d="M498,1056c6,-9 6,-9 12,-18 "/><path stroke-width="10" d="M510,1038c5,-7 4,-7 9,-14 6,-8 6,-8 12,-16 5,-8 6,-8 10,-16 "/><path stroke-width="9" d="M541,992c6,-10 7,-10 10,-21 4,-15 3,-16 4,-32 1,-16 0,-17 1,-33 1,-11 1,-11 2,-22 "/><path stroke-width="10" d="M558,884c1,-7 0,-7 1,-14 "/><path stroke-width="11" d="M559,870c1,-7 2,-7 3,-14 1,-9 1,-9 1,-18 "/><path stroke-width="10" d="M563,838c0,-16 1,-16 -2,-31 "/><path stroke-width="9" d="M561,807c-4,-18 -5,-18 -11,-35 -6,-19 -7,-19 -13,-37 -4,-11 -4,-11 -8,-22 "/><path stroke-width="10" d="M529,713c-3,-7 -2,-7 -5,-15 -3,-8 -3,-8 -6,-15 -5,-10 -4,-10 -10,-19 "/><path stroke-width="9" d="M508,664c-7,-11 -8,-11 -16,-21 -9,-11 -8,-11 -17,-21 -8,-9 -8,-10 -16,-18 -13,-13 -14,-12 -27,-25 -13,-13 -13,-12 -26,-26 -6,-7 -6,-7 -12,-14 -7,-7 -7,-7 -14,-13 "/><path stroke-width="10" d="M380,526c-8,-6 -8,-6 -16,-11 "/><path stroke-width="12" d="M364,515c-4,-3 -4,-2 -7,-5 "/><path stroke-width="13" d="M357,510c-4,-4 -4,-4 -8,-7 "/><path stroke-width="12" d="M349,503c-5,-5 -5,-5 -10,-9 -4,-5 -3,-6 -8,-9 "/><path stroke-width="11" d="M331,485c-9,-7 -9,-7 -18,-11 "/><path stroke-width="9" d="M313,474c-9,-5 -10,-4 -19,-9 -9,-4 -8,-5 -17,-9 -11,-5 -11,-5 -23,-9 "/><path stroke-width="10" d="M254,447c-7,-3 -8,-2 -15,-4 "/><path stroke-width="11" d="M239,443c-7,-1 -7,-1 -13,-2 "/><path stroke-width="12" d="M226,441c-6,-1 -6,-1 -13,-1 -7,0 -7,0 -14,0 "/><path stroke-width="11" d="M199,440c-8,1 -8,1 -15,2 "/><path stroke-width="12" d="M184,442c-6,1 -6,1 -12,3 -6,2 -6,1 -11,4 -5,2 -5,3 -9,6 -6,5 -7,4 -11,10 "/><path stroke-width="11" d="M141,465c-6,7 -6,8 -9,16 "/><path stroke-width="10" d="M132,481c-3,8 -4,8 -4,16 -1,11 0,12 2,23 "/><path stroke-width="9" d="M130,520c2,13 2,13 5,26 "/><path stroke-width="10" d="M135,546c2,8 2,8 5,16 "/><path stroke-width="12" d="M140,562c2,4 2,4 4,8 "/><path stroke-width="13" d="M144,570c2,4 2,4 4,8 3,6 2,6 5,11 "/><path stroke-width="11" d="M153,589c6,11 5,12 12,22 "/><path stroke-width="9" d="M165,611c7,14 9,13 16,27 8,15 8,16 15,31 5,10 4,10 9,20 5,10 4,10 10,19 8,12 9,11 17,22 8,10 8,10 16,20 8,9 7,10 16,17 12,10 13,9 25,18 12,9 13,9 24,18 8,7 7,8 15,14 11,8 12,8 23,15 10,6 10,7 21,13 12,6 12,5 24,11 12,5 12,4 24,9 13,5 12,6 25,10 14,5 14,5 28,8 12,3 12,3 24,4 15,1 15,1 29,1 12,0 12,1 24,0 14,-1 14,0 28,-3 14,-3 14,-5 27,-9 12,-4 12,-4 24,-8 12,-4 12,-4 23,-8 11,-3 11,-3 21,-6 10,-3 10,-3 20,-6 10,-3 10,-3 20,-7 "/><path stroke-width="10" d="M713,841c7,-3 7,-3 13,-7 "/><path stroke-width="11" d="M726,834c7,-4 7,-4 13,-8 6,-5 6,-5 12,-10 5,-4 5,-5 9,-9 "/><path stroke-width="12" d="M760,807c4,-4 4,-4 8,-8 5,-5 6,-5 11,-10 3,-3 4,-3 7,-6 "/><path stroke-width="13" d="M786,783c4,-3 4,-3 8,-7 3,-3 3,-3 6,-6 5,-5 5,-5 10,-9 3,-3 3,-2 6,-5 "/><path stroke-width="14" d="M816,756c3,-3 3,-2 6,-5 "/><path stroke-width="15" d="M822,751c2,-2 1,-2 3,-4 "/><path stroke-width="17" d="M825,747c1,-1 1,-1 2,-2 "/><path stroke-width="19" d="M827,745c0,0 0,0 0,0 "/><path stroke-width="21" d="M827,745c0,0 0,0 0,0 "/><path stroke-width="19" d="M827,745c0,1 0,2 -1,3 "/><path stroke-width="16" d="M826,748c-2,3 -1,3 -4,6 "/><path stroke-width="13" d="M822,754c-6,6 -6,6 -13,11 "/><path stroke-width="10" d="M809,765c-15,8 -15,8 -30,14 "/><path stroke-width="9" d="M779,779c-17,6 -18,5 -35,11 -25,9 -25,10 -50,19 -33,11 -33,11 -67,21 -38,11 -39,9 -77,20 -40,11 -40,12 -80,25 -36,12 -35,14 -72,25 -38,12 -39,10 -78,23 -37,13 -37,14 -73,30 -21,9 -21,9 -42,19 -14,6 -14,6 -28,13 "/><path stroke-width="10" d="M177,985c-5,3 -4,3 -9,6 "/><path stroke-width="13" d="M168,991c-3,2 -3,1 -5,3 "/><path stroke-width="16" d="M163,994c-1,1 -1,1 -2,2 "/><path stroke-width="19" d="M161,996c0,1 -1,1 -1,1 "/><path stroke-width="20" d="M160,997c0,1 0,1 -1,1 "/><path stroke-width="21" d="M159,998c0,1 0,1 -1,1 0,0 0,0 0,0 0,0 0,0 0,0 0,0 0,0 0,0 "/><path stroke-width="20" d="M158,999c0,1 0,1 0,1 0,0 0,0 -1,0 "/><path stroke-width="21" d="M157,1000c0,0 0,0 0,0 0,1 0,1 0,1 "/><path stroke-width="20" d="M157,1001c0,0 0,0 -1,0 0,0 0,0 0,0 "/><path stroke-width="21" d="M156,1001c0,0 0,0 0,0 0,0 0,0 0,0 "/><path stroke-width="15" d="M156,1001c6,-10 6,-11 11,-21 "/></g></svg>