<?xml version="1.0" encoding="UTF-8" standalone="no"?>
<svg xmlns="http://www.w3.org/2000/svg" version="1.2" baseProfile="tiny" height="1863" width="1080"><g stroke-linejoin="round" stroke-linecap="round" fill="none" stroke="black"><path stroke-width="18" d="M293,1145c0,0 0,0 0,0 "/><path stroke-width="19" d="M293,1145c2,1 2,1 4,1 "/><path stroke-width="13" d="M297,1146c27,3 27,4 54,6 "/><path stroke-width="9" d="M351,1152c23,3 23,4 45,4 27,1 27,1 53,-2 26,-4 27,-3 52,-12 23,-8 24,-7 43,-21 27,-21 31,-20 49,-48 20,-31 22,-34 27,-70 6,-44 2,-46 -4,-90 -6,-52 -3,-53 -19,-102 -16,-49 -20,-48 -44,-93 -24,-46 -23,-47 -52,-90 -24,-35 -26,-34 -54,-66 -26,-30 -26,-30 -56,-57 -23,-22 -23,-22 -49,-42 -22,-16 -22,-17 -46,-30 -16,-9 -16,-11 -33,-14 -12,-2 -15,-2 -25,4 -13,8 -17,9 -21,24 -10,33 -13,36 -8,71 11,71 17,71 41,140 26,75 28,75 58,149 26,66 25,66 55,131 26,57 26,57 56,111 22,37 21,39 47,73 21,26 22,25 48,46 19,17 19,18 42,29 21,10 22,10 45,14 17,2 19,-1 34,-2 "/><path stroke-width="9" d="M351,1152c23,3 23,4 45,4 27,1 27,1 53,-2 26,-4 27,-3 52,-12 23,-8 24,-7 43,-21 27,-21 31,-20 49,-48 20,-31 22,-34 27,-70 6,-44 2,-46 -4,-90 -6,-52 -3,-53 -19,-102 -16,-49 -20,-48 -44,-93 -24,-46 -23,-47 -52,-90 -24,-35 -26,-34 -54,-66 -26,-30 -26,-30 -56,-57 -23,-22 -23,-22 -49,-42 -22,-16 -22,-17 -46,-30 -16,-9 -16,-11 -33,-14 -12,-2 -15,-2 -25,4 -13,8 -17,9 -21,24 -10,33 -13,36 -8,71 11,71 17,71 41,140 26,75 28,75 58,149 26,66 25,66 55,131 26,57 26,57 56,111 22,37 21,39 47,73 21,26 22,25 48,46 19,17 19,18 42,29 21,10 22,10 45,14 17,2 19,-1 34,-2 "/><path stroke-width="9" d="M351,1152c23,3 23,4 45,4 27,1 27,1 53,-2 26,-4 27,-3 52,-12 23,-8 24,-7 43,-21 27,-21 31,-20 49,-48 20,-31 22,-34 27,-70 6,-44 2,-46 -4,-90 -6,-52 -3,-53 -19,-102 -16,-49 -20,-48 -44,-93 -24,-46 -23,-47 -52,-90 -24,-35 -26,-34 -54,-66 -26,-30 -26,-30 -56,-57 -23,-22 -23,-22 -49,-42 -22,-16 -22,-17 -46,-30 -16,-9 -16,-11 -33,-14 -12,-2 -15,-2 -25,4 -13,8 -17,9 -21,24 -10,33 -13,36 -8,71 11,71 17,71 41,140 26,75 28,75 58,149 26,66 25,66 55,131 26,57 26,57 56,111 22,37 21,39 47,73 21,26 22,25 48,46 19,17 19,18 42,29 21,10 22,10 45,14 17,2 19,-1 34,-2 "/></g></svg>