<?xml version="1.0" encoding="UTF-8" standalone="no"?>
<svg xmlns="http://www.w3.org/2000/svg" version="1.2" baseProfile="tiny" height="1850" width="1080"><g stroke-linejoin="round" stroke-linecap="round" fill="none" stroke="black"><path stroke-width="18" d="M405,1409c0,0 0,0 0,0 "/><path stroke-width="21" d="M405,1409c0,0 0,0 0,0 "/><path stroke-width="18" d="M405,1409c2,-7 2,-7 3,-14 "/><path stroke-width="12" d="M408,1395c9,-32 7,-32 17,-64 "/><path stroke-width="9" d="M425,1331c13,-42 15,-42 29,-84 17,-50 17,-50 32,-100 14,-46 15,-46 27,-92 11,-44 11,-44 20,-89 7,-37 6,-37 13,-73 4,-27 5,-27 10,-55 1,-10 1,-10 2,-21 "/><path stroke-width="10" d="M558,817c1,-6 2,-6 2,-13 "/><path stroke-width="13" d="M560,804c0,-3 0,-3 0,-6 "/><path stroke-width="16" d="M560,798c0,-2 1,-5 -1,-4 "/><path stroke-width="13" d="M559,794c-9,2 -13,0 -20,8 "/><path stroke-width="9" d="M539,802c-32,33 -32,35 -58,74 -29,44 -27,45 -54,91 -20,35 -20,35 -38,71 -8,15 -8,15 -13,32 -3,9 -6,11 -3,20 3,10 4,13 14,19 18,11 20,12 42,14 36,4 37,1 73,-1 38,-3 37,-6 75,-9 32,-3 32,-3 65,-3 28,0 28,1 55,4 23,4 24,3 47,11 15,5 15,5 28,14 10,7 11,8 18,18 "/><path stroke-width="10" d="M790,1157c5,6 7,7 6,14 -1,14 -1,16 -10,28 "/><path stroke-width="9" d="M786,1199c-16,19 -17,20 -38,33 -25,16 -27,15 -55,25 -27,11 -27,11 -55,18 -32,7 -32,8 -64,11 -30,2 -30,0 -60,-2 -29,-2 -29,-3 -58,-8 -23,-3 -23,-3 -46,-7 -16,-4 -16,-4 -32,-8 -10,-4 -10,-4 -21,-7 "/><path stroke-width="10" d="M357,1254c-7,-2 -7,-2 -13,-4 "/><path stroke-width="14" d="M344,1250c-2,-1 -2,-1 -4,-2 "/><path stroke-width="17" d="M340,1248c-1,0 -3,-2 -2,-1 2,2 3,3 6,7 "/><path stroke-width="13" d="M344,1254c22,26 24,24 44,51 "/><path stroke-width="9" d="M388,1305c30,40 28,41 57,82 28,40 31,43 57,79 "/></g></svg>