<?xml version="1.0" encoding="UTF-8" standalone="no"?>
<svg xmlns="http://www.w3.org/2000/svg" version="1.2" baseProfile="tiny" height="1771" width="1080"><g stroke-linejoin="round" stroke-linecap="round" fill="none" stroke="black"><path stroke-width="16" d="M709,330c0,0 0,0 0,0 "/><path stroke-width="18" d="M709,330c0,0 0,-1 0,-1 "/><path stroke-width="17" d="M709,329c1,0 1,0 1,0 "/><path stroke-width="16" d="M710,329c0,1 0,1 -1,2 "/><path stroke-width="12" d="M709,331c-9,12 -8,13 -18,24 "/><path stroke-width="8" d="M691,355c-48,59 -50,57 -97,118 -61,79 -63,78 -119,161 -49,74 -48,75 -90,153 -30,57 -30,58 -55,118 -17,40 -16,41 -30,83 -8,23 -7,24 -15,46 -3,10 -3,10 -8,18 "/><path stroke-width="10" d="M277,1052c-2,3 -3,4 -6,4 "/><path stroke-width="11" d="M271,1056c-5,1 -6,1 -10,-2 "/><path stroke-width="10" d="M261,1054c-10,-9 -13,-9 -19,-22 "/><path stroke-width="8" d="M242,1032c-15,-39 -19,-40 -22,-81 -3,-51 -3,-54 11,-104 13,-48 17,-48 42,-93 22,-38 23,-38 51,-72 24,-28 24,-28 53,-50 31,-24 32,-25 68,-42 40,-18 40,-20 83,-29 47,-9 49,-9 96,-7 42,2 42,4 83,16 32,9 31,11 63,24 26,11 27,9 51,23 18,11 22,11 33,28 11,18 10,21 11,43 1,21 -4,21 -7,41 -1,10 -1,11 -2,21 "/><path stroke-width="11" d="M856,750c0,0 0,0 0,1 "/></g></svg>