<?xml version="1.0" encoding="UTF-8" standalone="no"?>
<svg xmlns="http://www.w3.org/2000/svg" version="1.2" baseProfile="tiny" height="1850" width="1080"><g stroke-linejoin="round" stroke-linecap="round" fill="none" stroke="black"><path stroke-width="18" d="M751,425c0,0 0,0 0,0 "/><path stroke-width="17" d="M751,425c-2,6 -1,6 -3,12 "/><path stroke-width="11" d="M748,437c-8,32 -7,32 -17,63 "/><path stroke-width="9" d="M731,500c-15,47 -16,47 -33,93 -19,54 -18,54 -39,108 -21,52 -24,51 -44,104 -19,50 -18,51 -35,102 -17,54 -15,55 -33,109 -17,53 -17,53 -35,105 -13,38 -11,39 -27,76 -11,26 -13,25 -28,50 -8,14 -8,14 -17,27 -8,9 -5,14 -16,18 -17,7 -22,11 -39,4 -43,-17 -47,-18 -81,-51 -39,-38 -37,-42 -65,-90 -21,-36 -18,-38 -32,-77 -11,-31 -12,-32 -18,-64 -6,-26 -7,-27 -6,-53 1,-31 0,-32 10,-62 10,-30 11,-31 29,-57 15,-20 15,-24 36,-36 28,-15 30,-15 62,-18 62,-7 63,-5 126,-3 68,3 68,3 135,14 52,9 54,7 102,27 24,10 22,15 42,33 15,14 11,18 26,31 18,14 19,16 41,23 23,7 25,4 49,5 14,1 14,-1 28,-1 "/><path stroke-width="10" d="M869,917c6,0 6,0 11,0 "/><path stroke-width="14" d="M880,917c2,0 4,1 3,1 "/><path stroke-width="13" d="M883,918c-20,4 -23,3 -46,8 "/><path stroke-width="9" d="M837,926c-54,14 -54,18 -108,29 -51,11 -52,13 -103,14 -31,1 -31,-2 -61,-9 -14,-3 -14,-5 -28,-10 "/><path stroke-width="10" d="M537,950c-6,-3 -6,-3 -13,-6 "/><path stroke-width="12" d="M524,944c-4,-1 -4,-2 -7,-2 "/><path stroke-width="15" d="M517,942c-3,0 -5,-1 -6,1 "/><path stroke-width="12" d="M511,943c-11,18 -14,19 -18,39 "/><path stroke-width="9" d="M493,982c-9,44 -7,45 -9,90 -3,66 -1,66 -1,132 0,50 -5,51 1,100 6,43 7,44 23,84 10,25 13,24 29,46 13,19 15,18 29,37 9,12 9,13 17,26 "/><path stroke-width="10" d="M582,1497c5,6 5,6 9,12 "/><path stroke-width="11" d="M591,1509c3,5 3,5 6,10 "/><path stroke-width="14" d="M597,1519c2,3 2,3 3,5 "/><path stroke-width="18" d="M600,1524c0,0 0,0 0,0 "/><path stroke-width="15" d="M600,1524c-8,-20 -10,-19 -16,-40 "/><path stroke-width="9" d="M584,1484c-18,-74 -25,-74 -30,-149 -6,-96 -2,-98 9,-194 9,-76 15,-75 31,-151 9,-42 10,-41 20,-83 7,-30 6,-31 16,-61 8,-24 9,-24 20,-47 8,-18 9,-18 18,-36 4,-11 4,-11 8,-22 "/><path stroke-width="10" d="M676,741c2,-6 2,-6 4,-11 "/><path stroke-width="13" d="M680,730c2,-5 1,-5 4,-8 3,-4 3,-5 8,-7 "/><path stroke-width="12" d="M692,715c5,-4 5,-3 11,-5 6,-2 7,-1 12,-3 "/><path stroke-width="11" d="M715,707c15,-6 15,-6 29,-14 "/><path stroke-width="9" d="M744,693c20,-11 21,-10 40,-23 22,-15 23,-16 42,-34 20,-19 19,-19 37,-40 14,-16 13,-17 26,-34 10,-13 9,-14 19,-26 "/><path stroke-width="10" d="M908,536c3,-5 4,-5 7,-9 "/><path stroke-width="14" d="M915,527c1,-1 0,-2 0,-3 "/><path stroke-width="19" d="M915,524c0,0 0,0 0,0 "/><path stroke-width="15" d="M915,524c-4,13 -4,13 -7,26 "/><path stroke-width="9" d="M908,550c-3,12 -4,12 -6,25 -2,10 -2,10 -3,20 "/><path stroke-width="11" d="M899,595c-1,6 0,6 0,12 "/><path stroke-width="14" d="M899,607c0,2 0,2 -1,4 "/><path stroke-width="18" d="M898,611c0,0 0,0 0,0 "/></g></svg>