<?xml version="1.0" encoding="UTF-8" standalone="no"?>
<svg xmlns="http://www.w3.org/2000/svg" version="1.2" baseProfile="tiny" height="1850" width="1080"><g stroke-linejoin="round" stroke-linecap="round" fill="none" stroke="black"><path stroke-width="18" d="M265,1325c0,0 0,0 0,0 "/><path stroke-width="21" d="M265,1325c0,0 0,0 0,0 0,0 0,0 0,0 "/><path stroke-width="15" d="M265,1325c11,-14 11,-14 23,-27 "/><path stroke-width="9" d="M288,1298c24,-27 26,-25 49,-52 30,-36 29,-37 58,-75 35,-45 33,-46 70,-91 28,-35 31,-33 59,-68 26,-32 24,-34 47,-68 23,-33 23,-33 45,-67 18,-29 18,-29 37,-58 13,-19 14,-19 27,-38 9,-13 9,-13 17,-27 5,-8 5,-8 11,-16 5,-8 5,-8 11,-16 "/><path stroke-width="10" d="M719,722c5,-6 5,-6 10,-12 "/><path stroke-width="11" d="M729,710c4,-6 3,-6 7,-12 "/><path stroke-width="12" d="M736,698c2,-5 2,-5 4,-10 "/><path stroke-width="13" d="M740,688c2,-4 2,-4 3,-8 "/><path stroke-width="14" d="M743,680c1,-4 1,-4 1,-8 "/><path stroke-width="15" d="M744,672c0,-2 -1,-2 -1,-4 "/><path stroke-width="16" d="M743,668c-1,-2 0,-3 -1,-4 "/><path stroke-width="15" d="M742,664c-3,-4 -3,-4 -7,-7 "/><path stroke-width="13" d="M735,657c-4,-2 -5,-3 -10,-3 "/><path stroke-width="11" d="M725,654c-9,-1 -9,-1 -18,1 "/><path stroke-width="10" d="M707,655c-23,7 -23,7 -45,17 "/><path stroke-width="9" d="M662,672c-28,14 -29,14 -55,32 -26,17 -26,18 -49,37 -21,18 -21,18 -39,37 -22,24 -22,24 -42,50 -17,24 -18,24 -33,49 -17,31 -17,31 -31,63 -10,25 -9,25 -17,51 -7,26 -6,26 -11,52 -4,23 -5,23 -6,46 -2,19 -1,19 0,38 1,14 1,15 4,29 3,11 2,13 10,21 11,12 13,13 28,17 24,7 25,6 51,6 26,1 26,-1 52,-3 24,-2 24,-2 49,-3 20,-1 20,0 41,0 13,0 13,0 25,1 11,1 11,2 21,3 "/><path stroke-width="11" d="M660,1198c5,1 5,1 11,2 "/><path stroke-width="14" d="M671,1200c3,1 3,1 6,2 "/><path stroke-width="16" d="M677,1202c2,1 3,1 3,3 "/><path stroke-width="14" d="M680,1205c2,8 4,9 2,17 "/><path stroke-width="10" d="M682,1222c-4,15 -5,15 -13,29 "/><path stroke-width="9" d="M669,1251c-10,19 -11,19 -23,37 -13,18 -14,18 -27,36 -11,15 -9,16 -20,31 -11,14 -12,13 -24,26 -9,10 -9,10 -18,20 -7,7 -6,8 -14,13 "/><path stroke-width="10" d="M543,1414c-7,5 -7,7 -15,8 -16,2 -17,2 -32,-2 "/><path stroke-width="9" d="M496,1420c-22,-6 -22,-8 -43,-17 -15,-7 -15,-7 -30,-15 -10,-5 -10,-6 -20,-12 "/><path stroke-width="10" d="M403,1376c-8,-4 -7,-4 -15,-9 -8,-4 -9,-4 -17,-8 -7,-4 -7,-4 -13,-9 "/><path stroke-width="11" d="M358,1350c-6,-4 -6,-4 -12,-9 "/><path stroke-width="12" d="M346,1341c-4,-3 -4,-3 -8,-6 "/><path stroke-width="13" d="M338,1335c-3,-2 -3,-2 -6,-4 "/><path stroke-width="16" d="M332,1331c-2,-1 -2,-1 -3,-2 "/><path stroke-width="18" d="M329,1329c-1,-1 -1,-1 -2,-1 "/><path stroke-width="17" d="M327,1328c-2,1 -4,1 -4,3 "/><path stroke-width="12" d="M323,1331c-3,14 -4,15 -3,29 "/><path stroke-width="9" d="M320,1360c2,30 3,30 9,59 6,29 6,30 15,58 12,35 13,35 28,68 14,31 17,34 31,61 "/></g></svg>