<?xml version="1.0" encoding="UTF-8" standalone="no"?>
<svg xmlns="http://www.w3.org/2000/svg" version="1.2" baseProfile="tiny" height="1850" width="1080"><g stroke-linejoin="round" stroke-linecap="round" fill="none" stroke="black"><path stroke-width="18" d="M838,274c0,0 0,0 0,0 "/><path stroke-width="19" d="M838,274c-1,9 1,10 -2,19 "/><path stroke-width="13" d="M836,293c-7,21 -4,23 -18,41 "/><path stroke-width="9" d="M818,334c-47,63 -51,61 -103,121 -21,24 -21,24 -43,47 -17,18 -17,18 -33,36 -23,25 -21,26 -45,49 -29,28 -29,28 -60,53 -26,21 -26,20 -53,39 -21,17 -21,18 -44,32 -14,9 -14,9 -29,13 -19,5 -20,7 -39,5 -28,-3 -29,-4 -55,-16 -21,-10 -21,-11 -39,-26 -20,-18 -21,-18 -36,-39 -14,-21 -13,-22 -21,-46 -5,-18 -6,-20 -5,-39 2,-23 2,-25 11,-45 9,-19 9,-21 25,-34 20,-18 22,-19 47,-29 36,-16 37,-17 76,-23 55,-10 56,-7 112,-10 57,-3 57,-4 114,-2 46,1 47,-1 93,7 21,4 21,7 39,18 16,10 19,10 28,25 13,21 12,24 17,49 6,28 5,29 4,57 0,24 0,25 -6,48 -10,30 -12,29 -26,58 -12,26 -12,27 -26,52 -15,24 -16,23 -31,46 -10,15 -10,15 -20,30 -11,16 -10,16 -23,31 -15,19 -16,18 -33,35 -22,22 -23,21 -46,42 -27,26 -27,26 -54,53 -21,21 -19,22 -40,44 -17,16 -18,16 -35,32 -16,14 -15,15 -31,29 -15,13 -14,14 -30,25 -16,13 -18,11 -34,24 -14,12 -14,13 -27,25 -12,10 -12,10 -24,21 -9,7 -9,7 -18,15 "/><path stroke-width="10" d="M275,1186c-6,5 -6,5 -12,11 "/><path stroke-width="11" d="M263,1197c-5,5 -5,5 -10,11 "/><path stroke-width="12" d="M253,1208c-3,3 -3,3 -5,7 "/><path stroke-width="14" d="M248,1215c-2,3 -4,4 -3,6 "/><path stroke-width="12" d="M245,1221c4,11 3,14 12,22 "/><path stroke-width="9" d="M257,1243c27,19 28,20 60,32 46,19 47,17 95,29 59,15 61,10 120,25 60,16 60,19 120,38 37,11 37,11 74,21 30,9 30,10 61,18 16,4 16,5 33,7 10,2 10,3 20,1 11,-3 11,-5 22,-11 10,-7 10,-7 19,-15 9,-8 8,-9 15,-18 7,-9 7,-9 13,-19 6,-8 6,-8 12,-15 "/><path stroke-width="10" d="M921,1336c5,-6 6,-6 10,-12 "/><path stroke-width="12" d="M931,1324c3,-4 3,-4 4,-10 "/><path stroke-width="13" d="M935,1314c1,-4 1,-4 0,-8 "/><path stroke-width="12" d="M935,1306c-3,-8 -3,-9 -9,-15 "/><path stroke-width="10" d="M926,1291c-8,-9 -8,-9 -18,-15 "/><path stroke-width="9" d="M908,1276c-21,-12 -22,-10 -43,-21 -28,-15 -28,-16 -56,-31 -33,-18 -34,-15 -66,-34 -34,-20 -33,-22 -66,-45 -30,-20 -29,-21 -59,-40 -25,-17 -25,-18 -52,-32 -22,-12 -23,-10 -47,-19 -15,-6 -15,-7 -30,-11 -15,-5 -15,-5 -31,-8 -16,-3 -16,-5 -32,-5 -24,0 -25,-1 -48,5 -27,7 -28,8 -54,20 -19,9 -19,10 -37,22 -15,9 -15,9 -29,18 -11,7 -10,8 -22,13 -9,5 -10,6 -20,6 -10,0 -11,1 -19,-4 -15,-9 -15,-11 -27,-24 -11,-12 -9,-13 -19,-26 -7,-10 -8,-10 -16,-21 -7,-10 -8,-10 -14,-21 -7,-11 -7,-11 -11,-25 -6,-21 -9,-21 -9,-43 -1,-41 -3,-42 5,-83 8,-41 10,-41 27,-79 14,-33 14,-34 35,-62 22,-28 23,-29 52,-49 34,-25 35,-26 75,-41 38,-15 40,-12 81,-21 18,-3 18,-1 37,-3 "/></g></svg>