<?xml version="1.0" encoding="UTF-8" standalone="no"?>
<svg xmlns="http://www.w3.org/2000/svg" version="1.2" baseProfile="tiny" height="1771" width="1080"><g stroke-linejoin="round" stroke-linecap="round" fill="none" stroke="black"><path stroke-width="16" d="M657,891c0,0 0,0 0,0 -2,-3 -2,-3 -4,-6 "/><path stroke-width="13" d="M653,885c-2,-4 -2,-4 -4,-8 "/><path stroke-width="10" d="M649,877c-9,-13 -6,-17 -19,-26 "/><path stroke-width="8" d="M630,851c-38,-28 -38,-37 -83,-49 -59,-16 -63,-10 -124,-7 -60,3 -61,5 -119,20 -49,12 -50,12 -94,34 -37,19 -37,21 -68,48 -23,20 -22,21 -40,46 -13,16 -13,17 -22,35 -5,12 -5,13 -5,25 0,10 -2,14 5,21 10,9 13,11 28,12 42,0 43,-5 86,-11 54,-8 53,-13 107,-18 63,-6 63,-6 126,-4 57,1 57,6 114,9 48,2 50,9 97,1 60,-9 61,-13 118,-35 50,-19 52,-18 97,-47 22,-13 22,-16 36,-37 14,-20 12,-22 21,-44 12,-34 13,-34 22,-69 10,-41 11,-42 15,-85 3,-39 5,-40 -1,-78 -4,-30 -7,-30 -20,-58 -15,-32 -18,-30 -36,-61 "/><path stroke-width="10" d="M890,499c0,0 0,0 0,0 "/></g></svg>