<?xml version="1.0" encoding="UTF-8" standalone="no"?>
<svg xmlns="http://www.w3.org/2000/svg" version="1.2" baseProfile="tiny" height="1863" width="1080"><g stroke-linejoin="round" stroke-linecap="round" fill="none" stroke="black"><path stroke-width="18" d="M137,648c0,0 0,0 0,0 "/><path stroke-width="21" d="M137,648c0,0 0,0 0,0 "/><path stroke-width="19" d="M137,648c4,2 4,3 8,4 "/><path stroke-width="14" d="M145,652c6,1 6,2 12,1 "/><path stroke-width="11" d="M157,653c10,-2 10,-2 19,-6 "/><path stroke-width="10" d="M176,647c13,-6 13,-6 25,-13 "/><path stroke-width="9" d="M201,634c13,-9 13,-9 25,-19 19,-14 19,-14 38,-29 18,-13 18,-14 37,-26 20,-14 21,-13 42,-26 27,-16 26,-18 53,-33 24,-13 25,-11 50,-23 16,-7 16,-8 33,-15 14,-5 15,-6 30,-8 16,-2 16,-2 32,0 25,4 25,4 49,11 28,9 29,8 55,21 28,12 28,13 54,29 17,11 17,11 34,24 15,10 15,10 29,22 13,12 13,13 25,27 9,12 9,12 17,25 8,12 8,13 14,26 7,12 8,12 12,25 4,13 5,13 5,27 0,16 -2,17 -5,33 -4,16 -4,16 -9,31 -6,16 -5,17 -14,32 -9,16 -10,17 -24,30 -11,11 -12,11 -25,19 -15,8 -15,10 -32,14 -13,3 -14,3 -27,1 -20,-4 -22,-3 -40,-14 -23,-14 -22,-16 -43,-35 -21,-18 -21,-19 -40,-39 -19,-21 -19,-21 -37,-43 -19,-24 -20,-24 -37,-50 -17,-25 -16,-26 -32,-52 -19,-31 -19,-31 -39,-62 -18,-30 -18,-30 -37,-60 -14,-23 -13,-23 -27,-45 -13,-20 -14,-19 -27,-39 -10,-14 -10,-15 -20,-29 -9,-13 -8,-14 -18,-26 -12,-15 -13,-15 -25,-29 -9,-10 -9,-10 -17,-21 "/><path stroke-width="10" d="M260,308c-6,-6 -5,-6 -10,-12 -5,-7 -5,-6 -10,-13 "/><path stroke-width="12" d="M240,283c-2,-3 -2,-4 -4,-7 "/><path stroke-width="15" d="M236,276c-1,-2 -1,-2 -3,-4 "/><path stroke-width="16" d="M233,272c-1,-2 -1,-2 -3,-3 "/><path stroke-width="17" d="M230,269c-2,-1 -2,-1 -4,-2 -2,-1 -2,-1 -4,-2 -2,-1 -2,0 -4,-1 -2,0 -2,0 -3,-1 -3,-1 -3,-1 -5,-2 "/><path stroke-width="16" d="M210,261c-2,-1 -2,-1 -4,-2 -2,-1 -2,-1 -4,-2 "/><path stroke-width="17" d="M202,257c-2,-1 -2,-1 -4,-2 "/><path stroke-width="16" d="M198,255c-3,-2 -2,-2 -5,-4 "/><path stroke-width="15" d="M193,251c-2,-2 -3,-1 -5,-3 -3,-2 -3,-2 -5,-4 "/><path stroke-width="16" d="M183,244c-2,-2 -2,-2 -4,-4 "/><path stroke-width="15" d="M179,240c-2,-2 -2,-2 -5,-4 -2,-2 -2,-2 -4,-3 "/><path stroke-width="16" d="M170,233c-3,-2 -3,-2 -5,-3 -2,-1 -2,-1 -4,-2 -3,-2 -3,-2 -5,-4 "/><path stroke-width="15" d="M156,224c-4,-3 -4,-2 -7,-5 "/><path stroke-width="14" d="M149,219c-3,-3 -3,-3 -6,-5 -3,-3 -3,-3 -6,-5 "/><path stroke-width="15" d="M137,209c-3,-2 -3,-2 -5,-4 -3,-2 -3,-2 -6,-4 -3,-2 -3,-1 -5,-3 "/><path stroke-width="16" d="M121,198c-2,-1 -2,-2 -4,-3 "/><path stroke-width="17" d="M117,195c-2,-1 -2,-1 -3,-2 -1,-1 -1,-2 -2,-3 "/><path stroke-width="18" d="M112,190c-1,-1 -1,-1 -2,-2 -1,-1 -1,-1 -1,-2 "/><path stroke-width="20" d="M109,186c0,0 0,0 0,0 0,-1 -1,-1 -1,-1 "/><path stroke-width="19" d="M108,185c-1,-1 0,-1 -1,-1 0,-1 0,-1 -1,-1 -1,-1 -1,-1 -2,-1 "/><path stroke-width="17" d="M104,182c-2,-1 -2,-1 -4,-1 "/></g></svg>