<?xml version="1.0" encoding="UTF-8" standalone="no"?>
<svg xmlns="http://www.w3.org/2000/svg" version="1.2" baseProfile="tiny" height="1863" width="1080"><g stroke-linejoin="round" stroke-linecap="round" fill="none" stroke="black"><path stroke-width="18" d="M631,1215c0,0 0,0 0,0 "/><path stroke-width="19" d="M631,1215c-1,-7 -1,-7 -2,-15 "/><path stroke-width="13" d="M629,1200c-6,-34 -6,-34 -13,-68 "/><path stroke-width="9" d="M616,1132c-8,-44 -5,-45 -18,-88 -13,-45 -17,-44 -32,-88 -16,-44 -13,-45 -30,-89 -19,-49 -20,-48 -43,-95 -22,-45 -22,-44 -47,-88 -27,-47 -25,-48 -55,-93 -25,-36 -26,-35 -54,-68 -16,-18 -17,-17 -35,-32 -14,-12 -14,-12 -29,-23 -10,-7 -10,-7 -20,-14 -10,-7 -10,-7 -21,-13 "/><path stroke-width="10" d="M232,441c-8,-6 -8,-5 -16,-10 "/><path stroke-width="11" d="M216,431c-5,-4 -5,-4 -11,-8 "/><path stroke-width="12" d="M205,423c-4,-2 -4,-2 -7,-4 "/><path stroke-width="15" d="M198,419c-2,-1 -2,-2 -3,-1 "/><path stroke-width="16" d="M195,418c-2,1 -3,2 -3,5 "/><path stroke-width="12" d="M192,423c2,13 1,16 8,28 "/><path stroke-width="9" d="M200,451c18,26 20,26 42,49 43,44 46,41 88,85 51,54 51,54 97,111 40,49 41,49 74,103 41,69 37,71 73,143 12,24 11,25 23,49 6,13 7,12 14,24 "/><path stroke-width="13" d="M630,413c0,0 0,0 0,0 "/><path stroke-width="19" d="M630,413c0,0 0,0 0,0 "/><path stroke-width="18" d="M630,413c-2,1 -2,1 -5,2 "/><path stroke-width="16" d="M625,415c-3,1 -2,1 -5,2 -3,0 -5,1 -6,-1 "/><path stroke-width="12" d="M614,416c-5,-9 -4,-11 -7,-22 "/><path stroke-width="9" d="M607,394c-6,-23 -3,-24 -11,-47 -6,-21 -7,-22 -17,-41 -6,-12 -7,-12 -16,-22 "/><path stroke-width="10" d="M563,284c-3,-4 -4,-4 -8,-7 "/><path stroke-width="12" d="M555,277c-5,-4 -6,-4 -11,-7 "/><path stroke-width="11" d="M544,270c-7,-5 -7,-5 -14,-10 "/><path stroke-width="10" d="M530,260c-7,-4 -7,-5 -14,-10 "/><path stroke-width="11" d="M516,250c-4,-3 -4,-2 -8,-5 "/><path stroke-width="13" d="M508,245c-4,-3 -4,-3 -8,-6 "/><path stroke-width="15" d="M500,239c-2,-1 -2,-1 -4,-2 "/><path stroke-width="17" d="M496,237c-2,-1 -2,-1 -3,-1 "/><path stroke-width="18" d="M493,236c-1,0 -1,0 -2,0 "/><path stroke-width="19" d="M491,236c-1,0 -1,0 -1,0 -1,0 -1,1 -1,1 "/><path stroke-width="20" d="M489,237c-1,1 -1,0 -1,0 0,-1 0,-1 0,-1 0,-1 0,0 -1,0 "/><path stroke-width="21" d="M487,236c0,0 0,0 0,0 "/></g></svg>