<?xml version="1.0" encoding="UTF-8" standalone="no"?>
<svg xmlns="http://www.w3.org/2000/svg" version="1.2" baseProfile="tiny" height="1771" width="1080"><g stroke-linejoin="round" stroke-linecap="round" fill="none" stroke="black"><path stroke-width="16" d="M267,1136c0,0 0,0 0,0 "/><path stroke-width="17" d="M267,1136c0,-2 0,-2 0,-4 "/><path stroke-width="14" d="M267,1132c-1,-7 -1,-7 -2,-14 "/><path stroke-width="9" d="M265,1118c-2,-26 -2,-26 -3,-53 "/><path stroke-width="8" d="M262,1065c-1,-31 0,-31 0,-61 0,-37 0,-37 0,-74 1,-43 0,-43 2,-86 2,-41 2,-41 5,-83 2,-28 0,-28 5,-56 3,-15 2,-17 10,-29 3,-6 7,-9 13,-7 12,2 14,5 24,15 19,20 18,22 33,46 22,35 22,35 41,71 18,37 17,37 33,75 15,34 14,34 27,69 9,27 9,27 17,54 7,20 5,20 12,39 3,8 4,8 8,15 "/><path stroke-width="11" d="M492,1053c1,2 1,4 3,4 "/><path stroke-width="13" d="M495,1057c2,-2 4,-3 5,-7 "/><path stroke-width="10" d="M500,1050c4,-18 4,-19 4,-37 "/><path stroke-width="8" d="M504,1013c0,-50 0,-50 -4,-99 -4,-57 -5,-57 -12,-113 -7,-57 -9,-56 -16,-113 -6,-47 -6,-46 -11,-93 -4,-38 -3,-38 -6,-76 -2,-24 -2,-24 -3,-49 0,-12 -1,-12 1,-23 "/><path stroke-width="10" d="M453,447c1,-4 2,-5 5,-5 "/><path stroke-width="11" d="M458,442c5,0 6,1 10,5 "/><path stroke-width="9" d="M468,447c12,15 13,15 21,32 "/><path stroke-width="8" d="M489,479c22,42 21,42 39,86 19,46 19,46 35,94 18,52 18,52 34,105 18,59 15,60 35,119 19,55 18,56 42,109 24,52 25,52 53,101 36,63 37,62 74,124 1,0 1,0 1,1 "/></g></svg>