<?xml version="1.0" encoding="UTF-8" standalone="no"?>
<svg xmlns="http://www.w3.org/2000/svg" version="1.2" baseProfile="tiny" height="1771" width="1080"><g stroke-linejoin="round" stroke-linecap="round" fill="none" stroke="black"><path stroke-width="16" d="M281,1107c0,0 0,0 0,0 "/><path stroke-width="18" d="M281,1107c0,0 0,0 0,1 "/><path stroke-width="17" d="M281,1108c0,0 0,1 1,1 "/><path stroke-width="16" d="M282,1109c1,0 2,0 4,0 "/><path stroke-width="11" d="M286,1109c10,-5 11,-4 20,-11 "/><path stroke-width="8" d="M306,1098c34,-26 35,-25 66,-55 38,-35 38,-35 71,-75 38,-46 37,-47 71,-95 38,-55 37,-55 72,-111 35,-57 36,-56 69,-114 31,-53 30,-53 59,-106 23,-42 23,-42 45,-85 18,-34 19,-33 34,-68 10,-22 11,-22 16,-45 2,-10 4,-15 -1,-22 -5,-5 -10,-6 -19,-3 -32,12 -34,13 -63,34 -43,30 -41,33 -80,68 -49,44 -49,43 -95,90 -47,47 -49,46 -91,98 -37,45 -37,46 -68,95 -20,33 -27,33 -35,69 -5,21 -5,32 9,44 16,15 26,11 52,11 45,0 45,-5 90,-12 51,-8 50,-13 101,-18 41,-4 43,-5 83,-1 21,2 30,0 41,13 8,10 4,19 -2,34 -16,38 -21,36 -44,72 -30,46 -32,44 -62,91 -26,42 -28,42 -50,86 -14,28 -21,31 -22,59 -1,13 6,24 17,22 32,-3 37,-12 70,-32 56,-35 54,-38 108,-77 "/><path stroke-width="9" d="M748,1065c1,0 1,0 1,0 "/></g></svg>