<?xml version="1.0" encoding="UTF-8" standalone="no"?>
<svg xmlns="http://www.w3.org/2000/svg" version="1.2" baseProfile="tiny" height="1730" width="1080"><g stroke-linejoin="round" stroke-linecap="round" fill="none" stroke="black"><path stroke-width="18" d="M566,235c0,0 0,0 0,0 "/><path stroke-width="20" d="M566,235c0,-1 0,-1 -1,-1 "/><path stroke-width="17" d="M565,234c-4,0 -4,1 -8,2 "/><path stroke-width="12" d="M557,236c-20,3 -20,4 -40,6 "/><path stroke-width="9" d="M517,242c-37,3 -37,4 -73,3 -34,0 -34,-3 -67,-6 -22,-2 -22,-3 -44,-4 -12,0 -12,0 -24,1 "/><path stroke-width="11" d="M309,236c-5,1 -6,1 -11,3 "/><path stroke-width="14" d="M298,239c-2,1 -2,1 -3,3 "/><path stroke-width="17" d="M295,242c-1,1 -1,2 0,2 "/><path stroke-width="16" d="M295,244c3,2 4,2 7,2 "/><path stroke-width="13" d="M302,246c8,2 8,1 16,2 "/><path stroke-width="10" d="M318,248c16,2 16,1 31,3 "/><path stroke-width="9" d="M349,251c24,4 24,3 48,9 18,4 18,6 36,12 15,7 15,6 31,14 13,6 14,6 27,14 12,8 13,8 24,18 8,6 9,6 14,15 "/><path stroke-width="10" d="M529,333c4,5 5,8 2,12 -6,9 -9,10 -20,15 "/><path stroke-width="9" d="M511,360c-21,11 -22,10 -45,18 -27,10 -27,10 -55,18 -27,7 -27,6 -53,13 -20,5 -19,5 -39,9 -9,2 -9,2 -18,4 "/><path stroke-width="12" d="M301,422c-3,1 -6,2 -7,2 "/><path stroke-width="15" d="M294,424c0,0 3,-1 5,-1 "/><path stroke-width="12" d="M299,423c13,-3 13,-3 26,-5 "/><path stroke-width="9" d="M325,418c22,-2 23,-3 45,-3 23,0 23,-1 46,3 24,4 24,3 47,13 20,8 21,9 39,23 16,14 16,14 27,32 11,16 12,17 15,35 3,18 3,19 -2,36 -4,16 -7,16 -16,30 -9,13 -9,13 -20,23 -9,9 -9,9 -20,14 -10,5 -10,5 -21,7 -11,2 -11,2 -22,2 -13,-1 -13,-2 -26,-4 -17,-3 -17,-3 -34,-8 -13,-4 -13,-4 -26,-10 "/><path stroke-width="10" d="M357,611c-8,-3 -8,-3 -15,-8 "/><path stroke-width="11" d="M342,603c-5,-3 -6,-2 -10,-6 "/><path stroke-width="13" d="M332,597c-3,-4 -4,-4 -4,-8 0,-5 1,-6 5,-10 "/><path stroke-width="11" d="M333,579c7,-7 7,-8 17,-12 "/><path stroke-width="9" d="M350,567c15,-7 15,-9 31,-11 18,-1 20,-1 37,4 20,7 21,8 37,22 18,15 18,16 32,35 13,19 12,19 22,39 8,17 7,17 12,35 3,9 4,10 3,18 "/><path stroke-width="11" d="M524,709c-1,4 -3,6 -8,6 -9,0 -10,-2 -18,-7 "/><path stroke-width="9" d="M498,708c-16,-11 -17,-11 -31,-25 -19,-19 -18,-20 -35,-41 -15,-20 -15,-20 -29,-41 -12,-16 -12,-17 -23,-33 -7,-9 -7,-9 -13,-17 "/><path stroke-width="11" d="M367,551c-3,-4 -5,-4 -7,-8 "/><path stroke-width="14" d="M360,543c0,-2 0,-4 3,-4 "/><path stroke-width="13" d="M363,539c8,-2 10,-2 19,-1 "/><path stroke-width="9" d="M382,538c20,4 21,4 40,10 25,7 26,6 49,17 26,11 27,10 50,26 24,16 25,16 44,38 19,22 20,23 31,49 11,26 12,27 14,55 2,25 2,27 -5,50 -6,20 -7,23 -22,37 -14,13 -17,15 -36,18 -20,3 -22,1 -41,-5 -24,-8 -25,-9 -45,-23 -23,-16 -22,-18 -42,-37 -15,-16 -15,-16 -28,-34 -8,-10 -8,-11 -14,-23 "/><path stroke-width="10" d="M377,716c-3,-7 -5,-8 -4,-16 1,-7 3,-8 9,-14 8,-8 9,-7 19,-13 "/><path stroke-width="14" d="M806,1253c0,0 0,0 0,0 "/><path stroke-width="18" d="M806,1253c-2,-1 -2,-1 -3,-3 0,-2 0,-2 -1,-3 "/><path stroke-width="17" d="M802,1247c0,-2 0,-2 -1,-4 "/><path stroke-width="15" d="M801,1243c-3,-4 -3,-4 -5,-8 "/><path stroke-width="12" d="M796,1235c-3,-8 -3,-8 -6,-16 "/><path stroke-width="11" d="M790,1219c-3,-6 -3,-6 -6,-12 -3,-6 -3,-6 -7,-12 "/><path stroke-width="12" d="M777,1195c-4,-6 -4,-6 -8,-11 -4,-4 -4,-4 -9,-9 -4,-4 -4,-4 -9,-8 -5,-5 -5,-5 -10,-9 -5,-4 -5,-4 -10,-7 -4,-3 -4,-4 -9,-6 -5,-4 -6,-4 -12,-7 -6,-3 -6,-3 -12,-5 -6,-3 -6,-2 -13,-4 "/><path stroke-width="11" d="M685,1129c-7,-2 -7,-2 -14,-3 -8,-2 -8,-2 -16,-3 -8,-1 -8,-1 -16,-1 -8,0 -8,0 -15,1 -8,0 -8,0 -16,1 -8,2 -8,1 -16,3 -7,2 -7,2 -14,4 -7,2 -7,2 -14,5 -7,3 -7,3 -14,6 -7,3 -7,2 -14,5 "/><path stroke-width="12" d="M536,1147c-5,3 -4,3 -9,6 "/><path stroke-width="13" d="M527,1153c-5,3 -5,2 -9,5 -4,2 -3,3 -6,6 -4,4 -4,3 -8,7 -5,4 -4,4 -9,9 "/><path stroke-width="12" d="M495,1180c-4,5 -4,5 -9,10 -4,5 -5,4 -8,10 -4,5 -4,5 -7,10 -3,5 -3,5 -6,10 "/><path stroke-width="13" d="M465,1220c-3,4 -2,5 -6,8 -4,4 -4,4 -9,8 "/><path stroke-width="12" d="M450,1236c-6,3 -6,3 -12,7 -4,4 -5,3 -9,7 "/><path stroke-width="13" d="M429,1250c-4,4 -5,3 -7,8 -3,4 -4,5 -4,10 0,5 1,5 3,10 "/><path stroke-width="12" d="M421,1278c1,2 2,1 3,3 "/><path stroke-width="15" d="M784,1323c0,0 0,0 0,0 "/><path stroke-width="20" d="M784,1323c1,1 1,1 1,1 "/><path stroke-width="19" d="M785,1324c-1,1 -2,1 -3,2 "/><path stroke-width="18" d="M782,1326c-1,1 -1,1 -2,3 "/><path stroke-width="17" d="M780,1329c-1,2 -1,2 -3,4 "/><path stroke-width="15" d="M777,1333c-3,3 -3,4 -6,7 "/><path stroke-width="12" d="M771,1340c-7,8 -7,9 -15,16 "/><path stroke-width="10" d="M756,1356c-5,6 -5,6 -12,10 "/><path stroke-width="11" d="M744,1366c-5,4 -5,3 -11,6 "/><path stroke-width="12" d="M733,1372c-5,2 -5,2 -10,5 "/><path stroke-width="13" d="M723,1377c-4,1 -4,2 -8,3 "/><path stroke-width="14" d="M715,1380c-4,2 -4,2 -7,2 "/><path stroke-width="15" d="M708,1382c-4,1 -4,1 -7,1 -3,0 -3,0 -6,1 "/><path stroke-width="16" d="M695,1384c-3,0 -3,0 -5,0 -4,0 -4,0 -7,0 "/><path stroke-width="15" d="M683,1384c-3,0 -3,0 -6,0 -4,0 -4,0 -8,0 "/><path stroke-width="14" d="M669,1384c-4,0 -4,0 -8,0 -4,0 -4,0 -8,-1 -4,0 -4,0 -8,-1 "/><path stroke-width="15" d="M645,1382c-3,-1 -3,0 -5,-1 "/><path stroke-width="16" d="M640,1381c-2,0 -2,0 -4,-1 "/><path stroke-width="17" d="M636,1380c-2,-1 -2,-1 -3,-1 "/><path stroke-width="18" d="M633,1379c-1,-1 -1,-1 -3,-1 "/><path stroke-width="19" d="M630,1378c0,0 0,-1 -1,-1 -1,0 -1,1 -1,1 "/><path stroke-width="20" d="M628,1378c0,0 0,1 0,1 "/><path stroke-width="19" d="M628,1379c-2,0 -2,-1 -4,-1 "/><path stroke-width="18" d="M624,1378c-1,0 -1,0 -3,0 -1,0 -1,0 -3,-1 "/><path stroke-width="17" d="M618,1377c-2,0 -2,0 -4,0 "/><path stroke-width="16" d="M614,1377c-3,0 -3,1 -6,0 "/><path stroke-width="15" d="M608,1377c-4,0 -4,0 -7,-1 "/><path stroke-width="14" d="M601,1376c-5,-1 -5,-1 -9,-2 -4,-1 -4,-1 -9,-2 -4,-1 -4,-1 -8,-2 -4,-2 -4,-2 -8,-3 -4,-2 -4,-1 -7,-3 -3,-2 -3,-2 -6,-3 "/><path stroke-width="15" d="M554,1361c-3,-2 -3,-1 -6,-3 -3,-2 -3,-2 -6,-4 -3,-2 -2,-3 -6,-4 -2,-1 -3,0 -5,-2 -4,-1 -4,-2 -7,-4 "/><path stroke-width="14" d="M524,1344c-3,-2 -3,-2 -6,-4 "/><path stroke-width="15" d="M518,1340c-3,-1 -3,-1 -6,-2 -3,-1 -3,-1 -6,-3 "/><path stroke-width="16" d="M506,1335c-2,-1 -2,-1 -4,-1 -3,-1 -3,-1 -5,-2 -2,-1 -2,-1 -4,-2 -3,-1 -3,-1 -5,-2 -3,-2 -3,-2 -5,-3 -2,-1 -2,-1 -4,-2 "/><path stroke-width="17" d="M479,1323c-1,-1 -1,-1 -2,-1 "/><path stroke-width="18" d="M477,1322c-2,-1 -2,-1 -3,-2 "/><path stroke-width="17" d="M474,1320c-3,0 -3,0 -5,-2 "/><path stroke-width="16" d="M469,1318c-2,-1 -2,-1 -5,-2 "/><path stroke-width="15" d="M464,1316c-3,-2 -3,-2 -6,-3 -3,-2 -2,-2 -5,-3 "/><path stroke-width="16" d="M453,1310c-2,-2 -1,-2 -3,-3 "/><path stroke-width="18" d="M450,1307c-1,0 -1,0 -1,0 "/><path stroke-width="19" d="M449,1307c-3,-2 -3,-2 -6,-3 "/><path stroke-width="17" d="M443,1304c-3,-2 -3,-2 -7,-4 "/><path stroke-width="14" d="M436,1300c-5,-2 -5,-2 -10,-4 -3,0 -3,-1 -6,-1 "/><path stroke-width="17" d="M420,1295c-1,0 -1,0 -2,0 "/><path stroke-width="19" d="M418,1295c0,1 1,1 2,2 0,0 0,0 0,0 "/><path stroke-width="21" d="M601,1261c0,0 0,0 0,0 0,0 0,0 -1,1 "/><path stroke-width="20" d="M600,1262c0,0 0,0 -1,0 "/><path stroke-width="19" d="M599,1262c-1,1 -1,1 -2,1 "/><path stroke-width="18" d="M597,1263c-2,0 -2,0 -3,1 "/><path stroke-width="16" d="M594,1264c-4,1 -4,1 -8,2 "/><path stroke-width="13" d="M586,1266c-7,2 -7,2 -15,4 "/><path stroke-width="11" d="M571,1270c-6,2 -6,2 -13,3 "/><path stroke-width="12" d="M558,1273c-5,2 -5,1 -10,2 "/><path stroke-width="13" d="M548,1275c-5,1 -5,1 -11,1 -5,1 -5,0 -10,1 "/><path stroke-width="14" d="M527,1277c-4,1 -4,1 -8,3 "/><path stroke-width="15" d="M519,1280c-3,1 -3,1 -5,3 "/><path stroke-width="16" d="M514,1283c-2,2 -2,2 -3,4 -1,2 -1,3 0,5 "/><path stroke-width="17" d="M511,1292c0,2 0,2 1,4 1,1 1,1 2,2 "/><path stroke-width="18" d="M514,1298c1,1 1,1 2,2 1,0 1,0 3,1 1,0 1,0 3,0 "/><path stroke-width="17" d="M522,1301c2,-1 2,-2 4,-3 "/><path stroke-width="15" d="M526,1298c3,-2 3,-2 6,-4 "/><path stroke-width="14" d="M532,1294c4,-3 4,-2 8,-5 "/><path stroke-width="13" d="M540,1289c5,-4 4,-5 9,-8 "/><path stroke-width="12" d="M549,1281c5,-5 4,-5 10,-8 "/><path stroke-width="13" d="M559,1273c3,-2 3,-1 7,-2 "/><path stroke-width="16" d="M566,1271c1,-1 1,-1 2,-2 "/><path stroke-width="18" d="M568,1269c1,0 1,0 1,0 "/><path stroke-width="17" d="M569,1269c-3,0 -4,1 -8,2 "/><path stroke-width="14" d="M561,1271c-4,1 -4,0 -8,1 -5,1 -5,1 -9,2 -3,1 -4,0 -6,2 "/><path stroke-width="16" d="M538,1276c-1,1 -1,1 -1,3 "/><path stroke-width="18" d="M537,1279c1,1 1,1 2,2 "/><path stroke-width="19" d="M539,1281c0,0 0,0 0,0 "/><path stroke-width="20" d="M578,1260c0,0 0,0 0,0 0,0 0,0 0,-1 0,0 -1,-1 -1,-1 1,0 1,0 2,0 "/><path stroke-width="19" d="M579,1258c1,1 1,1 2,1 "/><path stroke-width="18" d="M581,1259c2,0 2,0 4,1 "/><path stroke-width="17" d="M585,1260c2,0 2,0 4,1 "/><path stroke-width="14" d="M589,1261c6,1 6,1 13,2 "/><path stroke-width="12" d="M602,1263c6,1 6,1 12,2 6,0 6,0 11,-1 6,0 6,1 12,0 6,0 6,0 12,-1 7,-1 7,-1 13,-2 6,-1 6,-1 12,-2 6,0 6,0 12,0 6,-1 6,-1 12,-1 "/><path stroke-width="13" d="M698,1258c5,0 5,0 10,1 5,0 5,0 9,0 "/><path stroke-width="14" d="M717,1259c5,1 5,1 9,2 "/><path stroke-width="13" d="M726,1261c5,1 5,1 10,3 5,1 5,1 10,2 "/><path stroke-width="14" d="M746,1266c4,2 3,2 7,3 "/><path stroke-width="15" d="M753,1269c3,0 4,0 7,0 2,1 2,1 5,2 "/><path stroke-width="17" d="M765,1271c1,0 1,0 2,0 "/><path stroke-width="19" d="M767,1271c1,0 1,0 1,0 "/><path stroke-width="20" d="M768,1271c0,0 1,1 1,1 0,0 0,-1 0,-1 0,0 0,0 0,1 "/><path stroke-width="21" d="M769,1272c0,0 0,0 0,0 "/><path stroke-width="20" d="M769,1272c0,-1 0,-1 -1,-1 "/><path stroke-width="19" d="M768,1271c-1,-1 -1,0 -3,0 "/><path stroke-width="17" d="M765,1271c-3,-1 -3,-2 -5,-1 "/><path stroke-width="15" d="M760,1270c-4,1 -4,2 -7,3 "/><path stroke-width="14" d="M753,1273c-4,2 -4,2 -8,4 -4,1 -4,1 -9,3 "/><path stroke-width="13" d="M736,1280c-6,1 -6,1 -12,1 "/><path stroke-width="12" d="M724,1281c-7,1 -7,1 -14,2 "/><path stroke-width="11" d="M710,1283c-8,1 -8,1 -16,2 -9,1 -9,1 -18,1 "/><path stroke-width="10" d="M676,1286c-8,0 -9,1 -17,-1 -9,-1 -9,-3 -18,-4 "/><path stroke-width="11" d="M641,1281c-6,-2 -7,-1 -13,-1 "/><path stroke-width="12" d="M628,1280c-5,-1 -5,-1 -10,-2 "/><path stroke-width="14" d="M618,1278c-4,-1 -4,-1 -7,-2 "/><path stroke-width="15" d="M611,1276c-2,-1 -2,-1 -5,-2 "/><path stroke-width="17" d="M606,1274c-1,0 -1,-1 -2,-1 "/><path stroke-width="18" d="M604,1273c-1,-1 -1,-1 -2,-1 "/><path stroke-width="19" d="M602,1272c0,-1 0,-1 0,-2 "/><path stroke-width="20" d="M602,1270c0,0 0,-1 0,-1 2,1 2,1 4,2 "/><path stroke-width="18" d="M606,1271c2,1 2,1 5,2 "/><path stroke-width="15" d="M611,1273c4,1 4,1 8,3 "/><path stroke-width="13" d="M619,1276c6,1 6,1 12,3 "/><path stroke-width="12" d="M631,1279c6,2 6,2 12,4 7,2 7,2 14,4 "/><path stroke-width="11" d="M657,1287c6,2 6,2 13,3 7,2 7,2 14,4 8,2 8,2 16,3 "/><path stroke-width="10" d="M700,1297c9,2 9,2 17,3 "/><path stroke-width="11" d="M717,1300c8,1 8,1 16,2 6,1 6,1 12,1 "/><path stroke-width="12" d="M745,1303c5,0 5,0 10,0 "/><path stroke-width="14" d="M755,1303c4,0 4,0 8,-1 4,0 4,0 7,0 "/><path stroke-width="15" d="M770,1302c3,-1 3,-1 7,-1 "/><path stroke-width="16" d="M777,1301c2,0 2,0 4,-1 "/><path stroke-width="17" d="M781,1300c2,0 2,0 3,-1 "/><path stroke-width="18" d="M784,1299c0,-1 0,-1 1,-2 "/><path stroke-width="19" d="M785,1297c0,-1 0,-1 0,-1 -2,0 -3,0 -6,1 "/><path stroke-width="18" d="M779,1297c-2,0 -2,0 -4,0 "/><path stroke-width="16" d="M775,1297c-4,0 -4,0 -8,0 "/><path stroke-width="15" d="M767,1297c-3,1 -3,0 -7,1 "/><path stroke-width="14" d="M760,1298c-5,0 -5,0 -9,1 "/><path stroke-width="13" d="M751,1299c-5,0 -5,0 -11,0 "/><path stroke-width="12" d="M740,1299c-7,1 -7,1 -14,1 "/><path stroke-width="11" d="M726,1300c-9,0 -9,0 -18,-1 "/><path stroke-width="10" d="M708,1299c-10,0 -10,0 -20,-1 -10,-1 -10,-1 -19,-2 -10,-1 -10,-1 -19,-2 -9,-2 -9,-2 -18,-3 -8,-2 -8,-2 -16,-4 "/><path stroke-width="11" d="M616,1287c-7,-2 -7,-2 -14,-5 -7,-2 -7,-2 -14,-4 "/><path stroke-width="12" d="M588,1278c-6,-2 -6,-2 -11,-4 -5,-2 -5,-2 -10,-5 "/><path stroke-width="13" d="M567,1269c-4,-2 -4,-2 -7,-4 "/><path stroke-width="15" d="M560,1265c-3,-2 -3,-2 -6,-3 "/><path stroke-width="16" d="M554,1262c-2,-1 -2,0 -5,0 -2,0 -2,1 -4,2 "/><path stroke-width="17" d="M545,1264c-1,0 -1,0 -3,0 "/><path stroke-width="18" d="M542,1264c-1,1 -2,1 -3,0 "/><path stroke-width="19" d="M539,1264c0,0 0,-2 0,-1 0,1 0,2 1,4 1,0 1,0 2,1 0,1 0,1 1,1 1,1 1,2 2,2 "/><path stroke-width="18" d="M545,1271c1,2 1,2 3,2 "/><path stroke-width="16" d="M548,1273c4,1 4,0 8,0 "/><path stroke-width="14" d="M556,1273c5,2 5,2 10,4 "/><path stroke-width="12" d="M566,1277c7,2 7,2 13,4 7,2 7,2 14,4 "/><path stroke-width="11" d="M593,1285c8,2 8,2 16,3 8,1 8,1 16,2 "/><path stroke-width="10" d="M625,1290c10,0 10,1 19,1 9,1 9,1 19,1 8,1 8,0 17,1 10,0 10,0 20,0 8,0 8,0 17,0 "/><path stroke-width="11" d="M717,1293c7,0 7,0 14,-1 "/><path stroke-width="12" d="M731,1292c6,0 6,0 11,-1 "/><path stroke-width="13" d="M742,1291c4,0 4,0 8,0 "/><path stroke-width="15" d="M750,1291c3,-1 3,-1 6,-1 "/><path stroke-width="17" d="M756,1290c1,0 1,0 2,0 "/><path stroke-width="19" d="M758,1290c1,-1 1,-1 1,-2 "/><path stroke-width="20" d="M759,1288c0,0 0,0 0,0 "/><path stroke-width="21" d="M759,1288c0,0 1,0 1,0 -1,-1 -1,0 -3,-1 "/><path stroke-width="20" d="M757,1287c0,0 0,0 -1,0 "/><path stroke-width="19" d="M756,1287c-2,-1 -2,0 -3,-1 "/><path stroke-width="17" d="M753,1286c-3,-2 -2,-3 -5,-5 "/><path stroke-width="14" d="M748,1281c-5,-2 -5,-2 -9,-4 "/><path stroke-width="13" d="M739,1277c-6,-2 -6,-2 -12,-4 "/><path stroke-width="11" d="M727,1273c-8,-3 -8,-3 -16,-5 -7,-3 -7,-3 -15,-5 -8,-2 -8,-1 -16,-3 -8,-2 -8,-2 -16,-4 -7,-2 -7,-2 -15,-3 -6,-2 -6,-2 -13,-4 "/><path stroke-width="12" d="M636,1249c-5,-1 -5,-1 -10,-3 "/><path stroke-width="14" d="M626,1246c-4,-1 -4,0 -8,-1 "/><path stroke-width="15" d="M618,1245c-2,-1 -2,-1 -5,-1 "/><path stroke-width="16" d="M613,1244c-2,-1 -2,-1 -4,-1 "/><path stroke-width="17" d="M609,1243c-2,0 -2,0 -4,0 "/><path stroke-width="16" d="M605,1243c-3,1 -3,0 -5,2 "/><path stroke-width="15" d="M600,1245c-3,2 -2,3 -5,6 -2,2 -2,1 -5,3 "/><path stroke-width="16" d="M590,1254c-2,2 -2,2 -4,3 "/><path stroke-width="17" d="M586,1257c-1,1 -1,1 -2,2 "/><path stroke-width="19" d="M584,1259c-1,0 -1,0 -1,0 "/><path stroke-width="20" d="M583,1259c0,0 0,0 -1,1 0,0 0,0 0,0 0,0 0,0 0,0 -1,1 -1,1 -1,1 "/><path stroke-width="19" d="M581,1261c-1,1 -1,1 -1,1 -1,1 -1,1 -1,2 "/><path stroke-width="20" d="M579,1264c0,0 -1,0 -1,-1 0,0 1,0 1,0 0,0 0,0 0,0 1,0 1,0 1,0 0,0 0,0 -1,1 "/><path stroke-width="19" d="M579,1264c0,1 0,1 -1,2 "/><path stroke-width="18" d="M578,1266c-1,1 -1,1 -2,2 "/><path stroke-width="17" d="M576,1268c-1,1 -1,1 -1,1 "/><path stroke-width="19" d="M419,1273c0,0 0,0 0,0 "/><path stroke-width="21" d="M419,1273c1,0 1,0 1,0 "/><path stroke-width="20" d="M420,1273c0,0 0,-1 1,-1 "/><path stroke-width="19" d="M421,1272c1,0 1,0 3,0 "/><path stroke-width="18" d="M424,1272c1,0 1,0 2,1 "/><path stroke-width="17" d="M426,1273c3,0 3,0 7,1 "/><path stroke-width="13" d="M433,1274c7,1 7,1 14,3 "/><path stroke-width="12" d="M447,1277c6,2 6,2 11,4 "/><path stroke-width="13" d="M458,1281c4,2 4,2 8,5 "/><path stroke-width="14" d="M466,1286c3,2 3,2 6,4 "/><path stroke-width="15" d="M472,1290c2,3 2,3 4,5 "/><path stroke-width="16" d="M476,1295c1,2 1,2 2,4 "/><path stroke-width="17" d="M478,1299c0,1 0,2 -2,3 "/><path stroke-width="16" d="M476,1302c-2,2 -2,2 -5,3 "/><path stroke-width="14" d="M471,1305c-5,2 -5,2 -10,2 "/><path stroke-width="12" d="M461,1307c-7,-1 -7,-1 -13,-4 -6,-3 -6,-3 -11,-7 -4,-3 -4,-3 -7,-7 "/><path stroke-width="14" d="M430,1289c-2,-2 -3,-2 -4,-5 "/><path stroke-width="15" d="M426,1284c-1,-3 -2,-3 -1,-5 "/><path stroke-width="16" d="M425,1279c1,-3 2,-3 4,-4 2,-2 2,-2 4,-2 "/><path stroke-width="17" d="M433,1273c2,-1 2,-1 4,-2 "/><path stroke-width="16" d="M437,1271c3,0 3,0 5,0 3,1 2,1 5,2 "/><path stroke-width="17" d="M447,1273c1,1 2,1 2,2 "/><path stroke-width="18" d="M449,1275c1,1 1,1 0,2 "/><path stroke-width="17" d="M449,1277c0,2 0,3 -2,4 "/><path stroke-width="16" d="M447,1281c-2,2 -2,0 -5,0 "/><path stroke-width="17" d="M442,1281c-1,1 -1,0 -2,1 "/><path stroke-width="18" d="M440,1282c-2,0 -2,1 -2,2 "/><path stroke-width="19" d="M438,1284c0,0 0,-1 1,-1 "/><path stroke-width="17" d="M439,1283c4,-1 4,-1 7,-1 "/><path stroke-width="15" d="M446,1282c4,0 5,-1 9,0 2,1 2,1 4,3 "/><path stroke-width="17" d="M459,1285c0,0 -1,0 -1,1 "/></g></svg>