<?xml version="1.0" encoding="UTF-8" standalone="no"?>
<svg xmlns="http://www.w3.org/2000/svg" version="1.2" baseProfile="tiny" height="1771" width="1080"><g stroke-linejoin="round" stroke-linecap="round" fill="none" stroke="black"><path stroke-width="16" d="M265,1185c0,0 0,0 0,0 "/><path stroke-width="17" d="M265,1185c-1,-1 -1,-1 -3,-1 "/><path stroke-width="15" d="M262,1184c-1,-1 -1,-1 -2,-1 -2,-1 -2,-1 -4,-1 -1,-1 -1,-1 -2,-2 -2,-1 -2,-1 -2,-2 "/><path stroke-width="13" d="M252,1178c0,-6 0,-7 1,-13 "/><path stroke-width="9" d="M253,1165c5,-13 4,-13 11,-25 "/><path stroke-width="8" d="M264,1140c13,-26 15,-26 30,-51 20,-36 20,-36 40,-71 24,-44 24,-44 49,-87 28,-49 28,-48 56,-96 29,-49 30,-49 59,-98 24,-42 23,-42 47,-84 19,-33 21,-32 39,-66 10,-19 10,-19 18,-40 3,-9 4,-10 4,-18 "/><path stroke-width="10" d="M606,529c0,-3 -2,-5 -4,-4 -11,4 -13,5 -23,13 "/><path stroke-width="8" d="M579,538c-31,24 -31,24 -60,50 -34,30 -34,30 -66,63 -30,31 -30,31 -58,64 -20,24 -22,24 -38,51 -8,15 -12,19 -10,33 1,9 7,13 18,14 27,5 29,1 58,-2 43,-4 43,-7 86,-11 42,-5 42,-8 84,-7 28,1 33,-1 55,11 12,7 16,15 13,28 -6,29 -13,30 -31,56 -30,42 -32,40 -65,80 -37,47 -40,46 -75,95 -34,47 -34,47 -63,97 -18,29 -23,30 -30,61 -3,12 -2,22 9,25 24,6 31,3 59,-8 65,-25 64,-28 125,-63 83,-46 83,-47 163,-97 114,-72 114,-74 227,-147 1,-1 1,-1 1,-1 "/></g></svg>