<?xml version="1.0" encoding="UTF-8" standalone="no"?>
<svg xmlns="http://www.w3.org/2000/svg" version="1.2" baseProfile="tiny" height="1730" width="1080"><g stroke-linejoin="round" stroke-linecap="round" fill="none" stroke="black"><path stroke-width="18" d="M286,506c0,0 0,0 0,0 "/><path stroke-width="20" d="M286,506c0,0 0,0 -1,-1 "/><path stroke-width="19" d="M285,505c-1,-1 -1,-1 -1,-2 "/><path stroke-width="18" d="M284,503c-1,-1 -1,-1 -1,-3 0,-1 0,-2 1,-2 "/><path stroke-width="15" d="M284,498c6,-4 6,-5 14,-7 "/><path stroke-width="10" d="M298,491c27,-9 27,-8 55,-16 "/><path stroke-width="9" d="M353,475c30,-8 30,-8 61,-16 31,-9 30,-10 62,-17 31,-6 31,-5 63,-9 34,-3 34,-5 69,-6 33,-1 33,-1 66,3 26,3 27,2 52,11 19,6 21,6 36,20 16,14 17,15 25,34 8,22 8,24 8,47 0,29 0,30 -8,57 -9,34 -10,34 -27,65 -19,35 -20,35 -45,67 -25,33 -25,34 -56,63 -27,25 -28,26 -60,46 -27,16 -28,15 -57,27 -24,10 -24,9 -49,17 -20,5 -20,4 -41,9 -16,4 -16,5 -33,8 -12,2 -12,1 -24,3 "/><path stroke-width="10" d="M395,904c-8,1 -8,1 -16,3 "/><path stroke-width="11" d="M379,907c-6,1 -6,1 -13,3 "/><path stroke-width="12" d="M366,910c-5,1 -5,1 -11,3 "/><path stroke-width="13" d="M355,913c-4,1 -5,1 -9,4 -5,3 -5,3 -10,6 "/><path stroke-width="12" d="M336,923c-6,4 -6,4 -11,9 "/><path stroke-width="11" d="M325,932c-7,6 -7,6 -12,12 "/><path stroke-width="10" d="M313,944c-6,8 -6,8 -10,16 -5,10 -5,10 -9,20 "/><path stroke-width="9" d="M294,980c-5,12 -5,12 -8,24 -4,13 -4,14 -7,27 -3,15 -4,15 -7,30 -2,16 -2,16 -3,33 -1,17 -2,17 -1,33 1,14 1,14 4,28 2,12 2,12 5,23 3,9 3,9 8,18 "/><path stroke-width="10" d="M285,1196c4,8 4,8 10,15 7,7 8,7 16,12 "/><path stroke-width="9" d="M311,1223c10,5 10,5 21,6 13,3 13,2 27,1 16,-1 16,-3 32,-6 18,-3 18,-3 35,-5 18,-3 18,-4 35,-6 13,-1 13,-1 26,-2 "/><path stroke-width="10" d="M487,1211c8,0 8,0 17,1 8,0 8,-1 15,0 "/><path stroke-width="12" d="M519,1212c5,1 6,1 10,3 "/><path stroke-width="14" d="M529,1215c3,2 4,2 5,4 "/><path stroke-width="15" d="M534,1219c1,3 0,3 1,6 1,4 1,4 2,9 "/><path stroke-width="13" d="M537,1234c0,6 0,6 0,12 "/><path stroke-width="12" d="M537,1246c1,8 2,8 2,15 "/><path stroke-width="11" d="M539,1261c1,7 1,7 2,14 0,7 0,7 1,13 "/><path stroke-width="12" d="M542,1288c1,5 1,5 2,11 "/><path stroke-width="13" d="M544,1299c0,4 1,4 1,8 "/><path stroke-width="15" d="M545,1307c0,3 0,3 0,6 "/><path stroke-width="16" d="M545,1313c0,2 0,3 1,4 "/><path stroke-width="17" d="M546,1317c2,2 2,1 4,2 "/><path stroke-width="16" d="M550,1319c1,0 1,0 2,0 "/></g></svg>