<?xml version="1.0" encoding="UTF-8" standalone="no"?>
<svg xmlns="http://www.w3.org/2000/svg" version="1.2" baseProfile="tiny" height="1730" width="1080"><g stroke-linejoin="round" stroke-linecap="round" fill="none" stroke="black"><path stroke-width="18" d="M748,354c0,0 0,0 0,0 "/><path stroke-width="19" d="M748,354c2,1 2,1 5,1 "/><path stroke-width="17" d="M753,355c1,0 1,0 3,0 2,-1 2,-1 4,-1 2,-1 2,-1 4,-2 "/><path stroke-width="18" d="M764,352c1,0 1,0 2,-1 1,0 2,-1 1,-2 "/><path stroke-width="16" d="M767,349c-2,-5 -2,-5 -6,-10 "/><path stroke-width="12" d="M761,339c-5,-6 -6,-5 -12,-10 "/><path stroke-width="11" d="M749,329c-7,-5 -8,-4 -15,-9 "/><path stroke-width="10" d="M734,320c-8,-6 -8,-6 -16,-12 -8,-6 -9,-5 -17,-11 "/><path stroke-width="9" d="M701,297c-9,-6 -9,-6 -17,-13 -8,-7 -8,-6 -15,-13 "/><path stroke-width="10" d="M669,271c-8,-7 -7,-8 -15,-15 -7,-6 -8,-6 -16,-11 -7,-5 -7,-5 -15,-9 -8,-4 -8,-3 -17,-5 -8,-3 -8,-3 -16,-4 -8,-2 -8,-2 -16,-3 -9,-1 -9,-1 -18,-1 -10,0 -10,0 -20,1 -9,2 -9,2 -19,5 -9,2 -9,2 -18,5 -10,2 -10,3 -20,6 "/><path stroke-width="9" d="M479,240c-10,3 -10,2 -20,5 "/><path stroke-width="10" d="M459,245c-8,3 -8,3 -16,6 "/><path stroke-width="11" d="M443,251c-6,3 -6,3 -12,7 "/><path stroke-width="12" d="M431,258c-5,2 -5,2 -9,6 "/><path stroke-width="13" d="M422,264c-3,2 -3,2 -6,5 "/><path stroke-width="15" d="M416,269c-1,2 -2,2 -2,5 "/><path stroke-width="16" d="M414,274c0,3 0,3 2,6 "/><path stroke-width="14" d="M416,280c2,5 3,5 7,9 "/><path stroke-width="11" d="M423,289c6,6 7,6 14,12 "/><path stroke-width="10" d="M437,301c2,2 2,1 4,3 "/><path stroke-width="14" d="M754,351c0,0 0,0 0,0 "/><path stroke-width="19" d="M754,351c0,0 1,-1 1,-1 "/><path stroke-width="20" d="M755,350c-1,1 -1,2 -3,3 "/><path stroke-width="19" d="M752,353c-1,1 -1,1 -3,2 "/><path stroke-width="17" d="M749,355c-2,1 -2,1 -4,3 "/><path stroke-width="14" d="M745,358c-5,2 -5,3 -10,5 "/><path stroke-width="11" d="M735,363c-10,4 -10,4 -19,8 -6,2 -6,3 -11,4 "/><path stroke-width="13" d="M705,375c-5,2 -5,1 -10,2 -5,2 -4,2 -9,4 -7,1 -7,1 -14,2 "/><path stroke-width="11" d="M672,383c-8,1 -8,2 -16,3 "/><path stroke-width="10" d="M656,386c-8,1 -8,1 -17,2 -8,1 -8,1 -17,1 -9,0 -9,0 -18,-1 -9,-1 -8,-2 -17,-3 "/><path stroke-width="11" d="M587,385c-8,-2 -8,-2 -16,-4 -7,-2 -7,-2 -13,-5 -7,-2 -7,-2 -14,-5 -6,-2 -6,-2 -13,-5 "/><path stroke-width="12" d="M531,366c-5,-2 -5,-2 -11,-4 "/><path stroke-width="13" d="M520,362c-4,-1 -4,-1 -9,-2 -4,-2 -4,-2 -9,-3 "/><path stroke-width="14" d="M502,357c-3,-2 -3,-2 -6,-4 -4,-2 -4,-1 -8,-3 -4,-2 -4,-2 -8,-4 "/><path stroke-width="13" d="M480,346c-5,-2 -4,-2 -9,-5 -5,-2 -5,-2 -9,-5 -5,-2 -5,-2 -9,-5 -3,-2 -3,-3 -6,-6 "/><path stroke-width="14" d="M447,325c-3,-2 -3,-2 -5,-4 "/><path stroke-width="15" d="M442,321c-3,-2 -3,-2 -5,-4 "/><path stroke-width="16" d="M437,317c-1,-2 -1,-2 -3,-3 "/><path stroke-width="18" d="M434,314c0,-1 0,-1 -1,-1 "/><path stroke-width="19" d="M433,313c0,-1 0,0 -1,0 "/><path stroke-width="20" d="M432,313c0,-1 0,-1 0,-2 0,-1 0,-1 0,-2 "/><path stroke-width="18" d="M432,309c0,-2 1,-2 1,-4 "/><path stroke-width="16" d="M433,305c0,-4 -1,-4 -2,-8 "/><path stroke-width="14" d="M431,297c0,-3 0,-3 -1,-6 "/><path stroke-width="17" d="M715,351c0,0 0,0 0,0 "/><path stroke-width="20" d="M715,351c0,0 1,0 1,-1 "/><path stroke-width="21" d="M716,350c-1,0 -1,0 -1,0 "/><path stroke-width="20" d="M715,350c-1,0 -1,0 -2,0 "/><path stroke-width="19" d="M713,350c-1,0 -1,1 -2,0 "/><path stroke-width="18" d="M711,350c-2,0 -2,0 -4,0 "/><path stroke-width="14" d="M707,350c-8,-2 -8,-2 -15,-4 "/><path stroke-width="11" d="M692,346c-7,-1 -7,-2 -14,-4 -7,-1 -7,-1 -13,-2 "/><path stroke-width="12" d="M665,340c-7,-2 -7,-1 -14,-3 "/><path stroke-width="11" d="M651,337c-8,-2 -8,-2 -16,-5 "/><path stroke-width="10" d="M635,332c-9,-3 -9,-4 -18,-6 -10,-3 -10,-3 -20,-5 "/><path stroke-width="9" d="M597,321c-10,-2 -10,-2 -21,-4 "/><path stroke-width="10" d="M576,317c-8,-1 -8,-2 -16,-3 -8,-1 -8,-1 -17,-2 -8,-2 -8,-2 -17,-4 -8,-1 -8,-1 -17,-3 "/><path stroke-width="11" d="M509,305c-7,-1 -7,-2 -14,-4 -6,-2 -6,-2 -12,-4 "/><path stroke-width="13" d="M483,297c-5,-1 -5,0 -9,-1 "/><path stroke-width="15" d="M474,296c-3,-1 -3,-1 -5,-1 "/><path stroke-width="17" d="M469,295c-2,-1 -1,-1 -3,-2 "/><path stroke-width="19" d="M466,293c0,0 0,0 -1,0 "/><path stroke-width="20" d="M465,293c0,0 0,1 0,1 0,0 -1,0 -1,0 "/><path stroke-width="21" d="M464,294c0,0 1,0 1,0 0,0 0,0 0,0 1,0 1,0 3,0 "/><path stroke-width="20" d="M468,294c0,1 0,1 1,1 "/><path stroke-width="19" d="M469,295c0,1 0,1 1,1 "/><path stroke-width="18" d="M470,296c2,1 2,1 4,2 "/><path stroke-width="17" d="M474,298c2,1 2,0 5,1 "/><path stroke-width="16" d="M479,299c2,1 2,1 5,2 "/><path stroke-width="15" d="M484,301c4,1 4,1 7,1 "/><path stroke-width="14" d="M491,302c5,1 5,1 9,2 5,0 5,0 9,1 "/><path stroke-width="12" d="M509,305c8,0 8,1 15,1 "/><path stroke-width="11" d="M524,306c7,1 7,1 15,1 8,0 8,0 16,0 "/><path stroke-width="10" d="M555,307c10,1 10,1 20,2 10,1 10,1 19,2 "/><path stroke-width="11" d="M594,311c6,0 6,1 12,1 "/><path stroke-width="13" d="M606,312c4,1 4,1 7,1 "/><path stroke-width="14" d="M613,313c4,1 4,1 7,2 "/><path stroke-width="15" d="M620,315c3,1 3,1 6,2 3,1 3,1 6,2 4,1 4,1 8,3 "/><path stroke-width="14" d="M640,322c4,1 4,1 9,3 3,2 3,1 6,3 "/><path stroke-width="16" d="M655,328c2,1 2,1 3,2 "/><path stroke-width="17" d="M658,330c2,1 2,1 3,2 "/><path stroke-width="18" d="M661,332c1,0 1,0 2,1 "/><path stroke-width="19" d="M663,333c1,0 1,0 2,0 "/><path stroke-width="20" d="M665,333c0,0 0,0 0,0 0,0 0,0 -1,0 0,1 0,1 0,1 "/><path stroke-width="19" d="M664,334c-2,0 -2,-1 -4,-1 "/><path stroke-width="15" d="M660,333c-6,-1 -6,-1 -11,-2 "/><path stroke-width="12" d="M649,331c-9,-2 -9,-1 -18,-4 "/><path stroke-width="10" d="M631,327c-10,-2 -10,-3 -21,-6 "/><path stroke-width="9" d="M610,321c-11,-4 -11,-4 -23,-8 -11,-3 -11,-3 -21,-6 -11,-4 -11,-3 -22,-6 -12,-4 -12,-4 -25,-8 -11,-3 -11,-2 -21,-5 "/><path stroke-width="10" d="M498,288c-7,-2 -7,-2 -14,-4 "/><path stroke-width="12" d="M484,284c-4,-2 -4,-2 -8,-3 "/><path stroke-width="15" d="M476,281c-2,-1 -2,-1 -4,-1 "/><path stroke-width="18" d="M472,280c0,-1 0,-1 -1,-1 "/><path stroke-width="20" d="M471,279c0,0 0,0 0,0 "/><path stroke-width="21" d="M471,279c0,0 0,0 0,0 "/><path stroke-width="20" d="M471,279c1,0 1,0 2,1 "/><path stroke-width="19" d="M473,280c1,0 1,0 2,1 "/><path stroke-width="18" d="M475,281c2,0 2,0 4,1 "/><path stroke-width="16" d="M479,282c2,1 3,1 5,2 "/><path stroke-width="14" d="M484,284c6,1 6,2 11,3 "/><path stroke-width="12" d="M495,287c9,3 9,3 18,5 "/><path stroke-width="10" d="M513,292c14,2 14,1 28,2 "/><path stroke-width="9" d="M541,294c22,3 22,2 44,5 22,4 22,4 45,8 10,2 10,2 21,4 "/><path stroke-width="11" d="M651,311c4,0 4,1 7,2 "/><path stroke-width="15" d="M658,313c2,1 2,0 5,1 "/><path stroke-width="18" d="M663,314c0,0 0,0 1,0 "/><path stroke-width="19" d="M664,314c1,0 1,1 1,1 "/><path stroke-width="20" d="M665,315c0,0 1,0 1,0 -1,0 -1,0 -2,0 "/><path stroke-width="21" d="M664,315c0,0 0,0 0,0 "/><path stroke-width="19" d="M664,315c-3,0 -3,0 -5,-1 "/><path stroke-width="16" d="M659,314c-3,0 -3,0 -7,-1 "/><path stroke-width="14" d="M652,313c-6,-2 -6,-2 -12,-3 "/><path stroke-width="12" d="M640,310c-7,-2 -7,-2 -14,-3 "/><path stroke-width="11" d="M626,307c-9,-2 -9,-3 -18,-4 "/><path stroke-width="10" d="M608,303c-12,-2 -12,-2 -23,-3 "/><path stroke-width="9" d="M585,300c-10,-1 -10,-1 -20,-2 "/><path stroke-width="10" d="M565,298c-8,-1 -8,-1 -16,-2 "/><path stroke-width="11" d="M549,296c-7,0 -7,0 -14,0 "/><path stroke-width="12" d="M535,296c-4,0 -4,0 -9,0 "/><path stroke-width="15" d="M526,296c-1,1 -1,1 -3,1 "/><path stroke-width="18" d="M523,297c0,1 -1,1 -1,1 "/><path stroke-width="19" d="M522,298c0,1 0,1 1,1 "/><path stroke-width="18" d="M523,299c2,1 2,1 5,1 "/><path stroke-width="15" d="M528,300c4,1 4,0 9,1 "/><path stroke-width="13" d="M537,301c5,1 5,1 10,4 "/><path stroke-width="12" d="M547,305c5,2 5,4 10,7 "/><path stroke-width="11" d="M557,312c7,4 7,4 14,6 9,4 9,3 18,7 "/><path stroke-width="10" d="M589,325c10,4 9,5 20,8 "/><path stroke-width="9" d="M609,333c9,4 9,4 18,6 "/><path stroke-width="11" d="M627,339c6,2 6,2 12,2 "/><path stroke-width="13" d="M639,341c4,0 4,0 7,0 "/><path stroke-width="14" d="M646,341c4,-1 4,-1 7,-2 "/><path stroke-width="15" d="M653,339c3,-1 3,-2 6,-3 3,-2 3,-2 6,-3 3,-2 3,-3 6,-4 3,-1 4,-2 6,-1 "/><path stroke-width="16" d="M677,328c2,0 2,1 3,2 "/><path stroke-width="18" d="M680,330c1,1 1,1 2,1 "/><path stroke-width="19" d="M682,331c0,-1 0,-1 0,-3 0,0 0,0 1,-1 0,0 0,0 1,0 "/><path stroke-width="17" d="M684,327c3,1 3,2 6,3 "/><path stroke-width="16" d="M690,330c2,1 2,1 5,2 "/><path stroke-width="17" d="M695,332c1,0 1,0 3,1 "/><path stroke-width="18" d="M698,333c0,0 0,0 1,0 "/><path stroke-width="19" d="M699,333c0,0 0,0 1,-1 "/><path stroke-width="20" d="M700,332c0,0 0,0 0,0 0,-1 0,-1 0,-1 -1,0 -1,1 -1,1 0,0 0,0 0,0 -1,1 -1,1 -2,1 "/><path stroke-width="18" d="M697,333c-2,0 -2,0 -4,-1 "/><path stroke-width="16" d="M693,332c-4,-1 -4,-1 -8,-2 "/><path stroke-width="13" d="M685,330c-6,-1 -6,0 -12,0 "/><path stroke-width="12" d="M673,330c-8,0 -8,1 -17,0 "/><path stroke-width="10" d="M656,330c-9,-1 -9,-1 -17,-3 -8,-2 -8,-2 -15,-5 "/><path stroke-width="11" d="M624,322c-6,-3 -6,-3 -12,-6 -7,-4 -6,-4 -13,-9 -2,-1 -2,-1 -4,-2 "/><path stroke-width="15" d="M811,413c0,0 0,0 0,0 "/><path stroke-width="20" d="M811,413c-1,0 -1,0 -1,0 -1,0 0,1 -1,1 0,0 0,0 -1,0 0,1 0,1 0,1 "/><path stroke-width="19" d="M808,415c-1,1 -1,1 -2,2 0,0 0,0 0,1 -1,0 -1,0 -2,1 "/><path stroke-width="18" d="M804,419c-1,1 -1,1 -1,2 "/><path stroke-width="17" d="M803,421c-1,3 -1,3 -2,6 "/><path stroke-width="14" d="M801,427c-2,6 -2,6 -5,12 "/><path stroke-width="13" d="M796,439c-2,4 -2,4 -4,8 -2,4 -2,5 -5,8 -3,6 -3,6 -8,10 "/><path stroke-width="12" d="M779,465c-5,6 -5,6 -12,10 "/><path stroke-width="11" d="M767,475c-7,6 -7,6 -14,10 "/><path stroke-width="10" d="M753,485c-8,5 -8,4 -16,8 -9,3 -9,4 -18,7 -8,3 -9,2 -17,5 -9,2 -9,2 -18,4 -10,1 -10,2 -21,3 "/><path stroke-width="9" d="M663,512c-11,1 -11,1 -23,2 -10,0 -10,0 -21,0 -10,1 -10,0 -20,1 "/><path stroke-width="10" d="M599,515c-8,0 -8,0 -17,1 "/><path stroke-width="11" d="M582,516c-7,0 -7,0 -14,1 "/><path stroke-width="12" d="M568,517c-6,0 -6,0 -12,0 -6,0 -6,0 -11,0 -7,-1 -7,-1 -14,-2 "/><path stroke-width="11" d="M531,515c-8,-1 -8,-1 -16,-2 -9,-1 -9,-1 -17,-3 "/><path stroke-width="10" d="M498,510c-8,-2 -8,-2 -16,-4 "/><path stroke-width="11" d="M482,506c-7,-2 -7,-2 -13,-5 -6,-3 -6,-3 -12,-6 "/><path stroke-width="12" d="M457,495c-6,-3 -6,-3 -11,-7 -5,-3 -5,-3 -9,-7 -6,-4 -5,-4 -10,-9 -5,-4 -5,-4 -9,-8 -5,-5 -5,-4 -10,-9 -4,-4 -4,-4 -8,-9 -4,-4 -4,-4 -8,-8 -4,-4 -4,-4 -8,-8 -4,-5 -3,-6 -7,-11 -4,-5 -4,-5 -7,-10 -4,-4 -4,-4 -7,-8 "/><path stroke-width="13" d="M363,401c-3,-4 -4,-4 -6,-8 "/><path stroke-width="14" d="M357,393c-1,-3 -1,-3 -2,-6 "/><path stroke-width="15" d="M355,387c-1,-3 -1,-3 -2,-7 -1,-3 -1,-4 -2,-7 0,-3 0,-3 -1,-5 "/><path stroke-width="16" d="M350,368c0,-3 0,-3 -1,-6 0,-3 0,-3 -1,-5 "/><path stroke-width="15" d="M348,357c-1,-3 -1,-3 -2,-6 "/><path stroke-width="18" d="M769,391c0,0 0,0 0,0 "/><path stroke-width="20" d="M769,391c1,-1 1,-1 3,-2 "/><path stroke-width="19" d="M772,389c1,-1 1,-1 2,-1 "/><path stroke-width="18" d="M774,388c1,-1 1,-1 2,-2 "/><path stroke-width="17" d="M776,386c3,-2 3,-2 5,-4 "/><path stroke-width="15" d="M781,382c4,-3 4,-4 7,-8 "/><path stroke-width="14" d="M788,374c2,-2 2,-2 3,-5 "/><path stroke-width="15" d="M791,369c1,-3 1,-3 1,-6 0,-3 -1,-3 -2,-7 -1,-3 -2,-3 -4,-6 "/><path stroke-width="14" d="M786,350c-2,-5 -2,-5 -4,-10 "/><path stroke-width="12" d="M782,340c-3,-6 -3,-6 -6,-12 -2,-5 -3,-5 -5,-11 -3,-7 -3,-7 -6,-13 "/><path stroke-width="11" d="M765,304c-4,-7 -3,-7 -7,-14 -4,-7 -5,-7 -9,-13 "/><path stroke-width="10" d="M749,277c-6,-8 -6,-8 -12,-15 -6,-7 -7,-7 -13,-12 -8,-6 -8,-6 -16,-11 -7,-5 -7,-5 -14,-9 "/><path stroke-width="11" d="M694,230c-7,-4 -7,-4 -14,-8 -8,-4 -8,-4 -17,-7 "/><path stroke-width="10" d="M663,215c-7,-4 -8,-4 -15,-7 "/><path stroke-width="11" d="M648,208c-7,-2 -7,-2 -14,-5 -7,-3 -7,-4 -14,-6 -8,-2 -8,-1 -16,-3 -8,-2 -8,-2 -16,-4 -7,-1 -7,-2 -15,-3 -7,-1 -7,-1 -13,-2 "/><path stroke-width="12" d="M560,185c-6,0 -6,0 -11,0 "/><path stroke-width="13" d="M549,185c-5,-1 -5,-2 -9,-2 -5,-1 -5,0 -10,0 -5,0 -5,0 -10,-1 -6,0 -6,0 -12,0 -5,0 -5,0 -11,1 -5,0 -5,0 -10,0 -4,1 -4,1 -8,2 "/><path stroke-width="14" d="M479,185c-4,1 -4,1 -8,1 "/><path stroke-width="15" d="M471,186c-3,1 -3,1 -7,1 -3,0 -3,0 -6,0 -4,1 -4,0 -7,1 -4,1 -4,1 -8,2 "/><path stroke-width="14" d="M443,190c-5,1 -5,0 -10,1 "/><path stroke-width="12" d="M433,191c-7,1 -7,1 -13,4 -6,2 -6,2 -11,4 "/><path stroke-width="13" d="M409,199c-5,2 -5,2 -10,4 -4,2 -4,3 -8,5 "/><path stroke-width="14" d="M391,208c-3,2 -4,2 -7,5 -4,2 -4,3 -7,6 -3,2 -3,2 -5,5 "/><path stroke-width="15" d="M372,224c-3,2 -3,2 -5,5 -2,2 -2,2 -4,5 -2,3 -1,3 -3,7 "/><path stroke-width="14" d="M360,241c-3,4 -3,4 -5,8 "/><path stroke-width="12" d="M355,249c-4,6 -4,6 -7,11 -3,4 -3,4 -6,8 "/></g></svg>