<?xml version="1.0" encoding="UTF-8" standalone="no"?>
<svg xmlns="http://www.w3.org/2000/svg" version="1.2" baseProfile="tiny" height="1863" width="1080"><g stroke-linejoin="round" stroke-linecap="round" fill="none" stroke="black"><path stroke-width="18" d="M598,1279c0,0 0,0 0,0 "/><path stroke-width="21" d="M598,1279c0,0 0,0 0,0 "/><path stroke-width="20" d="M598,1279c1,-1 1,-1 1,-2 "/><path stroke-width="14" d="M599,1277c7,-17 7,-17 15,-34 "/><path stroke-width="9" d="M614,1243c10,-23 13,-22 19,-46 9,-33 8,-34 9,-69 2,-34 2,-35 -4,-68 -7,-42 -9,-42 -21,-82 -11,-38 -9,-38 -23,-74 -16,-41 -18,-40 -37,-79 -18,-36 -18,-37 -38,-72 -19,-30 -18,-31 -40,-59 -23,-29 -24,-29 -50,-55 -23,-23 -23,-24 -48,-44 -23,-19 -24,-19 -49,-36 -21,-14 -22,-13 -44,-26 -15,-9 -15,-10 -31,-18 -13,-6 -14,-6 -28,-11 -11,-4 -11,-5 -22,-7 "/><path stroke-width="11" d="M207,497c-5,-1 -5,-1 -10,-1 "/><path stroke-width="14" d="M197,496c-3,0 -3,0 -6,0 "/><path stroke-width="16" d="M191,496c-2,0 -2,-1 -4,0 "/><path stroke-width="17" d="M187,496c-2,0 -2,0 -3,2 "/><path stroke-width="15" d="M184,498c-2,6 -5,7 -3,12 "/><path stroke-width="11" d="M181,510c4,14 5,15 15,27 "/><path stroke-width="9" d="M196,537c18,22 20,21 40,41 21,20 23,18 41,39 14,16 13,18 24,36 12,19 12,19 23,39 16,30 14,31 30,61 23,42 25,41 49,82 28,50 29,50 55,101 17,32 14,34 30,67 9,17 11,16 20,34 7,13 6,13 11,27 "/><path stroke-width="10" d="M519,1064c3,6 2,7 6,13 "/><path stroke-width="11" d="M525,1077c3,6 4,6 8,11 "/><path stroke-width="12" d="M533,1088c4,5 5,5 10,7 5,3 5,3 10,4 "/><path stroke-width="11" d="M553,1099c10,2 10,1 20,1 "/><path stroke-width="12" d="M573,1100c4,0 4,0 8,-1 "/><path stroke-width="11" d="M581,1099c11,-5 11,-5 22,-10 "/><path stroke-width="10" d="M603,1089c5,-2 6,-2 11,-5 "/><path stroke-width="13" d="M614,1084c3,-2 3,-2 6,-4 "/><path stroke-width="16" d="M620,1080c2,-1 2,0 3,-1 "/><path stroke-width="18" d="M623,1079c1,0 1,0 2,-1 "/><path stroke-width="17" d="M625,1078c3,-2 3,-2 6,-3 "/><path stroke-width="16" d="M631,1075c3,-1 3,-1 5,-1 2,0 2,0 4,-1 "/><path stroke-width="18" d="M640,1073c1,0 1,-1 2,-1 "/><path stroke-width="20" d="M642,1072c0,0 0,0 0,0 0,-1 0,-1 1,-1 0,0 0,0 0,-1 "/><path stroke-width="21" d="M643,1070c0,0 0,0 0,0 0,0 0,0 0,0 0,0 0,0 0,0 0,0 0,0 0,0 0,0 0,0 0,0 "/><path stroke-width="19" d="M643,1070c1,-8 3,-8 3,-16 "/><path stroke-width="13" d="M646,1054c0,-17 -3,-17 -4,-33 "/><path stroke-width="9" d="M642,1021c-1,-17 1,-17 2,-34 0,-20 -1,-20 1,-39 1,-15 2,-15 4,-30 2,-13 3,-13 4,-26 1,-15 1,-15 0,-29 -1,-18 -1,-18 -5,-36 -3,-16 -5,-15 -9,-31 "/><path stroke-width="10" d="M639,796c-2,-8 -2,-8 -3,-16 "/><path stroke-width="12" d="M636,780c-1,-3 0,-3 -1,-7 "/><path stroke-width="15" d="M635,773c0,-2 -1,-2 -1,-4 "/><path stroke-width="17" d="M634,769c0,-1 0,-2 0,-3 "/><path stroke-width="18" d="M634,766c0,-1 0,-1 0,-1 "/><path stroke-width="19" d="M634,765c0,-1 0,-1 0,-2 0,-1 1,-1 1,-1 -2,1 -3,2 -6,4 "/><path stroke-width="15" d="M629,766c-7,5 -7,5 -14,9 "/><path stroke-width="10" d="M615,775c-12,7 -11,7 -23,12 "/><path stroke-width="9" d="M592,787c-17,8 -18,7 -35,14 -20,8 -21,8 -40,17 -25,12 -24,13 -48,25 -25,12 -25,11 -51,23 -22,10 -22,10 -44,20 -18,8 -18,8 -35,17 -23,13 -24,11 -44,27 -20,15 -18,17 -35,34 "/></g></svg>