<?xml version="1.0" encoding="UTF-8" standalone="no"?>
<svg xmlns="http://www.w3.org/2000/svg" version="1.2" baseProfile="tiny" height="1730" width="1080"><g stroke-linejoin="round" stroke-linecap="round" fill="none" stroke="black"><path stroke-width="18" d="M447,1193c0,0 0,0 0,0 "/><path stroke-width="20" d="M447,1193c-1,0 -1,0 -2,1 "/><path stroke-width="18" d="M445,1194c-1,0 -1,0 -2,1 0,1 0,1 -1,2 "/><path stroke-width="19" d="M442,1197c-1,1 -1,1 -1,1 "/><path stroke-width="20" d="M441,1198c0,0 0,1 0,1 "/><path stroke-width="19" d="M441,1199c1,-2 2,-2 4,-5 "/><path stroke-width="14" d="M445,1194c12,-17 12,-17 25,-34 "/><path stroke-width="9" d="M470,1160c23,-33 25,-32 48,-64 16,-24 16,-25 31,-50 11,-19 10,-19 21,-39 13,-22 12,-22 25,-44 18,-30 17,-31 37,-59 22,-33 22,-33 46,-64 20,-25 21,-25 42,-49 13,-15 11,-16 25,-30 7,-6 7,-6 15,-10 "/><path stroke-width="11" d="M760,751c5,-3 5,-4 11,-4 "/><path stroke-width="12" d="M771,747c5,-1 6,-2 11,1 "/><path stroke-width="13" d="M782,748c4,1 6,3 5,7 "/><path stroke-width="12" d="M787,755c-1,8 -3,9 -9,17 "/><path stroke-width="10" d="M778,772c-16,18 -18,18 -36,35 "/><path stroke-width="9" d="M742,807c-30,28 -31,26 -60,54 -31,30 -31,30 -60,61 -27,30 -28,29 -53,61 -20,26 -19,27 -38,54 -13,21 -12,21 -25,42 -9,14 -9,14 -18,29 "/><path stroke-width="10" d="M488,1108c-5,7 -4,7 -10,13 "/><path stroke-width="11" d="M478,1121c-3,4 -4,5 -9,5 "/><path stroke-width="12" d="M469,1126c-6,1 -7,0 -13,-2 "/><path stroke-width="11" d="M456,1124c-10,-4 -10,-4 -18,-10 "/><path stroke-width="9" d="M438,1114c-12,-10 -12,-10 -23,-21 -14,-14 -15,-13 -28,-29 -13,-16 -13,-17 -23,-35 -10,-19 -12,-19 -17,-40 -5,-22 -5,-23 -4,-47 1,-28 2,-29 9,-56 8,-33 10,-32 21,-64 11,-32 12,-31 23,-63 11,-29 11,-29 21,-57 8,-22 9,-21 16,-43 4,-16 4,-16 6,-32 2,-10 2,-10 2,-20 "/><path stroke-width="10" d="M441,607c0,-7 -1,-7 -2,-14 "/><path stroke-width="11" d="M439,593c-1,-6 -1,-6 -2,-12 "/><path stroke-width="13" d="M437,581c-1,-4 -1,-4 -1,-8 "/><path stroke-width="16" d="M436,573c-1,-1 -1,-1 -1,-3 "/><path stroke-width="18" d="M435,570c0,0 0,-1 0,0 0,2 0,2 0,5 "/><path stroke-width="14" d="M435,575c-2,6 -2,6 -5,11 "/><path stroke-width="11" d="M430,586c-6,11 -6,11 -13,21 "/><path stroke-width="9" d="M417,607c-9,12 -9,12 -19,23 -7,7 -7,7 -14,13 "/><path stroke-width="11" d="M384,643c-3,3 -3,4 -7,6 "/><path stroke-width="15" d="M377,649c-1,0 -2,0 -2,-2 0,-5 2,-6 4,-11 "/><path stroke-width="11" d="M379,636c5,-12 4,-12 11,-23 "/><path stroke-width="9" d="M390,613c9,-15 10,-15 21,-29 11,-15 11,-15 22,-29 8,-12 8,-13 17,-24 9,-10 9,-10 19,-19 12,-11 12,-11 25,-20 17,-12 17,-12 35,-22 19,-10 19,-10 39,-17 16,-6 16,-7 33,-9 12,-2 13,-1 25,1 8,1 10,1 16,6 "/><path stroke-width="11" d="M642,451c5,4 7,6 6,12 "/><path stroke-width="10" d="M648,463c-1,10 -3,11 -10,20 "/><path stroke-width="9" d="M638,483c-12,14 -13,14 -28,26 -19,17 -19,18 -41,32 -19,14 -19,14 -40,24 -8,4 -14,7 -17,3 "/><path stroke-width="10" d="M512,568c-4,-3 0,-8 3,-16 8,-20 9,-20 19,-38 "/><path stroke-width="9" d="M534,514c10,-19 11,-18 22,-36 8,-14 9,-14 17,-28 7,-11 7,-11 14,-23 6,-11 6,-11 11,-22 5,-9 5,-10 7,-20 2,-9 1,-9 1,-18 "/><path stroke-width="10" d="M606,367c0,-10 -1,-10 -1,-20 "/><path stroke-width="9" d="M605,347c-1,-12 -1,-12 -1,-24 -1,-13 -1,-13 0,-27 0,-12 1,-12 2,-25 1,-11 1,-11 2,-21 "/><path stroke-width="10" d="M608,250c1,-8 1,-8 1,-15 "/><path stroke-width="12" d="M609,235c0,-5 -1,-5 -2,-9 "/><path stroke-width="14" d="M607,226c-1,-3 -1,-4 -3,-6 "/><path stroke-width="15" d="M604,220c-2,-1 -3,-1 -6,0 "/><path stroke-width="13" d="M598,220c-7,1 -7,1 -14,3 "/><path stroke-width="10" d="M584,223c-11,4 -11,4 -21,7 "/><path stroke-width="9" d="M563,230c-11,5 -11,5 -22,9 "/><path stroke-width="10" d="M541,239c-7,4 -7,3 -13,7 "/><path stroke-width="13" d="M528,246c-3,2 -4,4 -5,5 "/><path stroke-width="16" d="M523,251c0,1 1,-1 2,-1 "/><path stroke-width="15" d="M525,250c4,-4 4,-4 9,-8 "/></g></svg>