<?xml version="1.0" encoding="UTF-8" standalone="no"?>
<svg xmlns="http://www.w3.org/2000/svg" version="1.2" baseProfile="tiny" height="1771" width="1080"><g stroke-linejoin="round" stroke-linecap="round" fill="none" stroke="black"><path stroke-width="16" d="M301,1140c0,0 0,0 0,0 "/><path stroke-width="17" d="M301,1140c1,-1 1,0 2,-1 "/><path stroke-width="15" d="M303,1139c2,-2 2,-2 3,-5 "/><path stroke-width="11" d="M306,1134c10,-14 10,-14 19,-29 "/><path stroke-width="8" d="M325,1105c30,-48 29,-48 59,-96 31,-49 32,-49 62,-98 32,-53 31,-53 62,-106 35,-58 36,-58 70,-117 36,-61 36,-61 71,-123 31,-53 34,-52 61,-108 19,-40 21,-40 32,-83 7,-26 11,-31 4,-56 -4,-15 -10,-21 -26,-24 -26,-5 -31,-2 -59,7 -44,15 -44,17 -86,41 -53,30 -55,29 -104,67 -51,40 -50,42 -95,89 -41,43 -43,43 -77,92 -27,39 -28,40 -45,83 -10,28 -14,34 -7,60 4,18 11,24 30,29 32,9 37,4 73,0 52,-6 53,-6 103,-19 53,-14 52,-19 104,-33 38,-11 39,-14 77,-17 12,-1 24,-2 24,7 1,14 -8,21 -21,39 -43,54 -46,51 -90,104 -47,57 -50,55 -93,115 -38,53 -42,52 -69,111 -18,40 -25,45 -22,86 2,29 7,41 32,56 33,19 42,16 83,11 66,-7 67,-13 130,-35 83,-30 82,-33 163,-70 90,-41 88,-44 178,-85 55,-25 56,-24 112,-48 "/></g></svg>