<?xml version="1.0" encoding="UTF-8" standalone="no"?>
<svg xmlns="http://www.w3.org/2000/svg" version="1.2" baseProfile="tiny" height="1771" width="1080"><g stroke-linejoin="round" stroke-linecap="round" fill="none" stroke="black"><path stroke-width="16" d="M463,873c0,0 0,0 0,0 "/><path stroke-width="17" d="M463,873c-1,0 -1,0 -2,0 "/><path stroke-width="16" d="M461,873c-1,0 -1,0 -2,-1 -1,0 -2,0 -2,0 0,0 1,0 2,0 0,0 0,0 1,0 "/><path stroke-width="17" d="M1068,525c0,0 0,0 0,0 "/><path stroke-width="18" d="M328,1247c0,0 0,0 0,0 1,0 1,0 1,-1 "/><path stroke-width="17" d="M329,1246c0,-1 -1,-1 -1,-1 "/><path stroke-width="15" d="M328,1245c0,-3 0,-3 0,-5 "/><path stroke-width="11" d="M328,1240c0,-12 0,-12 0,-24 "/><path stroke-width="8" d="M328,1216c1,-38 1,-38 2,-75 2,-49 1,-49 5,-97 5,-52 6,-52 14,-104 6,-35 5,-36 14,-71 4,-17 3,-19 13,-34 5,-8 7,-11 16,-11 10,-1 13,0 21,8 20,18 19,20 35,43 23,32 19,35 42,66 23,31 24,30 49,58 19,21 18,22 39,41 10,10 11,9 22,17 "/><path stroke-width="10" d="M600,1057c3,2 3,3 6,5 "/><path stroke-width="13" d="M606,1062c1,0 2,-1 1,-2 "/><path stroke-width="12" d="M607,1060c-5,-16 -6,-16 -11,-32 "/><path stroke-width="8" d="M596,1028c-13,-38 -14,-37 -25,-76 -10,-35 -10,-35 -16,-71 -6,-32 -7,-32 -8,-63 -2,-31 -3,-31 1,-61 3,-33 3,-33 13,-65 9,-29 10,-29 24,-56 8,-16 6,-19 19,-31 7,-6 10,-7 19,-6 12,2 14,4 22,13 15,15 15,17 24,36 17,38 13,40 29,78 20,46 21,46 43,91 22,47 23,46 47,92 29,56 29,56 59,113 "/><path stroke-width="9" d="M847,1022c1,0 1,0 1,0 "/><path stroke-width="13" d="M784,1316c0,0 0,0 0,0 "/><path stroke-width="16" d="M784,1316c-2,-3 -2,-3 -4,-7 "/><path stroke-width="13" d="M780,1309c-2,-4 -2,-4 -4,-8 "/><path stroke-width="10" d="M776,1301c-9,-14 -9,-14 -17,-28 "/><path stroke-width="8" d="M759,1273c-16,-24 -15,-24 -32,-48 -10,-14 -10,-15 -21,-28 -10,-10 -10,-11 -22,-19 -15,-10 -15,-11 -31,-17 -20,-8 -20,-9 -40,-12 -18,-4 -18,-2 -36,-3 -15,0 -15,-1 -29,0 -10,1 -11,0 -20,3 "/><path stroke-width="9" d="M528,1149c-6,3 -6,3 -11,8 "/><path stroke-width="10" d="M517,1157c-5,4 -5,4 -8,9 -3,6 -3,6 -6,12 -3,5 -3,5 -6,11 "/><path stroke-width="11" d="M497,1189c-1,3 -2,3 -3,7 "/><path stroke-width="13" d="M494,1196c-1,2 -1,2 -1,4 "/><path stroke-width="14" d="M493,1200c0,2 0,2 1,3 "/><path stroke-width="15" d="M494,1203c1,2 1,2 2,3 2,1 2,1 3,2 2,0 2,-1 4,-1 2,0 2,-1 4,-1 "/><path stroke-width="14" d="M507,1206c2,0 2,1 4,2 "/></g></svg>