<?xml version="1.0" encoding="UTF-8" standalone="no"?>
<svg xmlns="http://www.w3.org/2000/svg" version="1.2" baseProfile="tiny" height="1730" width="1080"><g stroke-linejoin="round" stroke-linecap="round" fill="none" stroke="black"><path stroke-width="18" d="M455,549c0,0 0,0 0,0 "/><path stroke-width="17" d="M455,549c2,-5 2,-5 4,-10 "/><path stroke-width="13" d="M459,539c4,-7 3,-7 7,-13 "/><path stroke-width="10" d="M466,526c6,-9 6,-10 13,-17 "/><path stroke-width="9" d="M479,509c21,-19 20,-21 44,-35 28,-17 29,-18 59,-28 24,-7 26,-4 51,-7 23,-3 23,-1 45,-3 22,-2 22,-2 43,-5 12,-2 12,-4 24,-6 "/><path stroke-width="12" d="M745,425c3,0 7,0 6,1 -5,5 -9,7 -18,11 "/><path stroke-width="9" d="M733,437c-33,17 -34,16 -68,32 -47,22 -48,21 -95,44 -49,24 -49,23 -98,49 -33,17 -34,17 -65,37 -19,11 -19,11 -35,25 "/><path stroke-width="10" d="M372,624c-5,5 -9,7 -8,12 "/><path stroke-width="11" d="M364,636c0,4 5,6 11,6 "/><path stroke-width="10" d="M375,642c26,0 27,-2 53,-5 "/><path stroke-width="9" d="M428,637c41,-6 40,-8 81,-14 31,-5 32,-9 63,-7 22,1 24,2 43,13 12,7 15,9 19,22 5,15 6,20 -1,35 -12,28 -17,27 -37,51 -26,29 -28,28 -56,56 -32,31 -34,29 -63,61 -27,30 -29,29 -50,62 -16,25 -18,27 -23,54 -3,16 -4,23 6,34 10,11 17,9 34,9 32,0 33,-3 65,-9 39,-8 39,-10 78,-19 40,-9 40,-12 81,-17 30,-4 32,-7 61,0 23,6 28,7 42,25 12,14 14,20 10,38 -5,26 -10,28 -29,48 -27,30 -30,29 -63,53 -34,25 -35,24 -70,47 -27,17 -28,16 -56,33 -18,11 -18,10 -36,21 -10,7 -10,7 -19,14 "/><path stroke-width="11" d="M508,1247c-4,3 -5,4 -7,6 "/><path stroke-width="15" d="M501,1253c-1,1 1,0 2,0 "/></g></svg>