<?xml version="1.0" encoding="UTF-8" standalone="no"?>
<svg xmlns="http://www.w3.org/2000/svg" version="1.2" baseProfile="tiny" height="1730" width="1080"><g stroke-linejoin="round" stroke-linecap="round" fill="none" stroke="black"><path stroke-width="18" d="M285,336c0,0 0,0 0,0 "/><path stroke-width="19" d="M285,336c3,-1 3,-2 7,-2 "/><path stroke-width="16" d="M292,334c4,-1 4,0 9,0 "/><path stroke-width="11" d="M301,334c23,3 23,4 47,6 "/><path stroke-width="9" d="M348,340c31,2 31,2 62,3 24,1 24,1 49,2 16,1 16,0 33,2 13,0 13,0 26,3 9,2 10,2 17,7 "/><path stroke-width="11" d="M535,357c5,3 7,4 7,10 0,8 -2,10 -8,18 "/><path stroke-width="9" d="M534,385c-12,15 -12,16 -27,29 -19,16 -20,15 -41,28 -18,11 -18,11 -37,19 -11,4 -12,3 -24,5 "/><path stroke-width="10" d="M405,466c-6,0 -7,0 -13,-2 "/><path stroke-width="13" d="M392,464c-2,0 -5,-2 -3,-3 3,-5 6,-5 13,-9 "/><path stroke-width="10" d="M402,452c17,-8 18,-8 36,-14 "/><path stroke-width="9" d="M438,438c24,-8 24,-8 49,-15 21,-6 21,-7 41,-10 11,-2 12,-2 23,-1 "/><path stroke-width="11" d="M551,412c4,1 8,2 7,5 -1,8 -4,10 -10,18 "/><path stroke-width="9" d="M548,435c-14,18 -15,17 -31,34 -21,21 -23,19 -43,41 -18,20 -18,21 -35,42 -16,20 -17,20 -32,42 -13,19 -13,20 -24,41 -8,18 -8,19 -14,38 -4,13 -5,13 -7,27 "/><path stroke-width="10" d="M362,700c-1,8 -1,8 1,17 "/><path stroke-width="11" d="M363,717c1,5 0,6 4,10 "/><path stroke-width="12" d="M367,727c4,5 5,6 11,7 "/><path stroke-width="11" d="M378,734c11,2 11,1 22,0 "/><path stroke-width="9" d="M400,734c17,-3 17,-3 35,-7 22,-5 22,-7 44,-11 19,-4 19,-4 38,-5 14,0 14,0 28,2 9,2 9,2 17,5 "/><path stroke-width="11" d="M562,718c5,3 7,3 9,8 "/><path stroke-width="12" d="M571,726c2,6 2,8 0,14 "/><path stroke-width="10" d="M571,740c-6,11 -7,11 -16,20 "/><path stroke-width="9" d="M555,760c-16,15 -17,14 -35,28 -24,19 -24,19 -49,37 -23,17 -24,16 -48,32 -21,15 -20,16 -41,32 -15,10 -15,10 -30,20 -7,5 -7,6 -15,10 "/><path stroke-width="11" d="M337,919c-4,3 -5,3 -9,4 "/><path stroke-width="16" d="M328,923c0,0 1,0 1,-1 "/><path stroke-width="14" d="M329,922c12,-8 12,-8 23,-15 "/><path stroke-width="9" d="M352,907c26,-17 26,-17 52,-33 29,-19 28,-20 57,-37 28,-17 28,-16 56,-31 18,-10 18,-11 37,-19 8,-4 9,-6 16,-5 "/><path stroke-width="12" d="M570,782c3,0 5,3 3,6 "/><path stroke-width="11" d="M573,788c-5,13 -7,14 -17,25 "/><path stroke-width="9" d="M556,813c-17,20 -17,20 -36,37 -17,16 -17,16 -35,30 -13,10 -13,11 -28,20 -8,5 -8,6 -17,9 "/><path stroke-width="11" d="M440,909c-4,2 -6,3 -10,1 "/><path stroke-width="14" d="M430,910c-2,0 -2,-3 -1,-5 2,-5 3,-5 8,-8 "/><path stroke-width="13" d="M437,897c3,-3 4,-2 8,-4 "/><path stroke-width="16" d="M329,1274c0,0 0,0 0,0 "/><path stroke-width="19" d="M329,1274c-1,-1 -1,-1 -2,-2 "/><path stroke-width="17" d="M327,1272c-2,-1 -2,-1 -4,-1 "/><path stroke-width="16" d="M323,1271c-3,-1 -3,-1 -5,-2 "/><path stroke-width="15" d="M318,1269c-5,-2 -5,-2 -10,-4 "/><path stroke-width="14" d="M308,1265c-2,-1 -4,-2 -4,-4 2,-3 5,-3 9,-5 "/><path stroke-width="11" d="M313,1256c15,-7 16,-7 30,-15 "/><path stroke-width="9" d="M343,1241c26,-14 26,-14 52,-30 18,-10 17,-12 35,-21 14,-8 14,-8 29,-12 12,-3 13,-2 25,-3 10,0 10,-1 20,1 "/><path stroke-width="10" d="M504,1176c9,2 9,3 19,6 9,4 9,4 18,8 7,3 7,2 15,5 "/><path stroke-width="12" d="M556,1195c4,2 6,2 7,4 "/><path stroke-width="15" d="M563,1199c1,1 -1,2 -4,3 "/><path stroke-width="13" d="M559,1202c-10,3 -10,2 -20,6 "/><path stroke-width="9" d="M539,1208c-14,4 -15,4 -29,10 -11,4 -11,4 -22,9 "/><path stroke-width="10" d="M488,1227c-6,4 -7,4 -12,9 "/><path stroke-width="12" d="M476,1236c-3,3 -3,5 -2,9 "/><path stroke-width="14" d="M474,1245c1,3 2,5 6,6 "/><path stroke-width="12" d="M480,1251c8,3 10,2 19,1 "/><path stroke-width="9" d="M499,1252c16,-2 16,-3 31,-7 18,-4 18,-5 36,-10 10,-2 10,-3 21,-4 "/><path stroke-width="10" d="M587,1231c6,0 8,-1 13,3 "/><path stroke-width="11" d="M600,1234c4,4 5,7 5,14 "/><path stroke-width="10" d="M605,1248c0,14 -3,14 -5,29 "/><path stroke-width="9" d="M600,1277c-3,17 -4,17 -7,34 -2,14 -2,14 -2,28 0,10 -1,11 2,21 "/><path stroke-width="10" d="M593,1360c2,8 2,9 7,16 6,8 6,8 14,14 9,6 9,6 20,9 "/><path stroke-width="9" d="M634,1399c14,5 14,6 29,8 18,2 18,1 37,1 19,-1 19,-3 39,-4 16,-2 16,-3 32,-3 11,0 12,-1 23,1 "/><path stroke-width="10" d="M794,1402c7,1 8,1 15,4 "/><path stroke-width="11" d="M809,1406c6,3 6,3 12,7 "/><path stroke-width="13" d="M821,1413c2,2 2,2 4,5 "/></g></svg>