<?xml version="1.0" encoding="UTF-8" standalone="no"?>
<svg xmlns="http://www.w3.org/2000/svg" version="1.2" baseProfile="tiny" height="1730" width="1080"><g stroke-linejoin="round" stroke-linecap="round" fill="none" stroke="black"><path stroke-width="18" d="M643,442c0,0 0,0 0,0 -2,4 -2,4 -5,8 "/><path stroke-width="14" d="M638,450c-4,5 -4,5 -8,10 "/><path stroke-width="11" d="M630,460c-11,17 -12,16 -23,34 "/><path stroke-width="9" d="M607,494c-25,41 -25,41 -47,84 -19,35 -20,34 -35,71 -12,31 -10,32 -19,65 -8,30 -7,30 -13,60 -7,31 -6,31 -13,62 -8,37 -9,37 -17,74 -10,40 -11,40 -18,80 -8,38 -8,38 -13,76 -4,31 -4,31 -7,62 -1,21 0,22 -1,43 -1,14 -2,14 -2,27 "/><path stroke-width="11" d="M422,1198c0,4 1,4 1,9 "/><path stroke-width="16" d="M423,1207c1,0 1,0 1,0 "/><path stroke-width="15" d="M424,1207c1,-7 0,-8 1,-15 "/><path stroke-width="10" d="M425,1192c2,-24 1,-24 5,-48 "/><path stroke-width="9" d="M430,1144c6,-41 6,-41 14,-82 8,-43 8,-43 17,-86 8,-41 10,-41 18,-82 5,-25 7,-26 7,-50 "/><path stroke-width="10" d="M486,844c1,-5 -2,-10 -5,-9 -8,5 -10,10 -17,21 "/><path stroke-width="9" d="M464,856c-17,24 -16,25 -32,50 -13,21 -12,21 -25,43 -12,19 -12,20 -24,39 -10,16 -10,16 -21,32 -10,14 -10,15 -21,28 -9,10 -9,10 -19,19 "/><path stroke-width="10" d="M322,1067c-6,5 -6,6 -13,10 "/><path stroke-width="12" d="M309,1077c-4,3 -4,3 -8,3 "/><path stroke-width="14" d="M301,1080c-4,0 -5,1 -8,-2 "/><path stroke-width="13" d="M293,1078c-4,-4 -4,-4 -7,-10 "/><path stroke-width="11" d="M286,1068c-6,-12 -6,-12 -9,-24 "/><path stroke-width="9" d="M277,1044c-6,-28 -6,-28 -8,-57 -4,-39 -2,-39 -3,-78 -1,-39 2,-39 0,-79 -1,-28 0,-29 -5,-57 -3,-17 -5,-16 -11,-32 -7,-14 -9,-13 -15,-27 -7,-13 -8,-13 -11,-28 -5,-18 -5,-18 -5,-37 0,-23 0,-23 4,-46 4,-26 5,-27 13,-52 8,-27 9,-27 20,-52 11,-24 12,-24 25,-46 12,-19 12,-19 25,-37 9,-12 9,-12 20,-24 6,-7 7,-7 14,-14 "/><path stroke-width="11" d="M340,378c4,-3 3,-4 7,-7 "/><path stroke-width="15" d="M347,371c1,-1 2,-1 4,0 "/><path stroke-width="17" d="M351,371c1,0 2,0 1,1 0,2 -1,2 -3,4 "/><path stroke-width="15" d="M349,376c-3,3 -3,2 -7,5 "/><path stroke-width="14" d="M342,381c-3,2 -5,4 -6,4 "/><path stroke-width="16" d="M336,385c0,0 2,-2 4,-3 "/><path stroke-width="13" d="M340,382c8,-7 8,-7 16,-13 "/><path stroke-width="9" d="M356,369c20,-15 21,-15 41,-29 5,-3 5,-3 9,-6 "/></g></svg>