<?xml version="1.0" encoding="UTF-8" standalone="no"?>
<svg xmlns="http://www.w3.org/2000/svg" version="1.2" baseProfile="tiny" height="1771" width="1080"><g stroke-linejoin="round" stroke-linecap="round" fill="none" stroke="black"><path stroke-width="16" d="M356,1031c0,0 0,0 0,0 2,2 2,2 4,3 "/><path stroke-width="14" d="M360,1034c3,1 4,1 7,1 "/><path stroke-width="11" d="M367,1035c16,-4 17,-3 31,-11 "/><path stroke-width="8" d="M398,1024c46,-23 47,-22 89,-51 42,-30 42,-31 80,-67 39,-39 39,-39 74,-82 40,-49 40,-49 74,-102 35,-53 37,-52 65,-110 22,-46 23,-47 35,-97 10,-39 11,-40 10,-80 -1,-31 1,-35 -14,-61 -14,-23 -18,-27 -44,-37 -33,-13 -37,-12 -73,-9 -51,5 -52,8 -101,26 -62,23 -63,23 -120,57 -60,35 -60,37 -113,82 -48,41 -48,42 -88,91 -34,42 -36,42 -60,90 -17,33 -17,36 -22,73 -3,26 -3,30 7,54 9,21 12,23 32,35 23,13 26,14 53,15 38,2 39,-1 76,-9 50,-12 50,-15 98,-31 53,-18 52,-21 105,-37 44,-13 45,-21 90,-22 25,0 36,1 49,20 16,22 12,31 8,62 -8,52 -14,53 -33,103 -24,65 -29,63 -55,127 -23,59 -27,59 -43,120 -10,40 -15,45 -8,83 5,27 10,35 34,47 32,16 39,12 78,8 60,-5 60,-11 119,-26 69,-18 68,-22 137,-40 47,-13 48,-11 96,-22 "/></g></svg>