<?xml version="1.0" encoding="UTF-8" standalone="no"?>
<svg xmlns="http://www.w3.org/2000/svg" version="1.2" baseProfile="tiny" height="1730" width="1080"><g stroke-linejoin="round" stroke-linecap="round" fill="none" stroke="black"><path stroke-width="18" d="M583,534c0,0 0,0 0,0 "/><path stroke-width="21" d="M583,534c0,0 0,0 0,0 "/><path stroke-width="20" d="M583,534c-1,0 -1,0 -2,0 "/><path stroke-width="19" d="M581,534c-1,0 -1,0 -2,0 "/><path stroke-width="18" d="M579,534c-1,1 -2,1 -3,1 "/><path stroke-width="14" d="M576,535c-8,5 -8,4 -15,10 "/><path stroke-width="10" d="M561,545c-16,11 -17,10 -31,24 "/><path stroke-width="9" d="M530,569c-32,28 -32,27 -61,58 -32,35 -32,36 -61,73 -26,34 -27,34 -49,71 -14,22 -12,24 -24,47 -5,10 -5,10 -9,19 "/><path stroke-width="11" d="M326,837c-1,4 -2,4 -2,8 "/><path stroke-width="15" d="M324,845c0,2 0,2 1,3 "/><path stroke-width="17" d="M325,848c2,0 2,-1 4,-1 2,-1 2,-1 4,-1 2,0 2,0 3,0 3,2 3,1 5,3 "/><path stroke-width="15" d="M341,849c4,3 3,3 7,7 "/><path stroke-width="12" d="M348,856c5,6 5,7 11,12 "/><path stroke-width="10" d="M359,868c11,12 11,12 24,23 "/><path stroke-width="9" d="M383,891c21,17 22,16 43,34 23,21 23,21 45,44 21,22 23,21 41,46 16,23 16,24 28,49 10,23 10,24 16,48 5,22 4,22 4,44 0,21 -1,21 -3,41 -1,12 -2,12 -3,24 "/><path stroke-width="11" d="M554,1221c0,6 0,6 1,11 "/><path stroke-width="13" d="M555,1232c0,4 1,4 2,7 "/><path stroke-width="15" d="M557,1239c1,2 2,3 3,3 "/><path stroke-width="16" d="M560,1242c3,0 3,0 5,-2 "/><path stroke-width="14" d="M565,1240c4,-4 4,-4 8,-9 "/><path stroke-width="12" d="M573,1231c3,-6 3,-6 6,-12 "/><path stroke-width="11" d="M579,1219c4,-8 4,-8 7,-15 "/><path stroke-width="12" d="M586,1204c2,-6 3,-6 4,-11 "/><path stroke-width="14" d="M590,1193c0,-2 -1,-5 -3,-4 -5,1 -6,3 -13,7 "/><path stroke-width="10" d="M574,1196c-13,9 -13,8 -26,18 "/><path stroke-width="9" d="M548,1214c-14,12 -14,12 -27,25 -12,13 -11,14 -21,27 -12,15 -12,15 -24,30 -11,14 -11,14 -23,29 -11,13 -11,13 -23,25 -9,10 -9,10 -19,20 -10,9 -10,9 -19,17 "/><path stroke-width="10" d="M392,1387c-7,6 -7,6 -13,12 "/><path stroke-width="11" d="M379,1399c-5,3 -5,3 -10,5 "/><path stroke-width="14" d="M369,1404c-2,2 -2,2 -4,2 "/><path stroke-width="17" d="M365,1406c-1,0 -1,0 -1,-2 "/><path stroke-width="16" d="M364,1404c-1,-3 -1,-3 -1,-7 "/><path stroke-width="13" d="M363,1397c1,-8 1,-8 3,-15 "/><path stroke-width="10" d="M366,1382c3,-14 3,-14 7,-27 "/><path stroke-width="9" d="M373,1355c6,-21 7,-21 12,-42 6,-21 6,-21 10,-42 4,-18 4,-18 6,-36 3,-17 2,-17 5,-34 3,-17 2,-17 8,-34 8,-23 7,-24 18,-45 15,-29 15,-29 33,-55 22,-32 23,-32 49,-62 50,-58 51,-56 102,-113 "/><path stroke-width="10" d="M616,892c0,0 0,0 1,0 "/></g></svg>