<?xml version="1.0" encoding="UTF-8" standalone="no"?>
<svg xmlns="http://www.w3.org/2000/svg" version="1.2" baseProfile="tiny" height="1863" width="1080"><g stroke-linejoin="round" stroke-linecap="round" fill="none" stroke="black"><path stroke-width="18" d="M719,1169c0,0 0,0 0,0 "/><path stroke-width="21" d="M719,1169c0,0 0,0 0,0 0,0 0,0 0,0 "/><path stroke-width="18" d="M719,1169c1,-4 1,-4 1,-9 "/><path stroke-width="12" d="M720,1160c1,-22 2,-22 2,-43 "/><path stroke-width="9" d="M722,1117c-1,-40 1,-40 -3,-79 -6,-48 -7,-48 -17,-95 -9,-46 -7,-47 -21,-90 -13,-40 -14,-40 -33,-77 -16,-32 -16,-32 -37,-61 -17,-25 -19,-24 -39,-47 -23,-24 -24,-24 -48,-48 -24,-24 -24,-24 -48,-48 -21,-20 -20,-21 -42,-40 -17,-15 -17,-16 -37,-27 -14,-9 -15,-9 -31,-14 -15,-6 -15,-5 -32,-8 -12,-3 -12,-3 -25,-4 -12,-1 -13,-1 -25,0 "/><path stroke-width="10" d="M284,479c-7,1 -8,0 -14,3 "/><path stroke-width="11" d="M270,482c-6,3 -7,3 -11,8 "/><path stroke-width="10" d="M259,490c-7,8 -7,9 -11,19 "/><path stroke-width="9" d="M248,509c-5,10 -4,11 -6,22 -2,10 -2,10 -2,21 0,10 -1,11 1,21 3,17 3,18 10,33 11,25 10,26 24,48 25,37 27,35 54,70 32,44 33,43 65,88 27,39 25,41 54,79 17,24 17,25 38,46 14,14 14,15 32,25 18,11 19,11 39,16 21,5 22,5 43,4 23,-1 24,-1 46,-9 29,-12 29,-13 55,-31 21,-14 20,-16 38,-33 11,-11 11,-12 21,-22 "/><path stroke-width="10" d="M760,887c6,-6 6,-6 12,-11 "/><path stroke-width="11" d="M772,876c4,-4 5,-3 8,-7 "/><path stroke-width="12" d="M780,869c3,-5 4,-5 4,-11 "/><path stroke-width="11" d="M784,858c0,-18 0,-19 -6,-37 "/><path stroke-width="9" d="M778,821c-8,-29 -10,-29 -22,-57 -9,-21 -9,-21 -19,-41 -8,-13 -7,-14 -17,-25 -12,-15 -14,-14 -27,-26 -15,-13 -14,-14 -30,-25 -11,-10 -12,-9 -24,-17 -15,-10 -16,-8 -29,-19 -14,-11 -13,-11 -25,-24 -9,-10 -8,-11 -17,-21 -8,-9 -7,-10 -15,-18 "/><path stroke-width="10" d="M553,548c-6,-6 -6,-6 -13,-10 "/><path stroke-width="11" d="M540,538c-6,-4 -6,-4 -12,-6 "/><path stroke-width="12" d="M528,532c-5,-2 -6,-2 -11,-2 -8,0 -8,-1 -15,1 "/><path stroke-width="10" d="M502,531c-10,4 -11,4 -19,11 "/><path stroke-width="9" d="M483,542c-11,10 -12,11 -19,24 -10,18 -10,19 -15,38 -7,25 -6,25 -10,51 -5,33 -4,33 -7,66 -3,33 -2,33 -6,66 -4,30 -4,30 -10,59 -6,25 -4,25 -13,49 -9,23 -11,22 -22,44 -4,8 -5,7 -9,14 "/></g></svg>