<?xml version="1.0" encoding="UTF-8" standalone="no"?>
<svg xmlns="http://www.w3.org/2000/svg" version="1.2" baseProfile="tiny" height="1863" width="1080"><g stroke-linejoin="round" stroke-linecap="round" fill="none" stroke="black"><path stroke-width="18" d="M609,1250c0,0 0,0 0,0 "/><path stroke-width="17" d="M609,1250c8,-3 8,-2 15,-6 "/><path stroke-width="12" d="M624,1244c11,-6 11,-5 20,-13 "/><path stroke-width="10" d="M644,1231c13,-12 14,-12 23,-27 "/><path stroke-width="9" d="M667,1204c11,-17 10,-18 17,-37 6,-20 6,-21 9,-42 3,-26 4,-27 2,-52 -2,-20 -4,-20 -9,-40 -6,-21 -6,-21 -12,-42 -8,-28 -8,-29 -17,-56 -12,-35 -11,-35 -25,-70 -18,-43 -16,-45 -38,-86 -21,-37 -21,-37 -47,-71 -20,-24 -21,-23 -44,-45 -18,-18 -19,-17 -38,-33 -18,-15 -18,-14 -36,-28 -17,-14 -17,-15 -34,-28 -11,-9 -12,-8 -23,-16 -11,-8 -11,-9 -22,-16 -13,-8 -13,-9 -26,-15 -12,-6 -13,-5 -25,-9 "/><path stroke-width="10" d="M299,518c-7,-2 -7,-2 -15,-4 "/><path stroke-width="11" d="M284,514c-6,-2 -6,-2 -13,-3 "/><path stroke-width="12" d="M271,511c-5,-1 -5,0 -9,-1 "/><path stroke-width="14" d="M262,510c-3,-1 -3,-1 -6,-2 "/><path stroke-width="15" d="M256,508c-3,-1 -3,-1 -5,-1 "/><path stroke-width="17" d="M251,507c-2,0 -2,0 -3,0 "/><path stroke-width="18" d="M248,507c-1,0 -1,-1 -2,0 "/><path stroke-width="19" d="M246,507c-1,1 -1,1 -2,3 "/><path stroke-width="17" d="M244,510c-1,3 -2,3 -2,6 "/><path stroke-width="15" d="M242,516c0,3 1,3 2,6 1,3 1,3 2,6 "/><path stroke-width="16" d="M246,528c1,2 1,2 2,4 "/><path stroke-width="15" d="M248,532c2,4 2,4 5,7 "/><path stroke-width="14" d="M253,539c3,4 4,4 7,7 "/><path stroke-width="13" d="M260,546c3,4 3,4 6,7 4,4 4,4 7,9 "/><path stroke-width="12" d="M273,562c4,6 3,6 8,11 "/><path stroke-width="11" d="M281,573c5,6 5,6 11,10 "/><path stroke-width="10" d="M292,583c10,7 11,7 21,13 "/><path stroke-width="9" d="M313,596c12,7 12,7 23,14 16,11 16,11 31,24 17,14 17,15 34,30 26,23 26,24 53,46 31,25 30,26 62,49 24,17 24,16 49,32 24,16 24,16 48,32 20,13 20,14 40,27 15,10 15,10 31,19 11,7 11,7 23,13 9,5 8,6 18,10 9,4 9,4 18,7 "/><path stroke-width="11" d="M743,899c5,1 5,1 9,2 "/><path stroke-width="14" d="M752,901c4,1 4,2 7,2 "/><path stroke-width="15" d="M759,903c3,0 3,-1 5,-1 "/><path stroke-width="16" d="M764,902c2,0 2,1 4,0 "/><path stroke-width="17" d="M768,902c2,-1 2,-1 4,-2 2,-1 2,-1 3,-1 "/><path stroke-width="18" d="M775,899c1,0 1,0 2,-1 1,-1 1,-1 2,-2 "/><path stroke-width="19" d="M779,896c1,-1 1,0 1,-1 0,-1 0,-1 0,-2 0,-1 1,-1 1,-2 0,0 0,-1 0,-1 "/><path stroke-width="20" d="M781,890c0,-1 -1,0 -1,-1 0,0 0,-1 0,-1 "/><path stroke-width="19" d="M780,888c0,-1 -1,-1 -1,-2 "/><path stroke-width="18" d="M779,886c-1,-2 0,-2 -1,-3 "/><path stroke-width="17" d="M778,883c-1,-2 -1,-2 -2,-4 -1,-2 -1,-2 -2,-3 "/><path stroke-width="18" d="M774,876c0,-1 -1,-1 -1,-1 "/><path stroke-width="19" d="M773,875c-1,-1 -1,-1 -2,-2 -1,-1 -1,-1 -1,-1 "/><path stroke-width="20" d="M770,872c-1,-1 -1,0 -1,-1 -1,0 -1,0 -1,-1 0,-1 0,-1 0,-1 "/><path stroke-width="19" d="M768,869c-1,-1 -1,-1 -2,-2 -1,-1 0,-1 -1,-2 "/><path stroke-width="20" d="M765,865c0,-1 -1,0 -1,-1 "/><path stroke-width="19" d="M764,864c-1,-1 0,-1 -1,-2 -1,-1 -1,0 -2,-1 "/><path stroke-width="18" d="M761,861c-1,-2 0,-2 -1,-4 "/><path stroke-width="17" d="M760,857c-1,-2 -1,-1 -2,-3 "/><path stroke-width="16" d="M758,854c-2,-3 -2,-3 -4,-6 "/><path stroke-width="15" d="M754,848c-2,-3 -2,-3 -5,-6 "/><path stroke-width="13" d="M749,842c-4,-5 -5,-4 -9,-9 "/><path stroke-width="12" d="M740,833c-5,-5 -5,-5 -9,-10 "/><path stroke-width="11" d="M731,823c-7,-9 -7,-9 -14,-17 "/><path stroke-width="9" d="M717,806c-10,-13 -10,-13 -20,-25 -10,-12 -9,-13 -20,-22 -10,-9 -12,-7 -23,-13 -9,-5 -8,-6 -18,-10 -8,-5 -9,-4 -18,-8 -9,-5 -9,-5 -18,-9 -11,-6 -11,-6 -22,-11 -10,-5 -10,-6 -21,-9 -10,-3 -11,-4 -21,-4 -12,0 -12,1 -24,4 -9,3 -9,4 -18,8 -11,5 -10,6 -21,11 "/><path stroke-width="10" d="M473,718c-7,4 -7,4 -14,8 -9,5 -8,5 -17,9 -6,4 -6,3 -13,6 "/><path stroke-width="11" d="M429,741c-7,3 -6,4 -13,7 -7,3 -8,3 -15,6 -6,3 -6,3 -12,6 "/><path stroke-width="12" d="M389,760c-6,3 -6,3 -12,6 -6,3 -6,2 -12,5 "/><path stroke-width="11" d="M365,771c-7,4 -7,4 -14,8 "/><path stroke-width="10" d="M351,779c-10,6 -10,5 -19,12 "/><path stroke-width="9" d="M332,791c-7,6 -7,7 -13,15 "/><path stroke-width="10" d="M319,806c-6,6 -5,6 -10,12 "/><path stroke-width="11" d="M309,818c-4,5 -4,5 -7,11 "/><path stroke-width="12" d="M302,829c-3,6 -3,6 -6,12 "/><path stroke-width="11" d="M296,841c-4,9 -4,9 -7,18 "/><path stroke-width="9" d="M289,859c-3,11 -2,11 -5,22 "/><path stroke-width="10" d="M284,881c-2,8 -2,8 -5,15 "/><path stroke-width="11" d="M279,896c-2,6 -3,6 -6,11 "/><path stroke-width="13" d="M273,907c-2,4 -3,3 -5,7 "/><path stroke-width="16" d="M268,914c-1,1 -1,1 -1,2 "/><path stroke-width="19" d="M18,1574c0,0 0,0 0,0 "/><path stroke-width="21" d="M18,1574c0,0 0,0 0,0 0,0 0,0 0,0 0,0 0,0 0,0 0,0 0,0 0,0 0,0 0,0 0,0 0,0 0,0 0,0 0,0 0,0 0,0 0,0 0,0 0,0 0,0 0,0 0,0 0,0 0,0 0,0 0,0 0,0 0,0 0,0 0,0 0,0 0,0 0,0 0,0 0,0 0,0 0,0 0,0 0,0 0,0 0,0 0,0 0,0 0,0 0,0 0,0 0,0 0,0 0,0 0,0 0,0 0,0 0,0 0,0 0,0 0,0 0,0 0,0 0,0 0,0 0,0 0,0 0,0 0,0 0,0 0,0 0,0 0,0 0,0 0,0 0,0 0,0 0,0 0,0 0,0 0,0 0,0 0,0 0,0 0,0 0,0 0,0 0,0 0,0 0,0 0,0 0,0 0,0 0,0 0,0 0,0 0,0 0,0 0,0 0,0 0,0 0,0 0,0 0,0 0,0 0,0 0,0 0,0 0,0 0,0 0,0 0,0 0,0 0,0 0,0 0,0 0,0 0,0 0,0 0,0 0,0 0,0 0,0 0,0 0,0 0,0 0,0 0,0 0,0 0,0 0,0 0,0 0,0 0,0 0,0 0,0 0,0 0,0 0,0 0,0 0,0 0,0 0,0 0,0 0,0 0,0 0,0 0,0 0,0 0,0 0,0 0,0 0,0 0,0 0,0 0,0 0,0 0,0 0,0 0,0 0,0 0,0 0,0 0,0 0,0 0,0 0,0 0,0 0,0 0,0 0,0 0,0 0,0 0,0 0,0 0,0 0,0 0,0 0,0 0,0 0,0 0,0 0,0 0,0 0,0 0,0 0,0 0,0 0,0 0,0 0,0 0,0 0,0 0,0 0,0 0,0 0,0 0,0 0,0 0,0 0,0 0,0 0,0 0,0 0,0 0,0 0,0 0,0 0,0 0,0 0,0 0,0 0,0 0,0 0,0 0,0 0,0 0,0 0,0 0,0 0,0 0,0 0,0 0,0 0,0 0,0 0,0 0,0 0,0 0,0 0,0 0,0 0,0 0,0 0,0 0,0 0,0 0,0 0,0 0,0 0,0 0,0 0,0 0,0 0,0 0,0 0,0 0,0 0,0 0,0 0,0 0,0 0,0 0,0 0,0 0,0 0,0 0,0 0,0 0,0 0,0 0,0 0,0 0,0 0,0 0,0 0,0 0,0 0,0 0,0 0,0 0,0 0,0 0,0 0,0 0,0 1,0 1,0 1,0 0,0 0,0 0,0 0,0 0,0 0,0 0,0 0,0 0,0 0,0 0,0 0,0 0,0 0,0 0,0 0,0 0,0 0,0 0,0 0,0 0,0 0,0 0,0 0,0 0,-1 0,-1 0,-1 0,0 0,0 0,0 0,0 0,0 0,0 "/><path stroke-width="20" d="M19,1573c1,0 1,0 1,0 0,0 0,0 0,0 "/><path stroke-width="21" d="M20,1573c0,0 0,0 0,0 "/><path stroke-width="20" d="M20,1573c0,-1 0,-1 0,-1 0,0 0,0 0,0 "/><path stroke-width="21" d="M20,1572c0,0 0,0 0,0 0,0 0,0 0,0 0,0 0,0 0,0 0,0 0,0 0,0 0,0 0,0 0,0 0,0 0,0 0,0 0,0 0,0 0,0 0,0 0,0 0,0 0,0 0,0 0,0 0,0 0,0 0,0 0,0 0,0 0,0 0,0 0,0 0,0 "/><path stroke-width="20" d="M20,1572c1,0 1,0 2,0 0,0 0,0 0,0 "/><path stroke-width="21" d="M22,1572c0,0 0,0 0,0 0,0 0,0 0,0 0,0 0,0 0,0 0,0 0,0 0,0 0,0 0,0 0,0 0,0 0,0 0,0 0,0 0,0 0,0 0,0 0,0 0,0 0,0 0,0 0,0 0,0 0,0 0,0 0,0 0,0 0,0 0,0 0,0 0,0 0,0 0,0 0,0 0,0 0,0 0,0 0,0 0,0 0,0 0,0 0,0 0,0 0,0 0,0 0,0 0,0 0,0 0,0 0,0 0,0 0,0 0,0 0,0 0,0 0,0 0,0 0,0 0,0 0,0 0,0 0,0 0,0 0,0 0,0 0,0 0,0 0,0 0,0 0,0 0,0 0,0 0,0 0,0 0,0 0,0 0,0 0,0 0,0 0,0 0,0 0,0 0,0 0,0 0,0 0,0 0,0 0,0 0,0 0,0 0,0 0,0 0,0 0,0 0,0 0,0 0,0 0,0 0,0 0,0 0,0 0,0 0,0 0,0 0,0 0,0 0,0 0,0 0,0 0,0 0,0 0,0 0,0 0,0 0,0 0,0 0,0 0,0 0,0 0,0 0,0 0,0 0,0 0,0 0,0 0,0 0,0 0,0 0,0 0,0 0,0 0,0 0,0 0,0 0,0 0,0 0,0 0,0 0,0 0,0 0,0 0,0 0,0 0,0 0,0 0,0 0,0 0,0 0,0 0,0 0,0 0,0 0,0 0,0 0,0 0,0 0,0 "/><path stroke-width="20" d="M22,1572c-1,-1 -1,-1 -1,-1 0,0 0,0 0,0 "/><path stroke-width="21" d="M21,1571c0,0 0,0 0,0 0,0 0,0 0,0 0,0 0,0 0,0 0,0 0,0 0,0 0,0 0,0 0,0 0,0 0,0 0,0 0,0 0,0 0,0 0,0 0,0 0,0 0,0 0,0 0,0 0,0 0,0 0,0 0,0 0,0 0,0 0,0 0,0 0,0 0,0 0,0 0,0 0,0 0,0 0,0 0,0 0,0 0,0 0,0 0,0 0,0 0,0 0,0 0,0 0,0 0,0 0,0 0,0 0,0 0,0 0,0 0,0 0,0 0,0 0,0 0,0 1,0 1,0 1,0 "/><path stroke-width="20" d="M22,1571c0,0 0,-1 0,-1 0,0 0,0 0,0 "/><path stroke-width="21" d="M22,1570c0,0 0,0 0,0 "/><path stroke-width="20" d="M22,1570c1,0 1,0 1,0 0,0 0,0 0,0 "/><path stroke-width="21" d="M23,1570c0,0 0,0 0,0 0,0 0,0 0,0 0,0 0,0 0,0 0,0 0,0 0,0 0,0 0,0 0,0 0,0 0,0 0,0 0,0 0,0 0,0 0,0 0,0 0,0 0,0 0,0 0,0 0,0 0,0 0,0 0,0 0,0 0,0 0,0 0,0 0,0 0,0 0,0 0,0 0,0 0,0 0,0 0,0 0,0 0,0 0,0 0,0 0,0 0,0 0,0 0,0 0,0 0,0 0,0 0,0 0,0 0,0 0,0 0,0 0,0 0,0 0,0 0,0 "/><path stroke-width="20" d="M23,1570c1,0 1,0 2,0 0,0 0,0 0,0 0,0 0,0 1,0 0,0 0,0 0,0 "/><path stroke-width="21" d="M26,1570c0,0 0,0 0,0 0,0 0,0 0,0 0,0 0,0 0,0 0,0 0,0 0,0 0,0 0,0 0,0 0,0 0,0 0,0 0,0 0,0 0,0 0,0 0,0 0,0 1,0 1,0 1,0 0,0 0,0 0,0 0,0 0,0 0,0 0,0 0,0 0,0 0,0 0,0 0,0 0,0 0,0 0,0 0,0 0,0 0,0 0,0 0,0 0,0 0,0 0,0 0,0 0,0 0,0 0,0 0,0 0,0 0,0 0,0 0,0 0,0 0,0 0,0 0,0 0,0 0,0 0,0 0,0 0,0 0,0 0,0 0,0 0,0 0,0 0,0 0,0 0,0 0,0 0,0 0,0 0,0 0,0 0,0 0,0 0,0 0,0 0,0 0,0 0,0 0,0 0,0 0,0 0,0 0,0 0,0 0,0 0,0 0,0 0,0 0,0 0,0 0,0 0,0 0,0 0,0 0,0 0,0 0,0 0,0 0,0 0,0 0,0 0,0 0,0 0,0 0,0 0,0 0,0 0,0 0,0 0,0 0,0 0,0 0,0 0,0 0,0 0,0 0,0 0,0 0,0 0,0 0,0 0,0 0,0 0,0 0,0 0,0 0,0 0,0 0,0 0,0 0,0 0,0 0,0 0,0 0,0 0,0 0,0 0,0 0,0 0,0 0,0 0,0 0,0 0,0 0,0 0,0 0,0 0,0 0,0 1,0 1,0 1,-1 0,0 0,0 0,0 0,0 0,0 0,0 0,0 0,0 0,0 0,0 0,0 0,0 0,0 0,0 0,0 0,0 0,0 0,0 0,0 0,0 0,0 0,0 0,0 0,0 0,0 0,0 0,0 0,0 0,0 0,0 0,0 0,0 0,0 1,0 1,0 1,-1 0,0 0,0 0,0 0,0 0,0 0,0 0,0 0,0 0,0 0,0 0,0 0,0 0,0 0,0 0,0 0,0 0,0 0,0 0,0 0,0 0,0 0,0 0,0 0,0 0,0 0,0 0,0 0,0 0,0 0,0 0,0 0,0 0,0 1,0 1,0 1,0 0,0 0,0 0,0 0,0 0,0 0,0 "/><path stroke-width="20" d="M30,1568c0,1 0,1 0,2 0,0 0,0 0,0 "/><path stroke-width="21" d="M30,1570c0,0 0,0 0,0 0,0 0,0 0,0 0,0 0,0 0,0 0,0 0,0 0,0 0,0 0,0 0,0 0,0 0,0 0,0 0,0 0,0 0,0 0,0 0,0 0,0 0,0 0,0 0,0 0,0 0,0 0,0 0,0 0,0 0,0 0,0 0,0 0,0 0,0 0,0 0,0 0,0 0,0 0,0 0,0 0,0 0,0 0,0 0,0 0,0 0,0 0,0 0,0 0,0 0,0 0,0 0,0 0,0 0,0 0,0 0,0 0,0 0,0 0,0 0,0 0,0 0,0 0,0 0,0 0,0 0,0 0,0 0,0 0,0 "/><path stroke-width="20" d="M30,1570c0,-1 -1,-1 -1,-2 0,0 0,-1 0,-1 "/><path stroke-width="19" d="M29,1567c-1,-1 -1,-1 -2,-2 0,0 0,-1 0,-1 0,-1 0,-1 -1,-1 "/><path stroke-width="18" d="M26,1563c-1,-1 -2,-1 -3,-2 -1,-1 -1,-1 -2,-2 "/><path stroke-width="16" d="M21,1559c-3,-2 -3,-2 -6,-4 "/><path stroke-width="18" d="M434,1230c0,0 0,0 0,0 "/><path stroke-width="20" d="M434,1230c1,0 1,0 1,0 "/><path stroke-width="14" d="M435,1230c8,-11 10,-10 15,-22 "/><path stroke-width="9" d="M450,1208c11,-25 13,-25 18,-51 12,-58 11,-58 17,-117 6,-72 4,-72 7,-144 3,-52 1,-52 4,-103 2,-40 4,-40 7,-80 2,-28 4,-29 3,-57 -1,-27 0,-28 -7,-54 -10,-32 -12,-32 -26,-63 -15,-31 -17,-30 -32,-62 -13,-29 -13,-30 -25,-60 -7,-18 -7,-18 -13,-36 -5,-14 -5,-14 -10,-28 -4,-10 -5,-10 -9,-20 "/><path stroke-width="10" d="M384,333c-3,-8 -3,-8 -6,-16 -3,-7 -3,-7 -6,-14 "/><path stroke-width="12" d="M372,303c-2,-5 -2,-5 -3,-10 "/><path stroke-width="13" d="M369,293c-2,-5 -2,-5 -3,-10 -1,-5 0,-5 -1,-9 "/><path stroke-width="16" d="M365,274c0,-1 -2,-1 -1,-1 "/><path stroke-width="18" d="M364,273c0,-1 2,-1 3,0 "/><path stroke-width="13" d="M367,273c17,13 18,13 34,28 "/><path stroke-width="9" d="M401,301c21,20 20,21 39,43 22,25 23,24 44,50 24,29 23,31 47,60 26,32 29,29 52,62 26,37 25,38 47,77 21,36 22,36 40,74 9,20 7,21 15,42 "/></g></svg>