<?xml version="1.0" encoding="UTF-8" standalone="no"?>
<svg xmlns="http://www.w3.org/2000/svg" version="1.2" baseProfile="tiny" height="1863" width="1080"><g stroke-linejoin="round" stroke-linecap="round" fill="none" stroke="black"><path stroke-width="18" d="M620,1186c0,0 0,0 0,0 "/><path stroke-width="21" d="M620,1186c0,0 0,0 0,0 "/><path stroke-width="16" d="M620,1186c4,-6 4,-5 7,-11 "/><path stroke-width="10" d="M627,1175c6,-13 6,-13 10,-27 "/><path stroke-width="9" d="M637,1148c4,-10 3,-10 5,-20 3,-15 3,-15 4,-30 2,-20 1,-21 1,-41 0,-28 0,-28 -2,-55 -2,-31 -1,-31 -6,-61 -5,-30 -6,-30 -15,-59 -6,-23 -8,-22 -16,-44 -7,-19 -5,-20 -13,-38 -10,-20 -12,-19 -23,-38 -12,-20 -11,-21 -24,-41 -14,-23 -14,-23 -30,-44 -14,-20 -15,-19 -31,-38 -12,-14 -13,-14 -25,-27 -14,-15 -13,-15 -27,-29 -10,-10 -10,-9 -20,-18 -11,-9 -11,-9 -22,-17 -10,-7 -11,-6 -20,-14 -10,-8 -9,-9 -19,-18 -8,-7 -8,-7 -16,-13 -9,-7 -9,-7 -18,-12 "/><path stroke-width="10" d="M320,491c-8,-5 -8,-5 -15,-8 -8,-4 -8,-3 -16,-6 "/><path stroke-width="11" d="M289,477c-6,-3 -5,-3 -11,-5 "/><path stroke-width="12" d="M278,472c-5,-2 -5,-2 -10,-3 "/><path stroke-width="14" d="M268,469c-4,-1 -4,-1 -7,-2 "/><path stroke-width="15" d="M261,467c-3,-1 -3,-2 -6,-3 -3,-1 -3,0 -5,-1 "/><path stroke-width="16" d="M250,463c-2,-1 -2,-1 -4,-2 "/><path stroke-width="17" d="M246,461c-1,0 -2,0 -3,0 "/><path stroke-width="18" d="M243,461c-2,0 -1,-1 -3,-1 -2,0 -2,0 -3,0 -1,0 -1,0 -1,0 "/><path stroke-width="19" d="M236,460c-1,0 -1,0 -2,0 -1,0 -1,0 -1,0 "/><path stroke-width="20" d="M233,460c-1,0 0,1 -1,1 "/><path stroke-width="19" d="M232,461c-1,0 -1,0 -2,0 -1,0 -1,1 -1,2 -1,0 -1,-1 -1,-1 "/><path stroke-width="20" d="M228,462c-1,0 -1,0 -1,0 "/><path stroke-width="21" d="M227,462c0,0 0,1 0,1 0,0 -1,0 -1,0 0,0 0,1 0,1 0,0 0,0 0,0 0,0 0,0 -1,0 0,0 0,0 0,0 0,0 0,0 0,0 0,0 0,0 0,0 0,0 0,0 0,0 0,0 0,0 0,0 0,0 0,0 0,0 0,1 0,1 0,1 0,1 0,1 0,1 "/><path stroke-width="20" d="M225,466c0,0 1,0 1,0 1,0 0,1 0,1 0,0 1,0 1,0 0,0 0,1 0,1 0,1 1,1 1,1 1,1 1,1 1,1 1,1 1,0 1,1 0,0 0,1 0,1 "/><path stroke-width="19" d="M230,472c1,1 1,1 2,2 "/><path stroke-width="18" d="M232,474c1,1 1,1 2,2 "/><path stroke-width="17" d="M234,476c2,2 3,2 5,3 "/><path stroke-width="14" d="M239,479c5,3 5,3 9,5 "/><path stroke-width="11" d="M248,484c10,5 10,3 19,8 "/><path stroke-width="9" d="M267,492c15,9 14,11 28,20 22,13 22,13 44,26 25,14 26,13 49,29 26,17 26,18 50,37 17,13 16,14 33,27 18,15 19,14 36,30 18,17 18,18 35,35 15,17 15,17 30,34 13,15 13,15 26,31 10,13 10,13 20,26 10,14 9,15 18,29 7,10 8,10 16,20 8,10 9,10 17,21 7,10 6,11 13,21 6,9 6,9 11,17 "/><path stroke-width="10" d="M693,895c4,6 4,6 7,11 "/><path stroke-width="12" d="M700,906c4,6 4,6 7,11 "/><path stroke-width="11" d="M707,917c4,7 3,7 6,13 "/><path stroke-width="12" d="M713,930c2,5 2,5 4,9 "/><path stroke-width="13" d="M717,939c2,4 2,4 4,8 "/><path stroke-width="14" d="M721,947c2,4 2,4 3,7 "/><path stroke-width="15" d="M724,954c1,3 2,3 3,6 2,3 1,3 3,6 1,2 2,2 3,4 "/><path stroke-width="17" d="M733,970c1,2 1,2 2,3 1,2 1,2 2,3 "/><path stroke-width="18" d="M737,976c1,1 1,1 2,2 1,1 0,1 1,2 "/><path stroke-width="19" d="M740,980c0,0 1,0 1,0 "/><path stroke-width="20" d="M741,980c0,0 0,1 0,1 0,0 1,0 1,0 0,0 0,1 0,1 0,0 1,0 1,0 0,0 0,1 0,1 "/><path stroke-width="21" d="M743,983c0,0 1,0 1,0 0,0 0,1 0,1 0,0 0,0 0,0 "/><path stroke-width="20" d="M744,984c1,0 1,0 2,0 0,0 0,0 0,0 "/><path stroke-width="15" d="M746,984c-21,-17 -22,-16 -42,-34 "/><path stroke-width="9" d="M704,950c-25,-22 -24,-23 -50,-47 -24,-22 -24,-22 -48,-43 -25,-22 -26,-21 -51,-43 -29,-26 -28,-27 -58,-53 -26,-23 -27,-22 -54,-45 -22,-18 -22,-19 -45,-37 -18,-14 -19,-13 -38,-25 -17,-11 -17,-11 -35,-22 -12,-8 -12,-8 -24,-16 -10,-7 -9,-8 -19,-15 -7,-5 -8,-5 -15,-9 "/><path stroke-width="11" d="M267,595c-5,-3 -5,-3 -9,-5 "/><path stroke-width="14" d="M258,590c-3,-2 -3,-2 -5,-3 "/><path stroke-width="16" d="M253,587c-1,-1 -2,-1 -3,-1 "/><path stroke-width="18" d="M250,586c0,-1 0,-1 0,-1 "/><path stroke-width="20" d="M250,585c-1,-1 -1,0 -1,0 -1,0 -1,-1 -1,-1 0,-1 0,-1 -1,-1 0,0 -1,0 -1,0 0,0 0,-1 0,-1 0,-1 -1,0 -1,0 0,0 0,-1 0,-1 0,-1 0,-1 -1,-1 -1,-1 -1,-1 -3,-1 0,0 0,0 0,0 "/></g></svg>