<?xml version="1.0" encoding="UTF-8" standalone="no"?>
<svg xmlns="http://www.w3.org/2000/svg" version="1.2" baseProfile="tiny" height="1863" width="1080"><g stroke-linejoin="round" stroke-linecap="round" fill="none" stroke="black"><path stroke-width="18" d="M324,1339c0,0 0,0 0,0 "/><path stroke-width="21" d="M324,1339c0,0 0,0 0,0 0,0 0,0 0,0 "/><path stroke-width="16" d="M324,1339c9,-15 9,-15 18,-30 "/><path stroke-width="10" d="M342,1309c15,-24 15,-24 30,-48 "/><path stroke-width="9" d="M372,1261c17,-27 18,-27 34,-54 21,-34 21,-34 41,-68 20,-34 22,-33 40,-67 19,-36 18,-36 33,-73 12,-28 12,-28 23,-57 13,-35 12,-35 25,-70 10,-28 11,-28 19,-57 7,-23 6,-24 10,-48 4,-24 4,-24 7,-47 2,-15 3,-15 4,-30 1,-21 1,-21 0,-42 -1,-14 0,-14 -3,-28 -3,-17 -2,-19 -9,-34 -7,-14 -9,-14 -21,-25 -11,-11 -11,-11 -24,-19 -16,-9 -17,-9 -35,-15 -14,-5 -15,-5 -30,-7 -10,-2 -10,-1 -21,-1 -11,0 -11,-1 -21,1 "/><path stroke-width="10" d="M444,520c-9,1 -10,1 -18,5 -8,4 -8,4 -14,10 "/><path stroke-width="9" d="M412,535c-10,9 -9,10 -17,21 -10,16 -10,16 -19,33 -8,18 -8,19 -15,38 -6,19 -6,19 -11,38 -7,24 -7,24 -12,48 -5,21 -5,21 -9,43 -4,19 -5,19 -8,38 -4,22 -4,22 -5,44 -1,18 0,18 1,36 1,15 2,15 4,30 2,10 1,10 4,19 3,12 3,12 8,24 5,11 5,11 12,21 7,9 7,9 16,17 7,7 7,7 16,12 11,6 11,6 23,10 12,5 12,4 25,7 12,3 12,2 24,4 13,3 13,4 26,6 9,2 10,1 19,1 11,-1 11,-2 22,-3 12,-2 12,-2 24,-3 12,-2 12,-2 25,-3 11,-2 11,-2 22,-3 16,-2 16,-2 31,-4 11,-2 11,-2 23,-5 12,-3 12,-3 25,-7 12,-4 11,-4 23,-9 11,-5 12,-5 23,-11 16,-10 15,-11 31,-21 11,-7 12,-7 23,-14 13,-9 13,-9 26,-19 14,-10 13,-11 27,-21 8,-8 8,-8 17,-14 12,-8 13,-7 25,-15 8,-6 8,-6 15,-13 7,-7 7,-8 13,-15 "/><path stroke-width="10" d="M889,845c5,-7 5,-7 10,-13 5,-7 5,-7 10,-14 6,-7 6,-7 11,-13 "/><path stroke-width="11" d="M920,805c5,-5 5,-5 9,-10 "/><path stroke-width="12" d="M929,795c4,-5 4,-5 7,-11 "/><path stroke-width="13" d="M936,784c2,-3 2,-3 3,-6 "/><path stroke-width="15" d="M939,778c1,-2 1,-2 2,-4 "/><path stroke-width="17" d="M941,774c1,-1 1,-1 1,-2 "/><path stroke-width="18" d="M942,772c0,-1 1,-1 1,-2 "/><path stroke-width="19" d="M943,770c0,-1 0,-1 0,-2 0,-1 1,-1 1,-2 0,0 0,-1 0,-1 0,-1 -1,-1 -1,-2 0,-1 0,-1 0,-2 "/><path stroke-width="18" d="M943,761c-1,-2 -1,-2 -2,-3 "/><path stroke-width="17" d="M941,758c-1,-2 -1,-2 -3,-3 "/><path stroke-width="16" d="M938,755c-2,-2 -3,-2 -5,-3 -3,-2 -2,-2 -5,-3 "/><path stroke-width="15" d="M928,749c-3,-1 -3,-1 -6,-2 "/><path stroke-width="14" d="M922,747c-5,-1 -5,-1 -9,-2 "/><path stroke-width="13" d="M913,745c-7,-2 -7,-2 -13,-3 "/><path stroke-width="11" d="M900,742c-11,-2 -11,-1 -22,-2 "/><path stroke-width="10" d="M878,740c-9,0 -9,0 -17,0 -13,0 -13,-1 -25,0 "/><path stroke-width="9" d="M836,740c-15,1 -15,2 -30,3 -16,1 -16,1 -31,2 -19,2 -19,2 -39,4 -26,3 -27,0 -53,5 -35,7 -34,8 -69,18 -29,9 -29,11 -59,20 -30,10 -31,8 -61,17 -31,10 -31,10 -61,20 -26,9 -26,10 -52,19 -24,9 -24,9 -48,16 -19,6 -19,7 -38,11 -17,4 -17,4 -34,7 -18,4 -18,4 -37,7 -11,2 -11,2 -23,4 -11,2 -11,1 -21,3 -12,2 -11,3 -23,6 "/><path stroke-width="10" d="M157,902c-6,2 -6,1 -11,3 "/><path stroke-width="12" d="M146,905c-5,1 -5,1 -9,3 "/><path stroke-width="14" d="M137,908c-3,1 -3,2 -6,3 "/><path stroke-width="15" d="M131,911c-3,1 -3,1 -5,2 "/><path stroke-width="16" d="M126,913c-2,1 -2,2 -4,3 -2,2 -2,1 -4,3 "/><path stroke-width="15" d="M118,919c-3,3 -3,3 -6,6 "/><path stroke-width="12" d="M112,925c-7,6 -7,6 -15,11 "/><path stroke-width="11" d="M97,936c-6,5 -6,5 -12,10 "/><path stroke-width="10" d="M85,946c-9,7 -9,7 -18,15 -4,3 -4,3 -8,7 "/><path stroke-width="15" d="M12,1753c0,0 0,0 0,0 "/><path stroke-width="20" d="M12,1753c0,0 0,0 0,0 "/><path stroke-width="21" d="M12,1753c0,0 0,0 0,0 0,0 0,-1 0,-1 "/><path stroke-width="20" d="M12,1752c0,-1 0,-1 1,-1 "/><path stroke-width="19" d="M13,1751c1,-1 1,0 2,-1 1,0 0,-1 1,-1 1,-1 1,-1 2,-1 1,0 1,0 1,0 "/><path stroke-width="20" d="M19,1748c1,0 1,0 1,-1 1,0 1,0 1,-1 "/><path stroke-width="21" d="M21,1746c0,0 0,0 0,0 1,0 1,0 1,0 1,0 1,0 1,0 1,0 1,0 1,0 1,0 1,0 1,0 1,0 1,0 1,0 1,0 1,0 1,0 1,0 1,0 1,0 0,0 0,0 0,0 1,0 1,0 1,0 0,0 0,0 0,0 0,0 0,0 0,0 0,0 0,0 0,0 1,0 1,0 1,0 0,0 0,0 0,0 "/><path stroke-width="20" d="M30,1746c0,-1 0,-1 0,-1 0,-1 1,0 1,0 1,0 0,-1 1,-1 "/><path stroke-width="21" d="M32,1744c0,0 1,0 1,0 0,0 0,0 0,0 1,0 0,-1 1,-1 "/><path stroke-width="20" d="M34,1743c0,0 0,0 1,0 0,0 0,0 1,0 0,0 0,-1 0,-1 0,0 0,0 1,0 "/><path stroke-width="21" d="M37,1742c0,0 0,0 0,0 0,0 0,0 0,0 0,0 0,0 0,0 0,0 0,0 0,0 0,0 0,0 0,0 0,0 0,0 0,0 0,0 0,0 0,0 0,0 0,0 0,0 0,0 0,0 0,0 0,0 0,0 0,0 0,0 0,0 0,0 0,0 0,0 0,0 0,0 0,0 0,0 0,0 0,0 0,0 0,0 -1,0 -1,0 0,0 0,1 0,1 0,0 0,0 -1,0 0,0 0,0 0,0 0,0 0,0 0,0 0,0 0,0 0,0 0,0 0,0 0,0 0,0 0,0 0,0 0,0 0,0 0,0 0,0 0,0 0,0 0,0 0,0 0,0 0,0 0,0 0,0 0,0 0,0 0,0 0,0 0,0 0,0 0,0 0,0 0,0 0,0 0,0 0,0 0,0 0,0 0,0 0,0 0,0 0,0 0,0 0,0 0,0 0,0 0,0 0,0 0,0 0,0 0,0 0,0 0,0 0,0 0,0 0,0 0,0 0,0 0,0 0,0 0,0 0,0 0,0 0,0 0,0 0,0 0,0 0,0 0,0 0,0 0,0 0,0 0,0 0,0 0,0 0,0 0,0 0,0 0,0 0,0 0,0 1,0 1,0 1,0 0,0 0,-1 0,-1 "/><path stroke-width="20" d="M36,1742c0,-1 1,0 1,-1 0,0 0,0 0,0 "/><path stroke-width="21" d="M37,1741c1,0 1,0 1,-1 "/><path stroke-width="20" d="M38,1740c0,0 0,-1 0,-1 0,0 1,0 1,0 0,0 0,-1 0,-1 0,0 0,0 0,0 "/><path stroke-width="21" d="M39,1738c0,0 0,0 0,0 0,0 0,0 0,0 "/><path stroke-width="20" d="M39,1738c1,0 1,0 1,0 0,0 0,0 0,0 "/><path stroke-width="21" d="M40,1738c0,0 0,0 0,0 "/><path stroke-width="20" d="M40,1738c0,-1 0,-1 0,-1 0,-1 1,0 1,0 "/><path stroke-width="21" d="M41,1737c0,0 0,0 0,0 0,0 0,0 0,0 0,0 0,0 0,0 0,0 0,0 0,0 0,0 0,0 0,0 0,0 0,0 0,0 0,0 0,0 0,0 0,0 0,0 0,0 0,0 0,0 0,0 0,0 0,0 0,0 0,0 0,0 0,0 0,0 0,0 0,0 0,0 0,0 0,0 0,0 0,0 0,0 0,0 0,0 0,0 0,0 0,0 0,0 0,0 0,0 0,0 0,0 0,0 0,0 0,0 0,0 0,0 0,0 0,0 0,0 0,0 0,0 0,0 0,0 0,0 0,0 0,0 0,0 0,0 0,0 0,0 0,0 0,0 0,0 0,0 0,0 0,0 0,0 0,0 0,0 0,0 0,0 0,0 0,0 0,0 0,0 0,0 0,0 0,0 0,0 0,0 0,0 0,0 0,0 0,0 0,0 0,0 0,0 0,0 0,0 0,0 0,0 0,0 0,0 0,0 0,0 0,0 0,0 0,0 0,0 0,0 0,0 0,0 0,0 0,0 0,0 0,0 0,0 0,0 0,0 0,0 0,0 0,0 0,0 0,0 0,0 0,0 0,0 0,0 0,0 0,0 0,0 0,0 0,0 0,0 0,0 0,0 0,0 0,0 0,0 0,0 0,0 0,0 0,0 0,0 0,0 0,0 0,0 0,0 0,0 0,0 0,0 0,0 0,0 0,0 0,0 0,0 0,0 0,0 0,0 0,0 0,0 0,0 0,0 0,0 0,0 0,0 0,0 0,0 0,0 0,0 0,0 0,0 0,0 0,0 0,0 0,0 0,0 0,0 0,0 0,0 0,0 0,0 0,0 0,0 0,0 0,0 0,0 0,0 0,0 0,0 0,0 0,0 0,0 0,0 0,0 0,0 0,0 0,0 0,0 0,0 0,0 0,0 0,0 0,0 0,0 0,0 0,0 0,0 0,0 0,0 0,0 0,0 0,0 0,0 0,0 0,0 0,0 0,0 "/><path stroke-width="20" d="M41,1737c0,-1 0,-1 0,-1 0,-1 0,-1 0,-1 0,0 0,0 0,-1 0,0 0,-1 0,-1 0,0 -1,0 -1,0 0,0 0,0 0,-1 0,0 0,0 0,-1 "/><path stroke-width="21" d="M40,1731c0,0 0,0 0,-1 0,0 0,0 0,0 "/><path stroke-width="20" d="M40,1730c0,-1 0,-1 0,-1 0,0 0,0 0,0 "/><path stroke-width="21" d="M40,1729c0,0 0,0 0,0 0,0 0,0 0,0 0,0 0,0 0,0 0,0 0,0 0,0 0,0 0,0 0,0 0,0 -1,0 -1,0 0,0 0,0 0,-1 0,0 0,0 0,-1 0,0 0,0 0,0 0,0 0,0 0,0 0,-1 0,-1 0,-1 0,0 0,0 0,0 0,0 0,0 -1,0 0,0 0,0 0,0 0,0 0,0 0,0 0,0 0,0 0,0 0,0 0,0 0,0 0,0 0,0 0,0 "/><path stroke-width="20" d="M38,1726c0,1 0,1 0,2 0,0 -1,-1 -1,-1 0,0 0,1 0,1 0,0 -1,0 -1,0 "/><path stroke-width="21" d="M36,1728c0,0 0,1 0,1 0,0 -1,0 -1,0 0,0 0,1 0,1 "/><path stroke-width="20" d="M35,1730c0,0 -1,0 -1,0 -1,0 0,1 -1,1 0,0 -1,0 -1,0 "/><path stroke-width="21" d="M32,1731c0,0 -1,0 -1,0 0,0 0,1 0,1 "/><path stroke-width="20" d="M31,1732c0,0 0,0 -1,0 0,0 -1,0 -1,0 "/><path stroke-width="21" d="M29,1732c0,0 0,1 0,1 "/><path stroke-width="20" d="M29,1733c0,0 0,0 -1,0 "/><path stroke-width="21" d="M28,1733c0,0 -1,0 -1,0 0,0 0,1 0,1 0,0 -1,0 -1,0 0,0 0,1 0,1 0,0 0,0 -1,0 0,0 -1,0 -1,0 0,0 0,1 0,1 0,0 0,0 -1,0 0,0 0,0 0,0 0,1 0,1 -1,1 0,0 0,0 0,0 0,0 0,0 0,0 0,0 0,0 0,0 0,0 0,0 0,0 "/><path stroke-width="20" d="M22,1737c0,0 0,0 -1,0 0,0 0,0 0,0 "/><path stroke-width="21" d="M21,1737c0,0 0,0 0,0 0,0 0,0 0,0 0,0 0,0 0,0 0,0 0,0 0,0 0,0 0,0 0,0 0,0 0,0 0,0 "/><path stroke-width="20" d="M21,1737c0,1 0,1 0,1 0,0 0,0 0,0 "/><path stroke-width="21" d="M21,1738c0,0 0,0 0,0 "/><path stroke-width="20" d="M21,1738c0,0 0,0 -1,0 0,0 0,0 0,0 "/><path stroke-width="21" d="M20,1738c0,0 0,0 0,0 0,0 0,0 0,0 0,0 0,0 0,0 0,0 0,0 0,0 0,0 0,0 0,0 0,0 0,0 0,0 0,0 0,0 0,0 "/><path stroke-width="20" d="M20,1738c0,1 0,1 0,1 0,0 0,0 0,0 "/><path stroke-width="21" d="M20,1739c0,0 0,0 0,0 "/><path stroke-width="20" d="M20,1739c0,0 0,0 -1,0 0,0 0,0 0,0 "/><path stroke-width="21" d="M19,1739c0,0 0,0 0,0 0,0 0,0 0,0 0,0 0,0 0,0 0,0 0,0 0,0 0,0 0,0 0,0 0,0 0,0 0,0 0,0 0,0 0,0 0,0 0,0 0,0 0,0 0,0 0,0 0,0 0,0 0,0 0,0 0,0 0,0 0,0 0,0 0,0 0,0 0,0 0,0 0,0 0,0 0,0 0,0 0,0 0,0 0,0 0,0 0,0 0,0 0,0 0,0 0,0 0,0 0,0 0,0 0,0 0,0 0,0 0,0 0,0 0,0 0,0 0,0 0,0 0,0 0,0 0,0 0,0 0,0 0,0 0,0 0,0 0,0 0,0 0,0 0,0 0,0 0,0 0,0 0,0 0,0 0,0 0,0 0,0 0,0 0,0 0,0 0,0 0,0 0,0 0,0 0,0 0,0 0,0 0,0 0,0 0,0 0,0 0,0 0,0 0,0 0,0 0,0 0,0 0,0 0,0 0,0 0,0 0,0 0,0 0,0 0,0 0,0 0,0 0,0 0,0 0,0 0,0 0,0 0,0 0,0 0,0 0,0 0,0 0,0 0,0 0,0 0,0 0,0 0,0 0,0 0,0 0,0 0,0 0,0 0,0 0,0 0,0 0,0 0,0 0,0 0,0 0,0 0,0 0,0 0,0 0,0 0,0 0,0 0,0 0,0 0,0 0,0 0,0 0,0 0,0 1,-1 0,-1 1,-2 "/><path stroke-width="20" d="M20,1737c1,-1 1,-1 2,-1 "/><path stroke-width="19" d="M22,1736c1,0 1,0 2,0 0,0 0,0 1,-1 1,0 0,-1 1,-1 0,0 1,0 1,0 "/><path stroke-width="20" d="M27,1734c1,0 1,0 1,0 "/><path stroke-width="21" d="M28,1734c1,0 1,0 1,0 0,0 0,1 0,1 "/><path stroke-width="20" d="M29,1735c0,0 1,0 1,0 1,0 1,0 1,0 "/><path stroke-width="21" d="M31,1735c1,0 1,0 1,0 1,0 1,0 1,0 "/><path stroke-width="20" d="M33,1735c0,0 0,0 0,-1 0,0 0,0 0,0 1,0 1,0 1,0 0,0 0,-1 0,-1 0,0 0,0 0,0 "/><path stroke-width="21" d="M34,1733c1,0 1,0 1,0 0,0 0,0 0,0 0,0 0,0 0,0 0,0 0,0 0,0 0,0 0,0 0,0 0,0 0,0 0,0 0,0 0,0 0,0 0,0 0,0 0,0 0,0 0,0 0,0 0,0 0,0 0,0 0,0 0,0 0,0 0,0 0,0 0,0 "/><path stroke-width="20" d="M35,1733c1,-1 1,-1 2,-2 "/><path stroke-width="19" d="M37,1731c0,0 0,-1 0,-1 "/><path stroke-width="20" d="M37,1730c0,0 1,0 1,0 0,0 0,-1 0,-1 0,-1 0,-1 0,-1 0,0 1,0 1,0 0,0 0,0 0,-1 "/><path stroke-width="21" d="M39,1727c0,0 0,0 0,0 0,0 0,0 0,0 0,0 0,0 0,0 0,0 0,0 0,0 0,0 0,0 0,0 0,0 0,0 0,0 0,0 0,0 0,0 0,0 0,0 0,0 0,0 0,0 0,0 -1,-1 -1,-1 -1,-1 -1,0 -1,0 -1,1 0,0 0,0 0,0 0,0 0,0 0,0 0,0 0,0 0,0 0,0 -1,0 -1,0 0,0 0,0 0,1 "/><path stroke-width="20" d="M36,1728c0,0 0,0 0,1 0,0 0,-1 -1,-1 "/><path stroke-width="21" d="M35,1728c0,0 0,0 0,0 0,0 0,0 -1,0 0,0 0,0 0,0 0,0 0,0 0,0 0,0 0,0 0,0 0,0 0,0 0,0 0,0 0,0 0,0 0,0 0,0 0,0 0,0 0,0 0,0 0,0 0,0 0,0 0,0 0,0 0,0 0,0 0,0 0,0 0,0 0,0 0,0 0,0 0,0 0,0 0,0 0,0 0,0 0,0 0,0 0,0 0,0 0,0 0,0 0,0 0,0 0,0 0,0 0,0 0,0 0,0 0,0 0,0 0,0 0,0 0,0 0,0 0,0 0,0 0,0 0,0 0,0 0,0 0,0 0,0 0,0 0,0 0,0 0,0 0,0 0,0 0,0 0,0 0,0 0,0 0,0 0,0 0,0 0,0 0,0 0,0 0,0 0,0 0,0 0,0 0,0 0,0 0,0 0,0 0,0 0,0 0,0 0,0 0,0 0,0 0,0 0,0 0,0 0,0 0,0 0,0 0,0 0,0 0,0 0,0 0,0 0,0 0,0 0,0 0,0 0,0 0,0 0,0 0,0 0,0 0,0 1,0 1,0 1,-1 "/><path stroke-width="20" d="M35,1727c0,0 0,-1 0,-1 0,-1 1,-1 1,-1 1,-1 1,-1 1,-1 "/><path stroke-width="21" d="M37,1724c0,0 0,0 0,0 0,0 0,0 0,0 0,0 0,0 0,0 0,0 0,0 0,0 0,0 0,0 0,0 0,0 0,0 0,0 0,0 0,0 0,0 0,0 0,0 0,0 0,0 0,0 0,0 0,0 0,0 0,0 0,0 0,0 0,0 0,1 0,1 0,1 0,0 0,0 0,0 0,0 0,0 0,0 0,0 0,0 0,0 0,0 -1,0 -1,0 0,0 0,1 0,1 0,0 -1,0 -1,0 0,0 0,1 0,1 "/><path stroke-width="20" d="M35,1727c0,0 -1,0 -1,0 0,0 0,1 0,1 "/><path stroke-width="21" d="M34,1728c0,0 0,0 0,0 0,0 0,0 0,0 0,0 0,0 0,0 0,0 0,0 0,0 "/><path stroke-width="20" d="M34,1728c-1,0 -1,0 -1,0 0,0 0,1 0,1 "/><path stroke-width="21" d="M33,1729c0,0 0,0 0,0 "/><path stroke-width="20" d="M33,1729c-1,0 -1,0 -1,0 0,0 0,1 0,1 0,0 0,0 0,0 "/><path stroke-width="21" d="M32,1730c0,0 0,0 0,0 0,0 0,0 0,0 0,0 0,0 0,0 0,0 0,0 0,0 0,0 0,0 0,0 0,0 0,0 0,0 0,0 0,0 0,0 0,0 0,0 0,0 0,0 0,0 0,0 0,0 0,0 0,0 0,0 0,0 0,0 0,0 0,0 0,0 "/><path stroke-width="20" d="M32,1730c0,1 0,1 0,1 0,1 1,0 1,0 "/><path stroke-width="21" d="M33,1731c0,0 0,0 0,0 0,1 0,1 0,1 0,0 1,0 1,0 0,0 0,0 0,0 0,-1 0,-1 0,-1 0,0 0,0 0,0 1,0 1,0 1,0 0,0 0,0 0,0 0,0 0,0 0,0 0,0 0,-1 0,-1 0,0 0,0 1,0 0,0 0,0 0,0 0,0 0,0 0,0 0,0 0,0 0,0 "/><path stroke-width="20" d="M36,1730c1,0 1,0 1,-1 0,0 0,0 0,0 "/><path stroke-width="21" d="M37,1729c0,0 0,-1 0,-1 "/><path stroke-width="20" d="M37,1728c0,0 1,0 1,0 0,0 0,0 0,-1 "/><path stroke-width="21" d="M38,1727c0,0 0,0 0,0 1,0 1,0 1,0 "/><path stroke-width="20" d="M39,1727c0,0 0,-1 0,-1 0,0 1,0 1,0 0,0 0,-1 0,-1 0,0 1,0 1,0 0,0 0,-1 0,-1 0,0 1,0 1,0 0,0 0,0 0,0 0,-1 0,-1 0,-1 0,0 1,0 1,0 0,0 0,-1 0,-1 "/><path stroke-width="19" d="M43,1722c0,-1 1,-1 1,-1 "/><path stroke-width="20" d="M44,1721c0,0 0,0 0,0 "/><path stroke-width="21" d="M44,1721c0,0 0,0 0,0 "/><path stroke-width="20" d="M44,1721c1,0 1,0 1,0 0,0 0,0 0,0 "/></g></svg>