<?xml version="1.0" encoding="UTF-8" standalone="no"?>
<svg xmlns="http://www.w3.org/2000/svg" version="1.2" baseProfile="tiny" height="1863" width="1080"><g stroke-linejoin="round" stroke-linecap="round" fill="none" stroke="black"><path stroke-width="18" d="M654,1445c0,0 0,0 0,0 "/><path stroke-width="21" d="M654,1445c0,0 0,0 0,0 0,0 0,0 0,0 "/><path stroke-width="18" d="M654,1445c-1,-4 -1,-4 -1,-7 "/><path stroke-width="13" d="M653,1438c-1,-7 -1,-7 -1,-14 "/><path stroke-width="11" d="M652,1424c1,-12 2,-12 3,-23 "/><path stroke-width="9" d="M655,1401c2,-16 1,-16 3,-31 2,-14 3,-14 6,-27 3,-9 3,-9 5,-19 3,-10 3,-10 5,-21 3,-15 3,-15 6,-30 4,-16 5,-16 7,-33 3,-24 2,-24 3,-48 1,-25 1,-25 1,-50 0,-20 0,-20 -2,-39 -2,-21 -3,-21 -6,-41 -4,-19 -5,-19 -8,-37 -4,-16 -2,-17 -6,-33 -6,-24 -5,-24 -14,-47 -13,-30 -14,-30 -31,-58 -19,-31 -21,-30 -42,-61 -20,-28 -19,-29 -41,-56 -18,-23 -19,-23 -40,-44 -18,-19 -19,-18 -38,-35 -17,-14 -16,-15 -34,-27 -21,-15 -22,-14 -44,-27 -26,-14 -28,-12 -53,-27 -24,-13 -22,-16 -45,-30 -16,-10 -16,-10 -33,-18 -11,-6 -12,-6 -24,-11 -7,-3 -7,-3 -15,-5 "/><path stroke-width="12" d="M215,546c-4,-1 -4,-1 -8,-1 "/><path stroke-width="14" d="M207,545c-3,0 -3,0 -6,0 "/><path stroke-width="16" d="M201,545c-4,0 -4,1 -7,1 "/><path stroke-width="18" d="M194,546c-1,0 -2,0 -1,0 "/><path stroke-width="17" d="M193,546c6,1 7,1 14,3 "/><path stroke-width="12" d="M207,549c30,9 31,7 60,18 "/><path stroke-width="9" d="M267,567c27,10 26,12 52,26 21,11 21,10 42,23 19,13 18,14 37,28 22,16 23,14 44,32 32,27 31,28 61,58 36,35 37,34 70,72 33,38 33,38 62,78 22,31 21,32 41,64 14,23 13,23 26,46 10,19 11,19 21,38 7,15 6,15 12,30 4,8 4,8 7,16 "/><path stroke-width="11" d="M742,1078c3,6 3,6 5,11 "/><path stroke-width="13" d="M747,1089c2,3 1,3 3,6 "/><path stroke-width="15" d="M750,1095c2,3 2,3 4,5 "/><path stroke-width="17" d="M754,1100c1,1 0,1 1,2 "/><path stroke-width="18" d="M755,1102c1,1 2,1 3,2 "/><path stroke-width="17" d="M758,1104c2,1 2,1 3,2 "/><path stroke-width="18" d="M761,1106c1,0 0,1 1,1 "/><path stroke-width="19" d="M762,1107c0,0 1,0 1,0 "/><path stroke-width="20" d="M763,1107c0,0 0,1 0,2 0,0 1,-1 1,-1 "/><path stroke-width="19" d="M764,1108c0,0 0,1 0,2 "/><path stroke-width="20" d="M764,1110c0,0 0,0 0,0 "/><path stroke-width="21" d="M764,1110c0,0 0,0 0,0 0,0 0,0 0,0 "/><path stroke-width="20" d="M764,1110c0,-1 0,-2 0,-2 "/><path stroke-width="19" d="M764,1108c0,-1 -1,-1 -1,-1 -1,-1 -1,-1 -1,-2 "/><path stroke-width="20" d="M762,1105c0,-1 -1,0 -1,-1 "/><path stroke-width="18" d="M761,1104c-1,-2 0,-2 -1,-4 "/><path stroke-width="17" d="M760,1100c-1,-2 -1,-2 -2,-4 "/><path stroke-width="16" d="M758,1096c-2,-3 -2,-3 -4,-6 "/><path stroke-width="14" d="M754,1090c-4,-5 -4,-5 -8,-9 "/><path stroke-width="12" d="M746,1081c-6,-6 -6,-6 -12,-11 "/><path stroke-width="10" d="M734,1070c-12,-9 -13,-8 -25,-17 "/><path stroke-width="9" d="M709,1053c-17,-15 -17,-14 -33,-30 -19,-19 -19,-19 -36,-39 -22,-27 -20,-28 -41,-55 -17,-22 -16,-23 -34,-43 -16,-18 -17,-18 -35,-35 -17,-15 -17,-15 -35,-29 -21,-16 -21,-15 -43,-31 -14,-10 -13,-11 -28,-21 -13,-8 -14,-7 -27,-14 -9,-5 -10,-4 -18,-9 "/><path stroke-width="10" d="M379,747c-8,-4 -8,-5 -15,-9 -8,-5 -9,-4 -16,-9 -7,-5 -7,-5 -13,-10 "/><path stroke-width="12" d="M335,719c-4,-3 -4,-3 -8,-6 "/><path stroke-width="13" d="M327,713c-4,-3 -3,-3 -7,-5 "/><path stroke-width="14" d="M320,708c-4,-2 -5,-1 -9,-3 -3,-1 -3,-1 -5,-2 "/><path stroke-width="16" d="M306,703c-3,-1 -3,-1 -5,-2 -2,-1 -1,-1 -3,-2 "/><path stroke-width="17" d="M298,699c-1,-1 -2,0 -3,-1 "/><path stroke-width="18" d="M295,698c-1,-1 -1,-1 -2,-2 -1,-1 -1,0 -2,-1 "/><path stroke-width="19" d="M291,695c-1,-1 -1,-1 -1,-1 -1,-1 -1,-1 -1,-1 -1,-1 -1,-1 -1,-1 "/><path stroke-width="20" d="M288,692c-1,-1 -1,0 -1,0 0,0 0,-1 0,-1 "/><path stroke-width="19" d="M287,691c0,-1 -1,-1 -1,-1 "/><path stroke-width="20" d="M286,690c0,0 0,0 0,0 "/><path stroke-width="19" d="M286,690c-1,-1 -1,-1 -2,-2 "/><path stroke-width="17" d="M284,688c-2,-2 -2,-2 -4,-4 "/><path stroke-width="16" d="M280,684c-1,-1 -1,-1 -3,-3 "/></g></svg>