<?xml version="1.0" encoding="UTF-8" standalone="no"?>
<svg xmlns="http://www.w3.org/2000/svg" version="1.2" baseProfile="tiny" height="1771" width="1080"><g stroke-linejoin="round" stroke-linecap="round" fill="none" stroke="black"><path stroke-width="16" d="M376,1140c0,0 0,0 0,0 1,-3 1,-3 2,-5 "/><path stroke-width="13" d="M378,1135c1,-4 1,-4 2,-8 "/><path stroke-width="11" d="M380,1127c1,-7 2,-6 2,-13 "/><path stroke-width="9" d="M382,1114c2,-19 2,-19 3,-39 "/><path stroke-width="8" d="M385,1075c0,-23 0,-23 0,-46 -1,-22 -1,-22 -2,-44 0,-28 -1,-28 0,-56 0,-28 0,-28 2,-56 3,-27 3,-27 9,-53 7,-27 7,-27 17,-53 10,-26 10,-27 23,-51 12,-23 11,-25 29,-44 16,-18 18,-21 40,-29 23,-9 26,-8 50,-5 29,4 31,5 57,19 30,16 30,17 57,40 27,23 28,23 49,51 21,26 19,27 35,57 15,27 16,27 27,56 8,23 10,24 11,48 1,19 2,21 -6,37 -6,12 -9,16 -22,19 -17,4 -21,3 -39,-4 -29,-12 -31,-13 -56,-34 -34,-28 -31,-31 -61,-64 -32,-35 -31,-37 -64,-72 -31,-34 -31,-35 -66,-67 -33,-31 -34,-30 -69,-59 -34,-27 -34,-26 -69,-52 -27,-20 -27,-19 -54,-38 "/></g></svg>