<?xml version="1.0" encoding="UTF-8" standalone="no"?>
<svg xmlns="http://www.w3.org/2000/svg" version="1.2" baseProfile="tiny" height="1863" width="1080"><g stroke-linejoin="round" stroke-linecap="round" fill="none" stroke="black"><path stroke-width="18" d="M736,1122c0,0 0,0 0,0 "/><path stroke-width="21" d="M736,1122c0,0 0,0 0,0 0,0 0,0 0,0 0,0 0,0 0,0 "/><path stroke-width="16" d="M736,1122c-1,-28 1,-28 -1,-56 "/><path stroke-width="10" d="M735,1066c-3,-31 -3,-31 -7,-62 "/><path stroke-width="9" d="M728,1004c-5,-29 -4,-29 -12,-58 -8,-30 -8,-30 -21,-60 -13,-31 -12,-31 -29,-60 -22,-36 -22,-37 -47,-70 -28,-35 -28,-35 -59,-67 -28,-30 -28,-30 -60,-56 -29,-25 -30,-25 -62,-47 -26,-17 -26,-16 -52,-32 -22,-14 -22,-14 -45,-27 -13,-8 -12,-8 -26,-15 -12,-5 -12,-4 -24,-8 -10,-3 -10,-3 -21,-5 "/><path stroke-width="10" d="M270,499c-6,-2 -6,-2 -12,-3 "/><path stroke-width="11" d="M258,496c-8,-2 -8,-2 -16,-3 -7,-2 -7,-2 -14,-3 "/><path stroke-width="12" d="M228,490c-6,-1 -6,-1 -11,-2 "/><path stroke-width="14" d="M217,488c-3,0 -3,0 -5,0 "/><path stroke-width="17" d="M212,488c-1,0 -2,0 -2,1 "/><path stroke-width="16" d="M210,489c-1,4 -3,5 -1,9 "/><path stroke-width="12" d="M209,498c7,14 7,16 19,26 "/><path stroke-width="9" d="M228,524c37,30 40,27 78,54 61,43 63,41 122,86 56,43 56,43 108,90 51,47 51,47 97,99 32,36 30,39 59,78 20,25 20,25 39,51 13,20 13,20 26,40 9,15 8,15 16,30 6,10 6,10 11,21 "/><path stroke-width="10" d="M784,1073c3,5 3,5 6,11 "/><path stroke-width="12" d="M790,1084c2,5 3,5 5,9 "/><path stroke-width="14" d="M795,1093c2,3 1,3 3,6 2,4 2,4 4,7 "/><path stroke-width="12" d="M802,1106c4,7 5,7 8,13 "/><path stroke-width="15" d="M30,1758c0,0 0,0 0,0 "/><path stroke-width="20" d="M30,1758c0,0 0,0 0,0 "/><path stroke-width="21" d="M30,1758c0,0 0,0 0,0 0,0 0,0 0,0 0,0 0,0 0,0 0,0 0,0 0,0 0,0 0,0 0,0 0,0 0,0 0,0 0,0 0,0 0,0 "/><path stroke-width="20" d="M30,1758c0,-1 -1,-1 -1,-2 "/><path stroke-width="19" d="M29,1756c-1,-1 -1,-1 -1,-2 0,-1 0,-1 0,-1 0,-1 0,-1 0,-1 "/><path stroke-width="20" d="M28,1752c0,-1 0,-1 0,-1 "/><path stroke-width="19" d="M28,1751c0,-1 1,-1 1,-1 1,-1 0,-1 0,-1 "/><path stroke-width="20" d="M29,1749c0,-1 0,-1 0,-1 "/><path stroke-width="19" d="M29,1748c0,-1 1,-1 1,-1 1,-1 0,-1 0,-1 0,-2 0,-2 0,-3 0,-1 0,-1 1,-1 "/><path stroke-width="20" d="M31,1742c0,-1 1,0 1,-1 0,0 0,-1 0,-1 0,0 1,0 2,0 "/><path stroke-width="19" d="M34,1740c0,0 -1,-1 -1,-1 "/><path stroke-width="20" d="M33,1739c0,0 1,0 1,0 0,0 0,0 0,-1 0,0 0,0 0,0 "/><path stroke-width="21" d="M34,1738c0,0 0,0 0,0 "/><path stroke-width="20" d="M34,1738c1,-1 1,-1 1,-1 "/><path stroke-width="19" d="M35,1737c1,-1 0,-1 0,-1 "/><path stroke-width="20" d="M35,1736c0,0 1,0 1,0 "/><path stroke-width="19" d="M36,1736c1,-1 1,-1 1,-2 "/><path stroke-width="20" d="M37,1734c0,0 0,0 0,0 "/><path stroke-width="21" d="M37,1734c0,0 0,0 0,0 "/></g></svg>