<?xml version="1.0" encoding="UTF-8" standalone="no"?>
<svg xmlns="http://www.w3.org/2000/svg" version="1.2" baseProfile="tiny" height="1863" width="1080"><g stroke-linejoin="round" stroke-linecap="round" fill="none" stroke="black"><path stroke-width="18" d="M720,1181c0,0 0,0 0,0 1,-5 2,-4 2,-9 "/><path stroke-width="12" d="M722,1172c-1,-23 -2,-23 -3,-46 "/><path stroke-width="9" d="M719,1126c-2,-35 1,-36 -4,-70 -6,-38 -7,-38 -17,-74 -12,-50 -11,-50 -27,-99 -17,-53 -16,-53 -38,-104 -19,-42 -20,-41 -43,-80 -23,-37 -22,-38 -49,-72 -31,-39 -33,-38 -68,-73 -36,-36 -36,-37 -76,-70 -36,-30 -36,-31 -76,-56 -28,-18 -29,-17 -60,-32 -12,-6 -13,-6 -26,-9 "/><path stroke-width="10" d="M235,387c-7,-2 -7,-1 -15,0 "/><path stroke-width="11" d="M220,387c-6,1 -6,2 -12,3 "/><path stroke-width="12" d="M208,390c-5,1 -6,0 -10,2 "/><path stroke-width="13" d="M198,392c-4,2 -5,2 -7,5 -3,5 -5,7 -3,12 "/><path stroke-width="11" d="M188,409c6,14 7,17 20,28 "/><path stroke-width="9" d="M208,437c37,31 41,27 81,56 62,43 64,41 123,88 70,56 70,56 136,118 52,50 52,51 99,105 28,31 24,35 52,66 19,22 22,20 42,40 19,19 17,22 37,39 13,12 15,11 29,20 "/><path stroke-width="10" d="M807,969c5,3 6,2 11,5 "/></g></svg>