<?xml version="1.0" encoding="UTF-8" standalone="no"?>
<svg xmlns="http://www.w3.org/2000/svg" version="1.2" baseProfile="tiny" height="1771" width="1080"><g stroke-linejoin="round" stroke-linecap="round" fill="none" stroke="black"><path stroke-width="16" d="M176,638c0,0 0,0 0,0 "/><path stroke-width="17" d="M176,638c1,0 2,0 3,0 "/><path stroke-width="15" d="M179,638c1,-2 1,-2 3,-3 "/><path stroke-width="13" d="M182,635c3,-3 3,-3 6,-6 "/><path stroke-width="10" d="M188,629c8,-10 8,-10 17,-21 "/><path stroke-width="8" d="M205,608c8,-12 8,-12 16,-24 7,-9 7,-9 14,-18 7,-10 7,-11 15,-20 10,-12 10,-12 20,-23 14,-14 14,-14 29,-28 16,-14 16,-14 32,-28 14,-12 14,-11 29,-22 13,-9 13,-10 26,-18 13,-8 13,-8 26,-15 13,-8 13,-9 27,-15 16,-6 17,-5 33,-9 15,-3 15,-4 30,-5 14,-1 15,0 29,1 15,1 15,0 29,3 12,2 12,2 24,6 12,5 12,6 23,12 11,5 11,4 22,10 10,6 10,5 19,12 10,7 10,7 19,16 11,11 11,11 21,23 13,16 13,16 25,33 10,16 10,16 19,33 9,17 7,18 15,35 6,14 7,13 12,27 4,13 3,13 6,27 3,12 3,12 7,24 2,8 4,8 6,16 "/><path stroke-width="9" d="M778,661c3,8 2,8 4,15 "/><path stroke-width="10" d="M782,676c1,6 1,6 1,12 "/><path stroke-width="11" d="M783,688c0,4 1,5 0,8 "/><path stroke-width="12" d="M783,696c-1,3 -2,3 -4,5 "/><path stroke-width="13" d="M779,701c-2,2 -2,2 -3,4 -2,2 -3,2 -5,4 "/><path stroke-width="14" d="M771,709c-2,2 -2,2 -4,3 -2,2 -2,2 -4,3 -3,2 -2,2 -5,3 "/><path stroke-width="13" d="M758,718c-3,2 -3,1 -6,2 -3,1 -3,1 -6,1 -3,0 -3,1 -5,0 -4,0 -4,0 -7,0 "/><path stroke-width="12" d="M734,721c-6,-2 -7,-2 -12,-4 "/><path stroke-width="10" d="M722,717c-8,-4 -8,-4 -15,-9 "/><path stroke-width="9" d="M707,708c-9,-6 -9,-6 -18,-13 "/><path stroke-width="8" d="M689,695c-10,-7 -10,-7 -20,-14 -9,-7 -10,-6 -20,-12 -8,-6 -8,-6 -17,-11 "/><path stroke-width="9" d="M632,658c-7,-5 -7,-5 -13,-10 -7,-6 -8,-5 -14,-11 "/><path stroke-width="8" d="M605,637c-11,-10 -11,-11 -20,-22 -18,-21 -18,-21 -35,-43 -19,-23 -19,-23 -39,-46 -13,-15 -13,-15 -26,-30 -9,-10 -10,-10 -19,-19 -10,-10 -10,-10 -20,-19 -14,-14 -14,-14 -28,-27 -18,-17 -19,-16 -37,-32 -21,-18 -20,-19 -40,-36 -18,-16 -18,-15 -36,-30 -15,-12 -15,-13 -30,-25 -10,-9 -10,-9 -21,-18 -8,-6 -8,-6 -16,-12 "/><path stroke-width="9" d="M238,278c-5,-3 -5,-3 -9,-7 "/><path stroke-width="11" d="M229,271c-3,-2 -3,-3 -7,-5 "/><path stroke-width="12" d="M222,266c-3,-3 -3,-3 -7,-5 "/><path stroke-width="11" d="M215,261c-5,-3 -5,-3 -9,-5 -4,-3 -4,-4 -8,-6 -4,-3 -4,-3 -9,-5 -3,-3 -3,-3 -7,-5 "/><path stroke-width="12" d="M182,240c-3,-2 -3,-2 -5,-4 "/><path stroke-width="13" d="M177,236c-3,-2 -2,-2 -5,-5 -2,-2 -1,-2 -4,-4 -2,-2 -2,-2 -4,-3 "/><path stroke-width="14" d="M164,224c-2,-1 -2,-1 -4,-2 "/><path stroke-width="15" d="M160,222c-1,-1 -1,-1 -3,-2 "/><path stroke-width="16" d="M157,220c-1,0 -1,0 -1,0 -1,-1 -1,-1 -2,-1 "/><path stroke-width="17" d="M154,219c0,0 0,0 -1,-1 "/><path stroke-width="16" d="M153,218c-1,-1 -1,-1 -2,-2 "/><path stroke-width="15" d="M151,216c-2,-1 -3,-1 -5,-2 "/><path stroke-width="14" d="M146,214c-2,-2 -2,-2 -4,-3 -1,-1 -1,-1 -3,-1 "/><path stroke-width="15" d="M139,210c0,-1 -1,-1 -1,-2 "/><path stroke-width="17" d="M138,208c-1,0 0,0 0,0 "/><path stroke-width="18" d="M138,208c0,0 0,0 0,0 0,0 0,0 0,0 0,0 0,0 0,0 0,0 0,0 0,0 0,0 0,0 1,0 "/><path stroke-width="17" d="M139,208c0,-1 0,0 1,0 "/><path stroke-width="18" d="M140,208c0,0 0,0 -1,0 0,-1 0,-1 0,-1 0,0 0,0 0,0 0,0 0,0 0,1 0,0 0,0 1,0 0,0 0,-1 0,-1 0,0 0,0 0,0 0,0 0,0 0,0 0,0 0,0 0,0 0,0 0,0 0,0 1,0 1,0 1,0 0,0 0,0 0,1 1,0 1,0 1,0 0,0 0,0 1,1 0,0 0,0 0,0 0,0 0,0 0,0 1,0 1,0 1,0 1,0 1,0 2,0 0,0 -1,0 0,0 0,0 0,0 1,0 0,0 0,0 0,0 0,0 0,-1 0,-1 "/><path stroke-width="13" d="M147,208c-4,-7 -4,-7 -8,-14 "/></g></svg>