<?xml version="1.0" encoding="UTF-8" standalone="no"?>
<svg xmlns="http://www.w3.org/2000/svg" version="1.2" baseProfile="tiny" height="1863" width="1080"><g stroke-linejoin="round" stroke-linecap="round" fill="none" stroke="black"><path stroke-width="18" d="M600,1143c0,0 0,0 0,0 "/><path stroke-width="21" d="M600,1143c0,0 0,0 0,0 0,0 0,0 0,0 "/><path stroke-width="15" d="M600,1143c2,-10 2,-10 5,-20 "/><path stroke-width="9" d="M605,1123c4,-13 5,-13 8,-27 2,-10 1,-11 1,-21 1,-38 4,-39 1,-76 -6,-60 -4,-61 -19,-120 -13,-52 -14,-53 -37,-103 -16,-34 -19,-33 -41,-64 -14,-20 -15,-20 -32,-39 -21,-21 -21,-21 -44,-40 -29,-24 -28,-25 -58,-47 -34,-24 -35,-22 -69,-44 -28,-18 -27,-19 -56,-34 -14,-8 -14,-8 -29,-13 -10,-3 -10,-3 -20,-4 "/><path stroke-width="11" d="M210,491c-5,-1 -5,-1 -10,0 "/><path stroke-width="13" d="M200,491c-4,0 -4,0 -7,2 "/><path stroke-width="14" d="M193,493c-4,2 -5,2 -6,6 "/><path stroke-width="12" d="M187,499c-2,10 -6,14 1,22 "/><path stroke-width="9" d="M188,521c41,42 47,39 95,77 76,62 82,56 153,123 55,51 52,54 99,112 22,27 20,28 39,57 15,23 15,23 29,47 9,14 8,15 17,29 7,11 5,13 14,21 10,9 12,7 23,14 "/></g></svg>