<?xml version="1.0" encoding="UTF-8" standalone="no"?>
<svg xmlns="http://www.w3.org/2000/svg" version="1.2" baseProfile="tiny" height="1863" width="1080"><g stroke-linejoin="round" stroke-linecap="round" fill="none" stroke="black"><path stroke-width="18" d="M624,1454c0,0 0,0 0,0 "/><path stroke-width="21" d="M624,1454c0,0 0,0 0,0 "/><path stroke-width="18" d="M624,1454c2,-9 2,-9 4,-18 "/><path stroke-width="12" d="M628,1436c5,-19 6,-19 11,-38 "/><path stroke-width="9" d="M639,1398c7,-24 8,-24 14,-49 4,-16 3,-16 7,-33 6,-23 8,-23 12,-47 5,-27 5,-27 7,-54 2,-34 3,-34 1,-69 -2,-39 -3,-39 -9,-79 -5,-35 -4,-36 -12,-71 -9,-36 -9,-36 -20,-72 -13,-38 -13,-39 -29,-76 -14,-31 -14,-31 -31,-60 -16,-25 -17,-24 -36,-48 -18,-23 -18,-24 -39,-45 -16,-17 -17,-16 -34,-31 -17,-16 -16,-17 -35,-32 -15,-12 -16,-11 -32,-21 -11,-7 -11,-8 -22,-14 "/><path stroke-width="10" d="M381,597c-6,-4 -7,-4 -13,-6 "/><path stroke-width="12" d="M368,591c-4,-1 -4,-1 -8,-2 "/><path stroke-width="14" d="M360,589c-3,0 -3,-1 -6,0 "/><path stroke-width="15" d="M354,589c-3,1 -4,0 -6,2 "/><path stroke-width="14" d="M348,591c-4,2 -4,2 -7,6 "/><path stroke-width="13" d="M341,597c-4,6 -6,6 -6,12 "/><path stroke-width="10" d="M335,609c0,13 0,15 7,25 "/><path stroke-width="9" d="M342,634c23,37 27,35 55,70 34,43 36,41 69,85 36,48 36,48 68,98 25,38 24,39 47,79 19,32 20,32 37,65 14,25 11,26 25,51 12,23 13,22 27,44 9,13 8,14 19,25 11,10 12,11 26,16 14,6 15,5 30,6 "/><path stroke-width="10" d="M745,1173c5,0 5,-1 10,-3 "/><path stroke-width="16" d="M13,1731c0,0 0,0 0,0 "/><path stroke-width="20" d="M13,1731c0,0 0,0 0,0 "/><path stroke-width="21" d="M13,1731c0,0 0,0 0,0 0,0 0,0 0,0 "/><path stroke-width="20" d="M13,1731c1,0 1,0 1,0 "/><path stroke-width="19" d="M14,1731c1,-1 1,-1 1,-2 0,0 0,-1 0,-1 "/><path stroke-width="20" d="M15,1728c0,0 0,0 0,0 "/><path stroke-width="21" d="M15,1728c1,0 1,0 1,0 0,0 0,0 0,0 0,0 0,0 0,0 "/><path stroke-width="20" d="M16,1728c0,-1 0,-1 0,-1 "/><path stroke-width="19" d="M16,1727c0,-1 1,-1 1,-2 "/><path stroke-width="17" d="M17,1725c2,-4 2,-3 4,-7 "/><path stroke-width="15" d="M21,1718c1,-3 1,-3 2,-6 1,-3 2,-3 3,-5 "/><path stroke-width="16" d="M26,1707c1,-2 1,-2 2,-4 1,-3 2,-3 3,-5 1,-2 1,-2 2,-3 "/><path stroke-width="17" d="M33,1695c1,-2 2,-1 3,-3 "/><path stroke-width="16" d="M36,1692c2,-3 2,-4 4,-7 "/><path stroke-width="15" d="M40,1685c1,-3 1,-3 3,-5 "/><path stroke-width="16" d="M43,1680c1,-2 1,-2 3,-4 "/><path stroke-width="18" d="M46,1676c0,0 0,0 0,0 2,-2 1,-2 3,-3 0,0 1,0 1,0 "/><path stroke-width="20" d="M50,1673c0,0 0,0 0,0 "/><path stroke-width="21" d="M50,1673c0,0 0,0 0,0 0,0 0,0 0,0 "/></g></svg>