<?xml version="1.0" encoding="UTF-8" standalone="no"?>
<svg xmlns="http://www.w3.org/2000/svg" version="1.2" baseProfile="tiny" height="1863" width="1080"><g stroke-linejoin="round" stroke-linecap="round" fill="none" stroke="black"><path stroke-width="18" d="M591,1297c0,0 0,0 0,0 "/><path stroke-width="16" d="M591,1297c-8,10 -8,10 -16,20 "/><path stroke-width="10" d="M575,1317c-25,30 -25,30 -50,60 "/><path stroke-width="9" d="M525,1377c-11,13 -10,14 -22,26 -9,9 -8,14 -20,15 -19,3 -22,1 -40,-7 -36,-17 -39,-17 -69,-44 -37,-33 -39,-34 -65,-76 -19,-30 -19,-34 -24,-69 -4,-24 -2,-26 5,-50 14,-43 14,-44 38,-82 25,-40 26,-41 59,-75 51,-51 47,-59 109,-96 83,-50 89,-45 182,-76 69,-23 71,-19 142,-34 26,-5 26,-3 53,-6 15,-2 15,-3 30,-5 16,-3 16,-3 33,-6 "/><path stroke-width="11" d="M936,792c2,-1 2,-1 5,-1 "/><path stroke-width="17" d="M868,859c0,0 0,0 0,0 "/><path stroke-width="14" d="M868,859c-32,25 -31,26 -63,51 "/><path stroke-width="9" d="M805,910c-57,44 -60,41 -115,87 -77,63 -76,64 -150,132 -59,55 -60,55 -117,113 -23,24 -24,24 -43,51 -9,11 -6,13 -12,26 -9,17 -7,20 -20,32 -17,16 -22,13 -42,24 "/></g></svg>