<?xml version="1.0" encoding="UTF-8" standalone="no"?>
<svg xmlns="http://www.w3.org/2000/svg" version="1.2" baseProfile="tiny" height="1771" width="1080"><g stroke-linejoin="round" stroke-linecap="round" fill="none" stroke="black"><path stroke-width="16" d="M432,1442c0,0 0,0 0,0 "/><path stroke-width="17" d="M432,1442c0,0 0,0 1,0 "/><path stroke-width="16" d="M433,1442c1,0 1,0 3,0 "/><path stroke-width="14" d="M436,1442c3,0 3,1 6,0 "/><path stroke-width="11" d="M442,1442c10,0 10,-1 20,-2 "/><path stroke-width="9" d="M462,1440c2,0 2,0 5,0 "/><path stroke-width="13" d="M544,1324c0,0 0,0 0,0 "/><path stroke-width="15" d="M544,1324c0,-4 0,-4 0,-8 "/><path stroke-width="12" d="M544,1316c1,-6 1,-6 2,-13 "/><path stroke-width="9" d="M546,1303c3,-28 3,-28 6,-57 "/><path stroke-width="8" d="M552,1246c8,-66 7,-66 16,-132 8,-54 9,-54 18,-108 7,-45 7,-45 14,-90 5,-31 7,-31 11,-62 3,-20 3,-20 4,-41 1,-14 1,-14 1,-29 0,-10 1,-11 -2,-21 -2,-9 -2,-10 -8,-18 -5,-8 -5,-9 -14,-14 -12,-7 -13,-7 -26,-10 -17,-3 -18,-3 -35,-1 -19,1 -19,1 -37,7 -18,6 -17,7 -34,17 -19,10 -20,9 -37,22 -15,12 -14,14 -29,28 -13,13 -15,12 -26,26 -9,12 -10,12 -15,26 -5,15 -5,16 -4,31 0,14 0,15 7,27 7,15 8,16 21,28 14,15 15,14 33,26 24,15 24,16 50,28 28,12 29,11 58,21 30,10 31,9 62,18 30,8 30,8 60,17 30,9 30,7 60,19 27,10 26,11 52,24 23,12 23,11 44,25 15,11 16,11 29,24 7,7 7,8 13,17 "/><path stroke-width="9" d="M838,1151c2,4 3,4 4,9 "/><path stroke-width="12" d="M842,1160c0,3 0,3 -1,6 -2,5 -2,5 -6,9 "/><path stroke-width="10" d="M835,1175c-5,6 -5,7 -11,12 "/><path stroke-width="9" d="M824,1187c-10,8 -10,9 -22,15 "/><path stroke-width="8" d="M802,1202c-20,9 -20,9 -41,15 -25,6 -25,5 -51,8 -25,3 -25,2 -50,3 -23,0 -24,1 -47,-2 -20,-3 -20,-3 -39,-10 -16,-5 -16,-7 -31,-14 -12,-6 -13,-6 -25,-12 -9,-5 -9,-6 -19,-11 "/><path stroke-width="9" d="M499,1179c-4,-3 -4,-4 -9,-6 "/><path stroke-width="12" d="M490,1173c-2,-1 -2,-1 -4,-2 "/><path stroke-width="15" d="M486,1171c-1,0 -1,-1 -2,0 "/><path stroke-width="16" d="M484,1171c0,1 0,1 0,3 "/><path stroke-width="13" d="M484,1174c1,7 1,7 1,14 "/><path stroke-width="9" d="M485,1188c1,24 0,24 1,48 "/><path stroke-width="8" d="M486,1236c3,42 2,43 8,84 5,46 7,46 15,92 8,50 8,50 15,101 9,63 8,63 16,127 "/><path stroke-width="9" d="M540,1640c0,0 0,0 1,1 "/></g></svg>