<?xml version="1.0" encoding="UTF-8" standalone="no"?>
<svg xmlns="http://www.w3.org/2000/svg" version="1.2" baseProfile="tiny" height="1863" width="1080"><g stroke-linejoin="round" stroke-linecap="round" fill="none" stroke="black"><path stroke-width="18" d="M563,921c0,0 0,0 0,0 "/><path stroke-width="19" d="M563,921c-1,-3 -1,-3 -2,-7 "/><path stroke-width="13" d="M561,914c-4,-13 -4,-13 -7,-27 "/><path stroke-width="9" d="M554,887c-4,-16 -3,-16 -7,-32 -6,-20 -7,-20 -13,-40 -8,-26 -8,-26 -16,-52 -10,-34 -7,-34 -19,-67 -14,-37 -17,-36 -33,-72 -14,-34 -11,-35 -27,-68 -9,-19 -12,-17 -22,-35 -7,-12 -7,-12 -12,-25 "/><path stroke-width="11" d="M405,496c-3,-4 -3,-4 -4,-9 "/><path stroke-width="14" d="M401,487c-1,-4 -2,-4 -1,-7 1,-5 1,-7 5,-10 "/><path stroke-width="11" d="M405,470c8,-6 9,-9 19,-9 "/><path stroke-width="9" d="M424,461c21,-1 23,-1 44,6 48,17 50,17 94,43 38,23 37,25 69,55 25,23 24,24 43,52 19,26 18,27 32,55 12,24 12,24 20,50 7,21 6,22 9,44 2,19 3,20 2,39 -1,11 0,12 -5,21 -4,8 -5,12 -14,13 -19,3 -23,4 -41,-5 -42,-20 -41,-25 -78,-54 -45,-35 -42,-39 -87,-74 -45,-35 -47,-33 -91,-67 -38,-28 -37,-30 -75,-58 -22,-17 -24,-15 -44,-33 -22,-19 -20,-21 -39,-42 -9,-10 -10,-10 -19,-19 "/></g></svg>