<?xml version="1.0" encoding="UTF-8" standalone="no"?>
<svg xmlns="http://www.w3.org/2000/svg" version="1.2" baseProfile="tiny" height="1771" width="1080"><g stroke-linejoin="round" stroke-linecap="round" fill="none" stroke="black"><path stroke-width="16" d="M343,1401c0,0 0,0 0,0 "/><path stroke-width="18" d="M343,1401c0,-1 0,-1 0,-1 "/><path stroke-width="17" d="M343,1400c0,-1 0,-1 1,-2 "/><path stroke-width="16" d="M344,1398c1,-1 1,-1 2,-2 "/><path stroke-width="15" d="M346,1396c1,-2 1,-2 2,-4 "/><path stroke-width="13" d="M348,1392c3,-3 3,-3 5,-7 "/><path stroke-width="11" d="M353,1385c5,-7 5,-7 10,-15 "/><path stroke-width="9" d="M363,1370c6,-8 6,-8 11,-16 "/><path stroke-width="8" d="M374,1354c7,-12 7,-12 12,-25 9,-22 9,-22 17,-44 13,-37 13,-37 25,-74 13,-42 13,-43 24,-85 12,-46 11,-46 21,-92 11,-45 11,-45 22,-90 9,-42 11,-42 19,-85 8,-37 9,-37 13,-74 3,-29 4,-29 2,-58 0,-23 -2,-23 -7,-44 -3,-16 -3,-17 -10,-32 -4,-9 -5,-9 -13,-17 "/><path stroke-width="9" d="M499,634c-4,-4 -4,-5 -9,-6 "/><path stroke-width="10" d="M490,628c-7,-1 -9,-2 -15,1 "/><path stroke-width="9" d="M475,629c-14,5 -14,7 -25,16 "/><path stroke-width="8" d="M450,645c-22,20 -23,20 -42,43 -20,25 -20,26 -37,53 -14,25 -15,25 -25,51 -9,26 -10,27 -12,55 -2,26 -3,27 2,53 5,23 5,25 18,45 13,19 15,19 34,32 21,14 22,14 47,22 27,8 28,5 57,11 32,6 32,5 64,11 33,7 33,5 66,14 33,9 33,10 65,21 26,10 27,9 52,22 18,9 19,9 36,22 9,7 11,8 15,18 3,8 3,12 -2,19 -8,12 -11,12 -24,21 -20,13 -20,13 -42,23 -27,11 -27,12 -56,18 -29,7 -29,8 -59,8 -30,0 -31,0 -61,-6 -29,-6 -29,-8 -56,-18 -27,-9 -27,-9 -53,-21 -21,-10 -21,-11 -41,-24 -15,-10 -14,-11 -29,-22 -7,-5 -7,-5 -14,-10 "/><path stroke-width="10" d="M353,1106c-3,-2 -3,-2 -6,-3 "/><path stroke-width="14" d="M347,1103c0,0 -1,1 -1,2 2,3 2,3 4,6 "/><path stroke-width="10" d="M350,1111c6,14 6,14 12,28 "/><path stroke-width="8" d="M362,1139c14,32 14,32 28,65 16,37 16,38 32,75 19,41 18,41 38,81 26,52 27,52 54,103 "/><path stroke-width="9" d="M514,1463c0,1 0,1 0,1 "/></g></svg>