<?xml version="1.0" encoding="UTF-8" standalone="no"?>
<svg xmlns="http://www.w3.org/2000/svg" version="1.2" baseProfile="tiny" height="1771" width="1080"><g stroke-linejoin="round" stroke-linecap="round" fill="none" stroke="black"><path stroke-width="16" d="M259,1221c0,0 0,0 0,0 "/><path stroke-width="17" d="M259,1221c1,-1 1,-1 2,-2 "/><path stroke-width="16" d="M261,1219c1,-1 1,-1 1,-2 "/><path stroke-width="15" d="M262,1217c2,-2 2,-2 3,-3 "/><path stroke-width="13" d="M265,1214c2,-3 2,-3 4,-6 "/><path stroke-width="11" d="M269,1208c5,-6 5,-6 9,-12 "/><path stroke-width="9" d="M278,1196c5,-6 5,-6 9,-13 5,-6 5,-6 10,-12 5,-7 6,-7 10,-14 6,-10 6,-10 11,-20 "/><path stroke-width="8" d="M318,1137c11,-20 10,-21 20,-41 11,-23 10,-24 23,-46 7,-14 8,-13 16,-26 5,-9 5,-9 9,-18 5,-11 5,-11 9,-22 6,-14 6,-14 11,-28 7,-17 7,-17 14,-34 5,-13 5,-13 10,-26 3,-10 3,-10 6,-20 2,-10 2,-10 4,-20 3,-11 3,-11 4,-22 2,-9 1,-9 2,-17 "/><path stroke-width="10" d="M446,817c0,-6 0,-6 0,-12 0,-6 0,-6 -1,-12 -1,-7 -2,-7 -3,-13 -2,-6 -2,-7 -4,-13 "/><path stroke-width="11" d="M438,767c-1,-4 -2,-4 -4,-9 -2,-4 -2,-4 -4,-8 "/><path stroke-width="12" d="M430,750c-3,-3 -3,-3 -6,-6 -2,-2 -2,-2 -5,-4 "/><path stroke-width="13" d="M419,740c-3,-2 -3,-2 -6,-4 -3,-2 -3,-2 -6,-4 "/><path stroke-width="12" d="M407,732c-4,-2 -4,-2 -7,-3 -4,-2 -4,-2 -9,-3 -5,-1 -5,-1 -10,-1 -4,-1 -4,-1 -8,0 -4,0 -4,1 -7,2 "/><path stroke-width="13" d="M366,727c-3,1 -3,1 -6,3 -3,2 -3,2 -7,4 "/><path stroke-width="12" d="M353,734c-3,2 -4,1 -7,3 -4,2 -4,1 -7,3 "/><path stroke-width="13" d="M339,740c-2,1 -2,1 -4,3 -2,2 -2,3 -4,5 "/><path stroke-width="12" d="M331,748c-2,4 -2,4 -4,8 "/><path stroke-width="11" d="M327,756c-3,6 -3,6 -6,13 "/><path stroke-width="9" d="M321,769c-3,9 -4,9 -7,18 "/><path stroke-width="8" d="M314,787c-4,10 -4,10 -7,20 -4,13 -4,13 -6,26 -1,14 -1,14 -1,28 0,13 1,13 2,26 2,13 2,14 5,27 4,11 4,12 10,22 5,10 6,10 14,18 11,11 11,11 24,20 17,11 17,12 36,20 18,9 19,8 39,15 19,7 19,6 39,13 19,7 19,7 38,14 20,7 20,6 39,14 19,8 19,8 38,17 16,8 16,7 31,16 16,10 17,10 31,22 13,10 12,11 23,23 8,11 9,11 15,23 7,12 7,12 12,25 3,9 3,10 3,19 "/><path stroke-width="9" d="M699,1195c0,7 -1,8 -3,14 -4,11 -5,11 -10,20 "/><path stroke-width="8" d="M686,1229c-8,13 -8,13 -18,25 -9,10 -9,11 -20,19 -11,8 -12,8 -25,12 -15,5 -15,5 -30,7 -18,1 -18,1 -35,0 -18,0 -18,0 -35,-3 -17,-3 -17,-3 -33,-8 -15,-4 -14,-5 -28,-11 -11,-4 -11,-4 -21,-10 -9,-5 -9,-5 -17,-11 "/><path stroke-width="9" d="M424,1249c-7,-4 -6,-4 -13,-9 "/><path stroke-width="10" d="M411,1240c-4,-4 -4,-4 -8,-7 "/><path stroke-width="12" d="M403,1233c-2,-2 -2,-2 -4,-4 "/><path stroke-width="14" d="M399,1229c-2,-1 -2,-1 -3,-2 "/><path stroke-width="15" d="M396,1227c-1,-1 -1,-2 -1,-2 "/><path stroke-width="16" d="M395,1225c0,0 0,1 1,1 0,1 0,1 1,2 1,2 1,2 2,3 "/><path stroke-width="15" d="M399,1231c1,1 1,1 1,3 "/><path stroke-width="14" d="M400,1234c1,2 1,2 1,5 "/><path stroke-width="13" d="M401,1239c2,5 2,4 3,9 "/><path stroke-width="10" d="M404,1248c3,11 3,11 4,23 "/><path stroke-width="8" d="M408,1271c5,33 4,33 8,66 3,25 3,25 6,49 "/></g></svg>