<?xml version="1.0" encoding="UTF-8" standalone="no"?>
<svg xmlns="http://www.w3.org/2000/svg" version="1.2" baseProfile="tiny" height="1863" width="1080"><g stroke-linejoin="round" stroke-linecap="round" fill="none" stroke="black"><path stroke-width="18" d="M677,1254c0,0 0,0 0,0 "/><path stroke-width="17" d="M677,1254c-14,-6 -14,-5 -28,-11 "/><path stroke-width="11" d="M649,1243c-22,-9 -22,-9 -44,-19 "/><path stroke-width="9" d="M605,1224c-20,-9 -21,-8 -41,-20 -22,-13 -22,-13 -41,-30 -19,-16 -19,-16 -34,-35 -18,-24 -18,-25 -31,-51 -13,-25 -13,-26 -23,-53 -10,-27 -12,-27 -17,-55 -4,-24 -5,-26 -1,-50 5,-29 5,-31 19,-58 16,-33 15,-35 40,-62 36,-40 37,-41 81,-71 47,-32 50,-28 102,-53 41,-20 41,-21 84,-37 37,-13 38,-11 76,-22 24,-6 24,-6 49,-12 18,-4 18,-5 36,-8 9,-2 9,-1 19,-3 "/><path stroke-width="11" d="M923,604c5,-1 5,-2 11,-3 "/><path stroke-width="13" d="M934,601c4,-1 4,-1 7,-2 "/><path stroke-width="14" d="M941,599c4,-1 4,-1 7,-2 "/><path stroke-width="16" d="M948,597c2,-1 2,-1 4,-2 "/><path stroke-width="17" d="M952,595c1,0 2,0 3,0 "/><path stroke-width="19" d="M955,595c1,0 1,0 1,0 "/><path stroke-width="15" d="M956,595c-2,9 1,12 -6,19 "/><path stroke-width="9" d="M950,614c-33,31 -35,31 -74,58 -63,44 -68,36 -129,83 -74,56 -74,57 -140,122 -46,46 -42,50 -83,100 -27,32 -27,32 -53,65 -16,21 -17,21 -32,43 -14,22 -14,22 -27,46 -10,18 -10,18 -19,37 -9,17 -10,17 -17,34 -5,13 -4,13 -8,26 "/><path stroke-width="10" d="M368,1228c-2,7 -2,7 -4,15 -3,9 -3,9 -6,18 "/><path stroke-width="11" d="M358,1261c-3,6 -3,6 -5,12 "/><path stroke-width="12" d="M353,1273c-2,4 -2,4 -3,8 "/><path stroke-width="15" d="M350,1281c-1,3 -1,3 -2,5 "/><path stroke-width="16" d="M348,1286c-1,2 -1,2 -2,3 "/><path stroke-width="18" d="M346,1289c0,1 0,1 0,2 "/><path stroke-width="19" d="M346,1291c0,0 -1,0 -1,0 "/><path stroke-width="20" d="M345,1291c-1,1 0,1 0,1 0,1 -1,0 -1,1 0,0 0,1 0,1 "/><path stroke-width="21" d="M344,1294c0,0 0,0 0,0 "/></g></svg>