<?xml version="1.0" encoding="UTF-8" standalone="no"?>
<svg xmlns="http://www.w3.org/2000/svg" version="1.2" baseProfile="tiny" height="1863" width="1080"><g stroke-linejoin="round" stroke-linecap="round" fill="none" stroke="black"><path stroke-width="18" d="M367,1343c0,0 0,0 0,0 "/><path stroke-width="21" d="M367,1343c0,0 0,0 0,0 "/><path stroke-width="18" d="M367,1343c5,-7 5,-7 9,-13 "/><path stroke-width="12" d="M376,1330c12,-16 12,-16 23,-32 "/><path stroke-width="9" d="M399,1298c9,-13 9,-12 16,-25 7,-13 7,-13 11,-27 6,-19 6,-19 9,-38 4,-22 4,-22 5,-45 2,-25 2,-26 1,-51 -1,-25 -2,-25 -6,-49 -5,-25 -5,-25 -12,-49 -7,-23 -7,-23 -16,-46 -8,-21 -9,-21 -18,-41 -11,-21 -11,-21 -23,-42 -9,-15 -10,-14 -18,-29 -9,-16 -7,-17 -17,-32 -7,-11 -8,-11 -17,-20 -8,-8 -8,-8 -17,-16 "/><path stroke-width="10" d="M297,788c-6,-5 -6,-4 -13,-9 "/><path stroke-width="11" d="M284,779c-5,-5 -5,-5 -11,-9 "/><path stroke-width="10" d="M273,770c-8,-5 -8,-6 -16,-10 "/><path stroke-width="11" d="M257,760c-5,-3 -5,-2 -10,-4 "/><path stroke-width="14" d="M247,756c-3,-1 -3,-2 -5,-2 "/><path stroke-width="15" d="M242,754c-3,0 -3,0 -6,1 "/><path stroke-width="16" d="M236,755c-2,0 -2,0 -4,1 -2,1 -2,1 -4,3 -2,2 -2,1 -3,3 -1,3 -2,4 -1,7 "/><path stroke-width="12" d="M224,769c4,11 5,11 12,20 "/><path stroke-width="9" d="M236,789c18,22 18,22 39,42 29,28 32,25 61,53 25,24 25,25 49,50 19,20 20,19 37,39 21,24 20,25 39,50 20,26 20,27 40,53 19,24 19,24 38,48 10,12 9,13 20,24 11,12 12,11 24,22 9,10 9,10 18,20 "/><path stroke-width="10" d="M601,1190c6,6 6,7 12,12 "/><path stroke-width="11" d="M613,1202c6,5 6,4 12,8 6,4 6,5 13,7 6,3 7,2 13,3 "/><path stroke-width="12" d="M651,1220c6,1 6,1 12,2 6,1 6,1 12,1 "/><path stroke-width="13" d="M675,1223c4,0 4,0 8,0 "/><path stroke-width="15" d="M683,1223c3,0 3,0 6,0 "/><path stroke-width="16" d="M689,1223c2,0 2,-1 3,-1 "/><path stroke-width="18" d="M692,1222c1,0 1,0 2,0 "/><path stroke-width="19" d="M694,1222c1,0 0,-1 1,-1 1,0 1,0 2,0 1,0 1,0 1,-1 1,-1 0,-1 1,-2 "/><path stroke-width="18" d="M699,1218c1,-2 1,-2 2,-3 "/><path stroke-width="17" d="M701,1215c1,-2 1,-2 2,-4 1,-2 0,-2 1,-4 0,-2 0,-2 1,-3 "/><path stroke-width="18" d="M705,1204c0,-1 1,-1 1,-2 "/><path stroke-width="19" d="M706,1202c0,-1 0,-1 0,-2 0,-1 1,0 1,-1 0,-1 0,-1 0,-1 "/><path stroke-width="20" d="M707,1198c0,-1 0,-1 0,-1 0,0 0,0 0,-1 "/><path stroke-width="21" d="M707,1196c0,0 0,0 0,-1 "/><path stroke-width="20" d="M707,1195c0,-1 0,-1 0,-2 "/><path stroke-width="18" d="M707,1193c0,-1 0,-1 -1,-3 "/><path stroke-width="15" d="M706,1190c-3,-7 -2,-7 -5,-14 "/><path stroke-width="10" d="M701,1176c-8,-18 -6,-18 -16,-35 "/><path stroke-width="9" d="M685,1141c-13,-25 -14,-25 -30,-49 -16,-24 -16,-24 -32,-48 -19,-28 -19,-28 -39,-56 -20,-27 -19,-27 -41,-52 -17,-20 -18,-19 -36,-38 -14,-14 -14,-14 -28,-29 -15,-16 -15,-16 -29,-31 -11,-11 -11,-11 -21,-21 -7,-7 -8,-7 -15,-13 "/><path stroke-width="10" d="M414,804c-6,-5 -6,-5 -11,-11 -7,-7 -6,-7 -13,-14 -5,-5 -6,-5 -11,-10 "/><path stroke-width="11" d="M379,769c-5,-5 -5,-5 -10,-9 -6,-5 -7,-5 -13,-10 "/><path stroke-width="10" d="M356,750c-9,-7 -8,-7 -17,-13 "/><path stroke-width="9" d="M339,737c-13,-8 -13,-7 -26,-14 "/></g></svg>