<?xml version="1.0" encoding="UTF-8" standalone="no"?>
<svg xmlns="http://www.w3.org/2000/svg" version="1.2" baseProfile="tiny" height="1771" width="1080"><g stroke-linejoin="round" stroke-linecap="round" fill="none" stroke="black"><path stroke-width="16" d="M279,1404c0,0 0,0 0,0 "/><path stroke-width="18" d="M279,1404c0,-1 0,-1 0,-2 "/><path stroke-width="17" d="M279,1402c0,0 -1,0 0,0 0,-1 0,-1 0,-2 "/><path stroke-width="16" d="M279,1400c1,-1 1,-1 2,-2 "/><path stroke-width="13" d="M281,1398c4,-6 4,-6 8,-13 "/><path stroke-width="9" d="M289,1385c16,-32 15,-33 31,-65 "/><path stroke-width="8" d="M320,1320c21,-44 21,-45 43,-88 23,-44 24,-43 48,-87 23,-43 23,-43 47,-85 24,-43 24,-43 49,-85 24,-41 23,-41 48,-81 25,-41 24,-41 51,-80 24,-33 25,-33 49,-65 18,-24 19,-23 36,-47 10,-13 11,-13 20,-26 "/><path stroke-width="9" d="M711,676c3,-6 4,-7 5,-13 "/><path stroke-width="10" d="M716,663c1,-4 0,-5 -2,-8 "/><path stroke-width="12" d="M714,655c-2,-3 -3,-4 -6,-5 -4,-1 -4,-1 -8,0 -6,0 -6,0 -11,3 "/><path stroke-width="10" d="M689,653c-7,4 -7,4 -14,9 "/><path stroke-width="8" d="M675,662c-19,14 -19,15 -38,30 -41,33 -43,31 -82,66 -31,28 -31,28 -58,59 -21,24 -23,23 -39,51 -14,23 -13,25 -22,51 -7,22 -8,22 -11,45 -3,20 -4,21 -2,41 1,17 2,18 7,34 6,18 6,19 15,35 10,17 10,18 25,31 18,17 18,16 39,29 24,14 25,13 51,24 25,12 26,10 51,21 23,10 23,10 44,22 15,9 15,9 29,20 9,6 9,7 16,15 6,5 8,5 10,12 "/><path stroke-width="9" d="M710,1248c2,7 1,8 -1,16 -3,11 -4,11 -8,22 "/><path stroke-width="8" d="M701,1286c-9,19 -8,19 -18,37 -15,29 -16,29 -33,57 -15,24 -15,24 -32,47 -12,17 -11,18 -25,33 -10,11 -11,11 -23,19 -9,6 -10,6 -20,9 -13,2 -13,1 -26,1 -19,-1 -19,-1 -37,-3 -15,-2 -15,-2 -30,-6 -13,-4 -13,-6 -26,-11 -9,-4 -9,-4 -19,-8 "/><path stroke-width="9" d="M412,1461c-5,-3 -5,-3 -11,-5 "/><path stroke-width="11" d="M401,1456c-4,-1 -4,-1 -9,-3 "/><path stroke-width="12" d="M392,1453c-3,-1 -3,-1 -6,-1 "/><path stroke-width="14" d="M386,1452c-1,-1 -2,-1 -2,-1 "/><path stroke-width="16" d="M384,1451c-1,0 0,1 0,1 "/><path stroke-width="14" d="M384,1452c2,4 2,4 5,8 "/><path stroke-width="10" d="M389,1460c4,9 4,9 9,18 "/><path stroke-width="8" d="M398,1478c9,16 9,16 17,33 12,22 13,22 24,45 10,20 9,21 19,42 8,15 8,15 16,30 7,16 4,17 13,32 16,23 18,22 36,44 "/><path stroke-width="11" d="M523,1704c0,0 0,0 0,1 "/></g></svg>