<?xml version="1.0" encoding="UTF-8" standalone="no"?>
<svg xmlns="http://www.w3.org/2000/svg" version="1.2" baseProfile="tiny" height="1927" width="1080"><g stroke-linejoin="round" stroke-linecap="round" fill="none" stroke="black"><path stroke-width="16" d="M247,466c0,0 0,0 0,0 "/><path stroke-width="17" d="M247,466c-1,2 -1,2 -1,4 "/><path stroke-width="14" d="M246,470c-1,5 -1,5 -2,10 "/><path stroke-width="10" d="M244,480c-3,10 -3,10 -6,21 "/><path stroke-width="8" d="M238,501c-8,20 -8,20 -16,40 -12,27 -13,27 -24,55 -13,33 -13,33 -24,67 -13,37 -15,37 -25,76 -11,42 -12,42 -18,86 -5,38 -5,38 -4,76 1,30 1,30 7,58 5,23 5,23 14,44 7,20 8,20 18,37 9,16 9,16 20,30 9,12 7,14 19,22 8,6 10,6 20,6 "/><path stroke-width="9" d="M225,1098c6,0 7,-1 12,-6 10,-10 10,-11 17,-24 "/><path stroke-width="8" d="M254,1068c11,-21 10,-21 18,-44 9,-26 7,-26 15,-53 7,-28 7,-28 15,-57 8,-30 7,-31 17,-61 9,-28 10,-27 22,-54 10,-24 10,-24 23,-46 9,-17 9,-17 20,-33 5,-9 5,-10 11,-16 "/><path stroke-width="11" d="M395,704c1,-2 3,-2 3,0 "/><path stroke-width="13" d="M398,704c0,3 -2,5 -3,10 "/><path stroke-width="10" d="M395,714c-7,22 -7,21 -13,44 "/><path stroke-width="8" d="M382,758c-11,39 -12,39 -20,79 -11,54 -11,54 -18,109 -8,58 -7,58 -11,115 -3,37 -3,37 -3,73 -1,10 0,13 1,19 "/><path stroke-width="11" d="M331,1153c0,2 0,-2 1,-4 3,-18 1,-18 6,-37 "/><path stroke-width="8" d="M338,1112c8,-34 10,-34 20,-69 16,-57 15,-57 33,-114 19,-62 19,-62 40,-124 19,-58 18,-58 40,-114 21,-56 22,-56 45,-111 22,-56 23,-56 44,-112 19,-51 18,-51 35,-102 6,-16 5,-16 10,-32 "/><path stroke-width="10" d="M461,558c0,0 0,0 0,0 "/><path stroke-width="14" d="M461,558c-1,-1 -1,-1 -2,-1 -5,-1 -5,-1 -9,-1 "/><path stroke-width="11" d="M450,556c-7,-1 -7,0 -13,0 "/><path stroke-width="10" d="M437,556c-7,0 -7,0 -14,0 "/><path stroke-width="11" d="M423,556c-5,0 -5,0 -9,0 "/><path stroke-width="13" d="M414,556c-2,0 -5,0 -4,0 1,-2 4,-3 9,-4 "/><path stroke-width="10" d="M419,552c23,-8 23,-8 48,-15 "/><path stroke-width="8" d="M467,537c36,-11 36,-11 73,-20 39,-10 39,-11 78,-19 38,-8 38,-8 76,-12 30,-3 30,-4 59,-2 18,1 19,0 34,7 12,5 15,5 21,16 8,13 10,17 6,32 -11,40 -13,43 -37,79 -28,43 -30,43 -68,79 -39,35 -40,35 -86,63 -44,27 -45,25 -92,47 -44,20 -44,20 -88,37 -31,11 -31,11 -62,18 -12,3 -16,4 -24,1 "/><path stroke-width="10" d="M357,863c-3,0 0,-4 3,-7 6,-4 7,-3 15,-6 "/><path stroke-width="9" d="M375,850c23,-9 22,-10 46,-17 "/><path stroke-width="8" d="M421,833c42,-15 42,-17 86,-27 52,-13 52,-15 105,-19 49,-5 50,-4 99,0 37,3 39,1 73,14 24,8 27,9 43,28 13,14 13,19 14,38 1,20 -1,22 -11,39 -17,33 -18,34 -43,61 -35,39 -35,40 -77,70 -49,36 -50,38 -106,61 -71,30 -72,31 -148,46 -86,18 -87,17 -174,20 -71,3 -72,0 -142,-7 -45,-4 -46,-5 -90,-16 -16,-4 -21,-6 -31,-13 "/><path stroke-width="10" d="M19,1128c-2,-1 3,-3 6,-4 "/><path stroke-width="11" d="M25,1124c6,-1 7,1 13,1 "/><path stroke-width="12" d="M38,1125c2,0 3,0 5,-1 "/><path stroke-width="11" d="M43,1124c28,-12 27,-14 56,-26 "/><path stroke-width="8" d="M99,1098c71,-27 70,-28 143,-51 87,-27 88,-26 177,-49 115,-28 115,-32 232,-53 119,-21 120,-15 239,-31 "/><path stroke-width="8" d="M99,1098c71,-27 70,-28 143,-51 87,-27 88,-26 177,-49 115,-28 115,-32 232,-53 119,-21 120,-15 239,-31 "/><path stroke-width="8" d="M99,1098c71,-27 70,-28 143,-51 87,-27 88,-26 177,-49 115,-28 115,-32 232,-53 119,-21 120,-15 239,-31 "/><path stroke-width="8" d="M99,1098c71,-27 70,-28 143,-51 87,-27 88,-26 177,-49 115,-28 115,-32 232,-53 119,-21 120,-15 239,-31 "/><path stroke-width="8" d="M99,1098c71,-27 70,-28 143,-51 87,-27 88,-26 177,-49 115,-28 115,-32 232,-53 119,-21 120,-15 239,-31 "/></g></svg>