<?xml version="1.0" encoding="UTF-8" standalone="no"?>
<svg xmlns="http://www.w3.org/2000/svg" version="1.2" baseProfile="tiny" height="1850" width="1080"><g stroke-linejoin="round" stroke-linecap="round" fill="none" stroke="black"><path stroke-width="18" d="M439,1236c0,0 0,0 0,0 -3,2 -3,2 -5,4 "/><path stroke-width="15" d="M434,1240c-8,4 -8,6 -16,8 -3,1 -6,1 -7,-3 "/><path stroke-width="13" d="M411,1245c-2,-28 0,-30 3,-60 "/><path stroke-width="9" d="M414,1185c3,-45 2,-45 8,-89 7,-48 10,-47 18,-95 9,-51 7,-51 15,-102 7,-40 8,-40 15,-79 6,-36 7,-36 12,-71 4,-31 4,-31 6,-63 1,-26 1,-26 -1,-52 -1,-15 -1,-15 -5,-29 "/><path stroke-width="10" d="M482,605c-2,-8 -2,-9 -7,-14 "/><path stroke-width="11" d="M475,591c-4,-4 -5,-5 -10,-5 "/><path stroke-width="12" d="M465,586c-8,0 -9,1 -15,4 -6,2 -7,2 -10,7 "/><path stroke-width="11" d="M440,597c-6,8 -6,8 -9,17 "/><path stroke-width="9" d="M431,614c-4,15 -5,15 -5,30 1,26 -1,27 7,51 10,25 12,26 29,47 20,22 20,23 45,39 24,15 26,14 53,22 27,10 28,8 57,14 30,7 31,6 61,13 28,7 27,7 55,15 20,6 20,5 40,12 20,7 22,5 40,16 15,9 16,10 25,25 12,19 15,19 18,42 5,36 4,38 -1,74 -7,42 -7,43 -23,83 -15,36 -18,35 -39,68 -14,22 -14,24 -32,42 -14,14 -15,14 -33,23 -13,7 -14,4 -28,8 -9,2 -9,2 -19,3 "/><path stroke-width="11" d="M681,1241c-6,1 -6,0 -12,1 "/><path stroke-width="13" d="M669,1242c-3,0 -3,1 -7,1 "/><path stroke-width="15" d="M662,1243c-2,0 -2,0 -4,0 "/><path stroke-width="17" d="M658,1243c-1,0 -1,0 -2,1 "/><path stroke-width="19" d="M656,1244c0,0 0,0 0,1 "/><path stroke-width="20" d="M656,1245c-1,0 -1,-1 -1,-1 0,0 0,0 0,0 "/><path stroke-width="21" d="M655,1244c0,0 0,0 0,0 "/><path stroke-width="19" d="M655,1244c0,2 0,2 -1,3 "/></g></svg>