<?xml version="1.0" encoding="UTF-8" standalone="no"?>
<svg xmlns="http://www.w3.org/2000/svg" version="1.2" baseProfile="tiny" height="1927" width="1080"><g stroke-linejoin="round" stroke-linecap="round" fill="none" stroke="black"><path stroke-width="16" d="M38,657c0,0 0,0 0,0 "/><path stroke-width="17" d="M38,657c2,-2 2,-3 4,-4 "/><path stroke-width="12" d="M42,653c9,-7 9,-7 18,-12 "/><path stroke-width="8" d="M60,641c16,-10 17,-9 33,-17 19,-11 18,-11 37,-21 22,-13 22,-13 44,-25 24,-13 24,-13 48,-25 22,-12 22,-12 44,-22 16,-8 15,-9 32,-15 10,-5 11,-5 22,-7 "/><path stroke-width="9" d="M320,509c4,-1 6,-3 9,0 "/><path stroke-width="11" d="M329,509c4,3 4,5 5,12 "/><path stroke-width="9" d="M334,521c2,23 2,24 2,48 "/><path stroke-width="8" d="M336,569c0,36 -4,36 -2,72 1,29 0,30 9,58 6,20 7,21 21,38 11,14 13,14 29,23 15,7 16,8 33,10 17,2 18,2 36,-2 22,-6 23,-6 43,-17 24,-15 24,-15 45,-34 21,-19 20,-20 38,-41 16,-19 15,-19 29,-38 11,-15 11,-15 20,-29 7,-10 6,-10 12,-19 "/><path stroke-width="9" d="M649,590c4,-6 3,-6 7,-11 "/><path stroke-width="11" d="M656,579c2,-3 3,-3 5,-4 "/><path stroke-width="14" d="M661,575c2,-1 2,-1 3,0 "/><path stroke-width="13" d="M664,575c4,1 5,1 8,4 "/><path stroke-width="10" d="M672,579c25,23 24,24 47,49 "/><path stroke-width="8" d="M719,628c28,30 27,30 54,61 12,12 11,13 23,25 "/><path stroke-width="10" d="M796,714c3,2 5,3 7,2 "/><path stroke-width="11" d="M803,716c3,-3 2,-5 2,-10 "/><path stroke-width="10" d="M805,706c4,-31 4,-31 6,-61 "/><path stroke-width="8" d="M811,645c5,-57 5,-57 8,-113 3,-57 4,-57 3,-113 0,-31 1,-33 -6,-62 -2,-10 -5,-12 -13,-16 -7,-4 -9,-4 -17,0 -30,14 -30,16 -59,35 -50,34 -51,33 -98,71 -66,53 -69,51 -127,112 -67,69 -69,69 -123,148 -44,63 -47,64 -74,136 -21,55 -21,59 -22,117 -1,38 0,45 19,74 12,20 21,20 44,23 18,3 20,-4 39,-11 34,-12 35,-12 68,-29 46,-23 49,-20 91,-50 46,-31 47,-31 84,-71 34,-35 32,-38 57,-79 17,-27 17,-28 26,-57 3,-10 5,-18 -2,-20 -12,-5 -18,2 -36,6 -72,15 -73,12 -144,33 -114,31 -114,32 -225,70 -95,33 -94,36 -188,72 -50,20 -51,19 -100,40 -6,3 -7,4 -10,9 "/><path stroke-width="10" d="M6,970c-2,3 -2,8 0,7 "/><path stroke-width="12" d="M6,977c5,0 9,-2 14,-9 "/><path stroke-width="10" d="M20,968c12,-15 9,-18 21,-35 "/><path stroke-width="8" d="M41,933c25,-36 21,-39 52,-71 48,-49 47,-52 105,-90 63,-42 65,-43 136,-69 59,-23 61,-21 125,-29 46,-7 48,-6 94,0 70,8 70,12 138,29 29,6 28,8 56,17 "/></g></svg>