<?xml version="1.0" encoding="UTF-8" standalone="no"?>
<svg xmlns="http://www.w3.org/2000/svg" version="1.2" baseProfile="tiny" height="1850" width="1080"><g stroke-linejoin="round" stroke-linecap="round" fill="none" stroke="black"><path stroke-width="18" d="M347,924c0,0 0,0 0,0 "/><path stroke-width="20" d="M347,924c-2,-3 -2,-3 -3,-7 "/><path stroke-width="15" d="M344,917c-7,-12 -6,-13 -13,-24 "/><path stroke-width="10" d="M331,893c-23,-38 -21,-40 -47,-75 "/><path stroke-width="9" d="M284,818c-24,-31 -26,-29 -53,-57 -28,-28 -30,-27 -59,-54 "/><path stroke-width="10" d="M172,707c-2,-1 -2,-1 -3,-3 "/><path stroke-width="15" d="M459,1049c0,0 0,0 0,0 "/><path stroke-width="20" d="M459,1049c0,0 0,0 0,0 "/><path stroke-width="21" d="M459,1049c0,0 0,0 0,0 "/><path stroke-width="15" d="M459,1049c-1,-26 3,-27 -2,-53 "/><path stroke-width="9" d="M457,996c-9,-43 -9,-44 -26,-84 -19,-44 -23,-42 -47,-83 -20,-35 -20,-35 -42,-69 -21,-35 -21,-34 -44,-68 -22,-34 -21,-35 -45,-68 -21,-28 -21,-28 -44,-55 -15,-17 -15,-17 -32,-33 -11,-11 -12,-10 -23,-19 -9,-6 -9,-6 -17,-12 "/><path stroke-width="10" d="M137,505c-5,-4 -5,-3 -11,-7 "/><path stroke-width="13" d="M126,498c-2,-2 -2,-2 -5,-4 "/><path stroke-width="17" d="M121,494c0,0 0,0 0,0 "/><path stroke-width="20" d="M121,494c0,0 0,0 0,0 "/><path stroke-width="15" d="M121,494c64,26 67,21 128,53 "/><path stroke-width="9" d="M249,547c50,26 50,28 95,63 44,34 44,35 82,75 34,34 34,34 64,73 26,35 27,35 48,73 17,31 17,32 28,66 10,29 9,29 13,60 4,23 3,24 4,48 1,17 0,17 -1,34 -1,15 0,15 -3,29 -3,14 -2,15 -9,27 -8,11 -10,10 -21,20 "/><path stroke-width="12" d="M549,1115c0,1 0,1 -1,1 "/></g></svg>