<?xml version="1.0" encoding="UTF-8" standalone="no"?>
<svg xmlns="http://www.w3.org/2000/svg" version="1.2" baseProfile="tiny" height="2382" width="1440"><g stroke-linejoin="round" stroke-linecap="round" fill="none" stroke="black"><path stroke-width="22" d="M287,950c0,0 0,0 0,0 "/><path stroke-width="18" d="M287,950c1,3 1,3 3,7 "/><path stroke-width="14" d="M290,957c2,7 2,7 5,15 15,50 15,50 30,101 "/><path stroke-width="11" d="M325,1073c7,23 7,23 13,47 5,18 6,18 9,36 3,18 2,18 3,35 0,14 1,14 -1,27 "/><path stroke-width="12" d="M349,1218c-1,6 -1,7 -4,12 "/><path stroke-width="14" d="M345,1230c-2,4 -3,3 -5,5 "/><path stroke-width="20" d="M137,1097c0,0 0,0 0,0 "/><path stroke-width="17" d="M137,1097c0,-2 -1,-2 -1,-4 "/><path stroke-width="13" d="M136,1093c0,-2 -1,-3 0,-5 "/><path stroke-width="14" d="M136,1088c5,-12 4,-13 11,-23 "/><path stroke-width="12" d="M147,1065c24,-34 24,-35 51,-67 "/><path stroke-width="11" d="M198,998c30,-36 32,-34 63,-69 31,-35 31,-35 62,-70 30,-33 31,-33 60,-66 24,-27 25,-27 47,-55 15,-19 13,-20 29,-39 8,-10 9,-9 19,-18 "/><path stroke-width="12" d="M478,681c4,-3 4,-2 8,-5 "/><path stroke-width="18" d="M474,950c0,0 0,0 0,0 "/><path stroke-width="17" d="M474,950c0,-1 0,-1 0,-1 "/><path stroke-width="16" d="M474,949c0,-1 -1,-1 -1,-1 "/><path stroke-width="22" d="M473,948c0,-1 0,-1 -1,-1 -1,0 -1,-1 -2,0 "/><path stroke-width="19" d="M470,947c-2,3 -2,3 -4,6 "/><path stroke-width="13" d="M466,953c-11,25 -12,24 -21,50 "/><path stroke-width="11" d="M445,1003c-16,43 -18,43 -28,88 -7,32 -8,33 -8,65 0,26 0,27 7,51 6,19 7,20 19,35 9,11 10,13 24,18 17,6 20,7 37,3 23,-5 26,-5 43,-21 20,-16 16,-21 31,-43 "/><path stroke-width="14" d="M570,1199c0,0 0,0 1,-1 "/><path stroke-width="20" d="M437,1139c0,0 0,0 0,0 "/><path stroke-width="17" d="M437,1139c-1,1 -2,1 -3,2 "/><path stroke-width="14" d="M434,1141c-1,1 -1,2 -1,3 "/><path stroke-width="19" d="M433,1144c-1,0 -1,1 -1,1 "/><path stroke-width="23" d="M432,1145c1,0 2,0 2,-1 "/><path stroke-width="17" d="M434,1144c36,-37 39,-35 71,-75 "/><path stroke-width="11" d="M505,1069c35,-45 34,-47 63,-96 22,-37 22,-38 40,-78 13,-28 11,-28 23,-57 5,-15 6,-15 11,-30 "/><path stroke-width="13" d="M642,808c1,-3 2,-6 2,-6 "/><path stroke-width="16" d="M644,802c-1,0 -3,3 -5,6 "/><path stroke-width="14" d="M639,808c-11,17 -11,16 -21,33 "/><path stroke-width="11" d="M618,841c-23,38 -27,37 -45,78 -16,33 -16,34 -24,70 -7,26 -9,28 -6,54 3,23 4,26 19,44 15,18 18,18 40,29 26,13 28,11 57,19 30,8 30,8 61,14 21,4 21,1 42,6 "/><path stroke-width="12" d="M762,1155c6,2 10,3 11,7 "/><path stroke-width="14" d="M773,1162c1,3 -2,5 -7,8 "/><path stroke-width="13" d="M766,1170c-11,7 -12,8 -25,12 "/><path stroke-width="11" d="M741,1182c-18,5 -18,6 -37,6 -18,1 -20,4 -36,-4 -15,-7 -18,-10 -24,-25 -12,-31 -13,-33 -13,-67 0,-54 3,-55 13,-109 9,-48 9,-48 23,-95 11,-33 11,-34 28,-63 8,-15 10,-20 23,-25 8,-3 14,0 19,8 14,22 13,25 19,50 12,46 9,47 18,93 10,49 10,49 21,98 10,43 13,43 21,86 5,25 6,26 7,52 "/><path stroke-width="12" d="M823,1187c0,6 -1,14 -5,12 -12,-4 -14,-11 -27,-23 "/><path stroke-width="11" d="M791,1176c-31,-30 -31,-30 -62,-61 -31,-32 -31,-32 -62,-64 -21,-23 -22,-22 -42,-46 -14,-16 -14,-16 -24,-34 -5,-8 -6,-8 -7,-17 "/><path stroke-width="13" d="M594,954c0,-5 1,-6 4,-9 9,-11 11,-10 21,-19 "/><path stroke-width="11" d="M619,926c35,-29 35,-29 70,-58 61,-50 62,-49 122,-101 65,-56 65,-57 129,-115 45,-40 45,-40 90,-81 "/></g></svg>