<?xml version="1.0" encoding="UTF-8" standalone="no"?>
<svg xmlns="http://www.w3.org/2000/svg" version="1.2" baseProfile="tiny" height="2382" width="1440"><g stroke-linejoin="round" stroke-linecap="round" fill="none" stroke="black"><path stroke-width="22" d="M250,1507c0,0 0,0 0,0 "/><path stroke-width="20" d="M250,1507c-3,2 -4,2 -7,4 "/><path stroke-width="13" d="M243,1511c-50,42 -68,30 -100,85 "/><path stroke-width="11" d="M143,1596c-55,92 -72,110 -73,208 0,50 25,70 70,88 46,19 58,-3 113,-14 37,-7 36,-11 73,-22 39,-13 39,-11 78,-25 40,-14 40,-15 80,-32 38,-15 37,-16 75,-31 32,-12 32,-12 64,-21 24,-7 24,-7 48,-10 16,-2 17,-2 32,1 "/><path stroke-width="12" d="M703,1738c8,1 10,1 14,7 7,9 6,11 8,23 "/><path stroke-width="11" d="M725,1768c2,22 2,23 -1,46 -3,35 -3,35 -12,69 -10,32 -11,32 -26,63 -14,30 -16,29 -33,58 -17,28 -17,28 -33,56 -15,25 -14,25 -29,50 -12,21 -12,21 -24,42 -8,13 -8,14 -17,27 -5,6 -5,7 -12,12 "/><path stroke-width="13" d="M538,2191c-4,3 -5,2 -10,3 "/><path stroke-width="16" d="M528,2194c-2,1 -2,0 -3,0 "/><path stroke-width="21" d="M479,1616c0,0 0,0 0,0 "/><path stroke-width="19" d="M479,1616c0,-1 0,-1 0,-2 "/><path stroke-width="13" d="M479,1614c3,-8 3,-8 7,-15 "/><path stroke-width="12" d="M486,1599c26,-63 29,-62 53,-126 "/><path stroke-width="11" d="M539,1473c15,-39 13,-40 24,-80 8,-29 8,-29 12,-59 4,-22 5,-23 4,-45 -1,-18 -1,-18 -7,-35 -4,-13 -5,-13 -13,-24 -5,-7 -6,-9 -15,-12 "/><path stroke-width="12" d="M544,1218c-6,-3 -8,-2 -15,0 -11,3 -12,3 -21,10 "/><path stroke-width="11" d="M508,1228c-15,11 -16,12 -26,27 -16,24 -17,24 -27,51 -13,32 -12,33 -19,66 -6,30 -5,30 -6,60 -1,28 -3,28 1,55 4,27 5,27 14,52 9,24 9,25 21,46 14,22 13,24 31,42 16,16 18,15 38,26 18,9 19,10 39,13 20,3 21,2 40,-2 20,-4 21,-4 39,-15 19,-12 21,-13 35,-31 17,-22 17,-23 28,-50 14,-34 11,-35 21,-71 7,-23 6,-24 12,-47 "/><path stroke-width="15" d="M566,925c0,0 0,0 0,0 -1,0 -1,1 -2,1 -1,1 -2,0 -2,2 -11,29 -14,28 -20,59 "/><path stroke-width="11" d="M542,987c-8,40 -9,41 -10,82 0,32 1,32 7,64 4,28 4,29 13,57 9,25 9,25 22,48 11,20 13,20 27,38 11,13 11,14 24,24 11,8 11,10 25,13 15,4 16,4 31,2 17,-3 18,-4 32,-12 18,-10 18,-11 33,-25 19,-16 19,-16 35,-34 14,-15 14,-16 25,-33 12,-19 12,-19 21,-39 9,-18 9,-18 15,-37 6,-21 8,-21 9,-42 1,-25 -2,-25 -6,-50 -4,-29 -4,-29 -11,-58 -6,-25 -6,-25 -15,-48 -6,-16 -6,-16 -14,-30 "/><path stroke-width="12" d="M805,907c-4,-7 -5,-6 -10,-11 "/><path stroke-width="15" d="M795,896c-3,-2 -3,-2 -6,-4 "/><path stroke-width="19" d="M789,892c-1,0 -1,0 -3,0 "/><path stroke-width="22" d="M786,892c0,-1 0,0 0,0 0,1 0,1 1,3 "/><path stroke-width="18" d="M787,895c4,6 4,6 9,11 "/><path stroke-width="13" d="M796,906c7,9 7,10 15,18 "/><path stroke-width="11" d="M811,924c11,11 11,10 23,20 15,12 14,13 30,24 15,9 15,10 30,16 14,5 15,6 29,7 12,0 13,-1 24,-6 10,-4 11,-5 17,-13 7,-10 8,-11 11,-22 4,-17 4,-18 3,-35 -1,-25 -2,-26 -8,-50 -7,-24 -8,-24 -18,-47 -6,-13 -7,-13 -16,-25 "/><path stroke-width="12" d="M936,793c-4,-6 -5,-6 -11,-11 "/><path stroke-width="13" d="M925,782c-4,-4 -4,-4 -10,-7 "/><path stroke-width="15" d="M915,775c-3,-2 -3,-2 -7,-3 "/><path stroke-width="18" d="M908,772c-2,-1 -2,-1 -3,-2 "/><path stroke-width="21" d="M905,770c-1,0 -3,0 -3,0 1,1 2,1 4,1 "/><path stroke-width="19" d="M906,771c3,2 3,2 6,3 "/><path stroke-width="15" d="M912,774c7,4 7,4 15,8 "/><path stroke-width="12" d="M927,782c12,6 12,6 24,11 "/><path stroke-width="11" d="M951,793c13,6 13,6 27,10 14,4 14,5 29,7 15,3 15,4 30,4 11,1 12,1 22,-2 10,-2 11,-2 18,-8 6,-4 4,-6 9,-12 "/><path stroke-width="17" d="M833,613c0,0 0,0 0,0 "/><path stroke-width="20" d="M833,613c0,-1 0,-1 1,-1 "/><path stroke-width="21" d="M834,612c0,-1 0,-1 0,-1 5,-2 5,-3 10,-3 "/><path stroke-width="15" d="M844,608c19,-2 19,-2 38,-1 "/><path stroke-width="11" d="M882,607c30,1 30,1 60,5 26,3 26,4 52,9 21,5 22,4 41,11 14,5 14,6 25,14 "/><path stroke-width="12" d="M1060,646c7,4 7,5 12,10 "/><path stroke-width="14" d="M1072,656c3,4 3,4 4,8 "/><path stroke-width="17" d="M1076,664c0,3 -1,4 -3,6 "/><path stroke-width="16" d="M1073,670c-4,5 -4,5 -10,8 "/><path stroke-width="13" d="M1063,678c-9,6 -8,7 -18,10 "/><path stroke-width="11" d="M1045,688c-10,3 -11,3 -22,2 -11,-1 -12,0 -22,-5 -12,-5 -13,-5 -22,-14 -13,-13 -14,-14 -24,-30 -13,-21 -13,-21 -22,-45 -8,-20 -8,-21 -11,-43 -2,-14 -1,-15 0,-29 2,-14 2,-14 5,-27 5,-14 5,-14 12,-26 10,-21 11,-20 23,-41 "/><path stroke-width="12" d="M962,430c2,-2 2,-2 4,-5 "/><path stroke-width="18" d="M1033,361c0,0 0,0 0,0 "/><path stroke-width="23" d="M1033,361c1,-1 1,-1 3,-2 "/><path stroke-width="21" d="M1036,359c1,-1 1,-1 2,-3 "/><path stroke-width="17" d="M1038,356c2,-2 2,-2 4,-5 "/><path stroke-width="14" d="M1042,351c5,-9 5,-9 9,-18 "/><path stroke-width="11" d="M1051,333c10,-20 9,-20 18,-39 5,-12 6,-11 10,-23 5,-11 5,-11 8,-23 4,-12 4,-12 7,-24 1,-9 2,-10 2,-19 "/><path stroke-width="12" d="M1096,205c-1,-7 -1,-9 -5,-14 "/><path stroke-width="14" d="M1091,191c-4,-5 -5,-6 -11,-7 "/><path stroke-width="13" d="M1080,184c-10,-2 -11,-2 -21,0 "/><path stroke-width="11" d="M1059,184c-14,2 -15,3 -28,9 -15,8 -16,8 -29,18 -12,10 -13,10 -22,22 -10,11 -10,11 -16,24 -8,13 -8,13 -12,28 -5,16 -5,17 -5,34 0,19 1,19 4,38 5,24 4,25 13,47 11,27 12,27 28,51 13,18 14,18 31,34 13,12 13,13 28,22 13,7 14,8 28,11 13,2 14,2 26,-1 14,-3 14,-4 27,-11 13,-8 13,-8 25,-18 17,-14 16,-15 32,-30 25,-22 24,-22 50,-44 26,-22 28,-20 54,-43 22,-19 20,-21 40,-41 21,-20 21,-20 42,-40 7,-7 7,-7 14,-14 "/></g></svg>