<?xml version="1.0" encoding="UTF-8" standalone="no"?>
<svg xmlns="http://www.w3.org/2000/svg" version="1.2" baseProfile="tiny" height="2382" width="1440"><g stroke-linejoin="round" stroke-linecap="round" fill="none" stroke="black"><path stroke-width="22" d="M256,1650c0,0 0,0 0,0 "/><path stroke-width="24" d="M256,1650c0,0 0,0 0,0 "/><path stroke-width="23" d="M256,1650c1,-3 1,-4 3,-6 "/><path stroke-width="21" d="M259,1644c2,-2 2,-3 5,-3 "/><path stroke-width="16" d="M264,1641c38,-8 39,-11 78,-13 "/><path stroke-width="11" d="M342,1628c39,-1 39,2 78,7 34,4 34,7 68,12 33,4 33,4 66,8 31,3 31,3 62,5 30,3 30,3 61,5 27,2 27,2 54,3 27,2 28,0 54,3 24,3 23,4 46,8 21,4 21,4 41,9 16,3 17,3 32,7 11,4 11,4 22,9 "/><path stroke-width="12" d="M926,1704c7,3 8,2 15,6 "/><path stroke-width="14" d="M941,1710c4,2 4,2 8,5 "/><path stroke-width="17" d="M949,1715c2,1 2,1 4,3 "/><path stroke-width="21" d="M953,1718c0,0 0,1 -1,1 "/><path stroke-width="19" d="M952,1719c-5,-1 -5,-1 -10,-2 "/><path stroke-width="16" d="M942,1717c-2,-1 -2,-1 -4,-2 "/><path stroke-width="20" d="M254,1728c0,0 0,0 0,0 "/><path stroke-width="17" d="M254,1728c-1,0 -1,0 -2,-1 "/><path stroke-width="14" d="M252,1727c-1,-2 -2,-2 -2,-6 3,-77 -3,-78 9,-154 "/><path stroke-width="11" d="M259,1567c8,-44 11,-44 30,-85 15,-31 18,-31 38,-59 17,-23 17,-23 37,-44 22,-23 22,-23 46,-42 23,-19 22,-21 49,-34 27,-14 29,-14 59,-20 29,-5 30,-5 59,-3 28,2 29,3 55,11 29,9 30,9 56,24 24,13 23,15 44,33 21,19 23,18 39,40 17,23 17,24 28,51 12,27 11,28 17,56 7,32 8,33 9,65 2,35 0,35 -2,69 -1,34 -1,34 -4,67 -3,35 -2,35 -7,69 -4,31 -6,31 -12,62 -7,28 -5,29 -15,56 -6,20 -5,23 -17,39 -9,10 -12,16 -24,14 -20,-3 -21,-11 -40,-23 -3,-2 -3,-2 -5,-5 "/><path stroke-width="17" d="M431,1061c0,0 0,0 0,0 0,-4 0,-4 1,-9 "/><path stroke-width="11" d="M432,1052c2,-5 1,-6 4,-10 31,-41 28,-46 65,-81 28,-26 30,-25 65,-40 26,-12 27,-11 56,-14 30,-4 31,-4 61,-2 31,2 31,3 61,10 28,6 28,7 56,16 20,7 21,7 40,17 11,6 12,7 21,16 "/><path stroke-width="12" d="M861,964c5,5 8,6 8,14 0,10 -3,11 -9,21 "/><path stroke-width="11" d="M860,999c-10,15 -10,16 -23,29 -17,16 -16,18 -36,30 -25,14 -26,17 -53,20 -25,3 -28,1 -52,-9 -28,-11 -28,-12 -51,-31 -27,-22 -25,-24 -48,-49 -17,-19 -17,-19 -33,-39 -10,-11 -10,-11 -18,-24 "/><path stroke-width="12" d="M546,926c-4,-6 -4,-7 -5,-14 "/><path stroke-width="14" d="M541,912c0,-5 0,-6 3,-10 "/><path stroke-width="13" d="M544,902c5,-7 6,-8 13,-13 "/><path stroke-width="12" d="M557,889c10,-7 11,-7 22,-11 "/><path stroke-width="11" d="M579,878c16,-6 17,-5 33,-8 25,-4 25,-3 49,-4 30,-2 30,0 59,-1 24,0 24,1 48,-2 17,-3 18,-3 33,-10 12,-7 13,-8 22,-18 13,-15 13,-16 23,-33 12,-23 13,-23 21,-47 6,-21 6,-22 7,-44 0,-18 2,-20 -4,-36 -5,-14 -7,-16 -20,-24 -14,-11 -16,-13 -34,-13 -27,-1 -29,1 -55,12 -31,13 -31,15 -58,36 -28,22 -28,23 -53,48 -19,20 -18,21 -35,42 -10,14 -12,14 -20,29 "/><path stroke-width="12" d="M595,805c-3,6 -3,7 -3,14 "/><path stroke-width="13" d="M592,819c0,6 -1,7 2,12 "/><path stroke-width="15" d="M594,831c4,4 5,5 10,6 "/><path stroke-width="13" d="M604,837c9,1 10,1 18,-3 "/><path stroke-width="12" d="M622,834c19,-8 20,-9 36,-22 "/><path stroke-width="11" d="M658,812c29,-26 30,-26 54,-56 24,-31 24,-32 43,-66 21,-37 21,-37 37,-76 14,-33 13,-34 22,-68 7,-27 7,-27 12,-54 3,-16 3,-16 3,-32 0,-10 -1,-10 -4,-19 "/><path stroke-width="12" d="M825,441c-3,-7 -3,-7 -9,-12 "/><path stroke-width="13" d="M816,429c-6,-6 -6,-6 -14,-9 "/><path stroke-width="12" d="M802,420c-10,-4 -10,-4 -20,-6 "/><path stroke-width="11" d="M782,414c-11,-2 -12,-2 -23,-3 "/><path stroke-width="12" d="M759,411c-7,0 -7,-1 -14,1 "/><path stroke-width="15" d="M745,412c-4,0 -6,0 -8,3 "/><path stroke-width="17" d="M737,415c-1,3 -1,5 1,8 "/><path stroke-width="15" d="M738,423c4,5 5,5 11,9 "/><path stroke-width="13" d="M749,432c13,8 13,8 28,14 "/><path stroke-width="11" d="M777,446c27,14 28,13 56,26 36,15 36,15 73,30 35,15 35,15 71,29 35,15 35,16 71,29 28,11 28,11 56,21 21,7 21,6 42,12 14,3 14,3 28,5 9,2 9,2 18,3 "/><path stroke-width="14" d="M1192,601c4,1 4,1 8,1 "/><path stroke-width="19" d="M1200,602c1,0 2,0 2,0 "/><path stroke-width="22" d="M1202,602c0,0 -1,0 -2,0 "/><path stroke-width="18" d="M1200,602c-7,-3 -6,-3 -13,-6 "/><path stroke-width="13" d="M1187,596c-18,-7 -18,-6 -36,-13 "/><path stroke-width="11" d="M1151,583c-38,-14 -38,-15 -76,-30 -43,-16 -43,-17 -86,-31 -34,-12 -35,-9 -69,-21 -28,-10 -28,-9 -55,-23 -20,-11 -21,-11 -39,-26 -17,-15 -17,-16 -32,-34 -14,-18 -16,-17 -27,-38 -9,-17 -10,-18 -12,-37 -2,-16 -1,-18 5,-33 8,-20 10,-20 24,-36 15,-18 14,-20 33,-33 19,-14 20,-14 43,-21 24,-7 25,-7 50,-7 23,0 23,1 46,6 20,4 20,5 39,13 19,7 20,7 37,18 15,9 15,10 26,23 11,11 11,11 18,25 8,17 8,18 11,36 3,23 3,24 1,47 -2,27 -2,27 -8,54 -6,28 -7,28 -16,57 -10,32 -10,32 -22,64 -13,34 -15,33 -28,66 -15,37 -15,37 -27,74 -14,38 -13,39 -26,77 -13,40 -14,40 -26,81 -12,38 -11,38 -21,78 -9,33 -8,34 -17,68 -5,22 -4,23 -11,45 -4,11 -4,11 -9,22 "/><path stroke-width="13" d="M877,1067c-3,4 -3,4 -7,8 "/><path stroke-width="17" d="M870,1075c-1,1 -2,2 -4,2 "/><path stroke-width="19" d="M866,1077c-1,-1 -1,-2 -3,-5 "/><path stroke-width="17" d="M863,1072c-2,-5 -1,-5 -3,-10 "/></g></svg>