<?xml version="1.0" encoding="UTF-8" standalone="no"?>
<svg xmlns="http://www.w3.org/2000/svg" version="1.2" baseProfile="tiny" height="2382" width="1440"><g stroke-linejoin="round" stroke-linecap="round" fill="none" stroke="black"><path stroke-width="22" d="M287,965c0,0 0,0 0,0 "/><path stroke-width="18" d="M287,965c7,26 4,27 14,53 "/><path stroke-width="11" d="M301,1018c24,61 23,61 52,120 22,44 24,43 49,86 5,9 5,9 10,17 "/><path stroke-width="13" d="M412,1241c1,3 1,4 3,7 "/><path stroke-width="17" d="M415,1248c1,1 2,2 1,2 "/><path stroke-width="19" d="M416,1250c-2,0 -3,-2 -7,-3 "/><path stroke-width="20" d="M409,1247c0,0 0,0 0,-1 "/><path stroke-width="24" d="M179,1071c0,0 0,0 0,0 "/><path stroke-width="18" d="M179,1071c-1,-3 -1,-3 -2,-5 "/><path stroke-width="11" d="M177,1066c-1,-2 -1,-2 -2,-4 -1,-3 -1,-2 -2,-5 -1,-2 -1,-2 -1,-4 4,-12 3,-13 10,-22 21,-29 21,-29 45,-55 43,-47 44,-46 89,-91 41,-42 42,-41 83,-83 35,-38 34,-39 69,-78 24,-27 23,-28 49,-53 13,-14 13,-15 28,-25 9,-6 11,-4 21,-8 "/><path stroke-width="11" d="M465,936c0,0 0,0 0,0 1,0 1,0 2,0 0,0 0,-1 0,0 0,1 1,1 0,3 0,3 0,3 -1,6 -7,23 -7,23 -14,45 -11,39 -14,38 -22,77 -5,29 -6,30 -3,58 3,26 3,29 16,51 12,20 15,21 36,34 21,13 23,16 47,18 25,3 30,4 52,-8 23,-12 18,-20 37,-41 0,0 0,0 0,-1 "/><path stroke-width="11" d="M462,1113c0,0 0,0 0,0 0,1 0,1 -1,2 -2,1 -2,1 -3,2 -2,1 -3,2 -3,3 0,1 1,0 2,0 11,-8 11,-8 22,-16 30,-26 31,-25 60,-52 24,-22 25,-21 46,-47 13,-16 12,-17 20,-35 4,-9 5,-10 5,-20 0,-5 -1,-6 -4,-9 -3,-3 -5,-4 -10,-3 -7,1 -8,1 -15,6 -10,8 -11,9 -19,20 -12,18 -13,19 -20,40 -10,31 -12,32 -14,64 -1,26 -1,28 8,54 7,23 8,25 24,43 15,17 17,15 37,26 10,6 10,5 22,8 5,1 5,1 10,0 3,-1 3,-2 6,-3 1,0 2,0 2,0 0,1 0,2 -1,3 -3,2 -3,2 -7,4 -7,3 -7,5 -14,6 -9,1 -12,4 -19,-1 -10,-8 -12,-10 -14,-23 -4,-26 -4,-29 2,-55 10,-42 13,-42 29,-82 14,-37 12,-39 33,-72 15,-25 17,-24 39,-43 14,-12 15,-13 33,-20 11,-5 13,-7 24,-6 12,2 15,3 23,13 12,15 13,17 17,36 7,33 5,34 6,69 1,30 0,30 -1,60 -1,20 -1,20 -4,40 -1,8 0,8 -2,16 -2,3 -2,5 -5,5 -6,0 -7,0 -13,-3 -12,-6 -12,-7 -22,-16 -17,-15 -17,-16 -32,-33 -20,-22 -21,-22 -39,-45 -9,-11 -9,-12 -16,-24 -3,-4 -3,-4 -4,-9 -1,-3 -2,-4 -1,-7 1,-4 2,-4 5,-8 6,-10 7,-10 14,-20 15,-21 15,-21 30,-41 27,-36 26,-37 55,-72 30,-38 29,-39 63,-74 34,-36 36,-34 71,-68 26,-25 25,-25 51,-49 "/><path stroke-width="11" d="M975,834c0,0 0,0 0,0 0,0 0,0 0,0 -1,0 -1,-1 -2,0 -1,0 -1,0 -2,2 -1,2 -1,2 -1,4 -1,26 -3,26 0,51 6,55 7,55 19,110 12,53 14,53 28,106 10,36 11,36 21,72 "/></g></svg>