<?xml version="1.0" encoding="UTF-8" standalone="no"?>
<svg xmlns="http://www.w3.org/2000/svg" version="1.2" baseProfile="tiny" height="1850" width="1080"><g stroke-linejoin="round" stroke-linecap="round" fill="none" stroke="black"><path stroke-width="18" d="M181,813c0,0 0,0 0,0 "/><path stroke-width="20" d="M181,813c2,0 2,0 4,1 "/><path stroke-width="14" d="M185,814c96,16 97,37 191,33 "/><path stroke-width="9" d="M376,847c100,-4 115,-2 198,-50 62,-36 83,-60 94,-118 6,-36 -23,-49 -61,-70 -39,-21 -47,-14 -92,-15 -16,-1 -30,-2 -31,12 -2,37 4,49 24,90 20,39 26,37 57,70 48,51 51,48 101,97 20,20 24,18 40,41 14,20 20,23 20,45 0,16 -4,21 -19,29 -51,32 -55,28 -112,53 -28,13 -30,8 -57,23 -33,17 -35,17 -64,41 -10,9 -15,11 -13,24 5,42 5,49 28,86 17,27 23,27 51,43 48,28 50,24 101,46 18,7 19,5 37,12 "/><path stroke-width="10" d="M678,1306c11,4 11,4 23,9 "/><path stroke-width="14" d="M701,1315c2,1 2,1 4,2 "/><path stroke-width="19" d="M705,1317c0,0 -1,1 -1,1 "/><path stroke-width="21" d="M704,1318c0,0 0,0 0,0 "/></g></svg>