<?xml version="1.0" encoding="UTF-8" standalone="no"?>
<svg xmlns="http://www.w3.org/2000/svg" version="1.2" baseProfile="tiny" height="1850" width="1080"><g stroke-linejoin="round" stroke-linecap="round" fill="none" stroke="black"><path stroke-width="18" d="M732,1080c0,0 0,0 0,0 "/><path stroke-width="21" d="M732,1080c0,0 0,0 0,0 "/><path stroke-width="18" d="M732,1080c-1,-13 4,-16 -3,-26 "/><path stroke-width="12" d="M729,1054c-15,-24 -17,-26 -41,-44 "/><path stroke-width="9" d="M688,1010c-32,-22 -33,-23 -70,-36 -61,-21 -62,-28 -127,-33 -56,-4 -58,3 -113,17 -57,13 -58,14 -111,38 -27,11 -27,12 -49,31 -34,29 -48,26 -64,64 -15,37 -12,47 1,87 14,43 18,47 52,77 75,66 76,80 167,116 72,28 82,21 159,12 65,-8 65,-19 126,-46 64,-30 63,-32 124,-68 48,-29 50,-27 93,-63 31,-25 30,-28 55,-59 10,-12 9,-13 15,-28 6,-14 9,-15 9,-30 "/><path stroke-width="10" d="M955,1089c0,-8 -2,-10 -9,-15 -25,-15 -27,-15 -56,-24 "/><path stroke-width="9" d="M890,1050c-54,-17 -54,-20 -110,-27 -117,-15 -118,-21 -236,-17 -113,3 -118,1 -226,32 -98,28 -105,27 -187,86 -70,51 -81,57 -116,134 -30,66 -10,75 -15,151 -2,38 -20,48 1,77 53,71 72,63 148,122 34,27 36,25 72,49 "/></g></svg>