<?xml version="1.0" encoding="UTF-8" standalone="no"?>
<svg xmlns="http://www.w3.org/2000/svg" version="1.2" baseProfile="tiny" height="1850" width="1080"><g stroke-linejoin="round" stroke-linecap="round" fill="none" stroke="black"><path stroke-width="18" d="M470,1056c0,0 0,0 0,0 "/><path stroke-width="16" d="M470,1056c-13,-11 -14,-11 -26,-23 "/><path stroke-width="10" d="M444,1033c-14,-13 -17,-11 -27,-27 "/><path stroke-width="9" d="M417,1006c-9,-16 -15,-19 -12,-37 6,-33 9,-36 29,-65 35,-46 37,-47 81,-85 45,-38 46,-39 98,-67 47,-26 49,-24 100,-40 41,-12 41,-11 84,-16 24,-4 25,-5 49,-2 11,1 15,2 19,11 7,16 7,20 3,38 -7,33 -8,34 -24,64 -18,35 -20,33 -43,66 -25,36 -27,35 -52,71 -26,37 -28,37 -51,77 -22,38 -22,38 -40,79 -16,36 -13,37 -26,75 -10,27 -10,27 -20,54 -6,17 -5,17 -12,33 -6,12 -5,13 -15,21 -15,14 -16,17 -35,24 -32,11 -34,8 -67,12 -20,2 -21,-1 -41,-2 "/></g></svg>