<?xml version="1.0" encoding="UTF-8" standalone="no"?>
<svg xmlns="http://www.w3.org/2000/svg" version="1.2" baseProfile="tiny" height="1056" width="800"><g stroke-linejoin="round" stroke-linecap="round" fill="none" stroke="black"><path stroke-width="8" d="M418,573c0,0 0,0 0,0 "/><path stroke-width="7" d="M418,573c-4,0 -4,1 -9,0 "/><path stroke-width="6" d="M409,573c-2,-1 -4,0 -5,-3 -5,-14 -5,-15 -6,-32 "/><path stroke-width="4" d="M398,538c-1,-16 -1,-16 2,-32 3,-22 3,-23 9,-44 5,-22 5,-23 13,-44 8,-19 8,-20 19,-38 9,-17 9,-17 21,-33 10,-12 10,-12 21,-24 9,-10 8,-11 20,-18 15,-10 16,-9 34,-15 "/><path stroke-width="5" d="M537,290c5,-2 7,-3 10,0 "/><path stroke-width="6" d="M547,290c5,4 5,7 5,15 "/><path stroke-width="5" d="M552,305c1,12 0,12 -3,24 "/><path stroke-width="4" d="M549,329c-4,18 -4,18 -9,35 -7,22 -7,22 -15,44 -21,49 -21,49 -44,98 -11,24 -11,24 -24,48 -12,23 -12,23 -25,46 -11,20 -11,20 -22,40 -10,17 -9,17 -19,34 -8,12 -8,12 -16,24 -11,15 -11,15 -22,29 "/><path stroke-width="5" d="M353,727c-2,3 -2,3 -4,5 "/><path stroke-width="7" d="M349,732c-1,1 -1,2 -1,2 "/><path stroke-width="8" d="M348,734c0,0 1,0 2,-1 1,-1 1,-2 3,-3 "/><path stroke-width="7" d="M353,730c1,-2 1,-2 3,-4 3,-3 3,-3 7,-6 0,-1 2,-1 2,-1 "/><path stroke-width="8" d="M365,719c-1,-1 -2,0 -3,-1 -1,0 0,0 0,-1 0,0 0,0 0,-1 "/><path stroke-width="9" d="M569,839c0,0 0,0 0,0 "/><path stroke-width="8" d="M569,839c-3,0 -3,0 -7,-1 "/><path stroke-width="7" d="M562,838c-4,-1 -4,-1 -8,-3 "/><path stroke-width="6" d="M554,835c-3,-1 -3,-1 -5,-3 -2,-2 -3,-2 -5,-4 -4,-3 -4,-3 -7,-6 -2,-4 -2,-4 -4,-8 -2,-4 -3,-4 -4,-9 -1,-5 -1,-5 0,-9 1,-6 1,-6 3,-11 3,-5 2,-6 7,-10 "/><path stroke-width="5" d="M539,775c9,-9 10,-9 20,-15 6,-3 6,-3 12,-4 5,-1 6,-1 11,0 "/><path stroke-width="6" d="M582,756c4,1 5,1 9,3 5,3 5,3 10,7 "/><path stroke-width="5" d="M601,766c8,6 7,6 15,12 "/></g></svg>