<?xml version="1.0" encoding="UTF-8" standalone="no"?>
<svg xmlns="http://www.w3.org/2000/svg" version="1.2" baseProfile="tiny" height="1048" width="800"><g stroke-linejoin="round" stroke-linecap="round" fill="none" stroke="black"><path stroke-width="8" d="M378,762c0,0 0,0 0,0 "/><path stroke-width="7" d="M378,762c-23,-15 -26,-12 -45,-30 "/><path stroke-width="4" d="M333,732c-10,-10 -11,-12 -12,-26 -4,-44 -9,-48 2,-90 14,-54 20,-54 48,-104 12,-23 14,-23 33,-42 34,-32 33,-34 72,-58 24,-16 26,-14 53,-22 "/><path stroke-width="5" d="M529,390c6,-2 8,-3 12,1 "/><path stroke-width="6" d="M541,391c5,3 7,7 5,13 "/><path stroke-width="5" d="M546,404c-2,8 -6,8 -13,14 -33,31 -33,31 -67,60 "/><path stroke-width="4" d="M466,478c-23,20 -24,19 -47,39 -23,19 -23,19 -46,40 -43,39 -42,40 -86,79 -17,16 -16,17 -36,30 -25,17 -26,17 -54,28 -8,3 -9,3 -18,1 "/><path stroke-width="5" d="M179,695c-8,-1 -11,-1 -14,-8 -5,-8 -4,-11 -2,-21 "/><path stroke-width="4" d="M163,666c4,-27 2,-29 13,-54 31,-73 32,-73 71,-142 22,-40 24,-38 50,-75 48,-66 49,-65 97,-130 18,-25 17,-26 35,-51 26,-37 28,-36 53,-74 12,-19 13,-20 21,-41 "/><path stroke-width="5" d="M503,99c1,-4 1,-8 -3,-8 -15,-1 -18,0 -34,4 "/><path stroke-width="4" d="M466,95c-24,7 -25,7 -46,18 -54,28 -55,28 -105,60 -26,17 -25,17 -48,37 -45,41 -46,41 -88,86 -19,20 -19,20 -33,44 -23,40 -24,40 -40,83 -6,15 -6,16 -4,32 2,19 2,21 12,37 6,9 9,8 20,12 15,7 15,8 31,9 46,2 48,3 94,-3 30,-4 29,-9 59,-16 52,-13 52,-14 106,-24 22,-4 22,-4 45,-2 34,1 35,0 68,7 14,4 15,4 26,14 20,17 22,18 35,40 7,13 4,15 5,30 1,19 3,20 -2,39 -11,46 -12,47 -30,90 -11,25 -12,24 -27,46 -30,42 -31,42 -64,82 -14,17 -14,18 -31,32 -25,22 -25,22 -52,41 -8,6 -9,4 -18,8 "/><path stroke-width="5" d="M379,897c-4,1 -4,1 -7,2 "/></g></svg>