<?xml version="1.0" encoding="UTF-8" standalone="no"?>
<svg xmlns="http://www.w3.org/2000/svg" version="1.2" baseProfile="tiny" height="1850" width="1080"><g stroke-linejoin="round" stroke-linecap="round" fill="none" stroke="black"><path stroke-width="18" d="M375,910c0,0 0,0 0,0 "/><path stroke-width="16" d="M375,910c5,-8 5,-8 11,-16 "/><path stroke-width="10" d="M386,894c16,-24 13,-27 33,-49 "/><path stroke-width="9" d="M419,845c22,-23 22,-26 49,-41 28,-15 30,-14 61,-18 25,-3 27,-2 52,4 19,5 20,6 37,17 16,11 17,12 28,28 11,18 14,20 16,41 4,30 0,31 -4,61 -4,32 -6,32 -13,64 -6,24 -7,24 -14,47 -5,16 -4,16 -10,31 -6,14 -6,15 -15,27 -7,10 -7,10 -16,18 -7,6 -6,7 -15,11 -10,6 -10,6 -22,9 -14,2 -14,2 -28,0 -19,-2 -19,-1 -38,-7 -22,-7 -22,-8 -43,-18 -25,-13 -26,-12 -48,-28 -22,-17 -23,-17 -41,-39 -18,-21 -19,-22 -30,-47 -10,-22 -11,-23 -14,-47 -4,-28 -2,-29 0,-58 3,-34 5,-34 10,-68 "/><path stroke-width="10" d="M321,832c1,-4 1,-4 2,-7 "/></g></svg>