<?xml version="1.0" encoding="UTF-8" standalone="no"?>
<svg xmlns="http://www.w3.org/2000/svg" version="1.2" baseProfile="tiny" height="1850" width="1080"><g stroke-linejoin="round" stroke-linecap="round" fill="none" stroke="black"><path stroke-width="18" d="M482,1245c0,0 0,0 0,0 "/><path stroke-width="19" d="M482,1245c-2,-2 -3,-2 -5,-4 "/><path stroke-width="13" d="M477,1241c-15,-15 -19,-12 -30,-30 "/><path stroke-width="9" d="M447,1211c-22,-38 -24,-40 -36,-82 -7,-24 -3,-26 -3,-52 1,-27 0,-28 5,-54 5,-25 5,-26 16,-49 14,-29 15,-30 36,-55 20,-24 22,-24 47,-43 23,-17 23,-19 49,-30 27,-12 28,-12 58,-17 29,-4 30,-4 60,-2 30,1 30,1 59,8 30,7 31,6 58,19 25,12 25,13 46,31 23,18 25,17 44,40 17,20 18,20 30,44 13,27 13,28 20,57 6,28 5,29 4,58 -1,28 -2,29 -10,57 -7,26 -7,27 -20,51 -14,24 -14,25 -34,45 -24,24 -25,24 -54,43 -28,19 -29,18 -60,33 -33,15 -33,16 -67,26 -32,9 -32,9 -65,12 -33,3 -34,3 -67,1 -29,-3 -30,-3 -58,-11 -30,-9 -30,-11 -58,-24 -26,-12 -27,-10 -50,-26 -26,-18 -26,-19 -48,-41 -22,-22 -23,-22 -40,-47 -17,-24 -18,-25 -29,-52 -8,-20 -10,-22 -10,-44 1,-27 4,-28 12,-55 5,-17 7,-16 14,-32 "/></g></svg>