<?xml version="1.0" encoding="UTF-8" standalone="no"?>
<svg xmlns="http://www.w3.org/2000/svg" version="1.2" baseProfile="tiny" height="1056" width="800"><g stroke-linejoin="round" stroke-linecap="round" fill="none" stroke="black"><path stroke-width="8" d="M480,633c0,0 0,0 0,0 "/><path stroke-width="9" d="M480,633c0,0 0,0 0,0 "/><path stroke-width="8" d="M480,633c-5,2 -5,2 -10,4 "/><path stroke-width="6" d="M470,637c-4,1 -4,2 -7,3 "/><path stroke-width="5" d="M463,640c-11,2 -11,2 -22,4 -13,2 -13,2 -27,3 -6,1 -6,1 -12,0 -5,0 -6,0 -10,-3 "/><path stroke-width="6" d="M392,644c-6,-4 -7,-4 -10,-10 "/><path stroke-width="5" d="M382,634c-5,-8 -5,-9 -5,-19 "/><path stroke-width="4" d="M377,615c-2,-15 -3,-16 1,-30 11,-35 10,-37 28,-69 8,-14 11,-12 24,-23 26,-19 26,-20 53,-36 11,-7 11,-7 23,-11 "/><path stroke-width="5" d="M506,446c8,-3 9,-4 17,-3 9,0 10,1 17,4 "/><path stroke-width="6" d="M540,447c2,2 2,3 2,5 -1,5 -2,5 -5,10 "/><path stroke-width="5" d="M537,462c-5,9 -5,10 -12,18 "/><path stroke-width="4" d="M525,480c-25,28 -26,27 -52,54 -15,15 -15,14 -30,29 -15,15 -15,15 -29,30 -15,14 -14,14 -29,28 -12,13 -12,13 -25,26 -11,11 -11,11 -21,23 -15,18 -16,18 -29,37 -4,7 -4,8 -6,16 "/><path stroke-width="5" d="M304,723c-3,7 -3,8 -3,15 0,6 0,7 3,11 "/><path stroke-width="6" d="M304,749c2,3 3,2 6,2 5,1 5,1 10,0 "/><path stroke-width="5" d="M320,751c9,-2 9,-2 17,-5 "/><path stroke-width="4" d="M337,746c11,-6 11,-6 21,-13 11,-8 11,-8 21,-16 10,-8 10,-8 20,-16 10,-7 9,-8 20,-14 18,-9 19,-9 38,-16 9,-3 9,-4 18,-6 "/><path stroke-width="5" d="M475,665c6,-1 7,-1 14,-1 5,0 5,-1 10,0 "/><path stroke-width="6" d="M499,664c6,2 7,2 12,5 2,1 1,2 2,4 "/><path stroke-width="8" d="M513,673c0,1 0,2 0,3 1,2 1,2 1,4 -1,1 -1,1 -1,1 "/><path stroke-width="9" d="M513,681c1,-1 2,-1 4,-2 "/><path stroke-width="8" d="M517,679c2,-1 1,-1 3,-2 "/><path stroke-width="7" d="M520,677c2,-1 2,-1 4,-2 2,0 2,0 4,-1 2,-1 2,-1 4,-2 "/><path stroke-width="8" d="M532,672c1,-1 1,-1 3,-2 0,0 1,-1 1,-1 0,0 -1,1 -1,1 0,1 1,1 1,1 "/><path stroke-width="9" d="M536,671c1,0 0,0 0,1 0,0 0,0 0,1 "/><path stroke-width="8" d="M536,673c1,1 1,0 1,1 0,1 0,1 0,1 1,2 1,2 2,3 "/><path stroke-width="7" d="M539,678c2,2 2,3 3,5 "/></g></svg>