<?xml version="1.0" encoding="UTF-8" standalone="no"?>
<svg xmlns="http://www.w3.org/2000/svg" version="1.2" baseProfile="tiny" height="1048" width="800"><g stroke-linejoin="round" stroke-linecap="round" fill="none" stroke="black"><path stroke-width="8" d="M40,979c0,0 0,0 0,0 "/><path stroke-width="7" d="M40,979c3,7 2,7 6,14 "/><path stroke-width="4" d="M46,993c6,11 6,11 14,21 11,16 11,16 24,30 11,13 10,13 23,24 10,10 11,9 22,17 "/><path stroke-width="6" d="M129,1085c1,0 1,0 1,0 "/><path stroke-width="7" d="M130,1085c-3,-1 -4,-1 -7,-3 "/><path stroke-width="5" d="M123,1082c-11,-7 -11,-7 -21,-16 "/><path stroke-width="4" d="M102,1066c-15,-12 -16,-12 -30,-25 -16,-15 -16,-14 -30,-31 -9,-12 -7,-13 -16,-26 -8,-10 -10,-9 -18,-20 "/><path stroke-width="5" d="M8,964c-3,-4 -4,-5 -5,-11 "/><path stroke-width="6" d="M3,953c-1,-8 -5,-12 -1,-17 7,-7 12,-9 23,-8 "/><path stroke-width="5" d="M25,928c8,2 9,5 15,14 15,21 15,22 26,46 "/><path stroke-width="4" d="M66,988c5,9 4,10 7,20 "/><path stroke-width="5" d="M73,1008c2,10 2,16 4,21 "/><path stroke-width="6" d="M77,1029c1,1 0,-4 1,-8 1,-6 1,-6 1,-11 1,-9 -1,-10 2,-19 "/><path stroke-width="5" d="M81,991c5,-16 4,-19 14,-32 5,-5 7,-5 15,-5 9,0 11,-1 19,3 "/><path stroke-width="4" d="M129,957c23,13 23,14 44,32 7,6 9,7 12,16 4,13 4,16 2,29 "/><path stroke-width="5" d="M187,1034c-1,7 -3,8 -9,13 -16,12 -17,12 -35,22 "/><path stroke-width="4" d="M143,1069c-15,7 -16,6 -31,11 "/><path stroke-width="5" d="M112,1080c-4,1 -5,1 -8,0 "/><path stroke-width="6" d="M104,1080c-2,0 -3,0 -4,-2 -1,-1 0,-1 0,-3 "/><path stroke-width="8" d="M216,1009c0,0 0,0 0,0 -5,-10 -4,-11 -9,-21 "/><path stroke-width="5" d="M207,988c-14,-26 -13,-27 -28,-52 "/><path stroke-width="4" d="M179,936c-12,-21 -12,-21 -25,-40 -10,-15 -10,-17 -23,-29 -9,-9 -13,-13 -21,-14 "/><path stroke-width="5" d="M110,853c-4,0 -3,7 -2,12 "/><path stroke-width="7" d="M108,865c0,2 2,1 5,1 3,0 3,0 6,-2 "/><path stroke-width="6" d="M119,864c10,-7 9,-9 19,-16 "/><path stroke-width="5" d="M138,848c7,-4 8,-6 15,-4 13,3 14,5 25,14 "/><path stroke-width="4" d="M178,858c9,8 7,10 15,20 6,9 4,10 12,18 "/><path stroke-width="5" d="M205,896c8,8 9,9 19,14 4,2 4,0 9,0 "/><path stroke-width="6" d="M233,910c9,0 9,0 17,1 6,0 7,3 11,1 9,-4 10,-6 16,-14 "/><path stroke-width="5" d="M277,898c6,-7 5,-8 7,-17 2,-10 3,-11 2,-21 "/><path stroke-width="4" d="M286,860c-6,-38 -7,-38 -16,-75 -5,-23 -6,-23 -13,-46 -11,-38 -8,-39 -23,-76 -6,-15 -12,-29 -19,-27 -7,3 -7,18 -10,37 -2,18 -3,19 1,36 5,23 6,27 18,44 "/><path stroke-width="5" d="M224,753c3,6 9,6 14,2 15,-13 17,-16 27,-36 "/><path stroke-width="4" d="M265,719c7,-13 7,-14 5,-29 -2,-25 -4,-25 -11,-49 "/><path stroke-width="5" d="M259,641c-2,-5 -6,-10 -6,-8 -1,5 0,12 4,22 4,10 3,13 12,19 "/><path stroke-width="4" d="M269,674c11,7 16,11 26,7 8,-3 6,-9 9,-20 4,-12 5,-13 5,-26 1,-18 -1,-18 -3,-37 "/><path stroke-width="5" d="M306,598c0,-3 -2,-4 -1,-6 "/><path stroke-width="7" d="M305,592c0,-1 1,0 3,-1 4,-1 5,0 8,-3 "/><path stroke-width="6" d="M316,588c5,-6 4,-7 8,-14 2,-4 1,-5 3,-9 "/><path stroke-width="7" d="M327,565c1,-2 1,-4 3,-3 5,0 5,3 11,4 "/><path stroke-width="6" d="M341,566c6,1 6,0 13,-2 4,0 3,-1 7,-2 10,-3 10,-3 19,-6 5,-1 5,0 9,-1 4,-1 4,0 7,-3 "/><path stroke-width="5" d="M396,552c14,-9 14,-9 26,-21 "/><path stroke-width="4" d="M422,531c8,-8 9,-9 13,-20 10,-25 10,-26 15,-53 3,-14 2,-15 0,-29 -4,-26 -4,-26 -12,-51 -5,-12 -5,-13 -13,-24 -17,-22 -14,-26 -36,-42 -19,-14 -22,-14 -45,-17 -12,-2 -13,0 -24,7 -15,8 -16,9 -27,22 -30,40 -31,40 -56,84 -16,29 -18,30 -25,62 -15,71 -18,73 -21,146 -1,37 0,40 14,74 18,42 22,48 52,78 8,7 16,5 25,-3 34,-29 35,-33 61,-72 20,-29 15,-32 31,-62 31,-63 29,-64 63,-124 31,-56 33,-56 68,-109 15,-23 16,-23 32,-45 24,-32 24,-32 47,-65 10,-14 9,-14 19,-27 "/><path stroke-width="6" d="M603,261c0,0 0,0 0,1 "/><path stroke-width="8" d="M603,262c0,0 0,0 0,0 4,-2 4,-2 7,-4 "/><path stroke-width="7" d="M610,258c1,-1 1,-1 2,-1 "/><path stroke-width="8" d="M646,222c0,0 0,0 0,0 "/><path stroke-width="9" d="M395,859c0,0 0,0 0,0 "/><path stroke-width="6" d="M395,859c7,11 6,12 14,23 "/><path stroke-width="4" d="M409,882c11,13 11,13 23,26 11,12 10,13 23,24 19,15 18,17 40,28 10,4 12,3 22,2 "/><path stroke-width="5" d="M517,962c4,-1 4,-2 6,-6 "/><path stroke-width="6" d="M523,956c3,-4 3,-4 5,-9 1,-5 0,-5 1,-10 1,-3 1,-3 2,-6 "/><path stroke-width="7" d="M531,931c1,-2 1,-4 1,-4 "/><path stroke-width="8" d="M532,927c0,-1 0,1 0,2 "/><path stroke-width="7" d="M532,929c-2,5 -4,4 -4,9 "/><path stroke-width="6" d="M528,938c0,8 1,8 3,15 "/><path stroke-width="7" d="M531,953c0,3 0,3 2,5 "/><path stroke-width="8" d="M533,958c1,1 1,2 2,1 3,-1 4,-2 5,-5 "/><path stroke-width="7" d="M540,954c2,-5 3,-6 1,-11 "/><path stroke-width="5" d="M541,943c-7,-31 -6,-32 -17,-62 "/><path stroke-width="4" d="M524,881c-11,-29 -11,-29 -26,-55 -32,-55 -30,-58 -69,-108 -16,-21 -21,-25 -42,-34 "/><path stroke-width="5" d="M387,684c-7,-2 -8,4 -13,11 -15,21 -18,21 -28,46 "/><path stroke-width="4" d="M346,741c-6,13 -5,15 -3,30 2,25 2,27 11,50 4,9 6,13 14,14 16,2 23,3 36,-8 20,-15 16,-21 31,-44 32,-51 31,-52 64,-103 15,-24 14,-25 31,-47 23,-31 24,-31 49,-61 7,-8 7,-8 15,-16 "/><path stroke-width="5" d="M594,556c5,-4 7,-6 10,-8 "/><path stroke-width="7" d="M604,548c1,-1 -1,2 -2,3 "/><path stroke-width="8" d="M602,551c-1,0 -1,0 -2,0 -1,1 -1,1 -2,1 -1,0 -1,1 -2,0 -1,0 -2,0 -2,-1 0,0 1,0 2,-1 2,0 2,-1 4,-1 0,0 0,1 0,2 1,2 1,2 2,3 "/><path stroke-width="8" d="M514,445c0,0 0,0 0,0 "/><path stroke-width="6" d="M514,445c15,41 14,42 30,83 "/><path stroke-width="4" d="M544,528c14,36 13,37 30,72 23,45 26,43 51,87 7,12 7,12 13,23 "/><path stroke-width="5" d="M735,832c0,0 0,0 0,0 7,12 7,12 13,23 "/><path stroke-width="5" d="M678,73c0,0 0,0 0,0 "/><path stroke-width="6" d="M678,73c1,-2 1,-2 3,-5 "/><path stroke-width="7" d="M681,68c0,-1 0,-1 1,-2 "/><path stroke-width="8" d="M682,66c0,0 0,0 0,0 "/><path stroke-width="9" d="M682,66c1,-2 1,-2 2,-3 0,0 0,0 0,0 0,0 0,0 0,0 0,0 0,0 0,0 0,0 0,0 -1,-1 "/><path stroke-width="8" d="M683,62c-1,0 -1,0 -3,0 "/><path stroke-width="7" d="M680,62c-3,0 -3,-1 -6,0 "/><path stroke-width="6" d="M674,62c-9,2 -10,2 -18,6 "/><path stroke-width="5" d="M656,68c-17,7 -17,6 -32,15 "/><path stroke-width="4" d="M624,83c-21,12 -21,12 -40,27 -40,33 -41,33 -79,69 -29,28 -29,28 -54,60 -12,15 -14,17 -19,33 "/><path stroke-width="5" d="M432,272c-1,5 3,7 7,8 "/><path stroke-width="6" d="M439,280c8,2 10,2 17,-2 "/><path stroke-width="5" d="M456,278c47,-18 48,-18 93,-41 "/><path stroke-width="4" d="M549,237c53,-27 51,-29 103,-58 23,-12 22,-13 45,-25 29,-14 29,-14 59,-26 "/><path stroke-width="5" d="M756,128c4,-1 6,-2 9,0 "/><path stroke-width="6" d="M765,128c2,2 1,4 1,8 0,8 0,8 0,16 "/><path stroke-width="5" d="M766,152c0,12 1,12 -1,23 "/><path stroke-width="4" d="M765,175c-8,45 -9,45 -19,90 -7,26 -9,25 -15,51 -12,42 -12,42 -22,85 -3,15 -3,15 -5,31 -2,16 -3,16 -2,32 0,17 0,17 5,33 7,24 8,24 18,48 6,15 7,14 14,29 15,29 15,29 29,59 "/><path stroke-width="5" d="M768,633c1,1 0,1 1,3 "/><path stroke-width="8" d="M19,662c0,0 0,0 0,0 "/><path stroke-width="6" d="M19,662c19,-26 19,-26 37,-52 "/><path stroke-width="4" d="M56,610c13,-18 13,-18 24,-36 15,-24 14,-24 29,-49 33,-57 33,-57 67,-113 18,-31 16,-32 37,-61 39,-57 39,-57 82,-112 42,-55 42,-54 88,-107 20,-24 21,-24 44,-46 38,-39 39,-38 77,-76 17,-16 16,-16 33,-31 "/><path stroke-width="5" d="M537,-21c1,-2 2,-3 3,-2 "/><path stroke-width="7" d="M540,-23c0,1 0,2 -2,5 -1,2 -1,2 -3,5 "/><path stroke-width="6" d="M535,-13c-2,2 -2,2 -4,5 "/><path stroke-width="7" d="M531,-8c-1,0 -1,0 -2,1 "/><path stroke-width="8" d="M63,372c0,0 0,0 0,0 "/><path stroke-width="6" d="M63,372c11,21 11,21 23,42 "/><path stroke-width="4" d="M86,414c7,12 8,12 16,24 "/><path stroke-width="5" d="M102,438c3,5 3,5 6,10 "/><path stroke-width="7" d="M146,477c0,0 0,0 0,0 "/><path stroke-width="9" d="M146,477c0,0 0,0 0,0 0,0 0,0 0,0 0,0 0,0 0,0 0,0 0,0 0,0 "/><path stroke-width="7" d="M146,477c-2,-10 -2,-10 -3,-20 "/><path stroke-width="4" d="M143,457c-2,-13 -1,-13 -3,-25 -2,-22 -2,-22 -4,-44 -3,-29 -3,-29 -7,-57 -4,-33 -5,-33 -9,-67 -5,-33 -4,-33 -8,-66 -4,-30 -4,-30 -9,-59 -4,-22 -2,-23 -9,-44 -4,-10 -5,-12 -13,-18 "/><path stroke-width="5" d="M81,77c-7,-4 -12,-8 -18,-3 -11,9 -11,14 -15,31 "/><path stroke-width="4" d="M48,105c-12,50 -13,51 -17,103 -3,24 -4,25 4,48 13,40 12,45 38,78 12,15 17,13 37,18 16,4 18,4 34,0 17,-4 19,-5 33,-16 16,-13 15,-16 27,-33 11,-14 11,-14 19,-29 4,-9 4,-13 7,-18 "/><path stroke-width="5" d="M230,256c1,-1 1,2 1,4 "/><path stroke-width="6" d="M231,260c2,6 3,6 4,12 "/><path stroke-width="5" d="M235,272c2,9 0,11 4,19 "/><path stroke-width="4" d="M239,291c4,7 5,9 13,12 "/><path stroke-width="5" d="M252,303c6,3 8,4 14,0 "/><path stroke-width="4" d="M266,303c10,-5 10,-7 18,-16 9,-11 8,-11 16,-22 5,-8 5,-8 9,-16 "/><path stroke-width="5" d="M309,249c1,-3 3,-7 2,-6 "/><path stroke-width="6" d="M311,243c-4,4 -6,8 -12,15 "/><path stroke-width="5" d="M299,258c-6,8 -5,8 -12,16 -4,5 -4,12 -9,11 -13,-3 -17,-7 -26,-21 "/><path stroke-width="4" d="M252,264c-32,-45 -30,-47 -56,-96 -16,-30 -15,-30 -28,-61 -19,-43 -17,-44 -35,-88 -2,-6 -3,-6 -7,-12 "/><path stroke-width="6" d="M126,7c-2,-4 -4,-7 -4,-6 0,3 3,7 5,14 "/><path stroke-width="5" d="M127,15c4,14 3,15 7,29 "/><path stroke-width="4" d="M134,44c10,43 5,46 20,86 6,16 8,24 23,26 32,5 36,-4 71,-13 18,-5 16,-10 34,-15 14,-3 19,-8 29,-1 11,8 7,16 14,31 5,10 2,12 10,20 12,14 14,14 30,23 10,6 11,3 21,7 21,9 22,8 42,19 8,5 7,6 15,13 "/><path stroke-width="5" d="M443,240c10,9 10,9 19,19 6,6 5,6 10,13 "/><path stroke-width="6" d="M472,272c2,2 2,2 4,4 "/><path stroke-width="7" d="M476,276c4,5 5,5 9,9 2,2 2,3 4,4 3,3 4,3 7,6 1,1 1,1 1,2 "/><path stroke-width="8" d="M497,297c2,1 2,1 3,2 1,1 1,1 2,2 1,1 1,1 2,3 "/><path stroke-width="8" d="M497,238c0,0 0,0 0,0 "/><path stroke-width="6" d="M497,238c-4,-1 -4,-1 -8,-1 "/><path stroke-width="5" d="M15,913c0,0 0,0 0,0 "/><path stroke-width="6" d="M15,913c7,-7 9,-6 14,-15 "/><path stroke-width="5" d="M29,898c8,-13 7,-14 12,-29 "/><path stroke-width="4" d="M41,869c7,-24 6,-24 11,-49 12,-59 11,-59 23,-119 5,-24 6,-24 10,-49 3,-15 3,-15 4,-30 0,-7 0,-9 -2,-13 "/><path stroke-width="6" d="M87,609c-1,-2 -4,-2 -6,0 "/><path stroke-width="5" d="M81,609c-12,19 -13,20 -21,41 "/><path stroke-width="4" d="M60,650c-5,13 -6,14 -6,28 -2,25 -2,26 2,50 1,9 3,9 8,16 4,6 4,7 11,10 "/><path stroke-width="5" d="M75,754c5,3 6,1 12,2 5,0 6,-2 10,0 6,3 5,4 10,10 8,11 6,13 16,23 "/><path stroke-width="4" d="M123,789c25,28 24,38 54,54 12,6 20,-1 30,-10 "/><path stroke-width="5" d="M207,833c6,-6 2,-10 3,-19 2,-13 0,-17 3,-26 "/><path stroke-width="6" d="M213,788c1,-2 3,2 4,4 "/><path stroke-width="5" d="M217,792c15,21 11,24 28,41 "/><path stroke-width="4" d="M245,833c14,14 16,14 34,22 "/><path stroke-width="5" d="M279,855c6,3 7,0 13,0 "/><path stroke-width="6" d="M292,855c9,1 11,-2 19,1 5,3 4,5 9,10 "/><path stroke-width="5" d="M320,866c16,21 15,23 33,42 "/><path stroke-width="4" d="M353,908c8,8 10,9 20,14 "/><path stroke-width="6" d="M373,922c3,1 3,-1 7,-2 "/><path stroke-width="7" d="M380,920c5,-1 6,-2 11,-1 "/><path stroke-width="6" d="M391,919c8,1 8,2 16,6 "/><path stroke-width="5" d="M407,925c22,10 21,12 43,21 5,2 9,4 11,1 4,-8 4,-12 2,-23 "/><path stroke-width="4" d="M463,924c-3,-20 -4,-21 -12,-40 -33,-74 -42,-71 -71,-147 -32,-84 -28,-86 -51,-173 -11,-39 -7,-41 -18,-80 "/><path stroke-width="5" d="M311,484c-1,-6 -3,-4 -8,-9 "/><path stroke-width="6" d="M303,475c-3,-3 -5,-5 -7,-6 "/><path stroke-width="7" d="M296,469c-1,0 1,2 2,4 2,5 1,5 4,9 "/><path stroke-width="5" d="M302,482c17,24 16,25 35,47 "/><path stroke-width="4" d="M337,529c12,14 12,16 27,25 27,16 29,18 57,24 12,3 16,1 24,-7 24,-26 20,-31 40,-62 "/><path stroke-width="6" d="M535,504c0,0 0,0 0,0 "/></g></svg>