<?xml version="1.0" encoding="UTF-8" standalone="no"?>
<svg xmlns="http://www.w3.org/2000/svg" version="1.2" baseProfile="tiny" height="1850" width="1080"><g stroke-linejoin="round" stroke-linecap="round" fill="none" stroke="black"><path stroke-width="18" d="M265,916c0,0 0,0 0,0 "/><path stroke-width="21" d="M265,916c0,0 0,0 0,0 "/><path stroke-width="19" d="M265,916c5,3 4,4 9,6 "/><path stroke-width="13" d="M274,922c23,8 23,15 48,14 "/><path stroke-width="9" d="M322,936c50,-1 58,8 102,-17 100,-57 101,-65 185,-145 35,-34 38,-39 53,-84 11,-33 1,-37 -1,-74 "/><path stroke-width="12" d="M661,616c0,-5 -1,-4 -3,-9 "/><path stroke-width="17" d="M658,607c0,0 0,0 0,0 "/><path stroke-width="14" d="M658,607c5,13 5,13 10,26 "/><path stroke-width="9" d="M668,633c6,16 6,16 11,31 5,15 8,15 10,31 2,15 8,21 -1,31 -17,18 -24,17 -50,25 -86,23 -89,16 -176,37 -28,6 -30,3 -56,16 -30,15 -37,13 -58,38 -15,18 -16,25 -14,49 2,23 4,28 23,45 52,48 57,45 119,84 30,20 32,16 64,33 38,20 38,20 76,41 "/><path stroke-width="10" d="M616,1094c10,6 10,7 21,14 "/><path stroke-width="14" d="M637,1108c0,0 0,0 1,0 "/><path stroke-width="19" d="M638,1108c1,0 1,0 1,1 1,1 0,1 0,3 0,1 0,1 -1,2 "/><path stroke-width="18" d="M638,1114c-1,2 -1,2 -2,5 0,2 -1,2 0,4 "/><path stroke-width="16" d="M636,1123c3,5 4,6 9,8 "/><path stroke-width="12" d="M645,1131c6,3 7,2 14,3 "/></g></svg>