<?xml version="1.0" encoding="UTF-8" standalone="no"?>
<svg xmlns="http://www.w3.org/2000/svg" version="1.2" baseProfile="tiny" height="1850" width="1080"><g stroke-linejoin="round" stroke-linecap="round" fill="none" stroke="black"><path stroke-width="18" d="M425,972c0,0 0,0 0,0 "/><path stroke-width="21" d="M425,972c0,0 0,0 0,0 0,0 0,0 0,0 "/><path stroke-width="16" d="M425,972c0,-8 -1,-8 0,-15 "/><path stroke-width="10" d="M425,957c1,-13 1,-13 4,-25 2,-11 2,-11 7,-21 4,-9 4,-9 11,-17 "/><path stroke-width="9" d="M447,894c8,-10 7,-11 18,-17 12,-8 12,-9 26,-11 16,-2 17,-3 32,3 15,5 17,6 28,18 15,18 17,19 24,41 9,30 8,32 9,64 0,37 -2,37 -7,75 -5,37 -5,37 -13,73 -6,30 -6,30 -15,59 -7,24 -8,24 -17,46 -6,14 -6,14 -14,27 -6,10 -6,11 -15,19 -10,9 -9,11 -21,15 -17,5 -19,5 -37,2 -24,-3 -26,-3 -47,-14 -28,-13 -30,-14 -52,-35 -20,-20 -18,-22 -32,-47 -16,-27 -16,-28 -27,-58 -11,-27 -12,-27 -17,-56 -6,-33 -3,-34 -5,-68 "/><path stroke-width="10" d="M265,1030c0,-2 0,-2 0,-4 "/></g></svg>