<?xml version="1.0" encoding="UTF-8" standalone="no"?>
<svg xmlns="http://www.w3.org/2000/svg" version="1.2" baseProfile="tiny" height="1850" width="1080"><g stroke-linejoin="round" stroke-linecap="round" fill="none" stroke="black"><path stroke-width="18" d="M457,1372c0,0 0,0 0,0 "/><path stroke-width="15" d="M457,1372c-8,-37 -12,-36 -17,-73 "/><path stroke-width="9" d="M440,1299c-6,-50 -9,-51 -3,-102 15,-137 14,-138 44,-273 17,-81 23,-80 51,-158 25,-69 25,-69 55,-136 27,-59 28,-59 57,-116 16,-31 18,-30 34,-61 7,-13 6,-13 11,-27 "/><path stroke-width="10" d="M689,426c2,-6 4,-7 3,-12 "/><path stroke-width="13" d="M692,414c-1,-3 -2,-6 -5,-5 "/><path stroke-width="12" d="M687,409c-23,8 -26,7 -46,23 "/><path stroke-width="9" d="M641,432c-43,34 -43,36 -81,77 -40,43 -39,45 -75,92 -40,53 -40,52 -77,107 -28,42 -27,43 -53,87 -21,35 -21,35 -40,71 -11,19 -11,20 -21,40 -3,7 -3,7 -7,14 "/><path stroke-width="13" d="M287,920c0,1 -2,3 -1,2 16,-13 18,-14 35,-30 "/><path stroke-width="9" d="M321,892c40,-40 38,-42 79,-82 44,-43 42,-46 89,-84 36,-31 38,-30 79,-54 28,-16 28,-17 59,-28 16,-5 18,-6 34,-3 12,2 17,2 23,13 10,18 11,22 11,45 -2,40 -5,41 -15,81 -12,47 -14,47 -28,93 -13,39 -14,39 -27,78 -9,26 -9,26 -17,52 -4,14 -3,14 -6,29 "/><path stroke-width="10" d="M602,1032c-1,5 -3,8 0,10 "/><path stroke-width="11" d="M602,1042c6,5 11,7 20,3 "/><path stroke-width="9" d="M622,1045c34,-15 35,-18 66,-42 38,-29 35,-32 71,-63 33,-31 34,-29 66,-61 29,-29 28,-30 54,-62 18,-21 17,-22 33,-45 6,-7 6,-7 11,-15 "/><path stroke-width="12" d="M923,757c1,-2 2,-5 0,-5 -25,4 -30,1 -55,13 "/><path stroke-width="9" d="M868,765c-55,26 -53,31 -105,63 -55,34 -54,37 -110,70 -51,30 -51,30 -105,56 -40,20 -40,21 -83,35 -34,12 -35,11 -71,17 -25,5 -26,3 -52,5 -17,1 -17,0 -34,0 -11,0 -11,0 -21,-1 "/><path stroke-width="11" d="M287,1010c-4,0 -4,0 -9,-1 "/><path stroke-width="15" d="M278,1009c-1,0 -2,1 -3,0 "/><path stroke-width="18" d="M275,1009c-1,0 -1,-1 -1,-2 "/><path stroke-width="14" d="M274,1007c11,-22 10,-24 24,-45 "/><path stroke-width="9" d="M298,962c23,-32 24,-32 50,-62 29,-32 30,-31 61,-61 33,-29 33,-29 67,-56 31,-24 31,-24 63,-47 28,-19 27,-22 58,-37 17,-8 22,-14 37,-8 15,6 22,13 24,32 8,58 5,62 -3,123 -6,53 -10,53 -25,106 -11,40 -11,40 -27,78 -13,33 -14,33 -30,65 -10,21 -11,20 -22,41 -7,13 -7,13 -15,27 "/><path stroke-width="10" d="M536,1163c-4,5 -5,5 -9,10 "/><path stroke-width="14" d="M527,1173c0,2 0,2 -1,3 "/><path stroke-width="19" d="M526,1176c0,0 0,0 0,0 "/><path stroke-width="15" d="M526,1176c33,-17 33,-17 66,-33 "/><path stroke-width="9" d="M592,1143c45,-23 46,-22 90,-45 42,-22 42,-23 83,-47 32,-19 32,-19 65,-38 "/><path stroke-width="10" d="M830,1013c2,-1 2,-1 4,-3 "/></g></svg>