<?xml version="1.0" encoding="UTF-8" standalone="no"?>
<svg xmlns="http://www.w3.org/2000/svg" version="1.2" baseProfile="tiny" height="1850" width="1080"><g stroke-linejoin="round" stroke-linecap="round" fill="none" stroke="black"><path stroke-width="18" d="M403,1546c0,0 0,0 0,0 "/><path stroke-width="21" d="M403,1546c0,0 0,0 0,0 "/><path stroke-width="16" d="M403,1546c6,-10 7,-10 13,-20 "/><path stroke-width="10" d="M416,1526c6,-12 7,-12 11,-25 "/><path stroke-width="9" d="M427,1501c15,-41 18,-41 27,-83 9,-45 9,-46 11,-93 1,-50 -1,-51 -4,-101 -3,-43 -5,-43 -8,-86 -3,-33 -4,-33 -6,-65 -1,-30 0,-30 -2,-60 -1,-25 -1,-25 -3,-49 -1,-15 0,-15 -3,-29 "/><path stroke-width="10" d="M439,935c-1,-7 -1,-7 -4,-13 "/><path stroke-width="12" d="M435,922c-2,-5 -1,-7 -6,-9 "/><path stroke-width="11" d="M429,913c-12,-7 -13,-8 -27,-9 "/><path stroke-width="9" d="M402,904c-24,-2 -25,-2 -49,3 -31,7 -33,6 -60,21 -25,14 -28,14 -46,37 -19,23 -19,25 -29,54 -11,31 -10,33 -13,66 -5,43 -3,43 -3,86 0,54 3,54 4,109 1,46 1,46 0,93 0,35 -1,35 -2,71 0,24 -1,24 0,48 1,17 -1,18 5,34 4,14 5,16 15,27 14,14 15,16 34,24 24,10 26,11 52,11 37,1 37,-2 74,-10 39,-9 40,-9 78,-23 38,-14 38,-15 74,-33 34,-17 34,-16 66,-36 30,-20 31,-19 58,-42 22,-19 22,-20 39,-43 15,-19 18,-19 24,-43 8,-38 10,-41 5,-81 -7,-54 -8,-56 -31,-106 -31,-67 -33,-68 -78,-128 -41,-53 -41,-55 -93,-98 -49,-40 -53,-38 -109,-67 -58,-31 -59,-31 -121,-53 -64,-23 -66,-19 -132,-37 -7,-1 -7,-1 -13,-2 "/></g></svg>