<?xml version="1.0" encoding="UTF-8" standalone="no"?>
<svg xmlns="http://www.w3.org/2000/svg" version="1.2" baseProfile="tiny" height="1048" width="800"><g stroke-linejoin="round" stroke-linecap="round" fill="none" stroke="black"><path stroke-width="8" d="M231,573c0,0 0,0 0,0 "/><path stroke-width="7" d="M231,573c17,-24 13,-27 34,-49 "/><path stroke-width="4" d="M265,524c34,-36 37,-34 76,-65 39,-31 40,-30 80,-60 23,-17 23,-18 45,-34 "/><path stroke-width="6" d="M466,365c0,-1 1,0 0,1 -23,15 -25,14 -48,31 "/><path stroke-width="4" d="M418,397c-78,58 -80,56 -154,119 -34,28 -34,28 -62,61 -23,27 -33,34 -39,59 -2,9 10,7 21,10 59,14 59,15 119,24 40,6 40,7 80,4 65,-5 67,-4 129,-21 24,-6 25,-8 44,-24 19,-15 34,-29 32,-36 -2,-6 -21,1 -38,9 -34,16 -33,19 -65,38 -61,38 -59,42 -122,77 -29,16 -39,25 -62,27 -8,0 -2,-13 2,-23 6,-23 8,-22 17,-43 15,-35 17,-34 31,-69 33,-80 35,-80 63,-162 18,-50 18,-51 28,-103 2,-11 3,-14 -3,-21 "/><path stroke-width="5" d="M439,323c-6,-8 -10,-10 -21,-10 "/><path stroke-width="4" d="M418,313c-19,1 -21,3 -39,13 -61,32 -64,30 -119,71 -37,28 -38,33 -65,68 "/><path stroke-width="5" d="M195,465c-3,3 0,6 5,8 23,8 25,9 51,12 "/><path stroke-width="4" d="M251,485c34,3 34,2 68,1 80,-4 80,-6 160,-12 27,-2 27,-5 54,-4 14,0 27,-1 27,6 -1,11 -14,14 -28,29 -67,71 -69,70 -133,143 -31,36 -37,34 -58,76 -25,49 -30,54 -34,106 -2,20 4,25 21,37 49,35 55,30 112,56 8,4 8,3 16,5 "/><path stroke-width="4" d="M251,485c34,3 34,2 68,1 80,-4 80,-6 160,-12 27,-2 27,-5 54,-4 14,0 27,-1 27,6 -1,11 -14,14 -28,29 -67,71 -69,70 -133,143 -31,36 -37,34 -58,76 -25,49 -30,54 -34,106 -2,20 4,25 21,37 49,35 55,30 112,56 8,4 8,3 16,5 "/><path stroke-width="4" d="M251,485c34,3 34,2 68,1 80,-4 80,-6 160,-12 27,-2 27,-5 54,-4 14,0 27,-1 27,6 -1,11 -14,14 -28,29 -67,71 -69,70 -133,143 -31,36 -37,34 -58,76 -25,49 -30,54 -34,106 -2,20 4,25 21,37 49,35 55,30 112,56 8,4 8,3 16,5 "/><path stroke-width="6" d="M787,291c0,0 0,0 0,0 "/><path stroke-width="9" d="M787,291c0,0 0,0 0,0 0,0 0,0 0,0 0,0 0,0 0,0 "/><path stroke-width="7" d="M787,291c-6,1 -6,1 -12,2 "/><path stroke-width="6" d="M775,293c-1,1 -1,1 -3,2 "/><path stroke-width="7" d="M772,295c-1,1 -1,1 -3,2 "/><path stroke-width="8" d="M769,297c-1,0 -1,0 -2,0 0,0 0,1 0,1 "/><path stroke-width="9" d="M767,298c-1,0 -1,0 -2,0 0,0 0,0 0,0 0,0 0,0 0,1 "/><path stroke-width="8" d="M765,299c0,1 1,1 0,2 "/><path stroke-width="7" d="M765,301c-1,1 -1,1 -2,2 "/><path stroke-width="8" d="M763,303c-1,0 -1,0 -1,0 0,2 0,2 0,4 0,0 0,0 0,0 "/><path stroke-width="9" d="M762,307c0,0 0,0 0,0 -1,0 -1,0 -1,0 "/><path stroke-width="8" d="M761,307c-1,0 -2,-1 -3,0 "/><path stroke-width="7" d="M758,307c-2,1 -2,1 -4,3 -2,2 -2,2 -4,4 -2,1 -2,2 -5,3 "/><path stroke-width="8" d="M745,317c-1,0 -2,1 -2,0 -2,-3 -2,-4 -3,-7 "/><path stroke-width="7" d="M740,310c-1,-2 0,-3 -1,-5 -1,-3 -2,-2 -3,-5 "/><path stroke-width="8" d="M736,300c0,-1 0,-2 0,-2 "/><path stroke-width="9" d="M736,298c0,1 1,1 1,3 "/><path stroke-width="8" d="M737,301c0,1 0,1 0,2 0,3 0,4 0,5 "/><path stroke-width="9" d="M737,308c0,0 0,-1 0,-2 0,-1 0,-1 0,-1 0,0 0,1 0,2 0,0 -1,-1 -1,0 "/><path stroke-width="8" d="M736,307c0,1 0,1 0,2 0,1 0,1 0,2 0,1 0,1 0,2 0,1 0,1 1,2 "/><path stroke-width="9" d="M737,315c0,0 1,0 1,0 "/><path stroke-width="8" d="M738,315c-1,-1 -2,-2 -2,-4 0,-3 0,-3 0,-5 "/><path stroke-width="7" d="M736,306c0,-2 0,-2 0,-3 "/><path stroke-width="8" d="M736,303c1,-1 2,-3 3,-2 1,0 0,2 0,3 1,2 2,2 2,3 -1,2 -2,2 -3,4 -1,1 -1,0 -1,1 "/><path stroke-width="9" d="M737,312c-1,1 -1,1 -1,1 0,1 0,1 -1,2 0,0 0,0 -1,1 "/><path stroke-width="8" d="M734,316c-1,0 -1,0 -1,1 -1,1 -1,1 -1,1 "/><path stroke-width="9" d="M732,318c-1,0 -1,0 -1,1 0,0 -1,0 -1,1 "/><path stroke-width="8" d="M730,320c0,1 0,1 0,1 "/><path stroke-width="9" d="M730,321c-1,0 -1,0 -2,0 "/><path stroke-width="8" d="M728,321c-1,0 -1,0 -2,1 -1,0 -2,-1 -2,0 0,0 1,1 1,2 0,1 1,2 0,3 0,1 -1,1 -2,2 -1,0 -1,0 -1,1 0,1 1,2 0,2 -3,2 -4,2 -8,4 0,0 -1,0 0,0 0,1 2,2 2,2 0,0 -3,-1 -3,-2 0,-1 1,-1 2,-2 2,0 2,1 3,1 0,0 0,-1 -1,-1 -1,-1 -1,-1 -2,-1 "/><path stroke-width="7" d="M715,333c-4,-1 -4,0 -8,0 -5,1 -4,1 -9,2 -1,0 -1,0 -3,1 "/><path stroke-width="8" d="M695,336c-2,1 -2,1 -3,2 -1,1 -2,1 -1,1 1,2 2,3 5,5 1,0 1,0 2,1 2,0 2,1 3,1 1,0 0,-1 1,-1 1,-1 2,0 3,0 1,0 2,0 2,0 "/><path stroke-width="9" d="M707,345c0,-1 -1,-2 -1,-3 0,-1 1,-1 1,-1 1,-1 0,-2 1,-3 1,0 1,-1 2,-1 "/><path stroke-width="8" d="M710,337c0,0 1,1 0,2 "/><path stroke-width="9" d="M710,339c0,0 -1,-1 -1,-1 "/><path stroke-width="8" d="M709,338c0,-1 0,-2 0,-2 0,0 0,1 1,2 1,0 1,0 1,1 "/><path stroke-width="9" d="M711,339c0,0 0,-1 0,0 0,0 1,1 1,1 0,0 -1,-1 -1,-1 0,-1 0,-1 0,-1 0,0 0,0 0,1 1,0 1,0 2,0 0,0 0,0 0,0 "/><path stroke-width="8" d="M713,339c-1,-2 -1,-3 -2,-4 -1,-1 -1,1 -2,1 -1,0 -1,-1 -1,-1 "/><path stroke-width="9" d="M708,335c-1,-1 -1,0 -1,0 -1,-1 0,-1 -1,-1 "/><path stroke-width="8" d="M706,334c-1,-1 -1,-1 -2,-1 -1,-1 -1,-1 -1,-2 1,-3 1,-3 2,-5 2,-2 3,-1 3,-3 1,-1 0,-1 -1,-2 -1,-2 -1,-2 -2,-3 -1,-2 -1,-2 -2,-3 "/><path stroke-width="7" d="M703,315c-2,-3 -2,-3 -4,-6 "/><path stroke-width="8" d="M699,309c-1,-1 -2,-1 -2,-1 0,-1 1,0 2,0 1,0 1,0 2,0 1,0 3,0 3,0 0,0 -2,-1 -4,0 -1,0 -1,0 -3,1 -1,1 -2,0 -2,1 0,2 2,2 2,4 1,2 0,2 0,4 0,1 1,1 1,2 1,3 1,3 2,5 0,1 0,1 2,2 "/><path stroke-width="7" d="M702,327c4,3 5,3 9,6 "/><path stroke-width="6" d="M711,333c7,5 6,5 13,11 "/><path stroke-width="7" d="M724,344c1,1 1,1 2,2 "/><path stroke-width="8" d="M726,346c1,1 2,1 2,1 0,0 0,-1 -1,-1 -1,-2 -2,-1 -3,-3 -1,-1 -1,-1 -2,-2 -1,-2 -1,-2 -3,-3 -2,-1 -2,-1 -4,-1 -1,-1 -1,0 -1,0 "/><path stroke-width="9" d="M714,337c-1,-1 -1,-1 -3,-1 "/><path stroke-width="8" d="M711,336c-1,-1 -2,0 -2,0 0,-1 1,-1 1,-1 1,-1 1,-1 2,-2 0,0 0,0 1,-1 "/><path stroke-width="9" d="M713,332c0,0 0,0 0,0 0,-1 0,-1 0,-2 "/><path stroke-width="8" d="M713,330c1,0 1,-1 2,-1 0,0 0,1 1,2 1,0 2,0 3,1 1,0 1,0 1,1 2,0 2,0 3,1 0,0 -1,0 -1,1 "/><path stroke-width="9" d="M722,335c0,0 1,0 1,0 0,1 0,1 0,1 0,0 1,0 1,1 "/><path stroke-width="8" d="M724,337c1,0 1,1 2,2 0,0 1,0 1,1 1,0 1,0 1,1 1,1 1,1 2,2 2,3 4,4 5,5 "/><path stroke-width="7" d="M735,348c1,0 -1,-2 -2,-4 "/><path stroke-width="8" d="M733,344c0,-2 0,-3 0,-3 0,-1 0,0 0,1 "/><path stroke-width="9" d="M733,342c0,1 0,1 0,2 "/><path stroke-width="8" d="M733,344c0,2 1,4 1,5 0,0 0,-1 -1,-2 -1,-2 -1,-2 -2,-4 "/><path stroke-width="7" d="M731,343c-1,-2 -1,-2 -3,-4 -4,-6 -4,-6 -8,-11 "/><path stroke-width="6" d="M720,328c-3,-4 -4,-3 -7,-7 "/><path stroke-width="7" d="M713,321c-2,-3 -2,-3 -5,-6 -3,-3 -3,-3 -6,-5 -1,-1 -2,-2 -2,-2 "/><path stroke-width="8" d="M700,308c0,-1 1,-1 2,-1 1,-1 2,-1 3,0 3,1 3,1 6,2 1,1 1,1 3,2 2,1 2,1 4,2 1,1 1,1 3,3 1,1 1,0 2,2 2,3 1,3 3,6 "/><path stroke-width="7" d="M726,324c1,3 1,2 2,5 1,3 0,6 0,7 "/><path stroke-width="8" d="M728,336c0,0 0,-3 -1,-4 0,0 -1,1 -2,1 0,0 0,0 -1,0 -3,0 -3,0 -7,0 "/><path stroke-width="7" d="M717,333c-1,0 -1,0 -3,0 "/><path stroke-width="8" d="M714,333c-1,0 -1,0 -3,0 -1,0 -2,0 -2,0 "/><path stroke-width="9" d="M709,333c0,-1 1,-1 1,-2 "/><path stroke-width="8" d="M710,331c1,-2 0,-2 1,-3 0,-1 1,-1 1,-1 "/><path stroke-width="9" d="M712,327c0,0 -1,1 -1,2 "/><path stroke-width="8" d="M711,329c1,1 2,0 3,1 0,1 1,1 1,2 "/><path stroke-width="9" d="M715,332c0,0 -1,-1 -1,0 1,0 1,0 2,1 "/><path stroke-width="8" d="M716,333c0,1 1,1 1,1 -3,0 -4,-1 -7,-1 "/><path stroke-width="9" d="M710,333c-1,-1 -2,-1 -1,0 "/><path stroke-width="8" d="M709,333c0,0 1,0 3,1 1,1 2,2 3,2 0,0 -1,0 -2,0 -1,-1 -1,-1 -2,-3 -1,0 -1,-1 -1,-1 0,0 0,1 1,2 1,1 2,0 3,1 1,1 1,1 2,1 1,1 1,2 3,3 0,0 1,0 1,0 "/><path stroke-width="9" d="M720,339c0,0 0,0 -1,0 "/><path stroke-width="8" d="M719,339c-1,-1 -1,-1 -3,-2 -1,0 -1,0 -2,0 "/><path stroke-width="9" d="M714,337c0,0 -1,-1 -1,0 0,0 0,0 1,1 "/><path stroke-width="8" d="M714,338c2,1 2,1 3,1 1,1 1,0 2,1 1,0 1,0 2,0 1,1 2,1 2,1 -1,0 -2,-1 -4,-2 -1,-1 -3,-1 -3,0 0,0 2,0 4,1 2,0 3,1 3,1 0,0 -1,-1 -3,-1 -1,-1 -1,0 -3,0 0,0 -1,-1 0,0 "/><path stroke-width="9" d="M717,340c1,1 3,2 3,3 0,0 -2,-1 -4,-1 "/><path stroke-width="8" d="M716,342c-2,-1 -2,-1 -4,-2 -1,0 0,0 -1,0 "/><path stroke-width="9" d="M711,340c0,-1 -1,0 0,0 0,0 1,-1 2,0 "/><path stroke-width="8" d="M713,340c2,0 2,0 4,1 "/><path stroke-width="7" d="M717,341c2,1 2,1 4,1 "/><path stroke-width="8" d="M721,342c1,1 1,2 1,1 -3,0 -4,0 -8,-1 "/><path stroke-width="7" d="M714,342c-5,-1 -5,-2 -9,-3 "/><path stroke-width="8" d="M705,339c-1,0 -2,-1 -1,0 "/><path stroke-width="7" d="M704,339c5,1 6,1 12,3 3,1 3,1 6,3 2,1 3,3 4,3 "/><path stroke-width="8" d="M726,348c0,0 -1,-1 -3,-2 -1,-1 -1,-1 -3,-2 "/><path stroke-width="7" d="M720,344c-4,-2 -4,-1 -7,-3 "/><path stroke-width="8" d="M713,341c-2,0 -3,-1 -3,-1 1,0 2,1 4,2 1,0 1,0 3,1 1,0 1,0 1,0 2,1 2,2 3,2 0,0 -1,0 -2,0 -1,-1 -1,-1 -2,-2 0,-1 -1,-1 0,-1 "/><path stroke-width="9" d="M717,342c1,0 2,0 4,0 2,-1 2,-1 4,-1 1,1 1,1 1,2 "/><path stroke-width="8" d="M726,343c1,1 1,1 2,2 0,1 1,3 1,3 0,0 0,-1 -1,-2 0,-1 0,-1 0,-2 0,0 -1,-1 -1,-1 1,1 1,2 2,3 1,1 1,1 1,1 "/><path stroke-width="9" d="M730,347c0,0 -1,0 -1,0 0,-1 0,-1 -1,-2 "/><path stroke-width="8" d="M728,345c0,-1 0,-1 0,-2 -1,-1 -1,-1 -1,-2 -1,-3 -1,-4 -2,-6 0,-1 0,1 1,1 0,2 1,2 1,3 0,0 0,0 0,1 "/><path stroke-width="9" d="M727,340c0,0 1,0 1,1 "/><path stroke-width="8" d="M728,341c0,1 0,1 0,2 1,0 1,0 2,1 2,1 1,1 3,3 0,1 1,2 1,2 0,-1 -2,-2 -3,-3 "/><path stroke-width="9" d="M731,346c0,-1 0,-1 0,-2 0,0 0,0 -1,-1 "/><path stroke-width="8" d="M730,343c0,0 -1,0 -1,-1 0,0 0,-1 0,-1 0,1 0,2 1,4 0,0 1,1 1,1 0,-1 0,-2 -1,-3 -1,-1 -1,-1 -1,-2 -1,0 -1,1 -1,1 "/><path stroke-width="9" d="M728,342c0,-1 0,-2 0,-1 "/><path stroke-width="8" d="M728,341c0,0 0,1 1,1 0,1 0,1 1,1 "/><path stroke-width="9" d="M730,343c0,0 0,-1 0,0 1,1 1,2 1,3 0,0 -1,-1 -1,-1 0,-1 0,-1 0,-2 "/><path stroke-width="8" d="M730,343c0,0 0,-1 0,-1 "/><path stroke-width="9" d="M730,342c0,0 0,0 -1,0 0,0 0,0 0,0 1,0 1,0 2,1 "/><path stroke-width="8" d="M731,343c0,0 0,1 0,2 0,0 1,0 1,1 "/><path stroke-width="9" d="M732,346c0,0 -1,0 -1,0 0,-1 0,-1 0,-2 0,-1 -1,-1 -1,-2 "/><path stroke-width="8" d="M730,342c-1,-1 0,-1 -1,-2 0,0 -1,0 -1,0 0,-1 0,-3 0,-3 0,0 0,1 0,2 "/><path stroke-width="9" d="M728,339c0,0 0,0 0,1 0,0 1,0 1,0 "/><path stroke-width="8" d="M729,340c-1,-2 -2,-4 -2,-5 0,0 1,3 2,4 0,0 -1,-1 -1,-2 0,-1 0,-2 0,-2 0,0 0,1 0,1 "/><path stroke-width="9" d="M728,336c0,0 1,-1 1,0 0,0 -1,0 -1,1 0,0 0,0 0,1 0,0 0,0 0,1 0,0 0,1 0,1 "/><path stroke-width="8" d="M728,340c0,-1 0,-2 0,-3 0,-1 -1,-1 -1,-1 "/><path stroke-width="9" d="M727,336c0,0 0,0 0,1 0,0 1,0 1,1 1,0 0,1 0,1 "/><path stroke-width="8" d="M728,339c1,2 1,2 3,3 0,1 1,2 1,2 0,0 -1,-2 -1,-2 "/><path stroke-width="9" d="M731,342c0,-1 0,-1 0,0 "/><path stroke-width="8" d="M731,342c0,1 0,1 0,2 0,0 1,0 1,1 "/><path stroke-width="9" d="M732,345c0,0 1,0 1,0 "/><path stroke-width="8" d="M733,345c-1,-1 -1,-1 -2,-2 0,-1 0,-1 0,-1 "/><path stroke-width="9" d="M731,342c0,-1 -1,0 -1,0 0,-1 0,-1 0,-1 0,0 0,1 0,1 "/><path stroke-width="8" d="M730,342c-1,-2 -1,-3 -2,-5 0,-1 -1,-3 -1,-2 0,0 1,1 2,3 1,2 0,2 1,4 1,1 1,1 2,2 0,1 0,0 0,0 "/><path stroke-width="9" d="M732,344c-1,0 -1,0 -1,0 0,-1 0,-1 0,-1 0,-2 0,-2 -1,-3 "/><path stroke-width="8" d="M730,340c0,-2 -1,-3 -1,-3 0,-1 1,0 1,1 0,1 0,1 0,3 1,1 1,1 2,3 0,1 1,2 1,2 -1,-1 -1,-2 -2,-3 0,0 0,-1 1,0 "/><path stroke-width="9" d="M732,343c0,0 0,1 0,1 0,0 -1,-1 -1,-1 0,-1 1,0 1,1 "/><path stroke-width="8" d="M732,344c1,0 1,0 1,1 1,1 1,1 1,1 "/><path stroke-width="9" d="M734,346c0,0 0,0 0,0 0,-1 -1,-1 -1,-2 -1,0 0,-1 0,-1 0,-1 0,-1 0,-1 0,0 -1,0 -1,1 0,0 1,0 1,1 "/><path stroke-width="8" d="M733,344c1,1 1,1 1,2 0,0 0,0 0,0 "/><path stroke-width="9" d="M734,346c-1,-1 -1,-1 -1,-2 -1,-1 0,-2 0,-2 0,0 0,1 0,2 0,1 0,1 0,1 0,0 0,-1 0,-1 0,-1 0,-1 0,-2 "/><path stroke-width="8" d="M733,342c-1,-1 -1,-1 -2,-2 0,-1 0,-1 0,-1 -1,-1 -1,-2 -1,-2 1,0 1,1 2,1 "/><path stroke-width="9" d="M732,338c0,1 -1,1 -1,1 "/><path stroke-width="8" d="M731,339c0,2 0,2 1,3 0,0 0,0 1,1 "/><path stroke-width="9" d="M733,343c0,0 1,0 1,0 -1,-2 -2,-2 -3,-3 "/><path stroke-width="8" d="M731,340c-1,-2 -1,-4 -1,-4 0,0 1,1 1,2 0,1 0,1 0,1 0,2 0,2 1,3 1,1 1,1 2,1 "/><path stroke-width="9" d="M734,343c0,0 -1,-1 -1,-1 0,0 0,1 0,1 0,1 0,1 1,1 "/><path stroke-width="8" d="M734,344c0,1 0,1 1,2 0,0 1,0 1,0 "/><path stroke-width="9" d="M736,346c-1,0 -1,-1 -2,-2 0,0 -1,0 -1,-1 0,-1 0,-1 0,-1 0,-1 0,-2 0,-1 0,0 0,0 0,1 0,0 0,0 0,1 0,1 0,1 0,1 0,1 0,1 0,1 0,0 0,-1 0,-2 0,0 0,-1 0,-1 0,0 0,0 0,1 0,0 0,0 0,1 "/><path stroke-width="8" d="M733,344c1,1 1,1 2,1 0,1 1,1 1,1 "/><path stroke-width="9" d="M736,346c-1,0 -1,-1 -2,-1 0,-1 0,-1 0,-1 0,-1 -1,-1 -1,-1 0,-1 0,-1 0,-1 0,0 0,1 0,1 0,0 0,-2 0,-1 0,0 1,1 1,2 "/><path stroke-width="8" d="M734,344c1,1 1,1 1,2 0,0 -1,-1 -1,-1 "/><path stroke-width="9" d="M734,345c0,-1 0,-1 0,-1 0,-1 0,-2 0,-1 0,0 0,1 1,1 "/><path stroke-width="8" d="M735,344c0,1 1,2 2,2 "/><path stroke-width="9" d="M737,346c0,0 -1,0 -2,-1 "/><path stroke-width="8" d="M735,345c-1,-2 0,-2 -1,-4 0,-1 -1,-2 -1,-3 0,0 1,1 1,1 0,1 0,2 0,3 0,1 0,1 0,2 1,2 1,2 2,4 0,1 -1,1 -1,2 0,2 0,4 0,4 0,0 0,-1 -1,-2 -1,-2 -1,-3 -2,-4 "/><path stroke-width="7" d="M732,348c-1,-2 -2,-1 -4,-2 -3,-3 -2,-3 -5,-6 -2,-1 -2,0 -4,-1 -3,-2 -3,-2 -6,-4 -2,-1 -2,-1 -4,-2 "/><path stroke-width="8" d="M709,333c-2,-1 -2,-1 -4,-2 -1,0 -1,0 -2,0 0,0 -1,0 -1,0 "/><path stroke-width="9" d="M702,331c1,0 2,0 3,0 "/><path stroke-width="8" d="M705,331c2,0 2,-1 3,0 1,0 1,0 3,1 1,0 1,0 2,1 2,1 2,1 4,2 1,0 2,0 3,1 0,0 -1,0 -1,1 1,1 2,1 4,2 "/><path stroke-width="7" d="M723,339c2,2 2,1 4,3 "/><path stroke-width="8" d="M727,342c3,1 3,1 6,3 1,2 3,3 3,3 -2,1 -4,2 -7,0 "/><path stroke-width="7" d="M729,348c-4,-1 -3,-3 -7,-5 "/><path stroke-width="6" d="M722,343c-6,-4 -6,-3 -12,-7 "/><path stroke-width="7" d="M710,336c-2,0 -3,-1 -3,-1 2,1 4,2 8,3 4,1 4,1 8,3 3,2 3,2 5,5 2,1 1,1 3,3 "/><path stroke-width="8" d="M731,349c1,1 2,2 2,3 0,0 -1,-1 -2,-2 -1,-1 0,-1 -1,-2 -1,-1 -1,-1 -2,-2 -3,-2 -3,-2 -5,-4 -1,0 -1,0 -2,0 "/><path stroke-width="9" d="M721,342c0,0 1,0 1,0 "/><path stroke-width="8" d="M722,342c1,1 1,1 2,3 "/><path stroke-width="7" d="M724,345c2,1 2,1 3,3 1,1 2,1 2,2 "/><path stroke-width="8" d="M729,350c1,1 1,2 1,2 0,0 0,-2 -1,-3 -1,-2 -2,-2 -4,-4 -1,-2 -1,-2 -3,-3 -2,-2 -2,-2 -4,-3 -1,-1 0,-1 -1,-2 -2,-2 -2,-1 -4,-3 0,0 0,0 0,0 2,-1 2,-1 4,0 1,0 1,0 3,0 1,0 1,0 2,1 1,0 2,0 3,1 1,1 0,1 0,2 0,1 1,2 1,2 0,0 0,-1 -1,-2 "/><path stroke-width="9" d="M725,338c0,-1 0,-1 0,-1 0,0 0,1 0,2 0,0 1,1 1,1 0,-1 0,-2 -1,-2 0,-1 -1,-1 -1,0 "/><path stroke-width="8" d="M724,338c0,0 1,0 1,0 1,1 1,1 1,2 "/><path stroke-width="9" d="M726,340c0,1 0,1 0,1 0,1 1,0 1,1 0,0 0,0 0,0 "/><path stroke-width="8" d="M727,342c-1,-2 -1,-2 -1,-3 -1,-1 -1,-1 -1,-1 0,1 1,1 1,2 1,1 1,1 1,1 0,1 0,1 0,1 0,0 0,-1 0,-1 -1,-2 -1,-2 -2,-3 0,-1 0,-1 0,-1 0,1 1,1 1,2 0,1 0,1 0,1 "/><path stroke-width="9" d="M726,340c0,1 1,1 1,1 0,1 0,1 0,1 "/><path stroke-width="8" d="M727,342c1,2 1,2 2,4 1,1 2,1 2,2 0,0 -1,-1 -1,-2 -1,0 0,0 -1,-1 0,-1 -1,-1 0,-1 0,1 1,1 2,2 0,1 0,1 0,2 "/><path stroke-width="9" d="M731,348c0,0 0,0 0,0 0,-1 -1,-1 -1,-2 "/><path stroke-width="8" d="M730,346c0,0 0,0 0,-1 0,0 0,0 0,0 -1,-1 -2,-2 -2,-2 0,0 1,1 2,2 1,0 1,1 1,1 0,0 0,-1 -1,-1 -1,-1 0,-2 -1,-2 -2,-2 -2,-2 -5,-2 "/><path stroke-width="7" d="M724,341c-4,-1 -4,0 -8,0 -2,0 -2,1 -4,1 -4,-1 -4,-1 -8,-1 -1,-1 -1,0 -2,-1 "/><path stroke-width="8" d="M702,340c-2,-1 -3,-1 -4,-2 -1,0 0,0 0,0 2,0 2,0 5,1 1,0 1,0 2,0 1,0 1,0 1,0 1,0 2,0 2,0 0,-1 -1,-1 -2,-2 -1,0 -1,0 -1,-1 "/><path stroke-width="9" d="M705,336c0,0 0,-1 0,-1 -1,0 -2,0 -2,0 0,0 0,-1 1,0 "/><path stroke-width="8" d="M704,335c1,0 1,0 3,1 1,0 1,0 2,0 2,1 2,1 3,2 2,0 4,2 4,1 0,0 -2,-2 -3,-3 "/><path stroke-width="9" d="M713,336c-1,-2 -1,-3 -2,-4 "/><path stroke-width="8" d="M711,332c0,0 -1,1 -1,1 -3,0 -3,-1 -5,-1 "/><path stroke-width="9" d="M705,332c0,1 0,1 0,2 "/><path stroke-width="8" d="M705,334c1,1 3,1 3,1 0,1 -3,0 -3,1 0,0 3,2 3,2 0,0 -1,-1 -3,-2 -1,-1 0,-1 -1,-2 -1,0 -2,0 -2,1 "/><path stroke-width="9" d="M702,335c1,0 3,1 3,1 "/><path stroke-width="8" d="M705,336c0,0 -1,-1 -3,-1 -1,-1 -1,0 -2,0 -1,-1 0,-1 -1,-1 -1,-1 -1,-1 -2,-1 0,-1 -1,-1 0,0 "/><path stroke-width="9" d="M697,333c0,0 2,1 2,2 1,0 0,0 -1,0 "/><path stroke-width="8" d="M698,335c-1,-1 -1,-2 -3,-3 "/><path stroke-width="7" d="M695,332c-1,-1 -1,-1 -3,-2 "/><path stroke-width="8" d="M692,330c-1,0 -1,-1 -2,-1 0,0 1,1 1,2 "/><path stroke-width="9" d="M691,331c0,0 0,-1 0,-1 "/><path stroke-width="8" d="M691,330c0,-1 -1,-2 -1,-2 -1,0 -1,0 -1,1 "/><path stroke-width="9" d="M689,329c-1,0 -1,0 -1,0 -1,0 -1,0 -1,0 "/><path stroke-width="8" d="M687,329c-2,-1 -2,-1 -4,-1 "/><path stroke-width="7" d="M683,328c-2,-1 -1,-2 -3,-3 "/><path stroke-width="8" d="M680,325c-2,0 -4,0 -4,1 -1,0 2,2 2,2 1,-1 0,-2 0,-4 0,-1 0,-2 0,-1 "/><path stroke-width="9" d="M678,323c0,0 -1,1 -1,2 "/><path stroke-width="8" d="M677,325c0,1 1,3 0,3 -1,0 -2,-1 -3,-2 -1,0 -2,-1 -2,0 0,1 0,2 1,4 0,2 1,2 1,4 "/></g></svg>