<?xml version="1.0" encoding="UTF-8" standalone="no"?>
<svg xmlns="http://www.w3.org/2000/svg" version="1.2" baseProfile="tiny" height="1850" width="1080"><g stroke-linejoin="round" stroke-linecap="round" fill="none" stroke="black"><path stroke-width="18" d="M427,1371c0,0 0,0 0,0 "/><path stroke-width="16" d="M427,1371c-1,-10 -2,-10 -2,-20 "/><path stroke-width="10" d="M425,1351c0,-35 0,-35 2,-69 "/><path stroke-width="9" d="M427,1282c2,-52 -1,-52 8,-103 10,-65 12,-65 29,-127 20,-72 20,-72 44,-142 24,-69 26,-69 53,-138 24,-63 25,-62 51,-125 17,-43 17,-43 35,-85 15,-35 16,-34 30,-69 7,-20 7,-20 12,-41 1,-8 2,-8 1,-16 "/><path stroke-width="11" d="M690,436c0,-4 0,-9 -4,-8 -21,3 -25,4 -46,17 "/><path stroke-width="9" d="M640,445c-57,36 -57,37 -108,82 -51,45 -49,48 -95,98 -43,46 -43,46 -82,94 -32,39 -32,39 -60,80 -19,28 -19,28 -34,59 -8,16 -10,17 -13,34 -1,10 -2,13 4,21 7,11 9,14 23,17 35,6 38,7 75,0 48,-9 47,-15 95,-32 46,-17 47,-15 92,-35 39,-17 38,-20 75,-41 23,-12 23,-12 46,-26 11,-6 10,-6 21,-12 "/><path stroke-width="12" d="M679,784c2,-2 3,-4 4,-3 "/><path stroke-width="14" d="M683,781c1,2 1,5 -1,9 "/><path stroke-width="11" d="M682,790c-29,53 -29,54 -63,104 "/><path stroke-width="9" d="M619,894c-35,52 -40,49 -75,101 -27,38 -27,38 -48,79 -11,22 -13,23 -16,47 -3,21 -7,26 3,43 15,26 20,28 47,44 43,25 45,25 94,37 48,12 49,10 98,12 47,3 48,6 94,-1 34,-5 35,-7 66,-23 24,-13 26,-14 43,-35 14,-16 17,-19 18,-40 1,-18 1,-25 -13,-36 -22,-18 -29,-23 -59,-22 -59,2 -63,5 -119,29 -72,31 -69,39 -137,79 -66,39 -64,43 -132,78 -53,27 -54,28 -110,48 -44,15 -45,20 -91,23 -32,2 -35,0 -65,-13 -27,-12 -31,-12 -48,-35 -23,-30 -27,-33 -33,-70 -7,-49 -6,-53 6,-102 18,-72 20,-72 52,-140 36,-75 36,-76 83,-145 44,-64 47,-62 98,-121 41,-48 41,-49 87,-93 29,-28 30,-28 63,-52 12,-9 13,-8 27,-13 "/><path stroke-width="10" d="M552,573c6,-2 10,-5 13,-1 8,9 11,14 8,28 "/><path stroke-width="9" d="M573,600c-9,54 -11,56 -31,108 -26,70 -31,68 -60,137 -32,75 -34,74 -62,150 -25,68 -26,68 -44,138 -11,39 -11,40 -13,81 -1,22 -3,25 6,44 10,18 12,25 31,30 43,11 48,8 94,1 58,-8 58,-11 113,-30 54,-19 55,-19 104,-47 58,-34 55,-38 110,-77 5,-3 4,-3 9,-7 "/></g></svg>