<?xml version="1.0" encoding="UTF-8" standalone="no"?>
<svg xmlns="http://www.w3.org/2000/svg" version="1.2" baseProfile="tiny" height="1048" width="800"><g stroke-linejoin="round" stroke-linecap="round" fill="none" stroke="black"><path stroke-width="8" d="M231,573c0,0 0,0 0,0 "/><path stroke-width="7" d="M231,573c17,-24 13,-27 34,-49 "/><path stroke-width="4" d="M265,524c34,-36 37,-34 76,-65 39,-31 40,-30 80,-60 23,-17 23,-18 45,-34 "/><path stroke-width="6" d="M466,365c0,-1 1,0 0,1 -23,15 -25,14 -48,31 "/><path stroke-width="4" d="M418,397c-78,58 -80,56 -154,119 -34,28 -34,28 -62,61 -23,27 -33,34 -39,59 -2,9 10,7 21,10 59,14 59,15 119,24 40,6 40,7 80,4 65,-5 67,-4 129,-21 24,-6 25,-8 44,-24 19,-15 34,-29 32,-36 -2,-6 -21,1 -38,9 -34,16 -33,19 -65,38 -61,38 -59,42 -122,77 -29,16 -39,25 -62,27 -8,0 -2,-13 2,-23 6,-23 8,-22 17,-43 15,-35 17,-34 31,-69 33,-80 35,-80 63,-162 18,-50 18,-51 28,-103 2,-11 3,-14 -3,-21 "/><path stroke-width="5" d="M439,323c-6,-8 -10,-10 -21,-10 "/><path stroke-width="4" d="M418,313c-19,1 -21,3 -39,13 -61,32 -64,30 -119,71 -37,28 -38,33 -65,68 "/><path stroke-width="5" d="M195,465c-3,3 0,6 5,8 23,8 25,9 51,12 "/><path stroke-width="4" d="M251,485c34,3 34,2 68,1 80,-4 80,-6 160,-12 27,-2 27,-5 54,-4 14,0 27,-1 27,6 -1,11 -14,14 -28,29 -67,71 -69,70 -133,143 -31,36 -37,34 -58,76 -25,49 -30,54 -34,106 -2,20 4,25 21,37 49,35 55,30 112,56 8,4 8,3 16,5 "/></g></svg>