<?xml version="1.0" encoding="UTF-8" standalone="no"?>
<svg xmlns="http://www.w3.org/2000/svg" version="1.2" baseProfile="tiny" height="1850" width="1080"><g stroke-linejoin="round" stroke-linecap="round" fill="none" stroke="black"><path stroke-width="18" d="M459,1026c0,0 0,0 0,0 "/><path stroke-width="21" d="M459,1026c0,0 0,0 0,0 0,0 0,0 0,0 "/><path stroke-width="15" d="M459,1026c-4,-4 -5,-3 -9,-7 "/><path stroke-width="9" d="M450,1019c-10,-9 -11,-9 -20,-18 -10,-10 -10,-10 -18,-21 -7,-9 -8,-9 -12,-19 -4,-12 -5,-13 -5,-25 0,-19 1,-19 5,-37 4,-17 4,-18 12,-34 6,-14 7,-14 17,-25 9,-9 9,-10 20,-14 12,-5 13,-6 27,-5 18,1 19,2 36,8 20,7 22,6 39,19 19,14 20,15 33,35 17,24 18,25 26,53 10,33 10,34 12,68 3,37 1,38 -2,75 -5,43 -3,44 -13,86 -9,40 -11,40 -24,79 -11,31 -11,31 -26,61 -10,21 -11,21 -24,40 -9,14 -9,15 -21,27 -10,10 -10,11 -23,18 -12,6 -13,7 -26,9 -14,1 -15,1 -28,-3 -13,-3 -14,-4 -25,-13 -15,-12 -15,-13 -27,-28 -13,-16 -12,-17 -24,-34 -7,-11 -7,-11 -14,-23 -5,-7 -5,-7 -10,-15 "/><path stroke-width="11" d="M335,1283c-3,-4 -3,-4 -5,-8 "/><path stroke-width="13" d="M330,1275c-2,-4 -4,-4 -4,-8 "/><path stroke-width="11" d="M326,1267c0,-20 1,-20 3,-40 0,-2 0,-2 0,-4 "/></g></svg>