<?xml version="1.0" encoding="UTF-8" standalone="no"?>
<svg xmlns="http://www.w3.org/2000/svg" version="1.2" baseProfile="tiny" height="1850" width="1080"><g stroke-linejoin="round" stroke-linecap="round" fill="none" stroke="black"><path stroke-width="18" d="M293,870c0,0 0,0 0,0 "/><path stroke-width="19" d="M293,870c0,6 0,6 1,13 "/><path stroke-width="13" d="M294,883c3,29 1,29 7,58 "/><path stroke-width="9" d="M301,941c8,39 9,39 21,78 13,41 15,40 29,81 11,33 9,34 20,67 8,25 9,25 18,51 4,10 5,10 7,21 "/><path stroke-width="11" d="M396,1239c1,6 1,6 -1,11 "/><path stroke-width="13" d="M395,1250c-1,3 -2,3 -4,6 "/><path stroke-width="17" d="M79,984c0,0 0,0 0,0 "/><path stroke-width="16" d="M79,984c2,-9 1,-9 4,-18 "/><path stroke-width="11" d="M83,966c9,-25 6,-27 19,-49 "/><path stroke-width="9" d="M102,917c20,-36 21,-36 47,-69 37,-47 39,-46 79,-91 40,-45 40,-46 81,-90 35,-37 35,-37 72,-72 21,-20 20,-21 44,-38 14,-9 15,-8 30,-14 9,-3 9,-2 18,-4 "/><path stroke-width="14" d="M463,798c0,0 0,0 0,0 "/><path stroke-width="20" d="M463,798c0,0 0,0 0,0 "/><path stroke-width="18" d="M463,798c-1,10 1,11 -2,21 "/><path stroke-width="12" d="M461,819c-9,43 -11,43 -22,86 "/><path stroke-width="9" d="M439,905c-11,46 -14,46 -21,92 -4,37 -5,38 -1,74 3,24 3,26 15,47 13,22 14,26 35,38 21,11 25,12 49,9 27,-3 31,-4 52,-22 24,-22 25,-26 37,-57 10,-24 5,-27 8,-54 "/><path stroke-width="10" d="M613,1032c0,-1 0,-1 0,-3 "/><path stroke-width="16" d="M395,1061c0,0 0,0 0,0 "/><path stroke-width="20" d="M395,1061c0,0 0,-1 0,-1 "/><path stroke-width="15" d="M395,1060c25,-25 25,-25 51,-49 "/><path stroke-width="9" d="M446,1011c29,-26 32,-24 60,-51 30,-28 31,-28 57,-59 19,-22 19,-23 34,-48 10,-18 9,-19 18,-38 5,-13 5,-13 10,-27 "/><path stroke-width="11" d="M625,788c1,-3 1,-3 1,-6 "/><path stroke-width="16" d="M626,782c0,0 -1,-1 -2,0 "/><path stroke-width="14" d="M624,782c-22,21 -25,19 -45,43 "/><path stroke-width="9" d="M579,825c-27,32 -27,33 -48,69 -18,30 -19,31 -28,64 -7,24 -10,27 -5,51 4,22 4,27 21,42 25,22 29,22 62,33 45,14 46,9 94,16 29,4 30,1 59,4 18,2 18,3 36,6 "/><path stroke-width="10" d="M770,1110c7,1 7,1 14,2 "/><path stroke-width="14" d="M784,1112c1,0 3,-1 3,0 "/><path stroke-width="13" d="M787,1112c-5,8 -5,10 -13,17 "/><path stroke-width="9" d="M774,1129c-17,16 -18,16 -38,29 -15,10 -15,11 -32,16 -11,3 -16,9 -23,1 -20,-23 -23,-29 -32,-62 -18,-68 -11,-70 -22,-140 -1,-4 -1,-4 -1,-8 "/><path stroke-width="13" d="M698,714c0,0 0,0 0,0 "/><path stroke-width="18" d="M698,714c2,0 2,-1 3,0 "/><path stroke-width="14" d="M701,714c11,4 13,1 21,9 "/><path stroke-width="9" d="M722,723c15,13 16,14 25,32 16,34 13,36 24,71 13,40 10,41 23,81 14,42 17,41 32,84 10,32 9,32 18,65 1,3 0,3 1,5 "/><path stroke-width="14" d="M588,845c0,0 0,0 0,0 "/><path stroke-width="15" d="M588,845c-4,-10 -6,-10 -8,-20 "/><path stroke-width="11" d="M580,825c-2,-10 -4,-11 0,-21 "/><path stroke-width="9" d="M580,804c7,-19 7,-23 22,-37 23,-21 26,-19 55,-34 40,-20 41,-18 82,-36 56,-23 56,-23 112,-47 6,-2 6,-2 11,-5 "/><path stroke-width="9" d="M580,804c7,-19 7,-23 22,-37 23,-21 26,-19 55,-34 40,-20 41,-18 82,-36 56,-23 56,-23 112,-47 6,-2 6,-2 11,-5 "/></g></svg>