<?xml version="1.0" encoding="UTF-8" standalone="no"?>
<svg xmlns="http://www.w3.org/2000/svg" version="1.2" baseProfile="tiny" height="1048" width="800"><g stroke-linejoin="round" stroke-linecap="round" fill="none" stroke="black"><path stroke-width="8" d="M432,760c0,0 0,0 0,0 "/><path stroke-width="7" d="M432,760c-23,-1 -24,1 -47,-3 "/><path stroke-width="4" d="M385,757c-12,-2 -13,-2 -23,-9 -22,-16 -28,-14 -42,-38 -21,-35 -24,-38 -28,-79 -6,-58 -1,-60 7,-119 4,-29 6,-29 17,-56 10,-27 10,-28 26,-53 13,-21 15,-20 32,-38 16,-17 15,-18 34,-32 18,-13 19,-13 39,-23 17,-8 17,-9 36,-13 28,-6 29,-5 57,-7 7,0 7,2 14,4 7,3 7,3 14,6 "/><path stroke-width="5" d="M568,300c6,3 7,2 12,7 4,4 4,4 7,10 "/><path stroke-width="6" d="M587,317c2,4 2,4 2,9 "/><path stroke-width="5" d="M589,326c1,8 1,8 -1,15 -1,9 -1,10 -5,18 -10,23 -10,23 -23,44 "/><path stroke-width="4" d="M560,403c-7,11 -8,11 -17,21 -6,8 -7,8 -15,15 -14,13 -14,13 -28,25 -6,5 -6,5 -12,10 "/><path stroke-width="5" d="M488,474c-6,3 -6,2 -12,5 "/><path stroke-width="6" d="M476,479c-6,4 -6,3 -13,7 "/><path stroke-width="7" d="M463,486c-1,0 -1,0 -3,1 "/><path stroke-width="8" d="M460,487c-1,1 -1,1 -2,1 0,1 -1,1 -1,0 "/><path stroke-width="9" d="M457,488c0,0 0,0 0,-1 "/><path stroke-width="8" d="M457,487c1,0 1,0 2,-1 1,-1 1,0 2,-1 0,0 0,0 1,-1 1,0 1,0 1,0 2,1 2,1 4,1 1,0 1,0 1,1 1,0 0,1 0,1 1,1 1,2 2,2 "/><path stroke-width="9" d="M470,489c0,0 0,-1 0,-2 1,0 1,0 2,0 "/><path stroke-width="8" d="M472,487c1,0 1,0 1,0 "/><path stroke-width="9" d="M473,487c0,1 -1,1 -1,1 "/><path stroke-width="8" d="M472,488c0,3 0,3 0,6 "/><path stroke-width="7" d="M472,494c1,2 1,2 2,4 0,2 0,2 0,3 1,3 0,3 0,6 "/><path stroke-width="6" d="M474,507c0,14 0,14 0,27 "/><path stroke-width="5" d="M474,534c0,9 0,9 0,18 2,20 2,20 5,40 "/><path stroke-width="4" d="M479,592c2,9 2,9 5,18 "/><path stroke-width="5" d="M484,610c3,9 3,9 7,17 3,8 2,9 8,16 "/><path stroke-width="4" d="M499,643c8,11 8,12 19,21 "/><path stroke-width="5" d="M518,664c5,4 5,3 12,5 "/><path stroke-width="6" d="M530,669c6,1 6,3 12,1 "/><path stroke-width="5" d="M542,670c17,-5 18,-6 34,-14 "/><path stroke-width="4" d="M576,656c13,-7 12,-8 23,-17 12,-11 13,-10 22,-23 21,-26 21,-26 39,-54 9,-14 8,-14 15,-29 7,-14 7,-14 13,-28 9,-25 8,-25 15,-51 3,-11 3,-11 5,-23 1,-10 1,-10 1,-21 0,-22 1,-22 -1,-45 -1,-15 -1,-15 -4,-30 -4,-29 -4,-29 -11,-58 -2,-12 -2,-12 -7,-24 -3,-11 -4,-11 -8,-21 -8,-19 -8,-19 -16,-38 "/><path stroke-width="5" d="M662,194c-4,-7 -5,-7 -9,-14 -9,-15 -9,-15 -19,-28 "/><path stroke-width="4" d="M634,152c-6,-8 -6,-7 -12,-15 "/><path stroke-width="5" d="M622,137c-6,-7 -6,-7 -12,-14 -10,-11 -10,-11 -20,-21 -4,-4 -4,-4 -8,-8 "/><path stroke-width="6" d="M582,94c-5,-5 -5,-5 -10,-10 "/><path stroke-width="7" d="M572,84c-1,-2 -1,-2 -3,-3 "/><path stroke-width="8" d="M569,81c0,-1 -1,-1 -1,-2 "/><path stroke-width="9" d="M568,79c0,0 1,1 2,1 "/><path stroke-width="8" d="M570,80c2,0 2,0 4,0 1,0 1,0 2,0 "/><path stroke-width="7" d="M576,80c7,-2 7,-2 14,-4 "/><path stroke-width="6" d="M590,76c3,-1 3,-1 6,-1 13,-1 13,-1 25,-1 "/><path stroke-width="5" d="M621,74c9,0 10,-1 18,1 19,6 20,5 38,14 "/><path stroke-width="4" d="M677,89c10,5 9,6 17,13 15,15 15,16 29,32 6,8 6,9 11,18 6,9 6,9 10,19 8,21 7,22 13,43 2,12 2,12 3,24 2,24 1,24 2,48 0,13 0,13 0,27 0,14 0,14 0,27 -1,29 0,29 -2,57 -1,16 -2,16 -4,31 -2,17 -1,17 -4,34 -7,32 -7,33 -15,64 -4,17 -4,17 -10,33 -13,32 -13,32 -28,63 -7,13 -6,13 -15,25 -16,23 -16,23 -34,45 -10,11 -10,11 -21,21 -10,10 -10,10 -21,18 -10,9 -10,8 -21,16 -17,13 -17,13 -35,25 -8,6 -8,6 -17,11 -14,8 -13,9 -28,16 "/><path stroke-width="5" d="M507,799c-5,3 -6,2 -12,5 "/><path stroke-width="6" d="M495,804c-4,1 -4,1 -8,3 "/><path stroke-width="7" d="M487,807c-3,1 -3,1 -6,2 -2,1 -4,0 -5,1 "/><path stroke-width="8" d="M476,810c-1,1 1,1 1,1 1,1 1,1 2,2 1,1 1,1 1,1 "/><path stroke-width="9" d="M480,814c1,0 0,1 0,1 1,0 1,-1 2,-1 "/><path stroke-width="8" d="M482,814c1,0 1,0 2,0 "/><path stroke-width="9" d="M484,814c0,0 0,-1 0,-1 "/><path stroke-width="8" d="M484,813c1,0 1,0 2,0 1,0 1,0 2,0 "/><path stroke-width="7" d="M488,813c4,1 4,1 8,1 "/><path stroke-width="6" d="M496,814c12,1 12,1 24,2 "/><path stroke-width="5" d="M520,816c5,1 5,1 11,2 "/><path stroke-width="6" d="M531,818c8,1 8,0 16,1 "/><path stroke-width="5" d="M547,819c6,2 6,2 13,5 7,3 7,2 15,6 13,6 13,7 25,14 5,3 6,2 10,6 8,7 8,8 14,16 "/><path stroke-width="6" d="M624,866c3,3 4,3 6,7 3,8 3,9 3,17 0,5 0,5 -2,9 -7,10 -7,11 -16,19 "/><path stroke-width="5" d="M615,918c-5,5 -6,4 -13,8 -9,5 -9,6 -18,10 "/><path stroke-width="4" d="M584,936c-20,7 -20,7 -41,13 -10,3 -11,3 -22,4 -29,2 -29,2 -59,3 -16,1 -16,1 -32,1 -18,0 -18,0 -36,-2 -32,-2 -32,-2 -63,-7 -14,-2 -14,-3 -28,-7 -13,-3 -13,-3 -26,-7 -20,-7 -21,-6 -41,-14 "/><path stroke-width="5" d="M236,920c-6,-3 -6,-3 -12,-7 -6,-5 -7,-5 -12,-12 "/><path stroke-width="6" d="M212,901c-2,-3 -2,-4 -1,-8 "/><path stroke-width="5" d="M211,893c5,-15 5,-16 13,-30 "/><path stroke-width="4" d="M224,863c5,-9 6,-9 13,-16 "/><path stroke-width="5" d="M237,847c9,-9 9,-9 19,-16 "/><path stroke-width="4" d="M256,831c20,-14 20,-14 40,-26 12,-7 12,-6 24,-12 12,-7 12,-7 24,-14 25,-16 25,-17 50,-34 11,-7 12,-7 22,-15 23,-18 23,-18 45,-36 11,-9 11,-9 22,-18 17,-15 17,-16 34,-30 9,-7 9,-7 18,-13 11,-9 11,-9 23,-18 "/><path stroke-width="5" d="M558,615c3,-3 3,-3 6,-6 "/><path stroke-width="7" d="M564,609c3,-3 3,-3 5,-5 1,-2 2,-3 3,-4 "/><path stroke-width="8" d="M572,600c0,0 -1,1 -1,2 0,1 0,1 0,2 0,1 0,1 0,1 "/><path stroke-width="9" d="M571,605c0,-1 0,-1 -1,-3 "/><path stroke-width="8" d="M570,602c0,-1 1,-1 0,-2 0,0 0,0 -1,0 -1,0 -1,0 -2,0 "/><path stroke-width="9" d="M567,600c0,0 0,0 0,0 "/></g></svg>