<?xml version="1.0" encoding="UTF-8" standalone="no"?>
<svg xmlns="http://www.w3.org/2000/svg" version="1.2" baseProfile="tiny" height="1850" width="1080"><g stroke-linejoin="round" stroke-linecap="round" fill="none" stroke="black"><path stroke-width="18" d="M478,1053c0,0 0,0 0,0 "/><path stroke-width="21" d="M478,1053c0,0 0,0 0,0 0,0 0,0 0,0 "/><path stroke-width="15" d="M478,1053c-3,-11 -5,-11 -7,-23 "/><path stroke-width="9" d="M471,1030c-2,-21 -2,-22 0,-43 3,-34 4,-34 10,-67 7,-44 7,-44 16,-88 8,-40 10,-40 18,-79 6,-31 7,-31 9,-62 2,-23 0,-23 -2,-46 -1,-16 -1,-16 -5,-31 -3,-16 -2,-16 -7,-30 -4,-10 -5,-10 -11,-19 "/><path stroke-width="10" d="M499,565c-5,-6 -5,-6 -10,-11 "/><path stroke-width="11" d="M489,554c-5,-5 -5,-5 -10,-8 "/><path stroke-width="13" d="M479,546c-4,-1 -4,-2 -8,-2 -7,0 -8,0 -13,3 "/><path stroke-width="10" d="M458,547c-20,13 -20,14 -38,29 "/><path stroke-width="9" d="M420,576c-27,22 -28,21 -53,45 -20,19 -21,19 -38,41 -12,15 -11,16 -20,33 -6,12 -7,12 -10,26 -2,13 -2,13 -1,27 0,11 0,12 4,23 4,12 4,13 12,23 9,12 9,14 22,21 17,10 19,11 39,14 28,3 29,2 57,-1 39,-5 39,-7 77,-17 30,-8 30,-8 60,-19 28,-10 27,-12 55,-23 17,-8 17,-8 34,-15 8,-3 8,-3 16,-7 "/><path stroke-width="13" d="M674,747c2,0 2,0 4,-1 "/><path stroke-width="18" d="M678,746c0,0 1,-1 1,0 "/><path stroke-width="15" d="M679,746c-11,16 -10,17 -22,33 "/><path stroke-width="9" d="M657,779c-23,33 -25,31 -48,63 -25,37 -25,37 -47,75 -17,30 -15,31 -29,62 -11,23 -10,23 -21,46 -6,14 -6,14 -13,28 -6,12 -6,12 -11,25 -4,8 -4,8 -8,16 "/><path stroke-width="11" d="M480,1094c-2,5 -2,5 -4,11 "/><path stroke-width="13" d="M476,1105c-2,4 -1,4 -3,9 "/><path stroke-width="14" d="M473,1114c-1,2 -2,2 -3,5 "/><path stroke-width="16" d="M470,1119c-1,1 0,1 -1,3 "/><path stroke-width="18" d="M469,1122c0,0 0,0 0,1 "/><path stroke-width="19" d="M469,1123c0,1 0,1 1,1 "/><path stroke-width="14" d="M470,1124c13,-8 15,-7 26,-18 "/><path stroke-width="9" d="M496,1106c43,-42 41,-44 82,-87 37,-38 38,-37 75,-74 34,-34 33,-34 67,-67 31,-30 32,-29 63,-60 22,-23 22,-23 42,-47 11,-14 12,-14 20,-29 6,-12 7,-12 9,-25 1,-9 1,-10 -3,-19 -3,-9 -3,-12 -12,-17 -22,-13 -23,-15 -49,-20 -42,-8 -44,-7 -87,-5 -50,2 -50,6 -99,14 -34,5 -34,7 -68,13 -27,5 -27,5 -55,8 -25,4 -25,3 -49,6 -18,3 -18,3 -36,6 -12,2 -12,2 -24,5 "/><path stroke-width="10" d="M372,708c-6,1 -6,1 -11,4 "/><path stroke-width="13" d="M361,712c-4,1 -4,2 -5,5 "/><path stroke-width="12" d="M356,717c-4,9 -5,9 -6,18 "/><path stroke-width="10" d="M350,735c-1,16 -1,17 0,33 "/><path stroke-width="9" d="M350,768c1,18 0,18 3,36 3,19 3,19 9,37 7,21 6,22 18,40 13,20 13,21 31,36 18,15 19,15 40,24 25,11 26,9 51,15 23,5 23,6 46,8 21,2 21,0 43,-1 17,0 17,-1 34,-2 10,0 10,-1 21,0 "/><path stroke-width="11" d="M646,961c5,1 5,1 9,4 "/><path stroke-width="13" d="M655,965c4,2 7,1 7,5 "/><path stroke-width="11" d="M662,970c-6,28 -7,31 -20,59 "/><path stroke-width="9" d="M642,1029c-20,42 -25,40 -47,82 -13,26 -13,26 -23,54 -5,16 -6,16 -7,34 -2,14 -2,15 1,30 3,14 4,15 11,27 8,13 7,14 19,23 18,13 19,15 41,20 22,6 23,5 47,2 25,-2 26,-4 51,-11 18,-6 17,-8 35,-14 16,-6 16,-7 32,-12 "/><path stroke-width="10" d="M802,1264c6,-1 6,-1 12,-2 "/><path stroke-width="12" d="M814,1262c5,-1 5,-1 9,-1 "/><path stroke-width="15" d="M823,1261c2,0 2,0 5,0 "/><path stroke-width="17" d="M828,1261c1,0 4,0 3,2 "/><path stroke-width="13" d="M831,1263c-31,30 -33,31 -68,62 "/><path stroke-width="9" d="M763,1325c-29,26 -28,26 -59,51 -20,16 -19,19 -42,31 -22,11 -23,11 -48,14 -26,5 -27,5 -54,2 -27,-3 -27,-5 -54,-14 -21,-7 -21,-7 -41,-18 -15,-8 -16,-8 -29,-19 -13,-10 -14,-10 -24,-24 -10,-14 -12,-15 -17,-32 -9,-30 -10,-31 -12,-63 -1,-48 -4,-49 6,-96 15,-71 18,-71 43,-140 18,-51 19,-50 42,-100 9,-21 11,-20 21,-41 5,-11 5,-11 9,-22 "/><path stroke-width="10" d="M504,854c2,-5 3,-5 5,-11 "/><path stroke-width="14" d="M509,843c1,-2 1,-2 1,-4 "/><path stroke-width="18" d="M510,839c0,0 0,0 0,-1 "/><path stroke-width="20" d="M510,838c0,0 0,-1 0,0 "/><path stroke-width="15" d="M510,838c-26,15 -29,12 -52,32 "/><path stroke-width="9" d="M458,870c-45,38 -43,41 -84,84 -33,35 -33,35 -65,71 -27,30 -27,30 -52,62 -17,21 -17,21 -33,44 -11,16 -11,16 -21,34 -4,8 -5,8 -7,17 "/><path stroke-width="10" d="M196,1182c-1,9 -2,10 1,19 "/><path stroke-width="9" d="M197,1201c4,14 4,16 13,27 18,22 18,24 41,40 34,25 34,28 74,43 37,13 41,17 80,13 50,-6 55,-6 98,-34 51,-33 45,-43 89,-89 42,-43 43,-43 82,-89 25,-29 24,-30 48,-61 12,-15 12,-15 24,-30 "/><path stroke-width="11" d="M746,1021c3,-3 2,-3 5,-6 "/><path stroke-width="15" d="M751,1015c0,0 2,0 2,0 "/><path stroke-width="14" d="M753,1015c-22,17 -25,15 -46,35 "/><path stroke-width="9" d="M707,1050c-38,38 -37,39 -71,81 -21,25 -20,26 -38,54 -9,14 -9,15 -17,30 -4,8 -5,8 -6,16 "/><path stroke-width="11" d="M575,1231c0,5 -2,9 3,10 14,4 21,8 35,-1 "/><path stroke-width="9" d="M613,1240c46,-31 45,-37 84,-79 29,-31 26,-34 52,-67 "/><path stroke-width="9" d="M613,1240c46,-31 45,-37 84,-79 29,-31 26,-34 52,-67 "/></g></svg>