<?xml version="1.0" encoding="UTF-8" standalone="no"?>
<svg xmlns="http://www.w3.org/2000/svg" version="1.2" baseProfile="tiny" height="1048" width="800"><g stroke-linejoin="round" stroke-linecap="round" fill="none" stroke="black"><path stroke-width="8" d="M375,568c0,0 0,0 0,0 "/><path stroke-width="7" d="M375,568c-16,2 -19,7 -31,3 "/><path stroke-width="4" d="M344,571c-7,-2 -8,-7 -8,-16 1,-45 -3,-48 10,-92 19,-67 24,-66 54,-129 15,-31 16,-31 35,-59 35,-50 35,-50 74,-96 21,-26 23,-25 47,-47 7,-6 11,-9 15,-10 "/><path stroke-width="6" d="M571,122c1,-1 -1,3 -3,5 -26,23 -27,22 -54,44 "/><path stroke-width="4" d="M514,171c-27,23 -28,22 -53,47 -57,56 -57,57 -110,116 -24,27 -24,28 -46,57 -36,48 -36,48 -71,98 -13,18 -13,18 -25,37 -15,25 -15,25 -29,50 "/><path stroke-width="5" d="M180,576c-3,5 -4,5 -5,9 "/><path stroke-width="6" d="M175,585c0,2 2,3 3,3 "/><path stroke-width="7" d="M178,588c3,1 3,1 6,0 5,-2 5,-3 9,-6 "/><path stroke-width="6" d="M193,582c5,-3 5,-3 9,-6 11,-6 11,-6 22,-12 "/><path stroke-width="5" d="M224,564c6,-3 6,-3 12,-6 10,-5 10,-5 21,-10 "/></g></svg>