<?xml version="1.0" encoding="UTF-8" standalone="no"?>
<svg xmlns="http://www.w3.org/2000/svg" version="1.2" baseProfile="tiny" height="1056" width="800"><g stroke-linejoin="round" stroke-linecap="round" fill="none" stroke="black"><path stroke-width="8" d="M507,751c0,0 0,0 0,0 "/><path stroke-width="7" d="M507,751c-24,-17 -29,-13 -47,-34 "/><path stroke-width="4" d="M460,717c-11,-13 -9,-17 -11,-34 -7,-50 -7,-51 -7,-101 1,-33 1,-34 8,-67 14,-62 14,-62 34,-122 9,-26 9,-26 23,-49 18,-30 19,-30 40,-58 6,-7 7,-7 15,-11 6,-3 6,-3 13,-4 "/><path stroke-width="5" d="M575,271c4,-1 6,-3 8,0 "/><path stroke-width="6" d="M583,271c3,3 2,5 2,10 "/><path stroke-width="5" d="M585,281c0,15 -1,15 -3,30 "/><path stroke-width="4" d="M582,311c-4,26 -5,26 -10,51 -7,35 -8,35 -15,70 -8,38 -8,38 -15,77 -7,39 -8,39 -14,78 -5,38 -5,38 -8,75 -3,33 -3,33 -4,67 0,36 2,36 3,73 "/></g></svg>