<?xml version="1.0" encoding="UTF-8" standalone="no"?>
<svg xmlns="http://www.w3.org/2000/svg" version="1.2" baseProfile="tiny" height="1056" width="800"><g stroke-linejoin="round" stroke-linecap="round" fill="none" stroke="black"><path stroke-width="8" d="M419,687c0,0 0,0 0,0 "/><path stroke-width="7" d="M419,687c-18,-1 -19,1 -36,-3 "/><path stroke-width="5" d="M383,684c-5,-1 -7,-2 -8,-7 -6,-17 -8,-19 -6,-37 "/><path stroke-width="4" d="M369,640c2,-23 6,-23 15,-45 11,-25 9,-26 24,-49 31,-45 33,-44 68,-87 17,-20 18,-20 37,-39 17,-17 17,-17 35,-31 28,-23 28,-23 58,-43 9,-6 9,-6 20,-10 "/><path stroke-width="5" d="M626,336c9,-4 10,-5 19,-6 "/><path stroke-width="6" d="M645,330c2,-1 3,0 4,1 "/><path stroke-width="8" d="M649,331c1,1 1,2 0,2 "/><path stroke-width="7" d="M649,333c-2,4 -2,4 -5,7 "/><path stroke-width="5" d="M644,340c-26,21 -27,20 -53,42 "/><path stroke-width="4" d="M591,382c-22,17 -23,16 -43,35 -48,44 -47,45 -94,91 -23,23 -23,23 -46,47 -42,45 -41,45 -83,91 -17,19 -17,19 -34,38 -26,29 -26,30 -52,59 -8,9 -8,9 -17,18 "/><path stroke-width="5" d="M222,761c-5,5 -5,5 -9,10 "/><path stroke-width="6" d="M213,771c-3,2 -4,4 -5,4 "/><path stroke-width="7" d="M208,775c-1,0 -1,-2 0,-5 1,-5 1,-5 3,-10 "/><path stroke-width="5" d="M211,760c10,-30 11,-30 21,-60 "/><path stroke-width="4" d="M232,700c7,-20 7,-20 14,-40 8,-22 8,-21 17,-43 10,-24 10,-24 21,-47 25,-50 24,-51 52,-99 29,-50 30,-49 63,-97 16,-22 16,-22 34,-42 32,-39 33,-38 66,-76 13,-14 13,-14 26,-28 18,-20 19,-20 36,-40 "/><path stroke-width="5" d="M561,188c4,-6 3,-6 7,-12 "/><path stroke-width="6" d="M568,176c2,-2 3,-2 3,-4 "/><path stroke-width="7" d="M571,172c0,-2 -1,-2 -2,-3 "/><path stroke-width="8" d="M569,169c0,0 0,0 -1,0 "/><path stroke-width="7" d="M568,169c-5,3 -5,3 -10,6 "/><path stroke-width="6" d="M558,175c-6,3 -5,3 -11,6 -5,3 -5,3 -11,6 "/><path stroke-width="7" d="M422,882c0,0 0,0 0,0 "/><path stroke-width="9" d="M422,882c0,0 0,0 0,0 "/><path stroke-width="7" d="M422,882c10,-8 10,-7 20,-15 "/><path stroke-width="5" d="M442,867c10,-9 10,-9 20,-18 "/><path stroke-width="4" d="M462,849c12,-10 11,-11 23,-21 14,-11 14,-11 28,-21 14,-10 14,-10 29,-18 27,-15 27,-15 55,-28 12,-6 13,-6 25,-9 12,-3 12,-3 23,-5 10,-1 11,-3 20,-1 11,3 13,3 20,11 "/><path stroke-width="5" d="M685,757c4,3 2,6 1,11 -1,11 1,12 -4,22 -13,27 -13,27 -31,51 "/><path stroke-width="4" d="M651,841c-10,14 -11,13 -24,25 -13,12 -13,12 -27,22 -30,19 -30,18 -61,34 -15,9 -16,8 -31,15 -14,7 -14,7 -27,14 -21,10 -21,10 -42,20 "/><path stroke-width="5" d="M439,971c-6,3 -6,2 -12,5 "/><path stroke-width="6" d="M427,976c-5,1 -8,2 -10,3 "/><path stroke-width="7" d="M417,979c-1,0 2,-2 4,-3 3,-1 3,-1 6,-2 "/><path stroke-width="5" d="M427,974c17,-9 18,-8 34,-17 "/><path stroke-width="4" d="M461,957c33,-18 33,-18 64,-37 18,-11 18,-12 36,-23 18,-12 18,-12 36,-23 36,-21 36,-22 72,-42 16,-9 17,-8 33,-17 25,-12 26,-12 51,-25 "/><path stroke-width="5" d="M753,790c5,-3 6,-3 10,-7 "/><path stroke-width="6" d="M763,783c2,-2 1,-3 2,-5 "/><path stroke-width="7" d="M765,778c0,-2 0,-2 0,-4 "/><path stroke-width="8" d="M765,774c0,0 0,-1 0,0 "/><path stroke-width="9" d="M765,774c0,0 0,0 0,1 "/><path stroke-width="8" d="M765,775c0,1 0,1 0,1 "/></g></svg>