<?xml version="1.0" encoding="UTF-8" standalone="no"?>
<svg xmlns="http://www.w3.org/2000/svg" version="1.2" baseProfile="tiny" height="1192" width="720"><g stroke-linejoin="round" stroke-linecap="round" fill="none" stroke="black"><path stroke-width="12" d="M435,738c0,0 0,0 0,0 "/><path stroke-width="14" d="M435,738c0,0 0,0 0,0 0,0 0,0 0,0 "/><path stroke-width="13" d="M435,738c0,0 0,0 0,-1 "/><path stroke-width="12" d="M435,737c1,-2 1,-2 1,-5 "/><path stroke-width="10" d="M436,732c2,-5 2,-5 3,-10 "/><path stroke-width="8" d="M439,722c1,-7 2,-7 3,-14 "/><path stroke-width="7" d="M442,708c2,-13 3,-13 4,-26 "/><path stroke-width="6" d="M446,682c3,-22 5,-22 4,-44 -2,-32 -2,-32 -9,-63 -7,-34 -6,-35 -19,-67 -12,-29 -13,-29 -31,-56 -17,-24 -18,-23 -38,-45 -13,-15 -13,-15 -27,-29 -9,-7 -9,-7 -19,-13 -10,-7 -11,-6 -22,-12 -9,-4 -9,-5 -18,-8 -10,-3 -11,-2 -21,-4 -11,-3 -11,-3 -23,-6 -10,-3 -9,-4 -19,-7 "/><path stroke-width="7" d="M204,328c-7,-1 -7,-1 -14,-3 "/><path stroke-width="8" d="M190,325c-4,-1 -4,-1 -8,-3 "/><path stroke-width="10" d="M182,322c-1,0 -1,0 -3,0 "/><path stroke-width="12" d="M179,322c0,0 -1,-1 -1,0 -1,1 -2,1 -1,2 "/><path stroke-width="9" d="M177,324c10,14 11,14 23,27 "/><path stroke-width="6" d="M200,351c27,29 26,29 54,57 29,29 29,29 59,57 24,22 24,22 48,44 14,12 14,12 28,24 9,8 9,8 19,15 10,7 11,7 21,14 10,6 9,7 19,12 7,4 7,3 15,6 "/><path stroke-width="9" d="M463,580c2,1 2,0 4,0 "/></g></svg>