<?xml version="1.0" encoding="UTF-8" standalone="no"?>
<svg xmlns="http://www.w3.org/2000/svg" version="1.2" baseProfile="tiny" height="1192" width="720"><g stroke-linejoin="round" stroke-linecap="round" fill="none" stroke="black"><path stroke-width="12" d="M281,942c0,0 0,0 0,0 "/><path stroke-width="14" d="M281,942c0,0 0,0 0,0 0,0 0,0 0,0 "/><path stroke-width="13" d="M281,942c0,-1 0,-1 1,-2 "/><path stroke-width="10" d="M282,940c2,-4 2,-4 3,-7 "/><path stroke-width="8" d="M285,933c4,-8 4,-8 7,-16 "/><path stroke-width="7" d="M292,917c3,-6 3,-6 5,-13 "/><path stroke-width="8" d="M297,904c2,-5 1,-5 2,-10 2,-8 2,-8 4,-16 "/><path stroke-width="7" d="M303,878c3,-9 3,-8 6,-17 "/><path stroke-width="6" d="M309,861c4,-11 4,-11 7,-23 4,-13 4,-13 7,-26 4,-15 5,-15 8,-30 4,-15 5,-15 7,-31 2,-13 1,-13 2,-26 1,-12 1,-12 1,-25 -1,-13 0,-13 -1,-26 -2,-11 -2,-11 -4,-22 -2,-13 -3,-13 -6,-26 -2,-12 -1,-12 -4,-24 -4,-13 -5,-13 -9,-26 -4,-11 -4,-11 -8,-22 -4,-10 -4,-10 -9,-20 -6,-12 -7,-11 -14,-23 -7,-10 -6,-10 -13,-20 -5,-8 -5,-8 -10,-15 "/><path stroke-width="7" d="M263,476c-5,-7 -5,-7 -9,-13 -4,-6 -4,-6 -9,-12 -5,-5 -5,-5 -9,-10 "/><path stroke-width="8" d="M236,441c-4,-5 -4,-6 -8,-11 -4,-4 -4,-4 -9,-9 -4,-4 -4,-4 -8,-8 "/><path stroke-width="9" d="M211,413c-2,-2 -2,-2 -4,-5 "/><path stroke-width="10" d="M207,408c-2,-3 -2,-3 -4,-5 "/><path stroke-width="12" d="M203,403c0,-1 0,-1 0,-1 "/><path stroke-width="13" d="M203,402c-1,0 -1,0 -1,0 -1,-1 0,-1 0,-1 "/><path stroke-width="14" d="M202,401c0,0 0,0 0,0 "/><path stroke-width="13" d="M202,401c1,0 1,0 2,1 "/><path stroke-width="9" d="M204,402c14,10 15,10 28,21 "/><path stroke-width="6" d="M232,423c24,21 23,22 46,44 16,16 16,16 30,34 12,14 10,15 20,30 13,19 13,19 26,38 12,20 13,19 25,39 11,19 11,19 21,38 9,17 9,17 18,33 7,12 7,12 14,23 5,9 5,9 10,17 "/><path stroke-width="7" d="M442,719c4,6 3,7 6,13 "/><path stroke-width="8" d="M448,732c3,3 3,3 6,7 "/><path stroke-width="9" d="M454,739c2,4 1,4 3,8 2,3 2,2 4,5 "/><path stroke-width="10" d="M461,752c1,2 1,3 2,4 "/><path stroke-width="11" d="M463,756c1,2 1,2 2,3 "/><path stroke-width="12" d="M465,759c1,1 1,2 2,3 1,1 1,1 2,2 0,1 0,1 0,3 1,1 1,1 1,2 1,1 1,1 2,2 "/><path stroke-width="13" d="M472,771c0,0 0,0 -1,-1 "/><path stroke-width="13" d="M568,847c0,0 0,0 0,0 "/><path stroke-width="14" d="M568,847c0,0 0,0 0,0 0,0 0,0 0,0 0,0 0,0 0,0 0,0 0,0 0,0 0,0 0,0 0,0 "/><path stroke-width="13" d="M568,847c0,-1 0,-1 0,-2 "/><path stroke-width="10" d="M568,845c0,-6 0,-6 0,-13 "/><path stroke-width="7" d="M568,832c0,-10 0,-10 0,-21 "/><path stroke-width="6" d="M568,811c0,-10 0,-10 0,-19 "/><path stroke-width="7" d="M568,792c0,-6 1,-6 1,-12 "/><path stroke-width="9" d="M569,780c1,-4 1,-4 1,-8 1,-4 1,-4 1,-7 "/><path stroke-width="10" d="M571,765c1,-3 1,-3 1,-6 1,-3 1,-3 1,-6 1,-3 1,-3 1,-6 "/><path stroke-width="11" d="M574,747c1,-2 1,-2 1,-4 1,-2 1,-2 1,-4 1,-1 1,-1 1,-3 "/><path stroke-width="12" d="M577,736c1,0 1,0 1,-1 "/><path stroke-width="13" d="M578,735c1,-1 1,-1 1,-2 "/><path stroke-width="12" d="M579,733c1,-1 1,-1 2,-2 0,-2 0,-3 0,-5 "/><path stroke-width="11" d="M581,726c1,-1 1,-1 2,-3 "/><path stroke-width="12" d="M583,723c0,0 0,0 1,-1 "/><path stroke-width="13" d="M584,722c0,-1 -1,-1 -1,-2 "/><path stroke-width="12" d="M583,720c0,-1 0,-1 0,-2 0,-1 0,-1 0,-2 1,-1 1,-1 2,-2 0,-1 0,-1 1,-3 0,-1 0,-2 0,-4 "/><path stroke-width="11" d="M586,707c1,-2 1,-2 1,-3 1,-4 1,-4 3,-7 "/><path stroke-width="10" d="M590,697c1,-3 1,-3 2,-6 1,-3 0,-3 2,-6 1,-2 1,-2 2,-5 "/><path stroke-width="11" d="M596,680c1,-2 0,-2 2,-4 1,-1 1,-1 3,-3 "/><path stroke-width="12" d="M601,673c0,0 1,0 2,-1 "/><path stroke-width="13" d="M496,934c0,0 0,0 0,0 "/><path stroke-width="14" d="M496,934c0,0 0,0 0,0 0,0 0,0 0,0 0,0 0,0 0,0 0,0 0,0 0,0 "/><path stroke-width="13" d="M496,934c0,-1 0,-1 0,-1 "/><path stroke-width="12" d="M496,933c-1,-3 -2,-3 -2,-6 "/><path stroke-width="10" d="M494,927c-1,-4 0,-4 -1,-9 "/><path stroke-width="9" d="M493,918c-1,-5 -2,-5 -2,-10 -1,-4 0,-4 0,-9 0,-3 0,-3 -1,-7 "/><path stroke-width="10" d="M490,892c0,-3 0,-4 0,-7 "/><path stroke-width="9" d="M490,885c0,-5 0,-5 0,-10 0,-4 0,-4 0,-9 0,-4 0,-4 0,-8 "/><path stroke-width="10" d="M490,858c1,-4 1,-4 1,-7 1,-4 0,-4 0,-7 "/><path stroke-width="11" d="M491,844c0,-2 1,-2 1,-4 1,-1 0,-2 0,-4 "/><path stroke-width="12" d="M492,836c1,-1 1,-1 2,-2 0,-2 -1,-2 -1,-3 1,-1 1,-1 2,-2 0,-1 1,-1 1,-2 "/><path stroke-width="13" d="M496,827c0,-1 -1,-1 -1,-1 0,-1 0,-1 0,-2 1,-1 1,-1 1,-1 0,0 0,0 0,-1 0,0 0,-1 0,-1 1,-1 1,-1 2,-1 0,-1 0,-1 -1,-1 "/><path stroke-width="14" d="M497,819c0,0 0,0 0,0 0,0 0,0 0,-1 "/><path stroke-width="13" d="M497,818c0,0 0,0 0,-1 "/><path stroke-width="14" d="M497,817c0,0 0,0 0,0 0,0 0,0 0,0 0,0 0,0 0,0 0,0 0,0 0,0 0,0 0,0 0,0 0,0 0,0 0,0 "/><path stroke-width="13" d="M497,817c1,0 1,1 2,0 0,0 -1,-1 -1,-1 0,0 0,0 0,0 "/><path stroke-width="14" d="M498,816c0,0 0,0 0,0 0,0 0,0 0,0 0,0 0,0 0,-1 "/><path stroke-width="13" d="M498,815c1,0 1,0 1,0 "/><path stroke-width="14" d="M499,815c0,0 0,0 0,0 0,0 0,0 0,0 1,0 1,0 2,0 "/><path stroke-width="13" d="M501,815c0,0 -1,0 -1,0 "/><path stroke-width="14" d="M500,815c0,0 0,0 0,0 0,0 0,0 0,0 0,0 0,0 0,0 0,0 0,0 0,0 0,0 0,0 0,0 "/></g></svg>