<?xml version="1.0" encoding="UTF-8" standalone="no"?>
<svg xmlns="http://www.w3.org/2000/svg" version="1.2" baseProfile="tiny" height="1850" width="1080"><g stroke-linejoin="round" stroke-linecap="round" fill="none" stroke="black"><path stroke-width="18" d="M679,1204c0,0 0,0 0,0 "/><path stroke-width="21" d="M679,1204c0,0 0,0 0,0 "/><path stroke-width="15" d="M679,1204c-25,-8 -26,-6 -50,-15 "/><path stroke-width="9" d="M629,1189c-49,-20 -48,-23 -96,-45 -43,-19 -43,-18 -86,-38 -45,-21 -45,-21 -89,-42 -39,-19 -39,-19 -77,-37 -28,-12 -28,-11 -55,-25 -22,-11 -23,-11 -44,-25 -15,-10 -15,-11 -28,-23 -10,-9 -11,-9 -19,-19 -6,-7 -6,-8 -8,-17 "/><path stroke-width="12" d="M127,918c-1,-3 -1,-8 2,-8 "/><path stroke-width="11" d="M129,910c32,4 38,0 69,16 "/><path stroke-width="9" d="M198,926c69,38 70,41 131,93 67,57 66,60 124,126 52,59 55,58 96,125 26,41 21,44 38,89 9,28 9,28 15,56 4,22 4,22 5,45 2,16 1,16 1,32 "/><path stroke-width="10" d="M608,1492c0,7 0,7 0,13 "/><path stroke-width="14" d="M608,1505c0,1 0,3 0,2 "/><path stroke-width="15" d="M608,1507c-2,-3 -2,-5 -4,-10 "/><path stroke-width="11" d="M604,1497c-26,-54 -20,-58 -51,-109 "/><path stroke-width="9" d="M553,1388c-41,-66 -43,-67 -95,-124 -43,-47 -46,-44 -95,-83 -44,-34 -46,-32 -91,-63 -32,-21 -32,-21 -63,-43 -28,-21 -31,-19 -55,-43 -28,-28 -28,-29 -49,-61 -21,-32 -20,-33 -37,-68 -15,-31 -12,-32 -26,-63 -16,-34 -19,-33 -33,-67 -2,-5 0,-5 0,-11 "/></g></svg>