<?xml version="1.0" encoding="UTF-8" standalone="no"?>
<svg xmlns="http://www.w3.org/2000/svg" version="1.2" baseProfile="tiny" height="1192" width="720"><g stroke-linejoin="round" stroke-linecap="round" fill="none" stroke="black"><path stroke-width="12" d="M162,871c0,0 0,0 0,0 "/><path stroke-width="14" d="M162,871c0,0 0,0 0,0 0,0 0,0 0,0 0,0 0,0 0,0 0,0 0,0 0,0 0,0 0,0 0,0 0,0 0,0 0,0 0,0 0,0 0,0 0,0 0,0 0,0 "/><path stroke-width="14" d="M405,822c0,0 0,0 0,0 0,0 0,0 0,0 0,0 0,0 0,0 "/><path stroke-width="13" d="M405,822c2,-1 3,-1 4,-3 "/><path stroke-width="9" d="M409,819c6,-5 7,-5 10,-11 "/><path stroke-width="7" d="M419,808c9,-18 10,-18 15,-37 "/><path stroke-width="6" d="M434,771c6,-25 6,-25 8,-50 2,-24 2,-24 -1,-48 -3,-23 -4,-23 -11,-46 -6,-18 -6,-18 -14,-35 -6,-13 -6,-14 -14,-26 -7,-10 -9,-9 -18,-19 -9,-10 -8,-10 -18,-20 -10,-10 -10,-9 -20,-19 -15,-14 -15,-15 -30,-29 -16,-16 -16,-16 -34,-30 -14,-11 -15,-11 -30,-21 -10,-6 -10,-6 -21,-10 "/><path stroke-width="7" d="M231,418c-6,-3 -6,-3 -12,-5 "/><path stroke-width="9" d="M219,413c-3,-1 -3,-1 -6,-2 "/><path stroke-width="10" d="M213,411c-3,-1 -4,-1 -7,-2 -1,-1 -1,-1 -3,-2 "/><path stroke-width="12" d="M203,407c-1,0 -2,0 -1,1 1,0 2,0 4,1 "/><path stroke-width="9" d="M206,409c25,14 25,13 49,29 "/><path stroke-width="6" d="M255,438c38,24 38,24 74,51 33,24 33,24 63,50 18,17 17,18 33,36 8,8 8,9 16,18 8,9 8,9 16,19 7,8 7,8 14,16 "/><path stroke-width="7" d="M471,628c3,4 3,4 7,8 "/><path stroke-width="8" d="M478,636c3,4 3,4 7,8 "/><path stroke-width="9" d="M485,644c2,2 2,3 4,5 "/><path stroke-width="10" d="M489,649c2,2 3,2 5,3 "/><path stroke-width="11" d="M494,652c2,1 2,1 3,2 "/><path stroke-width="12" d="M497,654c1,0 1,1 2,1 "/><path stroke-width="13" d="M499,655c0,0 0,0 0,-1 "/><path stroke-width="12" d="M499,654c0,-2 0,-2 -1,-5 "/><path stroke-width="8" d="M498,649c-9,-15 -9,-15 -19,-29 "/><path stroke-width="6" d="M479,620c-19,-26 -17,-27 -39,-49 -15,-16 -16,-15 -34,-27 -11,-8 -12,-7 -24,-13 -13,-8 -13,-8 -27,-16 -12,-7 -11,-7 -23,-14 -12,-6 -12,-5 -24,-10 -9,-5 -9,-5 -19,-9 "/><path stroke-width="7" d="M289,482c-4,-2 -4,-1 -8,-2 "/><path stroke-width="10" d="M281,480c-2,0 -2,0 -3,0 "/><path stroke-width="12" d="M278,480c0,0 0,0 0,0 "/><path stroke-width="14" d="M278,480c0,0 0,0 0,0 0,0 0,0 0,0 0,0 0,0 0,0 "/><path stroke-width="12" d="M278,480c3,1 3,1 6,3 "/><path stroke-width="8" d="M284,483c16,13 16,13 32,28 "/><path stroke-width="6" d="M316,511c22,20 23,20 44,42 12,14 11,15 22,30 8,9 8,8 15,17 7,8 7,8 13,16 "/><path stroke-width="7" d="M410,616c5,5 5,5 9,10 "/><path stroke-width="8" d="M419,626c5,5 5,5 9,9 4,4 4,4 8,8 4,5 4,4 8,9 4,5 4,6 8,11 3,4 3,4 7,8 "/><path stroke-width="9" d="M459,671c2,3 1,3 3,6 "/><path stroke-width="10" d="M462,677c1,1 1,1 3,3 "/><path stroke-width="11" d="M465,680c1,1 1,1 3,3 1,1 1,1 2,2 "/><path stroke-width="12" d="M470,685c1,1 1,1 2,2 0,0 0,0 1,1 "/><path stroke-width="13" d="M473,688c0,0 0,0 0,0 1,1 1,0 2,0 0,0 -1,1 -1,0 0,0 1,0 0,-1 "/><path stroke-width="11" d="M474,687c-3,-6 -3,-6 -7,-12 "/><path stroke-width="7" d="M467,675c-5,-9 -4,-10 -10,-19 -3,-5 -4,-4 -8,-8 "/><path stroke-width="9" d="M449,648c-2,-2 -2,-2 -3,-3 "/><path stroke-width="11" d="M446,645c-2,-1 -2,-1 -3,-2 "/><path stroke-width="12" d="M443,643c-1,-1 -1,-1 -2,-2 -1,-1 -1,0 -2,-1 "/><path stroke-width="13" d="M439,640c-1,0 -1,0 -1,-1 0,0 0,0 0,0 "/></g></svg>