<?xml version="1.0" encoding="UTF-8" standalone="no"?>
<svg xmlns="http://www.w3.org/2000/svg" version="1.2" baseProfile="tiny" height="1850" width="1080"><g stroke-linejoin="round" stroke-linecap="round" fill="none" stroke="black"><path stroke-width="18" d="M394,396c0,0 0,0 0,0 "/><path stroke-width="16" d="M394,396c-7,-1 -7,-4 -15,-3 "/><path stroke-width="10" d="M379,393c-43,6 -46,2 -87,17 "/><path stroke-width="9" d="M292,410c-33,12 -34,14 -61,37 -38,32 -37,34 -68,72 -29,34 -29,35 -52,73 -19,30 -20,31 -33,64 -11,28 -13,29 -15,58 -1,24 -2,28 9,48 10,19 13,25 34,31 43,13 48,14 93,8 62,-8 62,-15 121,-36 64,-22 63,-24 125,-49 50,-21 50,-22 100,-43 44,-17 44,-18 89,-33 28,-10 28,-9 56,-17 16,-4 16,-5 32,-8 "/><path stroke-width="10" d="M722,615c5,-2 5,-1 10,-2 "/><path stroke-width="15" d="M732,613c1,0 2,-1 2,0 "/><path stroke-width="13" d="M734,613c-14,24 -13,27 -31,49 "/><path stroke-width="9" d="M703,662c-31,38 -36,34 -68,72 -49,57 -51,55 -93,117 -47,67 -46,68 -85,140 -38,69 -38,69 -68,142 -24,57 -21,58 -40,117 -14,44 -14,44 -27,88 -6,23 -5,23 -10,46 "/><path stroke-width="11" d="M312,1384c-1,4 -3,12 -2,8 7,-33 9,-40 18,-81 "/><path stroke-width="9" d="M328,1311c15,-68 10,-69 31,-135 21,-68 27,-67 51,-134 6,-17 5,-17 10,-35 "/></g></svg>