<?xml version="1.0" encoding="UTF-8" standalone="no"?>
<svg xmlns="http://www.w3.org/2000/svg" version="1.2" baseProfile="tiny" height="2537" width="1440"><g stroke-linejoin="round" stroke-linecap="round" fill="none" stroke="black"><path stroke-width="22" d="M418,368c0,0 0,0 0,0 "/><path stroke-width="24" d="M418,368c0,-1 0,-1 -1,-2 "/><path stroke-width="23" d="M417,366c0,-1 0,-1 -1,-1 "/><path stroke-width="22" d="M416,365c-1,-1 -1,-1 -3,-1 "/><path stroke-width="20" d="M413,364c-3,1 -3,1 -5,3 "/><path stroke-width="16" d="M408,367c-5,3 -7,3 -10,8 "/><path stroke-width="15" d="M398,375c-2,5 0,6 0,12 1,5 1,5 3,11 1,4 1,4 3,8 "/><path stroke-width="16" d="M404,406c2,4 2,4 5,7 "/><path stroke-width="14" d="M409,413c3,4 4,4 8,7 "/><path stroke-width="11" d="M417,420c11,9 11,9 22,18 "/><path stroke-width="12" d="M439,438c6,6 7,5 13,11 7,7 6,7 13,15 "/><path stroke-width="11" d="M465,464c6,7 5,8 12,16 7,9 7,9 14,18 12,14 14,12 25,26 18,24 17,24 33,48 16,24 16,24 32,49 14,21 13,21 26,43 14,22 13,23 27,45 11,20 11,20 24,39 11,16 11,16 24,32 9,12 9,11 19,22 "/><path stroke-width="13" d="M701,802c1,1 1,1 3,2 10,6 10,10 21,11 "/><path stroke-width="11" d="M725,815c13,1 15,0 26,-6 19,-10 18,-12 35,-27 14,-12 13,-12 26,-26 11,-10 11,-10 21,-22 10,-11 11,-11 19,-24 8,-13 9,-13 15,-28 8,-16 8,-16 13,-33 5,-18 5,-18 8,-35 3,-15 3,-15 4,-31 "/><path stroke-width="12" d="M892,583c1,-6 2,-7 2,-14 "/><path stroke-width="16" d="M894,569c-1,-2 -2,-4 -3,-4 "/><path stroke-width="17" d="M891,565c-4,2 -5,4 -9,9 "/><path stroke-width="13" d="M882,574c-8,13 -7,14 -15,27 "/><path stroke-width="11" d="M867,601c-15,25 -16,24 -31,50 -15,27 -17,27 -28,56 -11,30 -10,31 -16,63 -6,29 -5,29 -7,59 -2,19 -4,21 -1,39 "/><path stroke-width="13" d="M784,868c1,4 5,8 8,6 16,-13 16,-18 30,-36 "/><path stroke-width="11" d="M822,838c36,-49 36,-49 71,-99 28,-40 28,-40 54,-81 16,-26 17,-26 31,-53 9,-19 10,-19 16,-40 4,-12 3,-13 3,-25 "/><path stroke-width="13" d="M997,540c1,-6 1,-8 -2,-11 "/><path stroke-width="15" d="M995,529c-3,-3 -6,-3 -10,0 "/><path stroke-width="13" d="M985,529c-11,8 -10,10 -20,21 "/><path stroke-width="11" d="M965,550c-21,26 -22,25 -41,52 -34,50 -37,48 -64,102 -34,68 -33,69 -60,141 -22,61 -19,62 -38,124 -13,43 -13,43 -27,86 -11,32 -11,32 -22,64 -7,23 -6,23 -13,46 -6,17 -8,17 -12,34 -3,12 -3,12 -3,24 "/><path stroke-width="12" d="M685,1223c-1,6 -1,7 1,13 "/><path stroke-width="14" d="M686,1236c2,5 3,5 7,9 "/><path stroke-width="15" d="M693,1245c4,3 5,6 8,5 4,-1 5,-4 8,-9 "/><path stroke-width="13" d="M709,1241c4,-8 4,-8 7,-16 "/></g></svg>