<?xml version="1.0" encoding="UTF-8" standalone="no"?>
<svg xmlns="http://www.w3.org/2000/svg" version="1.2" baseProfile="tiny" height="2537" width="1440"><g stroke-linejoin="round" stroke-linecap="round" fill="none" stroke="black"><path stroke-width="22" d="M498,680c0,0 0,0 0,0 "/><path stroke-width="24" d="M498,680c1,1 1,1 2,2 "/><path stroke-width="22" d="M500,682c0,2 -1,2 -1,4 "/><path stroke-width="16" d="M499,686c-4,13 -5,12 -7,25 "/><path stroke-width="11" d="M492,711c-10,49 -13,48 -17,97 -6,55 -2,56 -4,111 -1,48 -2,48 -2,97 1,35 2,35 4,69 1,17 -1,17 1,33 "/><path stroke-width="12" d="M474,1118c1,6 0,8 4,11 "/><path stroke-width="14" d="M478,1129c4,2 7,1 11,-2 "/><path stroke-width="13" d="M489,1127c12,-6 13,-6 23,-15 "/><path stroke-width="11" d="M512,1112c18,-17 18,-17 34,-36 26,-29 27,-28 49,-59 24,-35 23,-36 43,-74 24,-44 23,-44 44,-89 19,-42 17,-43 36,-84 11,-24 11,-24 24,-46 7,-11 7,-11 16,-21 "/><path stroke-width="12" d="M758,703c4,-5 5,-6 11,-9 "/><path stroke-width="15" d="M769,694c3,-1 5,0 6,2 "/><path stroke-width="17" d="M775,696c2,4 0,5 0,9 "/><path stroke-width="14" d="M775,705c0,15 0,15 0,30 "/><path stroke-width="11" d="M775,735c-2,37 -2,37 -3,74 -3,54 -2,54 -6,108 -3,60 -3,60 -9,120 -6,64 -5,64 -14,128 -9,63 -10,63 -22,125 -12,57 -14,56 -25,113 -10,48 -12,48 -17,96 -5,40 -4,40 -4,80 1,32 1,33 6,64 4,28 5,28 11,56 6,26 5,26 11,53 6,27 6,26 12,53 5,24 5,24 9,48 3,17 -2,19 4,36 6,18 10,17 20,35 "/><path stroke-width="12" d="M748,1924c1,1 2,1 3,2 "/></g></svg>