<?xml version="1.0" encoding="UTF-8" standalone="no"?>
<svg xmlns="http://www.w3.org/2000/svg" version="1.2" baseProfile="tiny" height="2537" width="1440"><g stroke-linejoin="round" stroke-linecap="round" fill="none" stroke="black"><path stroke-width="22" d="M317,346c0,0 0,0 0,0 "/><path stroke-width="25" d="M317,346c0,0 0,0 0,0 "/><path stroke-width="24" d="M317,346c0,3 -1,3 0,5 "/><path stroke-width="17" d="M317,351c2,24 0,24 5,47 "/><path stroke-width="11" d="M322,398c10,49 12,49 26,97 13,42 13,42 28,83 13,36 13,37 28,72 12,27 14,26 28,53 5,10 3,13 9,20 "/><path stroke-width="13" d="M441,723c1,1 4,0 5,-2 6,-13 4,-15 8,-29 "/><path stroke-width="11" d="M454,692c9,-28 8,-28 18,-55 12,-29 13,-29 26,-57 14,-32 14,-32 28,-63 15,-32 14,-33 31,-63 13,-26 13,-26 30,-50 10,-14 11,-13 24,-26 6,-6 6,-7 13,-11 "/><path stroke-width="14" d="M624,367c4,-2 6,-2 8,0 "/><path stroke-width="15" d="M632,367c5,6 5,8 7,16 "/><path stroke-width="12" d="M639,383c10,31 10,31 17,63 "/><path stroke-width="11" d="M656,446c12,51 15,51 21,103 5,49 4,50 2,100 -3,47 -6,47 -13,95 -6,46 -6,46 -14,92 -7,41 -10,40 -16,81 -4,26 -8,28 -5,53 1,13 3,21 14,23 16,5 21,0 40,-8 42,-19 41,-23 80,-46 31,-18 31,-18 61,-37 20,-14 20,-14 39,-29 14,-11 13,-12 26,-24 13,-12 13,-12 26,-24 13,-13 13,-12 26,-25 13,-12 12,-14 25,-25 12,-9 12,-11 25,-16 9,-4 10,-4 19,-2 "/><path stroke-width="13" d="M1012,757c5,2 6,3 9,8 "/><path stroke-width="14" d="M1021,765c4,6 5,7 4,14 "/><path stroke-width="12" d="M1025,779c-4,38 -4,39 -13,76 "/><path stroke-width="11" d="M1012,855c-12,47 -14,46 -29,92 -16,55 -16,55 -33,109 -18,60 -17,60 -37,119 -18,52 -18,52 -37,103 -14,38 -15,38 -30,76 -6,16 -7,16 -11,32 "/><path stroke-width="13" d="M835,1386c-1,4 -2,7 0,9 "/><path stroke-width="15" d="M835,1395c2,2 4,0 8,-1 "/></g></svg>