<?xml version="1.0" encoding="UTF-8" standalone="no"?>
<svg xmlns="http://www.w3.org/2000/svg" version="1.2" baseProfile="tiny" height="2537" width="1440"><g stroke-linejoin="round" stroke-linecap="round" fill="none" stroke="black"><path stroke-width="22" d="M370,621c0,0 0,0 0,0 "/><path stroke-width="25" d="M370,621c0,0 0,0 -1,0 "/><path stroke-width="23" d="M369,621c0,1 0,2 0,3 "/><path stroke-width="19" d="M369,624c0,4 0,4 0,8 "/><path stroke-width="14" d="M369,632c1,37 -1,37 4,74 "/><path stroke-width="11" d="M373,706c8,69 8,69 21,137 12,61 15,61 30,122 13,53 13,53 27,105 10,39 8,40 21,78 6,16 5,28 15,30 10,2 15,-8 24,-20 28,-37 26,-39 52,-78 "/><path stroke-width="13" d="M563,1080c0,0 0,0 0,0 "/><path stroke-width="20" d="M784,746c0,0 0,0 0,0 "/><path stroke-width="21" d="M784,746c3,-4 3,-4 6,-9 "/><path stroke-width="18" d="M790,737c2,-3 3,-3 4,-6 "/><path stroke-width="16" d="M794,731c3,-6 3,-6 5,-12 "/><path stroke-width="14" d="M799,719c2,-7 4,-11 2,-14 "/><path stroke-width="15" d="M801,705c-2,-2 -6,0 -9,3 "/><path stroke-width="13" d="M792,708c-13,12 -15,12 -24,28 "/><path stroke-width="11" d="M768,736c-22,39 -22,40 -37,83 -19,56 -17,57 -32,114 -17,65 -15,66 -31,132 -15,64 -15,64 -32,128 -14,54 -17,54 -29,108 -6,29 -5,30 -7,60 0,14 -4,20 4,28 7,8 15,9 28,4 39,-18 40,-22 76,-50 43,-33 42,-35 81,-74 35,-35 37,-34 67,-73 29,-38 29,-39 52,-80 23,-41 22,-42 39,-86 14,-35 15,-35 24,-72 7,-34 6,-35 8,-70 3,-29 1,-30 1,-59 0,-19 0,-19 0,-38 "/><path stroke-width="12" d="M980,791c0,-6 0,-9 0,-13 "/><path stroke-width="16" d="M980,778c0,-1 -1,2 -1,3 -4,11 -4,10 -7,21 "/><path stroke-width="11" d="M972,802c-11,37 -12,36 -21,73 -17,68 -17,68 -30,136 -15,74 -13,75 -26,149 -13,69 -14,68 -27,137 -13,72 -11,73 -26,144 -13,67 -15,66 -30,132 -13,55 -13,55 -25,110 -10,44 -12,43 -18,87 -5,33 -4,33 -4,66 -1,15 1,15 3,29 "/></g></svg>