<?xml version="1.0" encoding="UTF-8" standalone="no"?>
<svg xmlns="http://www.w3.org/2000/svg" version="1.2" baseProfile="tiny" height="1056" width="800"><g stroke-linejoin="round" stroke-linecap="round" fill="none" stroke="black"><path stroke-width="8" d="M255,670c0,0 0,0 0,0 "/><path stroke-width="7" d="M255,670c-23,-12 -26,-8 -46,-24 "/><path stroke-width="4" d="M209,646c-9,-7 -9,-9 -11,-20 "/><path stroke-width="5" d="M198,626c-5,-18 -5,-20 -2,-38 "/><path stroke-width="4" d="M196,588c3,-28 3,-29 13,-55 11,-28 12,-29 29,-55 15,-21 17,-20 36,-38 9,-8 10,-7 20,-14 21,-12 21,-15 43,-24 22,-8 23,-7 45,-9 16,-2 18,-2 33,2 "/><path stroke-width="5" d="M415,395c11,3 12,4 21,12 9,9 9,10 15,21 3,6 3,7 4,14 3,16 3,16 3,32 1,15 1,15 0,30 -2,15 -2,15 -7,29 -5,14 -6,14 -13,27 -7,10 -6,11 -15,19 -6,5 -8,4 -16,8 "/><path stroke-width="6" d="M407,587c-7,2 -7,2 -15,4 -6,1 -6,1 -11,2 "/><path stroke-width="7" d="M381,593c-2,1 -2,1 -3,0 "/><path stroke-width="8" d="M378,593c-2,-2 -2,-2 -2,-6 "/><path stroke-width="7" d="M376,587c-1,-3 -1,-3 1,-6 "/><path stroke-width="6" d="M377,581c7,-17 8,-17 16,-33 "/><path stroke-width="4" d="M393,548c11,-22 11,-22 21,-44 7,-13 9,-13 14,-27 "/><path stroke-width="5" d="M428,477c2,-7 2,-8 1,-14 "/><path stroke-width="7" d="M429,463c0,-2 -1,-2 -3,-2 "/><path stroke-width="6" d="M426,461c-12,2 -12,2 -24,7 "/><path stroke-width="4" d="M402,468c-32,13 -32,14 -63,28 -18,8 -18,9 -36,16 -30,11 -30,13 -61,21 -18,4 -22,7 -37,3 "/><path stroke-width="5" d="M205,536c-7,-3 -10,-9 -8,-17 7,-29 12,-30 28,-59 "/><path stroke-width="4" d="M225,460c12,-20 13,-19 27,-39 26,-35 27,-34 52,-69 17,-23 16,-24 33,-46 8,-10 8,-10 17,-19 "/><path stroke-width="6" d="M354,287c1,0 1,0 2,0 "/><path stroke-width="8" d="M356,287c3,0 4,-1 6,0 0,0 -2,0 -2,1 "/><path stroke-width="7" d="M360,288c-5,4 -4,5 -9,9 -3,3 -3,3 -6,5 "/><path stroke-width="6" d="M345,302c-16,13 -16,13 -32,26 "/><path stroke-width="4" d="M313,328c-22,18 -22,18 -44,37 -10,9 -10,9 -20,17 -17,14 -17,15 -35,28 -10,8 -10,10 -20,15 "/><path stroke-width="6" d="M194,425c-2,1 -4,-2 -3,-4 3,-7 6,-8 12,-15 "/><path stroke-width="5" d="M203,406c12,-12 12,-11 24,-22 10,-9 10,-9 21,-17 "/></g></svg>