<?xml version="1.0" encoding="UTF-8" standalone="no"?>
<svg xmlns="http://www.w3.org/2000/svg" version="1.2" baseProfile="tiny" height="1771" width="1080"><g stroke-linejoin="round" stroke-linecap="round" fill="none" stroke="black"><path stroke-width="16" d="M159,1018c0,0 0,0 0,0 "/><path stroke-width="17" d="M159,1018c1,2 1,2 3,5 "/><path stroke-width="15" d="M162,1023c1,1 0,1 2,3 "/><path stroke-width="14" d="M164,1026c1,2 1,2 3,4 "/><path stroke-width="12" d="M167,1030c4,2 4,2 9,3 "/><path stroke-width="10" d="M176,1033c9,3 9,4 18,4 "/><path stroke-width="9" d="M194,1037c9,-1 9,-2 17,-7 "/><path stroke-width="8" d="M211,1030c14,-8 15,-9 27,-20 21,-20 21,-20 39,-42 17,-21 17,-22 32,-45 16,-25 17,-24 29,-51 12,-27 10,-28 19,-55 10,-27 11,-26 20,-53 9,-27 8,-27 15,-54 7,-27 6,-27 11,-54 5,-23 5,-23 10,-45 5,-21 5,-21 11,-42 4,-18 5,-18 10,-35 4,-17 3,-18 8,-34 4,-15 4,-15 11,-30 5,-12 4,-13 13,-24 9,-11 9,-12 22,-19 13,-7 14,-7 29,-10 22,-4 22,-4 45,-4 22,0 22,0 44,2 21,2 22,1 42,6 16,3 16,4 31,10 15,5 16,4 29,13 13,9 13,10 24,23 11,14 11,14 21,30 10,15 11,15 18,31 7,16 7,17 11,34 5,18 6,19 7,37 0,20 0,20 -5,39 -4,18 -5,19 -12,36 -8,17 -9,17 -19,34 -10,17 -10,17 -23,32 -13,16 -13,15 -28,29 -12,11 -12,13 -26,20 -15,7 -17,5 -33,9 "/><path stroke-width="10" d="M643,798c-1,0 -1,0 -2,0 "/><path stroke-width="14" d="M479,717c0,0 0,0 0,0 "/><path stroke-width="15" d="M479,717c-3,-1 -3,0 -6,-1 "/><path stroke-width="13" d="M473,716c-5,-2 -5,-2 -10,-4 "/><path stroke-width="10" d="M463,712c-8,-2 -8,-2 -15,-6 "/><path stroke-width="9" d="M448,706c-28,-15 -30,-13 -55,-32 "/><path stroke-width="8" d="M393,674c-32,-24 -31,-26 -59,-54 -22,-22 -21,-24 -42,-47 -16,-19 -15,-19 -31,-38 -9,-11 -9,-11 -18,-22 -5,-7 -5,-7 -9,-15 -5,-8 -5,-8 -9,-17 "/><path stroke-width="9" d="M225,481c-3,-7 -3,-7 -5,-14 "/><path stroke-width="10" d="M220,467c-2,-6 -2,-6 -3,-13 "/><path stroke-width="9" d="M217,454c-1,-9 -1,-9 -2,-17 -2,-10 -3,-10 -5,-19 "/><path stroke-width="8" d="M210,418c-2,-9 -2,-9 -4,-19 "/><path stroke-width="9" d="M206,399c-1,-8 -1,-8 -2,-16 -1,-9 0,-9 -2,-17 -2,-8 -2,-8 -6,-15 -4,-10 -3,-10 -9,-18 "/><path stroke-width="8" d="M187,333c-10,-16 -11,-16 -22,-31 -2,-3 -2,-3 -5,-7 "/><path stroke-width="12" d="M211,153c0,0 0,0 0,0 "/><path stroke-width="15" d="M211,153c4,-1 4,-1 8,-1 "/><path stroke-width="13" d="M219,152c4,-1 4,-1 9,0 "/><path stroke-width="10" d="M228,152c18,1 18,1 35,4 "/><path stroke-width="8" d="M263,156c45,7 45,6 89,16 33,7 33,8 66,18 29,8 30,7 58,18 31,11 32,10 62,26 33,17 33,18 63,40 31,21 31,21 59,46 28,23 29,22 53,48 20,22 18,24 35,48 14,20 16,19 28,41 11,18 10,19 17,39 6,17 6,17 10,35 3,16 3,17 3,33 0,15 0,16 -4,30 -4,15 -3,16 -11,29 -6,12 -7,12 -17,22 -10,9 -10,10 -22,16 -15,6 -16,7 -33,7 -21,1 -22,0 -43,-4 -25,-5 -25,-6 -50,-12 -25,-7 -25,-9 -51,-15 -22,-5 -22,-5 -44,-8 -18,-3 -18,-4 -35,-3 -12,0 -12,3 -23,5 -8,1 -8,1 -16,1 "/><path stroke-width="10" d="M457,632c-6,0 -6,-1 -11,-2 "/><path stroke-width="11" d="M446,630c-2,-1 -2,-1 -3,-1 "/></g></svg>