<?xml version="1.0" encoding="UTF-8" standalone="no"?>
<svg xmlns="http://www.w3.org/2000/svg" version="1.2" baseProfile="tiny" height="1771" width="1080"><g stroke-linejoin="round" stroke-linecap="round" fill="none" stroke="black"><path stroke-width="16" d="M395,595c0,0 0,0 0,0 "/><path stroke-width="18" d="M395,595c0,0 0,0 0,-1 "/><path stroke-width="17" d="M395,594c0,0 0,-1 0,-1 "/><path stroke-width="16" d="M395,593c-1,-1 -1,-1 -1,-2 -1,-1 -1,-1 -2,-2 "/><path stroke-width="12" d="M392,589c-4,-8 -5,-8 -8,-16 "/><path stroke-width="9" d="M384,573c-5,-12 -6,-13 -7,-26 "/><path stroke-width="8" d="M377,547c-1,-15 -2,-16 2,-31 6,-21 5,-23 18,-41 13,-19 15,-19 34,-33 19,-13 19,-13 41,-22 19,-9 20,-10 41,-13 21,-2 24,-4 44,3 28,9 29,12 52,31 33,28 33,29 60,63 28,35 28,35 51,74 18,31 19,32 30,66 8,23 12,26 8,48 -3,13 -8,16 -21,20 -16,5 -20,4 -38,-1 -28,-7 -29,-9 -54,-25 -35,-23 -34,-26 -67,-54 -41,-34 -40,-35 -81,-70 -39,-34 -39,-34 -79,-66 -33,-27 -33,-26 -66,-53 -27,-21 -25,-23 -53,-43 -32,-23 -33,-22 -66,-44 "/><path stroke-width="10" d="M233,356c0,0 0,0 0,0 "/></g></svg>