<?xml version="1.0" encoding="UTF-8" standalone="no"?>
<svg xmlns="http://www.w3.org/2000/svg" version="1.2" baseProfile="tiny" height="1771" width="1080"><g stroke-linejoin="round" stroke-linecap="round" fill="none" stroke="black"><path stroke-width="16" d="M664,304c0,0 0,0 0,0 "/><path stroke-width="17" d="M664,304c0,1 0,1 -1,2 "/><path stroke-width="15" d="M663,306c0,3 0,3 0,6 "/><path stroke-width="11" d="M663,312c-1,9 -1,9 -2,17 "/><path stroke-width="8" d="M661,329c-9,48 -8,49 -20,97 -15,64 -14,65 -35,128 -20,57 -22,57 -48,112 -29,59 -31,58 -62,116 -32,58 -32,58 -64,115 -23,42 -22,43 -47,83 -13,22 -13,22 -30,41 -5,7 -7,10 -13,10 "/><path stroke-width="9" d="M342,1031c-3,0 -5,-4 -5,-9 -4,-32 -5,-33 -3,-65 "/><path stroke-width="8" d="M334,957c2,-63 0,-64 11,-126 11,-62 12,-63 33,-122 16,-45 17,-46 42,-86 13,-20 14,-26 34,-35 14,-6 20,-4 35,4 22,10 22,14 40,32 25,26 23,29 46,57 26,30 26,31 53,60 24,25 22,27 49,49 16,13 18,13 36,20 7,2 11,2 14,-2 6,-8 4,-12 3,-24 -3,-29 -4,-29 -12,-57 -7,-27 -8,-27 -19,-52 -9,-23 -7,-26 -22,-44 -9,-10 -13,-14 -25,-13 -18,2 -21,6 -35,19 -31,31 -30,33 -55,69 -31,45 -28,46 -57,92 -29,48 -28,48 -58,95 -26,41 -26,41 -55,81 -22,29 -22,29 -46,57 -13,16 -14,15 -29,29 "/><path stroke-width="9" d="M317,1060c-3,3 -6,5 -8,5 "/><path stroke-width="12" d="M309,1065c-1,0 1,-3 2,-5 "/><path stroke-width="11" d="M311,1060c8,-16 9,-15 17,-31 "/><path stroke-width="8" d="M328,1029c21,-39 22,-39 40,-78 15,-35 14,-36 27,-72 10,-28 9,-29 20,-58 7,-19 5,-20 16,-38 5,-8 6,-10 15,-14 "/><path stroke-width="9" d="M446,769c7,-3 9,-3 15,0 16,8 17,10 29,24 "/><path stroke-width="8" d="M490,793c19,22 18,24 33,49 16,27 12,30 29,56 15,25 14,26 34,48 15,16 16,17 36,28 18,10 19,12 39,13 20,2 22,1 41,-6 20,-7 20,-8 38,-20 20,-14 19,-15 38,-31 15,-14 15,-15 30,-29 9,-8 9,-8 18,-16 "/><path stroke-width="9" d="M826,885c4,-3 4,-3 8,-6 "/><path stroke-width="14" d="M834,879c0,0 0,0 0,0 "/><path stroke-width="13" d="M834,879c-7,7 -7,7 -14,13 "/><path stroke-width="8" d="M820,892c-26,25 -27,24 -50,50 -36,40 -36,40 -68,83 -31,44 -32,44 -58,91 -30,53 -31,53 -54,109 -26,65 -27,65 -45,133 -20,79 -21,80 -30,160 -11,90 -7,91 -10,181 -2,66 0,66 -1,132 "/></g></svg>