<?xml version="1.0" encoding="UTF-8" standalone="no"?>
<svg xmlns="http://www.w3.org/2000/svg" version="1.2" baseProfile="tiny" height="1771" width="1080"><g stroke-linejoin="round" stroke-linecap="round" fill="none" stroke="black"><path stroke-width="16" d="M177,948c0,0 0,0 0,0 "/><path stroke-width="17" d="M177,948c1,0 1,0 2,0 "/><path stroke-width="16" d="M179,948c1,-1 1,-1 2,-2 "/><path stroke-width="15" d="M181,946c1,-3 1,-2 3,-5 "/><path stroke-width="12" d="M184,941c3,-5 3,-5 5,-11 "/><path stroke-width="9" d="M189,930c6,-13 5,-13 11,-26 "/><path stroke-width="8" d="M200,904c5,-11 6,-11 11,-22 5,-12 4,-13 10,-24 8,-18 8,-18 18,-36 12,-23 11,-23 25,-45 15,-24 16,-24 33,-47 17,-24 15,-25 34,-47 18,-20 18,-20 39,-37 20,-16 20,-18 42,-29 23,-11 24,-10 48,-15 23,-5 24,-6 48,-4 23,3 25,3 45,14 28,15 30,15 52,38 26,27 26,29 46,62 19,33 19,33 32,69 10,27 10,28 14,57 3,25 0,25 0,50 0,19 0,19 -2,39 -2,17 2,21 -7,33 -7,10 -12,12 -26,12 -19,-1 -22,-4 -40,-16 -28,-17 -28,-19 -52,-41 -31,-28 -31,-28 -58,-58 -29,-31 -29,-32 -55,-65 -25,-33 -25,-33 -48,-68 -23,-33 -22,-33 -43,-67 -22,-33 -21,-33 -43,-65 -22,-32 -22,-32 -45,-63 -17,-24 -19,-23 -35,-48 -11,-16 -10,-17 -19,-34 -7,-12 -7,-12 -14,-24 -6,-11 -6,-11 -13,-22 -6,-10 -7,-9 -12,-20 -4,-9 -4,-10 -7,-20 "/></g></svg>