<?xml version="1.0" encoding="UTF-8" standalone="no"?>
<svg xmlns="http://www.w3.org/2000/svg" version="1.2" baseProfile="tiny" height="1771" width="1080"><g stroke-linejoin="round" stroke-linecap="round" fill="none" stroke="black"><path stroke-width="16" d="M701,1027c0,0 0,0 0,0 "/><path stroke-width="17" d="M701,1027c0,-1 0,-1 -1,-3 "/><path stroke-width="14" d="M700,1024c0,-3 0,-3 -1,-6 "/><path stroke-width="12" d="M699,1018c-1,-5 0,-5 -2,-11 "/><path stroke-width="9" d="M697,1007c-5,-22 -4,-23 -12,-45 "/><path stroke-width="8" d="M685,962c-10,-32 -9,-33 -23,-63 -15,-30 -15,-31 -35,-57 -26,-34 -27,-34 -57,-64 -30,-32 -30,-32 -62,-61 -22,-19 -22,-22 -47,-36 -16,-9 -18,-9 -36,-9 -17,1 -20,1 -33,11 -17,13 -20,15 -28,35 -11,28 -8,30 -9,61 0,38 2,38 6,77 5,33 2,35 12,66 9,29 11,29 27,54 20,29 22,29 46,55 27,30 28,30 58,58 31,30 31,31 64,58 30,25 30,25 62,47 28,18 29,18 59,32 24,12 24,14 50,19 21,4 23,5 43,-1 18,-5 22,-6 34,-21 17,-21 19,-23 24,-50 6,-39 5,-42 -1,-82 -9,-50 -11,-50 -30,-98 -18,-47 -19,-47 -44,-91 -21,-36 -23,-35 -49,-69 -20,-28 -20,-28 -43,-54 -18,-20 -18,-20 -37,-38 -16,-15 -15,-16 -32,-29 -19,-13 -20,-12 -39,-24 -19,-11 -20,-11 -39,-23 -12,-9 -12,-9 -23,-18 "/><path stroke-width="9" d="M503,647c-4,-4 -4,-4 -6,-9 "/><path stroke-width="11" d="M497,638c-2,-4 -1,-4 -2,-8 "/><path stroke-width="12" d="M495,630c0,-4 0,-4 0,-7 "/><path stroke-width="13" d="M495,623c-1,-3 -1,-3 -3,-6 "/><path stroke-width="14" d="M492,617c-1,-2 -1,-2 -2,-3 -2,-2 -2,-1 -4,-2 "/><path stroke-width="15" d="M486,612c-1,0 -1,0 -3,-1 "/><path stroke-width="16" d="M483,611c0,0 0,0 -1,0 "/><path stroke-width="17" d="M482,611c0,0 1,0 1,0 0,0 0,0 1,-1 0,0 0,-1 0,-1 1,0 1,1 1,1 0,0 0,1 0,1 1,0 1,0 1,-1 "/><path stroke-width="16" d="M486,610c2,-1 1,-1 3,-3 "/></g></svg>