<?xml version="1.0" encoding="UTF-8" standalone="no"?>
<svg xmlns="http://www.w3.org/2000/svg" version="1.2" baseProfile="tiny" height="1771" width="1080"><g stroke-linejoin="round" stroke-linecap="round" fill="none" stroke="black"><path stroke-width="16" d="M317,1165c0,0 0,0 0,0 "/><path stroke-width="18" d="M317,1165c0,-1 1,-1 0,-1 "/><path stroke-width="17" d="M317,1164c0,-1 0,-1 0,-2 "/><path stroke-width="16" d="M317,1162c0,-1 0,-1 0,-3 "/><path stroke-width="15" d="M317,1159c-1,-1 -1,-1 -1,-3 "/><path stroke-width="14" d="M316,1156c-1,-3 -1,-3 -2,-6 "/><path stroke-width="11" d="M314,1150c-2,-8 -2,-8 -5,-16 "/><path stroke-width="10" d="M309,1134c-2,-7 -2,-7 -3,-14 "/><path stroke-width="9" d="M306,1120c-2,-8 -2,-8 -3,-17 "/><path stroke-width="8" d="M303,1103c-2,-12 -2,-11 -4,-23 -1,-17 -1,-17 -2,-33 -2,-24 -2,-24 -3,-49 -2,-28 -1,-28 -3,-56 -2,-28 -3,-28 -5,-56 -3,-28 -3,-28 -5,-56 -3,-27 -3,-27 -5,-54 -2,-26 -2,-26 -5,-52 -2,-25 -3,-25 -4,-50 -1,-24 -1,-24 1,-48 3,-21 3,-21 9,-42 5,-22 3,-23 13,-43 10,-19 11,-20 26,-34 17,-16 17,-18 38,-26 26,-10 28,-9 56,-10 31,-1 31,1 62,6 31,5 32,5 62,14 30,9 30,9 58,22 26,12 26,13 51,28 20,13 20,13 39,27 16,12 17,11 31,25 12,12 12,12 22,25 10,13 10,12 18,26 7,13 7,13 12,27 4,13 5,14 7,27 2,11 3,12 1,23 -1,13 -2,13 -6,26 -5,13 -5,13 -12,26 -6,14 -6,14 -14,26 -10,16 -9,17 -20,31 -11,13 -11,14 -24,25 -11,9 -11,10 -24,16 -16,8 -17,9 -34,11 -19,1 -20,-1 -39,-5 -23,-5 -22,-6 -45,-12 -23,-7 -24,-6 -47,-12 -22,-6 -22,-7 -44,-12 -22,-5 -22,-4 -43,-10 -18,-4 -19,-4 -36,-11 -16,-8 -16,-8 -31,-18 -14,-9 -14,-9 -28,-20 -12,-10 -12,-10 -23,-20 -11,-11 -11,-12 -22,-23 -11,-11 -12,-11 -23,-23 -12,-11 -12,-11 -23,-23 -12,-13 -10,-14 -22,-26 -12,-12 -13,-10 -25,-22 -11,-10 -10,-10 -21,-21 -8,-8 -8,-8 -17,-16 -7,-7 -7,-8 -14,-15 -7,-7 -7,-7 -14,-14 "/><path stroke-width="9" d="M122,579c-5,-6 -5,-6 -11,-12 -5,-4 -5,-5 -11,-9 "/><path stroke-width="11" d="M100,558c-3,-2 -3,-2 -7,-4 "/><path stroke-width="13" d="M93,554c-1,-2 -1,-2 -3,-3 "/><path stroke-width="14" d="M90,551c-2,-1 -2,-1 -3,-2 -2,-1 -2,-1 -4,-2 -2,-2 -2,-2 -4,-3 -2,-1 -1,-2 -4,-3 "/><path stroke-width="13" d="M75,541c-3,-1 -4,-1 -8,-2 "/><path stroke-width="12" d="M67,539c-3,-1 -3,-1 -7,-2 "/><path stroke-width="13" d="M60,537c-3,-1 -3,-1 -6,-2 -2,-1 -2,0 -5,-2 "/><path stroke-width="12" d="M49,533c-3,-1 -3,-2 -7,-3 "/></g></svg>