<?xml version="1.0" encoding="UTF-8" standalone="no"?>
<svg xmlns="http://www.w3.org/2000/svg" version="1.2" baseProfile="tiny" height="1771" width="1080"><g stroke-linejoin="round" stroke-linecap="round" fill="none" stroke="black"><path stroke-width="16" d="M422,758c0,0 0,0 0,0 -2,-2 -3,-2 -5,-4 "/><path stroke-width="12" d="M417,754c-4,-3 -3,-4 -7,-8 "/><path stroke-width="10" d="M410,746c-5,-6 -5,-6 -11,-13 "/><path stroke-width="8" d="M399,733c-19,-23 -21,-22 -38,-47 -17,-27 -21,-27 -30,-58 -7,-22 -5,-24 -2,-48 4,-24 3,-27 16,-48 14,-21 17,-22 39,-35 27,-15 29,-17 60,-21 40,-5 42,-4 82,5 56,12 57,15 110,38 58,25 59,25 112,58 50,31 50,32 94,70 40,35 41,35 73,77 25,32 29,34 40,72 7,26 8,32 -2,56 -11,29 -15,32 -40,51 -31,23 -34,25 -73,35 -44,10 -47,10 -93,5 -42,-5 -45,-6 -82,-26 -37,-20 -38,-23 -66,-54 -35,-38 -33,-41 -60,-85 -30,-47 -27,-48 -54,-97 -24,-42 -25,-41 -48,-83 -19,-34 -17,-35 -36,-68 -14,-27 -15,-26 -30,-52 -14,-25 -14,-25 -27,-50 -12,-21 -12,-21 -24,-42 -8,-15 -9,-14 -16,-29 -5,-9 -3,-10 -6,-20 "/><path stroke-width="9" d="M298,337c-3,-6 -3,-5 -6,-11 "/></g></svg>