<?xml version="1.0" encoding="UTF-8" standalone="no"?>
<svg xmlns="http://www.w3.org/2000/svg" version="1.2" baseProfile="tiny" height="1771" width="1080"><g stroke-linejoin="round" stroke-linecap="round" fill="none" stroke="black"><path stroke-width="16" d="M204,834c0,0 0,0 0,0 "/><path stroke-width="17" d="M204,834c2,1 2,1 4,2 "/><path stroke-width="16" d="M208,836c1,1 0,1 1,2 1,1 1,1 2,1 "/><path stroke-width="15" d="M211,839c3,0 4,0 6,-2 "/><path stroke-width="11" d="M217,837c7,-6 7,-6 11,-14 "/><path stroke-width="9" d="M228,823c9,-15 9,-15 16,-31 "/><path stroke-width="8" d="M244,792c11,-23 10,-24 22,-45 12,-22 13,-22 27,-42 15,-22 15,-22 32,-44 17,-22 18,-22 36,-44 17,-22 16,-23 35,-44 16,-17 15,-18 34,-31 20,-14 20,-15 42,-22 26,-7 28,-6 55,-6 34,-1 34,0 68,4 37,3 37,2 73,9 32,6 32,7 63,17 26,8 28,6 52,20 15,8 16,10 27,24 8,11 8,13 10,27 4,19 3,20 1,39 -2,20 -2,20 -9,39 -6,20 -4,23 -17,40 -14,17 -15,19 -35,28 -27,11 -29,11 -59,11 -37,1 -38,-1 -74,-10 -38,-9 -38,-10 -73,-25 -35,-15 -36,-15 -69,-34 -32,-20 -32,-21 -62,-44 -31,-24 -32,-24 -61,-52 -32,-31 -32,-31 -62,-65 -28,-32 -27,-33 -55,-66 -21,-24 -22,-24 -43,-48 "/></g></svg>