<?xml version="1.0" encoding="UTF-8" standalone="no"?>
<svg xmlns="http://www.w3.org/2000/svg" version="1.2" baseProfile="tiny" height="1771" width="1080"><g stroke-linejoin="round" stroke-linecap="round" fill="none" stroke="black"><path stroke-width="16" d="M437,1143c0,0 0,0 0,0 "/><path stroke-width="17" d="M437,1143c-1,0 -1,0 -2,0 "/><path stroke-width="16" d="M435,1143c-2,0 -2,0 -4,-1 "/><path stroke-width="11" d="M431,1142c-9,-3 -10,-2 -17,-7 "/><path stroke-width="8" d="M414,1135c-19,-12 -21,-11 -37,-26 -18,-19 -20,-20 -32,-43 -15,-31 -17,-33 -22,-67 -5,-40 -7,-43 2,-83 11,-58 11,-60 37,-113 34,-69 36,-70 84,-130 52,-67 54,-66 116,-124 53,-50 55,-48 114,-93 44,-33 44,-34 92,-63 35,-21 35,-22 73,-37 28,-11 29,-11 59,-13 27,-2 29,-2 55,5 18,5 21,5 34,18 10,10 10,14 12,30 2,21 6,25 -5,43 -17,30 -22,29 -50,52 -42,35 -43,35 -89,65 -58,38 -59,36 -119,72 -59,37 -59,37 -119,73 -51,31 -51,31 -102,61 -37,21 -37,21 -75,41 -29,15 -29,14 -58,29 -19,10 -19,9 -38,19 -9,5 -9,6 -18,10 "/><path stroke-width="10" d="M328,861c-3,2 -3,1 -6,2 "/><path stroke-width="14" d="M322,863c-1,1 -2,2 -2,2 "/><path stroke-width="15" d="M320,865c0,-1 0,-2 1,-4 "/><path stroke-width="13" d="M321,861c3,-3 3,-4 6,-7 "/><path stroke-width="10" d="M327,854c7,-7 7,-6 15,-13 "/></g></svg>