<?xml version="1.0" encoding="UTF-8" standalone="no"?>
<svg xmlns="http://www.w3.org/2000/svg" version="1.2" baseProfile="tiny" height="1771" width="1080"><g stroke-linejoin="round" stroke-linecap="round" fill="none" stroke="black"><path stroke-width="16" d="M564,237c0,0 0,0 0,0 "/><path stroke-width="17" d="M564,237c0,3 0,3 0,6 "/><path stroke-width="12" d="M564,243c-1,11 0,11 -1,22 "/><path stroke-width="8" d="M563,265c-3,38 -1,38 -6,76 -7,42 -7,42 -17,84 -11,41 -10,41 -25,81 -17,45 -19,45 -40,88 -24,51 -25,50 -50,100 -29,55 -30,55 -59,110 -24,46 -23,46 -48,92 -15,28 -14,28 -32,54 -7,11 -7,12 -18,19 "/><path stroke-width="9" d="M268,969c-6,4 -8,5 -14,3 -10,-3 -13,-4 -20,-12 "/><path stroke-width="8" d="M234,960c-12,-16 -14,-17 -19,-36 -9,-33 -9,-34 -8,-68 1,-40 1,-41 10,-79 10,-41 10,-42 27,-80 15,-34 16,-35 37,-65 17,-23 17,-25 40,-42 15,-11 18,-12 36,-14 21,-2 23,0 44,6 24,6 24,9 47,20 28,12 28,14 56,27 28,14 28,16 58,27 27,9 27,10 55,12 24,2 26,3 48,-4 23,-7 24,-9 43,-24 20,-15 19,-17 35,-37 15,-18 16,-18 28,-39 13,-20 14,-21 21,-43 7,-22 8,-23 7,-46 0,-19 0,-22 -9,-39 -5,-9 -8,-12 -18,-13 -14,-2 -17,0 -30,7 -26,15 -27,17 -50,38 -25,23 -25,24 -46,51 -23,29 -23,30 -41,62 -22,38 -21,38 -39,77 -21,47 -21,47 -39,95 -21,55 -20,55 -38,110 -19,57 -19,57 -37,114 -16,49 -14,50 -31,97 -12,32 -11,32 -27,62 -10,18 -10,18 -24,33 -10,12 -11,12 -23,20 -11,7 -11,7 -23,11 -11,3 -11,4 -23,4 "/><path stroke-width="9" d="M301,1204c-6,0 -8,1 -12,-3 "/><path stroke-width="10" d="M289,1201c-4,-5 -4,-7 -4,-14 "/><path stroke-width="9" d="M285,1187c-2,-19 -3,-20 1,-39 "/><path stroke-width="8" d="M286,1148c7,-35 6,-36 20,-68 9,-21 9,-23 24,-38 12,-11 14,-11 30,-15 20,-5 21,-3 42,-2 27,2 27,3 54,6 31,5 31,7 63,11 31,4 31,6 62,5 30,0 31,1 60,-7 25,-7 27,-6 49,-21 19,-14 20,-16 33,-36 13,-20 11,-22 18,-45 7,-22 5,-23 10,-46 4,-18 6,-18 8,-35 1,-9 1,-10 -2,-18 "/><path stroke-width="9" d="M757,839c-1,-4 -2,-5 -7,-7 -10,-5 -10,-6 -21,-6 "/><path stroke-width="8" d="M729,826c-27,0 -28,-1 -53,7 -35,11 -36,13 -68,33 -32,21 -33,21 -60,49 -28,28 -29,29 -50,62 -20,34 -21,34 -34,71 -11,35 -11,36 -14,72 -2,33 -1,34 4,67 4,26 5,26 13,52 6,20 7,20 16,39 6,14 7,14 14,26 5,8 5,8 11,15 "/><path stroke-width="10" d="M508,1319c3,3 3,3 6,5 "/><path stroke-width="12" d="M514,1324c3,2 4,2 7,1 5,-2 5,-3 10,-8 "/><path stroke-width="9" d="M531,1317c12,-12 11,-12 22,-24 "/><path stroke-width="8" d="M553,1293c20,-22 19,-23 41,-43 17,-17 18,-16 36,-32 18,-16 18,-15 35,-32 19,-17 18,-18 36,-36 14,-16 13,-17 28,-33 9,-9 9,-10 19,-18 "/><path stroke-width="9" d="M748,1099c5,-4 5,-5 11,-7 "/><path stroke-width="11" d="M759,1092c4,-1 6,-1 9,1 4,4 5,5 6,12 "/><path stroke-width="9" d="M774,1105c2,14 3,15 2,30 "/><path stroke-width="8" d="M776,1135c-3,28 -3,28 -11,55 -10,32 -10,33 -26,63 -19,39 -21,38 -44,75 -28,47 -28,47 -57,94 -31,48 -31,48 -62,96 -26,42 -27,41 -52,84 -18,30 -20,29 -33,62 -9,21 -8,22 -11,45 -3,23 -1,24 -1,48 "/><path stroke-width="11" d="M479,1757c0,0 0,0 0,0 "/></g></svg>