<?xml version="1.0" encoding="UTF-8" standalone="no"?>
<svg xmlns="http://www.w3.org/2000/svg" version="1.2" baseProfile="tiny" height="1771" width="1080"><g stroke-linejoin="round" stroke-linecap="round" fill="none" stroke="black"><path stroke-width="16" d="M511,1076c0,0 0,0 0,0 "/><path stroke-width="13" d="M511,1076c23,22 22,24 47,44 "/><path stroke-width="8" d="M558,1120c16,12 16,17 34,21 17,5 28,9 36,-3 13,-23 13,-35 5,-65 -18,-66 -21,-69 -58,-128 -45,-73 -48,-73 -105,-137 -48,-54 -48,-56 -104,-101 -34,-26 -35,-31 -75,-43 -21,-7 -33,-7 -46,5 -13,12 -13,25 -5,43 15,34 22,35 51,63 47,43 50,40 101,79 60,48 60,48 121,95 51,39 50,40 102,77 27,19 27,19 56,35 6,3 6,2 13,4 "/></g></svg>