<?xml version="1.0" encoding="UTF-8" standalone="no"?>
<svg xmlns="http://www.w3.org/2000/svg" version="1.2" baseProfile="tiny" height="1771" width="1080"><g stroke-linejoin="round" stroke-linecap="round" fill="none" stroke="black"><path stroke-width="16" d="M124,560c0,0 0,0 0,0 "/><path stroke-width="17" d="M124,560c1,-1 1,-1 1,-3 "/><path stroke-width="15" d="M125,557c1,-1 1,-1 1,-3 "/><path stroke-width="14" d="M126,554c1,-3 2,-3 3,-6 "/><path stroke-width="11" d="M129,548c3,-8 2,-8 5,-16 "/><path stroke-width="10" d="M134,532c3,-6 3,-6 6,-12 2,-5 2,-5 4,-9 "/><path stroke-width="11" d="M144,511c3,-6 3,-6 6,-11 "/><path stroke-width="10" d="M150,500c4,-6 4,-6 9,-11 "/><path stroke-width="9" d="M159,489c7,-9 7,-9 16,-17 "/><path stroke-width="8" d="M175,472c9,-9 10,-8 20,-18 13,-13 13,-13 24,-27 15,-17 13,-18 28,-36 11,-15 12,-15 24,-28 11,-12 11,-13 23,-23 10,-9 10,-10 22,-17 16,-8 16,-8 33,-14 21,-7 22,-7 43,-11 24,-6 24,-5 48,-9 23,-4 24,-3 47,-5 23,-3 23,-4 47,-4 20,-1 20,0 39,2 19,2 20,1 38,6 14,4 14,5 27,12 12,6 13,5 23,13 12,9 12,9 22,19 11,12 12,12 22,25 12,16 13,16 24,33 11,19 11,19 21,39 9,19 9,19 16,38 7,18 6,18 10,37 4,17 4,17 7,35 3,17 3,17 5,34 2,15 2,15 3,30 1,15 1,15 2,29 0,12 0,12 0,23 -1,12 -1,12 -3,24 -3,11 -2,12 -7,21 -4,8 -4,8 -10,15 "/><path stroke-width="9" d="M773,715c-6,6 -6,7 -13,10 -8,3 -9,3 -18,1 "/><path stroke-width="8" d="M742,726c-18,-4 -19,-5 -35,-14 -29,-15 -28,-17 -56,-34 -25,-15 -25,-15 -51,-31 -24,-14 -24,-14 -48,-29 -25,-15 -25,-15 -49,-31 -22,-15 -22,-15 -43,-32 -22,-17 -21,-18 -43,-36 -19,-17 -20,-17 -39,-34 -17,-15 -16,-15 -33,-31 -12,-11 -12,-11 -24,-23 -11,-11 -10,-11 -21,-22 -11,-12 -11,-12 -21,-24 -12,-13 -13,-12 -24,-25 -13,-14 -12,-14 -24,-28 -14,-15 -13,-15 -27,-30 -12,-12 -13,-12 -25,-24 -11,-11 -11,-12 -23,-21 -11,-10 -12,-10 -24,-19 -12,-8 -13,-8 -25,-16 -12,-7 -12,-7 -23,-14 "/></g></svg>