<?xml version="1.0" encoding="UTF-8" standalone="no"?>
<svg xmlns="http://www.w3.org/2000/svg" version="1.2" baseProfile="tiny" height="1850" width="1080"><g stroke-linejoin="round" stroke-linecap="round" fill="none" stroke="black"><path stroke-width="18" d="M420,1383c0,0 0,0 0,0 "/><path stroke-width="21" d="M420,1383c0,0 0,0 0,0 "/><path stroke-width="17" d="M420,1383c2,-10 2,-10 4,-20 "/><path stroke-width="11" d="M424,1363c7,-28 5,-29 15,-55 "/><path stroke-width="9" d="M439,1308c19,-51 21,-50 45,-99 24,-51 26,-50 51,-100 20,-39 21,-39 38,-79 17,-40 17,-40 32,-81 16,-42 15,-42 31,-84 17,-42 16,-42 35,-83 14,-30 16,-30 32,-59 13,-22 14,-22 27,-44 7,-11 7,-11 14,-22 "/><path stroke-width="10" d="M744,657c4,-5 4,-5 7,-11 "/><path stroke-width="13" d="M751,646c2,-3 3,-2 4,-5 "/><path stroke-width="15" d="M755,641c1,-3 0,-3 1,-5 "/><path stroke-width="17" d="M756,636c0,-2 1,-2 1,-3 "/><path stroke-width="18" d="M757,633c0,-1 0,-1 0,-2 -1,-2 -1,-3 -2,-3 "/><path stroke-width="15" d="M755,628c-4,-2 -5,-4 -10,-3 "/><path stroke-width="11" d="M745,625c-16,3 -17,3 -32,10 "/><path stroke-width="9" d="M713,635c-33,16 -33,16 -64,36 -31,20 -32,20 -60,43 -29,22 -29,22 -54,49 -24,25 -23,26 -44,53 -20,26 -20,26 -37,54 -17,27 -16,28 -29,56 -12,23 -12,23 -21,47 -7,22 -7,22 -11,44 -3,23 -3,23 -4,46 -1,17 -4,19 1,35 5,15 6,16 18,26 12,11 14,12 30,16 24,7 25,6 51,7 53,3 54,1 107,1 24,0 24,-1 49,-1 22,0 22,-1 44,1 13,2 13,2 26,6 14,5 14,5 27,12 "/><path stroke-width="10" d="M742,1166c7,3 7,3 13,8 "/><path stroke-width="11" d="M755,1174c5,4 6,5 9,11 "/><path stroke-width="10" d="M764,1185c4,9 5,10 6,20 "/><path stroke-width="9" d="M770,1205c0,14 1,16 -4,29 -12,29 -13,29 -32,55 -22,30 -25,27 -49,56 -15,18 -13,19 -28,38 -12,17 -12,17 -25,34 -7,9 -7,9 -14,17 -6,7 -6,8 -13,13 "/><path stroke-width="10" d="M605,1447c-8,6 -9,6 -18,10 "/><path stroke-width="9" d="M587,1457c-9,5 -9,4 -19,7 "/><path stroke-width="10" d="M568,1464c-8,4 -8,4 -16,8 -8,3 -9,3 -16,7 -8,4 -8,4 -15,9 "/><path stroke-width="11" d="M521,1488c-6,3 -5,4 -11,8 -6,4 -6,4 -12,8 -7,4 -7,4 -13,9 -7,5 -6,5 -12,11 -6,6 -6,6 -12,12 -6,6 -5,6 -11,11 -6,5 -6,5 -12,10 -5,6 -5,6 -10,11 "/><path stroke-width="12" d="M428,1568c-3,3 -3,3 -6,7 "/><path stroke-width="14" d="M422,1575c-3,2 -3,3 -5,6 "/><path stroke-width="15" d="M417,1581c-2,2 -3,2 -4,5 -2,2 -2,2 -2,6 "/><path stroke-width="13" d="M411,1592c0,8 -1,8 1,16 "/><path stroke-width="11" d="M412,1608c2,4 4,3 7,7 "/><path stroke-width="15" d="M357,1180c0,0 0,0 0,0 "/><path stroke-width="20" d="M357,1180c0,0 0,0 0,0 "/><path stroke-width="17" d="M357,1180c-2,5 -2,5 -4,10 "/><path stroke-width="11" d="M353,1190c-5,20 -6,20 -8,40 "/><path stroke-width="9" d="M345,1230c-4,29 -2,29 -3,58 -1,28 -2,28 -2,56 0,30 1,30 3,59 3,28 2,28 7,55 4,23 6,23 11,46 5,21 5,22 9,44 5,19 4,19 8,38 4,16 4,16 9,32 3,14 4,14 8,27 3,12 2,13 5,25 3,9 3,9 6,18 "/><path stroke-width="10" d="M406,1688c3,7 4,7 5,14 "/><path stroke-width="11" d="M411,1702c2,8 1,8 2,16 1,8 1,8 2,16 "/></g></svg>