<?xml version="1.0" encoding="UTF-8" standalone="no"?>
<svg xmlns="http://www.w3.org/2000/svg" version="1.2" baseProfile="tiny" height="1850" width="1080"><g stroke-linejoin="round" stroke-linecap="round" fill="none" stroke="black"><path stroke-width="18" d="M467,1270c0,0 0,0 0,0 "/><path stroke-width="15" d="M467,1270c10,-54 7,-55 20,-109 "/><path stroke-width="9" d="M487,1161c16,-69 17,-69 40,-136 26,-77 28,-77 58,-153 24,-60 25,-60 49,-119 15,-38 16,-38 30,-77 12,-31 11,-31 22,-62 9,-26 10,-26 17,-52 4,-14 4,-14 5,-29 "/><path stroke-width="10" d="M708,533c1,-8 1,-9 -2,-16 "/><path stroke-width="11" d="M706,517c-2,-5 -3,-8 -8,-10 -7,-2 -11,-2 -17,3 "/><path stroke-width="10" d="M681,510c-33,28 -34,30 -61,65 "/><path stroke-width="9" d="M620,575c-27,35 -27,36 -48,76 -16,30 -13,31 -26,63 -12,31 -13,31 -24,62 -8,26 -9,26 -13,52 -2,14 -1,14 1,28 3,12 2,13 8,23 9,14 9,17 23,26 21,14 23,11 47,21 31,11 32,8 62,21 28,13 30,12 54,30 19,13 22,14 33,34 13,22 13,24 15,50 4,30 4,31 -2,61 -6,28 -11,27 -21,54 -3,10 -3,10 -6,19 "/></g></svg>