<?xml version="1.0" encoding="UTF-8" standalone="no"?>
<svg xmlns="http://www.w3.org/2000/svg" version="1.2" baseProfile="tiny" height="1771" width="1080"><g stroke-linejoin="round" stroke-linecap="round" fill="none" stroke="black"><path stroke-width="16" d="M531,1475c0,0 0,0 0,0 "/><path stroke-width="17" d="M531,1475c0,-1 0,-1 0,-2 "/><path stroke-width="15" d="M531,1473c-1,-2 -1,-2 -1,-5 "/><path stroke-width="12" d="M530,1468c-1,-7 -1,-7 -2,-13 "/><path stroke-width="8" d="M528,1455c0,-36 -3,-36 0,-72 3,-51 3,-52 13,-102 8,-42 9,-42 21,-82 13,-41 13,-41 28,-81 16,-39 18,-38 34,-76 16,-36 16,-37 30,-73 12,-31 13,-30 22,-62 8,-25 6,-25 12,-51 4,-22 5,-22 9,-45 2,-16 2,-16 4,-31 2,-12 2,-12 3,-23 1,-8 1,-8 1,-16 "/><path stroke-width="10" d="M705,741c0,-6 0,-6 -1,-12 "/><path stroke-width="11" d="M704,729c-1,-3 -1,-4 -3,-7 "/><path stroke-width="13" d="M701,722c-1,-3 -1,-3 -3,-5 -2,-2 -2,-3 -5,-4 -3,-1 -3,-1 -6,-1 -4,-1 -4,-1 -8,0 "/><path stroke-width="12" d="M679,712c-5,0 -5,0 -10,2 "/><path stroke-width="10" d="M669,714c-8,3 -8,3 -16,6 "/><path stroke-width="9" d="M653,720c-12,6 -12,5 -24,12 "/><path stroke-width="8" d="M629,732c-17,11 -16,12 -32,25 -19,15 -19,15 -37,30 -16,13 -17,12 -31,27 -14,15 -12,17 -25,33 -14,17 -16,16 -28,34 -12,19 -12,19 -21,40 -9,20 -8,20 -14,41 -6,19 -6,19 -9,38 -3,17 -3,17 -3,35 0,13 -1,14 3,27 3,10 4,11 11,18 10,8 11,8 23,12 19,7 19,7 40,10 24,3 25,1 49,1 29,0 29,-2 58,-3 28,-1 28,-1 55,-1 21,-1 21,-2 41,0 12,1 12,3 23,6 8,3 8,2 15,7 "/><path stroke-width="9" d="M747,1112c7,4 7,5 13,11 7,7 7,7 13,14 5,6 5,6 8,14 3,6 3,6 4,14 1,9 1,9 0,18 "/><path stroke-width="8" d="M785,1183c-3,14 -3,15 -7,28 -6,17 -7,17 -14,34 -8,19 -7,19 -17,38 -7,15 -7,15 -15,28 -8,13 -8,13 -18,24 -9,11 -9,11 -19,21 -11,10 -11,11 -22,20 -14,11 -14,11 -29,21 -11,7 -11,7 -23,13 "/><path stroke-width="9" d="M621,1410c-6,4 -7,4 -14,6 -9,3 -9,3 -19,4 "/><path stroke-width="8" d="M588,1420c-10,2 -11,2 -21,2 -11,1 -11,1 -21,1 -10,-1 -10,-1 -19,-2 -10,-1 -10,-2 -19,-3 "/><path stroke-width="9" d="M508,1418c-9,-1 -9,0 -17,-1 "/><path stroke-width="10" d="M491,1417c-6,-1 -6,-1 -12,-2 "/><path stroke-width="11" d="M479,1415c-4,-1 -4,-1 -8,-2 "/><path stroke-width="12" d="M471,1413c-4,-1 -4,-1 -8,-2 -4,-1 -4,-1 -7,-2 "/><path stroke-width="13" d="M456,1409c-2,0 -2,-1 -5,-1 "/><path stroke-width="15" d="M451,1408c-1,0 -1,0 -2,1 -1,2 -1,2 0,5 "/><path stroke-width="12" d="M449,1414c0,7 0,7 2,14 "/><path stroke-width="9" d="M451,1428c3,15 3,15 8,30 "/><path stroke-width="8" d="M459,1458c10,27 9,28 20,55 12,28 13,28 27,55 14,26 14,26 29,51 7,12 7,12 14,23 "/></g></svg>