<?xml version="1.0" encoding="UTF-8" standalone="no"?>
<svg xmlns="http://www.w3.org/2000/svg" version="1.2" baseProfile="tiny" height="1771" width="1080"><g stroke-linejoin="round" stroke-linecap="round" fill="none" stroke="black"><path stroke-width="16" d="M572,1250c0,0 0,0 0,0 "/><path stroke-width="17" d="M572,1250c-1,0 -1,0 -3,0 "/><path stroke-width="16" d="M569,1250c-2,0 -2,0 -4,-1 "/><path stroke-width="11" d="M565,1249c-12,-3 -12,-2 -24,-6 "/><path stroke-width="8" d="M541,1243c-15,-5 -15,-4 -29,-11 -15,-8 -15,-8 -29,-19 -21,-17 -23,-15 -40,-36 -18,-22 -18,-23 -31,-49 -14,-31 -14,-32 -24,-64 -10,-38 -11,-38 -14,-77 -4,-39 -3,-40 -1,-79 2,-38 1,-38 7,-76 5,-34 5,-34 15,-67 9,-30 8,-31 21,-59 12,-23 14,-22 29,-42 13,-17 11,-19 27,-32 16,-12 17,-11 36,-17 21,-8 21,-7 43,-10 20,-3 21,-2 41,-1 19,1 20,0 39,5 14,4 15,4 27,12 9,5 11,5 15,13 4,8 4,11 1,20 -10,23 -11,24 -27,43 -22,27 -23,26 -48,51 -26,25 -26,26 -55,49 -24,20 -24,20 -51,37 -19,12 -20,13 -41,20 -14,4 -15,4 -29,3 -10,0 -11,-1 -19,-6 "/><path stroke-width="9" d="M404,851c-6,-3 -7,-4 -11,-10 -4,-7 -3,-8 -4,-16 -1,-10 -2,-10 0,-19 "/><path stroke-width="8" d="M389,806c4,-14 3,-15 10,-27 12,-19 14,-18 29,-35 "/><path stroke-width="9" d="M428,744c1,-1 1,-1 2,-2 "/></g></svg>