<?xml version="1.0" encoding="UTF-8" standalone="no"?>
<svg xmlns="http://www.w3.org/2000/svg" version="1.2" baseProfile="tiny" height="1771" width="1080"><g stroke-linejoin="round" stroke-linecap="round" fill="none" stroke="black"><path stroke-width="16" d="M213,1096c0,0 0,0 0,0 "/><path stroke-width="17" d="M213,1096c2,-1 2,0 3,-1 "/><path stroke-width="16" d="M216,1095c1,-1 1,-1 2,-1 "/><path stroke-width="15" d="M218,1094c1,-1 1,-1 2,-2 2,-2 2,-2 3,-3 "/><path stroke-width="13" d="M223,1089c3,-6 3,-6 6,-11 "/><path stroke-width="10" d="M229,1078c2,-6 2,-6 4,-13 3,-8 3,-8 4,-16 "/><path stroke-width="9" d="M237,1049c2,-12 2,-12 4,-24 "/><path stroke-width="8" d="M241,1025c3,-17 2,-17 7,-34 5,-21 5,-21 12,-42 6,-18 6,-18 13,-35 8,-18 9,-17 17,-35 7,-15 6,-15 13,-31 7,-18 6,-19 15,-35 9,-16 10,-16 21,-30 12,-16 12,-16 26,-29 12,-13 13,-12 26,-24 14,-12 14,-12 28,-24 13,-11 12,-11 25,-22 10,-8 11,-8 21,-15 8,-6 8,-6 16,-11 "/><path stroke-width="9" d="M481,658c7,-5 7,-5 14,-8 "/><path stroke-width="10" d="M495,650c5,-2 6,-2 11,-2 7,0 7,1 14,4 "/><path stroke-width="9" d="M520,652c8,3 8,4 16,8 7,5 7,5 14,9 "/><path stroke-width="10" d="M550,669c5,4 5,4 10,7 "/><path stroke-width="11" d="M560,676c4,2 5,2 9,3 "/><path stroke-width="12" d="M569,679c3,1 3,1 6,1 "/><path stroke-width="14" d="M575,680c1,0 1,0 3,-1 "/><path stroke-width="16" d="M578,679c0,0 0,0 1,0 "/><path stroke-width="17" d="M579,679c0,-1 1,-1 1,-1 0,0 0,0 -1,0 0,0 0,0 0,0 -1,1 -1,1 -1,1 0,0 0,1 0,1 -1,0 -1,0 -1,-1 "/><path stroke-width="18" d="M577,679c0,0 0,0 0,0 0,0 0,0 0,0 0,-1 0,-1 0,-1 0,0 0,0 0,0 "/><path stroke-width="17" d="M577,678c0,0 0,0 -1,0 0,-1 0,0 0,0 -1,0 -1,0 -1,0 "/><path stroke-width="18" d="M575,678c0,-1 0,-1 0,-1 "/><path stroke-width="17" d="M575,677c0,0 0,0 0,-1 "/><path stroke-width="18" d="M575,676c0,0 0,0 0,0 0,0 0,0 0,0 -1,0 -1,0 -1,0 0,0 0,0 0,0 0,1 0,1 1,1 0,0 0,0 0,1 "/><path stroke-width="17" d="M575,678c0,0 0,0 0,1 0,1 0,1 1,1 "/><path stroke-width="15" d="M576,680c1,3 1,3 3,6 "/><path stroke-width="12" d="M579,686c4,5 4,5 8,10 "/><path stroke-width="10" d="M587,696c5,7 5,7 10,14 "/><path stroke-width="8" d="M597,710c10,14 10,14 19,28 17,26 18,26 34,53 16,28 16,28 30,57 15,32 13,33 28,64 10,24 11,24 21,48 8,17 8,17 14,35 5,15 4,15 9,31 4,13 5,13 8,27 2,14 1,15 2,29 0,12 1,13 -1,24 "/><path stroke-width="9" d="M761,1106c-1,8 -2,8 -5,14 "/><path stroke-width="10" d="M756,1120c-2,4 -2,4 -5,7 "/><path stroke-width="12" d="M751,1127c-2,3 -2,3 -5,5 -3,2 -3,2 -6,4 -5,2 -5,2 -10,2 "/><path stroke-width="11" d="M730,1138c-6,1 -6,2 -11,0 "/><path stroke-width="10" d="M719,1138c-7,-1 -8,-1 -13,-5 "/><path stroke-width="9" d="M706,1133c-11,-7 -11,-8 -20,-16 "/><path stroke-width="8" d="M686,1117c-18,-18 -18,-18 -36,-36 -22,-20 -23,-19 -44,-41 -19,-19 -20,-19 -37,-39 -21,-24 -20,-24 -39,-48 -24,-31 -23,-32 -47,-63 -23,-31 -23,-31 -46,-63 -19,-27 -19,-27 -37,-54 -16,-25 -16,-25 -31,-50 -13,-20 -13,-20 -26,-40 -11,-18 -11,-18 -23,-36 -9,-13 -10,-13 -18,-27 -8,-13 -6,-13 -14,-26 -8,-13 -9,-13 -18,-26 -7,-10 -7,-10 -15,-21 -7,-9 -7,-9 -14,-18 -6,-7 -6,-7 -11,-14 "/><path stroke-width="9" d="M230,515c-4,-5 -4,-5 -8,-10 "/><path stroke-width="11" d="M222,505c-2,-3 -2,-3 -4,-7 "/><path stroke-width="13" d="M218,498c-1,-2 -1,-2 -2,-4 "/><path stroke-width="15" d="M216,494c0,-1 0,-1 -1,-2 "/><path stroke-width="16" d="M215,492c0,0 0,0 -1,0 "/><path stroke-width="17" d="M214,492c0,-1 0,-1 -1,-1 "/><path stroke-width="16" d="M213,491c0,-1 0,-1 0,-2 -1,-2 -1,-2 -2,-3 "/><path stroke-width="15" d="M211,486c0,-2 -1,-3 0,-4 "/><path stroke-width="14" d="M211,482c0,-3 1,-3 3,-4 1,-2 1,-2 3,-4 "/><path stroke-width="15" d="M217,474c0,-1 0,-1 1,-1 "/><path stroke-width="16" d="M218,473c0,0 1,0 1,1 0,1 0,1 -1,2 0,1 0,1 -1,2 "/><path stroke-width="17" d="M217,478c0,0 0,0 0,1 0,0 1,0 1,0 0,0 0,0 0,0 "/><path stroke-width="18" d="M218,479c1,1 1,1 1,1 "/><path stroke-width="17" d="M219,480c0,0 0,0 0,0 "/><path stroke-width="18" d="M219,480c0,0 0,1 0,1 0,0 0,-1 0,-1 0,0 0,0 0,0 0,0 0,0 0,0 0,0 1,0 1,0 0,0 0,0 0,0 0,1 0,1 0,1 "/><path stroke-width="17" d="M220,481c1,0 1,0 1,0 1,0 1,0 2,1 "/><path stroke-width="16" d="M223,482c1,0 1,0 2,1 "/><path stroke-width="15" d="M225,483c2,0 2,0 5,1 "/><path stroke-width="13" d="M230,484c3,1 3,1 6,3 4,2 4,2 7,4 "/><path stroke-width="12" d="M243,491c3,1 3,1 6,3 "/><path stroke-width="13" d="M249,494c3,2 3,2 6,4 2,2 2,2 4,4 "/><path stroke-width="14" d="M259,502c2,1 2,1 4,3 "/><path stroke-width="15" d="M263,505c1,1 1,1 2,2 "/><path stroke-width="16" d="M265,507c0,1 0,1 1,1 "/><path stroke-width="17" d="M266,508c0,0 0,0 1,0 0,0 0,1 0,0 1,0 1,-1 1,-2 0,0 0,0 0,0 "/><path stroke-width="18" d="M268,506c0,-1 0,-1 0,-1 "/><path stroke-width="17" d="M268,505c0,0 0,0 0,-1 0,0 0,0 0,0 -1,0 0,1 -1,1 0,0 0,0 0,0 0,0 0,0 0,0 0,0 1,0 1,0 0,0 0,0 0,0 "/><path stroke-width="18" d="M268,505c0,-1 0,-1 0,-1 "/><path stroke-width="17" d="M268,504c0,-1 0,-1 0,-2 0,0 0,0 0,0 -1,1 -1,1 -1,2 0,1 0,1 0,1 0,0 -1,0 -1,0 "/><path stroke-width="18" d="M266,505c0,0 0,0 0,0 0,0 0,0 0,0 0,0 0,1 0,1 0,0 0,0 -1,0 0,0 0,1 0,1 0,0 0,0 -1,0 "/><path stroke-width="17" d="M264,507c0,0 0,0 -1,-1 -1,0 -1,0 -1,0 -1,-1 -1,-1 -2,-1 "/><path stroke-width="16" d="M260,505c-2,-1 -2,-1 -3,-1 "/><path stroke-width="15" d="M257,504c-2,-1 -2,-1 -3,-3 -1,0 -1,0 -1,-1 "/></g></svg>