<?xml version="1.0" encoding="UTF-8" standalone="no"?>
<svg xmlns="http://www.w3.org/2000/svg" version="1.2" baseProfile="tiny" height="1850" width="1080"><g stroke-linejoin="round" stroke-linecap="round" fill="none" stroke="black"><path stroke-width="18" d="M648,1057c0,0 0,0 0,0 "/><path stroke-width="15" d="M648,1057c4,-20 2,-21 8,-40 "/><path stroke-width="9" d="M656,1017c26,-87 28,-87 55,-174 12,-39 13,-39 23,-78 6,-28 8,-28 9,-56 0,-15 0,-17 -8,-31 -6,-12 -7,-16 -20,-21 -15,-6 -19,-7 -36,-2 -35,11 -37,13 -68,35 -28,18 -28,19 -50,44 -15,17 -14,18 -25,38 -6,11 -7,12 -9,23 -2,13 -4,16 2,26 11,16 13,19 31,27 30,12 33,9 66,11 35,3 35,-2 69,-1 28,1 28,0 55,6 20,4 21,3 37,14 19,12 22,12 33,31 13,23 15,26 16,53 1,33 -1,35 -12,68 -12,37 -14,38 -34,72 -13,21 -16,19 -32,38 -13,15 -12,16 -25,30 -7,6 -8,5 -16,11 "/><path stroke-width="12" d="M717,1181c-2,1 -2,1 -4,3 "/></g></svg>