<?xml version="1.0" encoding="UTF-8" standalone="no"?>
<svg xmlns="http://www.w3.org/2000/svg" version="1.2" baseProfile="tiny" height="1771" width="1080"><g stroke-linejoin="round" stroke-linecap="round" fill="none" stroke="black"><path stroke-width="16" d="M627,1044c0,0 0,0 0,0 "/><path stroke-width="17" d="M627,1044c0,1 0,1 0,2 "/><path stroke-width="16" d="M627,1046c0,1 0,1 0,3 "/><path stroke-width="15" d="M627,1049c-1,2 -1,2 -1,5 "/><path stroke-width="13" d="M626,1054c0,3 0,3 -1,5 "/><path stroke-width="14" d="M625,1059c0,3 0,3 -1,5 "/><path stroke-width="15" d="M624,1064c0,1 0,1 0,1 "/><path stroke-width="16" d="M624,1065c-1,0 0,-1 -1,-2 "/><path stroke-width="13" d="M623,1063c-1,-7 -1,-7 -2,-14 "/><path stroke-width="9" d="M621,1049c-2,-19 -2,-19 -4,-38 "/><path stroke-width="8" d="M617,1011c-1,-19 -3,-19 -3,-38 0,-15 -1,-16 2,-30 3,-14 4,-14 10,-27 6,-17 6,-17 15,-32 11,-20 12,-19 25,-37 14,-20 13,-21 30,-38 17,-18 19,-17 38,-34 18,-16 17,-18 37,-32 18,-14 21,-11 40,-23 17,-11 16,-12 32,-23 13,-9 13,-9 27,-17 10,-5 10,-5 20,-10 "/><path stroke-width="9" d="M890,670c6,-3 6,-3 12,-6 "/><path stroke-width="10" d="M902,664c6,-3 6,-3 11,-6 6,-2 6,-2 11,-5 "/><path stroke-width="11" d="M924,653c4,-2 4,-2 8,-4 "/><path stroke-width="13" d="M932,649c3,-1 4,-2 5,-2 "/><path stroke-width="14" d="M937,647c0,0 -1,2 -3,3 "/><path stroke-width="12" d="M934,650c-11,6 -12,6 -23,13 "/><path stroke-width="8" d="M911,663c-37,23 -38,22 -74,46 -36,24 -36,24 -71,50 -14,9 -13,10 -26,20 -7,4 -8,4 -14,9 -18,12 -19,11 -35,25 -36,31 -36,30 -69,63 -33,33 -33,34 -64,69 -28,34 -29,33 -54,69 -20,28 -18,29 -35,58 -9,18 -8,18 -18,36 -5,11 -6,10 -12,20 "/><path stroke-width="9" d="M439,1128c-2,6 -2,6 -4,11 "/><path stroke-width="11" d="M435,1139c-2,4 -2,4 -4,9 "/><path stroke-width="12" d="M431,1148c-1,2 -2,3 -1,5 "/><path stroke-width="14" d="M430,1153c0,1 1,1 2,1 3,0 3,-1 5,-3 "/><path stroke-width="13" d="M437,1151c4,-2 4,-2 8,-4 "/><path stroke-width="11" d="M445,1147c5,-4 6,-4 10,-9 "/><path stroke-width="9" d="M455,1138c11,-13 10,-14 20,-28 "/><path stroke-width="8" d="M475,1110c24,-34 24,-34 49,-68 28,-40 27,-41 56,-80 29,-39 29,-39 61,-77 29,-35 29,-35 61,-68 25,-27 25,-28 53,-51 23,-20 24,-19 49,-37 20,-15 19,-16 40,-30 21,-14 22,-13 44,-26 19,-12 19,-11 39,-24 19,-13 19,-13 38,-27 19,-14 19,-14 37,-28 12,-9 12,-8 24,-17 "/></g></svg>