<?xml version="1.0" encoding="UTF-8" standalone="no"?>
<svg xmlns="http://www.w3.org/2000/svg" version="1.2" baseProfile="tiny" height="1771" width="1080"><g stroke-linejoin="round" stroke-linecap="round" fill="none" stroke="black"><path stroke-width="16" d="M90,933c0,0 0,0 0,0 "/><path stroke-width="17" d="M90,933c2,0 2,0 3,0 "/><path stroke-width="15" d="M93,933c2,0 2,1 4,0 "/><path stroke-width="14" d="M97,933c3,-1 4,0 7,-2 "/><path stroke-width="10" d="M104,931c10,-7 11,-7 20,-16 "/><path stroke-width="8" d="M124,915c12,-11 12,-11 21,-25 12,-18 11,-18 22,-38 13,-26 13,-25 26,-52 11,-25 12,-24 22,-50 10,-27 9,-28 18,-55 9,-31 9,-31 18,-62 10,-31 8,-32 19,-62 10,-27 8,-28 23,-53 13,-24 15,-24 33,-45 17,-20 18,-20 36,-39 16,-15 15,-16 32,-29 15,-12 15,-12 31,-20 13,-7 14,-7 29,-10 18,-3 18,-4 36,-3 21,0 22,0 42,6 25,6 26,5 49,18 26,14 26,15 48,34 23,19 23,20 43,42 19,20 20,20 36,43 14,18 13,19 25,39 9,15 9,15 18,30 7,14 7,14 13,29 6,12 6,12 10,24 4,10 5,10 8,20 2,11 2,11 3,22 1,12 1,12 2,23 0,9 1,9 -1,17 "/><path stroke-width="9" d="M786,719c-2,8 -2,9 -6,16 -7,8 -7,8 -16,14 "/><path stroke-width="8" d="M764,749c-12,8 -12,11 -25,13 -19,3 -20,1 -39,-2 -27,-5 -27,-7 -53,-16 -30,-10 -31,-9 -59,-24 -29,-14 -28,-16 -55,-33 -25,-15 -26,-15 -50,-32 -22,-15 -21,-15 -42,-32 -21,-16 -21,-15 -42,-32 -21,-18 -20,-18 -40,-37 -21,-19 -21,-18 -42,-37 -22,-21 -22,-21 -43,-42 -22,-21 -22,-20 -43,-42 -18,-20 -17,-20 -34,-40 -12,-15 -12,-15 -24,-29 -11,-12 -11,-12 -22,-24 -11,-12 -11,-12 -22,-23 -10,-9 -10,-9 -19,-19 -7,-7 -8,-6 -14,-14 -6,-6 -4,-7 -11,-14 "/><path stroke-width="9" d="M85,270c-6,-6 -6,-5 -13,-10 -7,-5 -7,-5 -14,-10 "/><path stroke-width="10" d="M58,250c-4,-3 -4,-2 -8,-5 -5,-4 -5,-4 -11,-9 "/></g></svg>