<?xml version="1.0" encoding="UTF-8" standalone="no"?>
<svg xmlns="http://www.w3.org/2000/svg" version="1.2" baseProfile="tiny" height="1850" width="1080"><g stroke-linejoin="round" stroke-linecap="round" fill="none" stroke="black"><path stroke-width="18" d="M173,931c0,0 0,0 0,0 "/><path stroke-width="21" d="M173,931c0,0 0,0 0,0 0,-1 0,-1 1,-1 "/><path stroke-width="15" d="M174,930c11,-13 11,-13 22,-25 "/><path stroke-width="9" d="M196,905c29,-31 28,-32 59,-62 33,-32 34,-31 69,-61 38,-33 38,-33 78,-64 36,-27 35,-29 74,-52 30,-19 32,-14 63,-31 19,-10 18,-12 37,-24 9,-5 9,-6 18,-11 "/><path stroke-width="12" d="M594,600c3,-1 3,-1 6,-2 "/><path stroke-width="16" d="M600,598c1,0 1,-1 2,-1 "/><path stroke-width="19" d="M602,597c0,0 0,0 0,0 "/><path stroke-width="21" d="M602,597c0,0 0,0 0,0 "/><path stroke-width="21" d="M319,811c0,0 0,0 0,0 0,0 0,0 0,0 "/><path stroke-width="20" d="M319,811c1,2 0,2 1,4 "/><path stroke-width="15" d="M320,815c3,8 4,7 7,15 "/><path stroke-width="10" d="M327,830c5,10 6,9 10,19 "/><path stroke-width="9" d="M337,849c8,19 8,19 15,38 6,18 6,17 11,36 6,25 6,25 10,50 4,27 3,27 5,53 4,32 3,32 6,64 3,26 3,26 5,53 3,19 2,19 5,39 4,22 4,22 8,43 4,18 4,18 9,36 4,14 4,14 8,28 "/><path stroke-width="10" d="M419,1289c3,8 3,8 6,16 "/><path stroke-width="11" d="M425,1305c3,6 3,6 5,12 "/><path stroke-width="12" d="M430,1317c3,4 3,4 5,9 "/><path stroke-width="14" d="M435,1326c2,2 1,3 3,4 4,3 5,2 10,3 "/><path stroke-width="15" d="M448,1333c1,0 1,0 2,-1 "/><path stroke-width="19" d="M475,984c0,0 0,0 0,0 "/><path stroke-width="20" d="M475,984c-1,3 -1,3 -2,6 "/><path stroke-width="16" d="M473,990c-2,5 -2,5 -3,10 "/><path stroke-width="13" d="M470,1000c-1,7 -1,7 -1,13 "/><path stroke-width="12" d="M469,1013c0,7 0,7 1,13 "/><path stroke-width="11" d="M470,1026c1,8 1,8 2,16 1,9 2,9 3,18 "/><path stroke-width="10" d="M475,1060c2,13 1,13 3,25 "/><path stroke-width="9" d="M478,1085c2,10 2,11 4,21 "/><path stroke-width="10" d="M482,1106c3,8 3,8 6,17 "/><path stroke-width="9" d="M488,1123c5,11 5,11 11,21 5,10 5,10 11,18 5,8 6,8 12,15 "/><path stroke-width="10" d="M522,1177c5,6 4,7 10,12 "/><path stroke-width="11" d="M532,1189c6,6 7,5 14,10 "/><path stroke-width="10" d="M546,1199c6,5 5,6 12,11 "/><path stroke-width="11" d="M558,1210c6,4 7,3 13,7 "/><path stroke-width="12" d="M571,1217c5,2 5,3 10,5 "/><path stroke-width="13" d="M581,1222c3,2 3,3 7,3 6,1 7,1 12,0 "/><path stroke-width="11" d="M600,1225c9,-3 9,-3 17,-8 "/><path stroke-width="10" d="M617,1217c13,-7 12,-7 24,-15 "/><path stroke-width="9" d="M641,1202c11,-8 11,-8 22,-16 10,-8 9,-9 19,-17 7,-8 7,-8 14,-15 7,-8 7,-8 13,-15 "/><path stroke-width="10" d="M709,1139c6,-8 6,-8 12,-15 "/><path stroke-width="9" d="M721,1124c7,-10 7,-10 14,-19 6,-9 6,-9 11,-17 "/><path stroke-width="12" d="M746,1088c1,-2 0,-2 1,-4 "/><path stroke-width="17" d="M521,1135c0,0 0,0 0,0 "/><path stroke-width="20" d="M521,1135c0,0 0,0 0,0 -2,0 -3,0 -3,-1 "/><path stroke-width="17" d="M518,1134c-3,-4 -4,-5 -3,-11 "/><path stroke-width="11" d="M515,1123c2,-13 0,-14 8,-26 "/><path stroke-width="9" d="M523,1097c21,-35 22,-35 49,-67 19,-21 21,-19 42,-38 20,-18 19,-19 40,-35 19,-14 22,-15 40,-27 "/><path stroke-width="13" d="M489,980c0,0 0,0 0,0 "/><path stroke-width="18" d="M489,980c0,0 0,0 0,0 "/><path stroke-width="21" d="M489,980c0,0 0,0 0,0 "/><path stroke-width="18" d="M489,980c5,-8 4,-9 10,-16 "/><path stroke-width="12" d="M499,964c35,-38 33,-41 73,-74 "/><path stroke-width="9" d="M572,890c32,-26 34,-23 70,-45 31,-18 31,-19 63,-35 26,-13 27,-12 54,-24 8,-3 8,-3 16,-7 "/><path stroke-width="13" d="M865,787c0,0 0,0 0,0 "/><path stroke-width="19" d="M865,787c0,0 0,0 0,0 "/><path stroke-width="21" d="M865,787c0,0 0,0 0,0 "/><path stroke-width="20" d="M865,787c-1,0 -1,0 -2,0 "/><path stroke-width="19" d="M863,787c-1,0 -1,-1 -2,-1 "/><path stroke-width="18" d="M861,786c-2,0 -2,1 -3,1 "/><path stroke-width="16" d="M858,787c-4,1 -4,0 -8,2 "/><path stroke-width="13" d="M850,789c-6,4 -6,4 -11,9 "/><path stroke-width="11" d="M839,798c-6,5 -7,5 -12,12 "/><path stroke-width="10" d="M827,810c-7,9 -6,10 -12,19 "/><path stroke-width="9" d="M815,829c-6,10 -7,10 -13,20 -6,11 -7,10 -12,21 -4,10 -4,10 -8,20 "/><path stroke-width="10" d="M782,890c-2,6 -1,7 -3,13 "/><path stroke-width="12" d="M779,903c-2,4 -2,4 -3,9 "/><path stroke-width="14" d="M776,912c-1,3 -1,4 -1,7 "/><path stroke-width="15" d="M775,919c0,3 0,3 1,6 "/><path stroke-width="16" d="M776,925c1,3 0,4 2,5 "/><path stroke-width="14" d="M778,930c5,4 6,5 12,6 "/><path stroke-width="11" d="M790,936c10,2 11,2 21,1 "/><path stroke-width="9" d="M811,937c11,-1 11,-1 22,-3 10,-2 9,-3 18,-5 "/><path stroke-width="10" d="M851,929c10,-2 10,-2 20,-4 "/><path stroke-width="11" d="M871,925c6,-2 6,-2 13,-3 "/><path stroke-width="12" d="M884,922c5,-1 5,-1 11,-2 5,-1 5,-2 11,-2 "/><path stroke-width="13" d="M906,918c5,-1 5,0 10,0 "/><path stroke-width="14" d="M916,918c3,0 3,0 6,1 "/><path stroke-width="15" d="M922,919c3,1 3,1 5,2 "/><path stroke-width="16" d="M927,921c2,1 3,1 4,2 2,3 4,3 3,6 "/><path stroke-width="12" d="M934,929c-2,12 -2,12 -7,23 "/><path stroke-width="9" d="M927,952c-6,13 -7,12 -14,25 -8,14 -8,14 -16,28 -8,13 -9,13 -17,25 -5,8 -4,8 -9,15 "/><path stroke-width="10" d="M871,1045c-4,7 -5,7 -9,14 "/><path stroke-width="11" d="M862,1059c-4,5 -4,5 -7,10 "/><path stroke-width="13" d="M855,1069c-3,3 -3,2 -5,5 "/><path stroke-width="15" d="M850,1074c-2,3 -2,4 -4,5 -3,2 -4,2 -6,1 "/><path stroke-width="13" d="M840,1080c-7,-3 -7,-4 -14,-9 "/><path stroke-width="12" d="M826,1071c-4,-3 -4,-3 -9,-8 "/><path stroke-width="13" d="M817,1063c-2,-2 -2,-2 -4,-4 "/><path stroke-width="16" d="M813,1059c-1,-1 -1,-1 -1,-2 "/><path stroke-width="17" d="M812,1057c-1,-2 0,-2 -1,-4 "/><path stroke-width="18" d="M842,640c0,0 0,0 0,0 "/><path stroke-width="21" d="M842,640c0,0 0,0 0,0 0,0 0,0 0,0 0,0 0,0 0,0 "/><path stroke-width="15" d="M842,640c15,-9 14,-10 30,-18 "/><path stroke-width="9" d="M872,622c14,-7 15,-6 30,-12 10,-5 10,-5 20,-10 8,-4 9,-3 17,-8 11,-5 11,-5 21,-12 14,-8 14,-8 28,-17 13,-9 13,-9 27,-17 9,-5 10,-4 17,-10 "/><path stroke-width="10" d="M1032,536c5,-4 4,-6 7,-11 "/><path stroke-width="15" d="M893,618c0,0 0,0 0,0 "/><path stroke-width="19" d="M893,618c3,3 3,2 5,5 "/><path stroke-width="14" d="M898,623c9,9 8,10 17,19 "/><path stroke-width="9" d="M915,642c10,10 10,10 21,21 10,10 11,10 21,21 9,10 8,10 17,20 7,8 8,8 15,16 7,7 7,7 13,14 7,9 7,9 14,19 "/><path stroke-width="10" d="M1016,753c4,7 4,7 7,15 4,8 3,8 5,16 3,10 4,10 6,19 3,9 2,9 4,17 2,9 3,9 4,18 2,10 2,10 3,20 2,10 2,10 3,21 "/><path stroke-width="9" d="M1048,879c1,10 1,10 1,21 0,10 1,10 1,19 "/><path stroke-width="10" d="M1050,919c0,11 0,11 -1,21 -1,7 -2,7 -3,13 "/><path stroke-width="14" d="M411,1519c0,0 0,0 0,0 "/><path stroke-width="19" d="M411,1519c3,-1 3,-1 7,-2 "/><path stroke-width="17" d="M418,1517c4,-1 4,0 7,-2 "/><path stroke-width="14" d="M425,1515c6,-2 6,-2 11,-5 "/><path stroke-width="12" d="M436,1510c6,-4 5,-5 11,-10 "/><path stroke-width="11" d="M447,1500c6,-5 6,-5 12,-11 "/><path stroke-width="10" d="M459,1489c7,-6 6,-7 13,-14 5,-5 6,-5 11,-10 "/><path stroke-width="11" d="M483,1465c5,-5 5,-5 9,-9 5,-6 5,-6 10,-12 5,-5 5,-5 11,-11 "/><path stroke-width="10" d="M513,1433c7,-7 7,-8 14,-15 "/><path stroke-width="11" d="M527,1418c4,-4 4,-4 9,-7 "/><path stroke-width="13" d="M536,1411c3,-3 3,-4 7,-6 "/><path stroke-width="14" d="M543,1405c3,-2 4,-1 7,-3 4,-2 3,-3 6,-4 "/><path stroke-width="15" d="M556,1398c3,-2 3,-1 6,-2 3,-1 4,-1 7,-2 3,-1 2,-2 5,-3 3,-1 3,-1 6,-2 4,-2 4,-2 8,-3 "/><path stroke-width="14" d="M588,1386c4,-2 4,-2 8,-3 3,-1 3,-1 6,-2 "/><path stroke-width="15" d="M602,1381c3,-1 3,-1 6,-3 "/><path stroke-width="14" d="M608,1378c5,-3 4,-3 9,-5 "/><path stroke-width="13" d="M617,1373c4,-3 4,-3 8,-6 "/><path stroke-width="12" d="M625,1367c5,-4 5,-5 10,-10 "/><path stroke-width="11" d="M635,1357c5,-5 5,-4 11,-9 6,-5 6,-5 12,-9 "/><path stroke-width="12" d="M658,1339c4,-4 4,-4 9,-8 4,-4 4,-5 9,-9 5,-4 5,-4 10,-8 4,-5 4,-5 9,-9 "/><path stroke-width="11" d="M695,1305c8,-7 8,-6 16,-13 4,-4 4,-4 8,-8 "/><path stroke-width="12" d="M719,1284c4,-4 4,-3 8,-6 "/><path stroke-width="14" d="M727,1278c3,-3 2,-4 5,-6 4,-4 4,-4 7,-6 4,-3 4,-3 8,-5 3,-3 2,-4 5,-7 4,-3 4,-2 7,-5 "/><path stroke-width="13" d="M759,1249c4,-4 4,-5 8,-9 5,-3 5,-3 10,-6 3,-4 3,-4 7,-8 "/><path stroke-width="14" d="M784,1226c2,-2 2,-3 4,-5 "/><path stroke-width="15" d="M788,1221c2,-2 2,-2 4,-4 3,-3 3,-3 5,-6 "/><path stroke-width="14" d="M797,1211c3,-4 3,-3 6,-7 "/><path stroke-width="13" d="M803,1204c4,-3 4,-3 8,-7 3,-3 2,-3 5,-7 4,-3 4,-3 8,-7 3,-3 2,-3 5,-6 5,-5 5,-5 10,-9 "/><path stroke-width="12" d="M839,1168c4,-5 4,-5 8,-9 5,-5 5,-5 11,-10 "/><path stroke-width="11" d="M858,1149c5,-4 5,-4 10,-8 "/><path stroke-width="12" d="M868,1141c5,-4 5,-4 10,-8 "/><path stroke-width="13" d="M878,1133c4,-3 4,-3 7,-5 "/><path stroke-width="14" d="M885,1128c3,-3 4,-3 6,-5 4,-3 3,-4 6,-6 4,-4 4,-4 8,-7 3,-3 3,-3 6,-5 4,-3 4,-3 7,-6 3,-3 3,-3 5,-5 "/><path stroke-width="15" d="M923,1094c3,-3 3,-3 5,-5 2,-3 2,-3 4,-5 3,-3 4,-2 6,-4 "/><path stroke-width="14" d="M938,1080c4,-3 3,-3 6,-6 4,-4 4,-3 7,-6 "/><path stroke-width="13" d="M951,1068c5,-4 5,-4 9,-9 "/><path stroke-width="12" d="M960,1059c4,-4 4,-5 8,-10 3,-5 3,-4 7,-10 3,-5 2,-5 5,-11 3,-5 3,-5 6,-10 5,-6 5,-6 10,-12 "/><path stroke-width="10" d="M996,1006c6,-8 7,-8 13,-17 "/><path stroke-width="9" d="M1009,989c7,-10 6,-10 13,-20 9,-14 10,-13 18,-27 13,-19 13,-18 24,-38 4,-9 4,-10 6,-19 "/><path stroke-width="11" d="M1070,885c2,-5 1,-5 2,-9 "/></g></svg>