<?xml version="1.0" encoding="UTF-8" standalone="no"?>
<svg xmlns="http://www.w3.org/2000/svg" version="1.2" baseProfile="tiny" height="1771" width="1080"><g stroke-linejoin="round" stroke-linecap="round" fill="none" stroke="black"><path stroke-width="16" d="M509,1456c0,0 0,0 0,0 "/><path stroke-width="17" d="M509,1456c-1,-1 -1,0 -2,-1 "/><path stroke-width="15" d="M507,1455c-1,-2 -1,-3 -1,-6 "/><path stroke-width="11" d="M506,1449c-1,-20 -2,-20 -1,-41 "/><path stroke-width="8" d="M505,1408c6,-65 3,-66 15,-131 13,-66 13,-66 34,-129 19,-61 22,-60 46,-119 22,-55 23,-55 47,-110 20,-45 21,-45 41,-90 16,-36 15,-36 30,-72 11,-26 10,-27 22,-52 8,-18 9,-17 18,-34 6,-9 6,-9 11,-18 "/><path stroke-width="10" d="M769,653c2,-4 3,-4 2,-8 "/><path stroke-width="12" d="M771,645c0,-2 -1,-4 -3,-4 "/><path stroke-width="11" d="M768,641c-8,-1 -9,-1 -17,1 "/><path stroke-width="9" d="M751,642c-20,6 -21,4 -41,13 "/><path stroke-width="8" d="M710,655c-33,16 -33,17 -64,37 -30,19 -31,18 -59,41 -28,24 -28,24 -53,52 -24,27 -24,28 -44,59 -18,26 -19,26 -32,55 -12,25 -11,26 -18,54 -7,23 -7,23 -10,47 -3,20 -3,21 -1,42 1,15 0,17 6,31 5,8 7,10 16,13 16,5 17,4 34,3 32,0 32,-3 64,-5 36,-3 36,-4 72,-5 35,-1 35,-1 70,1 27,2 27,3 53,7 15,3 16,2 30,8 9,4 8,6 16,12 "/><path stroke-width="9" d="M790,1107c5,5 6,5 10,11 4,8 5,8 5,17 "/><path stroke-width="8" d="M805,1135c0,14 0,15 -5,28 -7,22 -7,23 -19,44 -16,28 -18,27 -35,54 -19,28 -17,29 -37,55 -13,18 -13,18 -29,35 -6,7 -6,7 -14,12 "/><path stroke-width="10" d="M666,1363c-3,3 -3,3 -7,4 "/><path stroke-width="11" d="M659,1367c-5,2 -6,2 -11,2 "/><path stroke-width="10" d="M648,1369c-10,1 -10,1 -20,1 "/><path stroke-width="8" d="M628,1370c-11,1 -11,1 -22,2 "/><path stroke-width="9" d="M606,1372c-7,0 -7,-1 -15,-1 "/><path stroke-width="10" d="M591,1371c-6,0 -6,1 -11,2 "/><path stroke-width="11" d="M580,1373c-5,0 -6,0 -11,1 -4,0 -4,0 -8,2 "/><path stroke-width="12" d="M561,1376c-4,1 -3,1 -7,3 -3,2 -4,2 -7,4 -4,3 -4,3 -7,7 "/><path stroke-width="11" d="M540,1390c-5,5 -5,5 -9,12 "/><path stroke-width="9" d="M531,1402c-4,9 -4,9 -7,19 "/><path stroke-width="8" d="M524,1421c-4,13 -4,13 -5,27 -1,15 -1,15 1,31 3,20 3,20 8,39 6,20 7,21 15,40 8,18 8,18 19,35 11,18 13,17 25,34 "/><path stroke-width="11" d="M587,1627c0,1 0,1 0,1 "/></g></svg>