<?xml version="1.0" encoding="UTF-8" standalone="no"?>
<svg xmlns="http://www.w3.org/2000/svg" version="1.2" baseProfile="tiny" height="1850" width="1080"><g stroke-linejoin="round" stroke-linecap="round" fill="none" stroke="black"><path stroke-width="18" d="M287,1392c0,0 0,0 0,0 "/><path stroke-width="17" d="M287,1392c16,-22 17,-21 32,-44 "/><path stroke-width="11" d="M319,1348c16,-24 15,-25 30,-49 "/><path stroke-width="9" d="M349,1299c30,-50 32,-49 61,-100 18,-33 16,-34 32,-69 15,-32 16,-32 29,-65 14,-34 14,-34 26,-70 16,-47 17,-46 30,-94 10,-36 9,-37 16,-74 5,-28 4,-29 8,-57 4,-29 4,-29 8,-58 2,-18 3,-17 5,-35 2,-14 2,-14 3,-29 1,-9 1,-9 1,-18 "/><path stroke-width="11" d="M568,630c0,-6 0,-6 0,-12 "/><path stroke-width="13" d="M568,618c0,-3 0,-3 0,-6 "/><path stroke-width="16" d="M568,612c0,-2 -1,-2 -1,-3 "/><path stroke-width="18" d="M567,609c0,-1 0,-1 0,-2 "/><path stroke-width="19" d="M567,607c0,-1 0,-1 -1,-1 -1,-1 -1,-1 -1,-1 -1,-1 -1,-1 -2,-1 "/><path stroke-width="17" d="M563,604c-4,1 -4,1 -7,3 "/><path stroke-width="13" d="M556,607c-7,5 -7,5 -13,11 "/><path stroke-width="10" d="M543,618c-14,12 -15,12 -28,25 "/><path stroke-width="9" d="M515,643c-17,16 -17,16 -33,34 -20,22 -20,22 -39,45 -14,18 -13,18 -25,37 -9,15 -10,15 -18,31 -11,21 -12,20 -20,42 -9,26 -8,27 -13,53 -3,21 -4,21 -4,42 -1,24 0,24 2,47 2,19 1,20 7,37 7,16 8,16 20,30 10,12 10,13 23,22 18,12 18,12 38,19 23,8 24,7 47,12 21,4 21,4 42,6 19,3 19,2 38,4 22,3 22,2 43,6 13,3 13,4 25,7 12,4 13,4 24,8 10,4 10,4 18,10 8,5 8,6 14,13 "/><path stroke-width="10" d="M704,1148c6,6 6,6 10,13 "/><path stroke-width="11" d="M714,1161c3,5 3,6 5,12 "/><path stroke-width="12" d="M719,1173c3,6 4,6 5,13 "/><path stroke-width="11" d="M724,1186c2,7 2,7 2,14 1,8 1,8 0,17 -1,6 0,6 -2,13 "/><path stroke-width="12" d="M724,1230c-2,6 -2,7 -6,13 "/><path stroke-width="10" d="M718,1243c-6,9 -6,9 -14,17 "/><path stroke-width="9" d="M704,1260c-10,11 -10,10 -21,20 -12,10 -11,11 -23,20 -11,7 -11,8 -23,13 -9,3 -10,3 -19,4 "/><path stroke-width="10" d="M618,1317c-9,2 -9,2 -17,2 "/><path stroke-width="11" d="M601,1319c-6,0 -6,0 -12,-1 "/><path stroke-width="12" d="M589,1318c-6,-1 -6,-2 -11,-3 "/><path stroke-width="13" d="M578,1315c-5,-1 -5,-1 -10,-2 "/><path stroke-width="14" d="M568,1313c-3,-1 -3,-1 -6,-2 "/><path stroke-width="15" d="M562,1311c-3,-1 -4,-1 -6,-2 "/><path stroke-width="16" d="M556,1309c-2,-1 -2,-1 -3,-2 "/><path stroke-width="18" d="M553,1307c-1,-1 -1,-1 -2,-1 "/><path stroke-width="19" d="M551,1306c0,0 -1,0 -1,0 -1,1 -2,1 -2,2 "/><path stroke-width="14" d="M548,1308c-2,13 -2,14 -2,27 "/><path stroke-width="9" d="M546,1335c-1,34 1,34 -1,67 -3,46 -5,46 -7,91 -3,45 -4,45 -2,90 2,52 5,58 9,103 "/></g></svg>