<?xml version="1.0" encoding="UTF-8" standalone="no"?>
<svg xmlns="http://www.w3.org/2000/svg" version="1.2" baseProfile="tiny" height="1771" width="1080"><g stroke-linejoin="round" stroke-linecap="round" fill="none" stroke="black"><path stroke-width="16" d="M363,1120c0,0 0,0 0,0 "/><path stroke-width="18" d="M363,1120c-1,0 -1,0 -2,0 "/><path stroke-width="17" d="M361,1120c-1,0 -1,0 -1,-1 "/><path stroke-width="15" d="M360,1119c-2,-1 -2,-1 -3,-3 "/><path stroke-width="12" d="M357,1116c-3,-8 -4,-8 -5,-16 "/><path stroke-width="9" d="M352,1100c-2,-31 -5,-32 -1,-62 "/><path stroke-width="8" d="M351,1038c5,-38 6,-39 18,-76 15,-46 16,-46 35,-90 22,-49 22,-49 47,-98 25,-49 26,-49 53,-98 28,-49 28,-49 57,-97 29,-47 29,-47 60,-92 25,-38 27,-37 52,-75 18,-28 19,-28 35,-57 9,-19 11,-20 15,-40 3,-11 4,-14 -2,-23 -4,-8 -7,-10 -17,-12 -20,-4 -22,-4 -43,0 -36,7 -36,8 -71,22 -46,19 -46,19 -90,44 -50,27 -51,27 -97,61 -47,33 -47,34 -90,73 -40,36 -41,35 -77,75 -30,34 -30,35 -56,72 -21,31 -21,31 -38,65 -14,27 -14,27 -22,56 -6,21 -7,22 -7,43 1,13 0,15 7,26 6,9 8,12 19,14 16,5 19,4 36,-1 29,-6 29,-9 56,-21 38,-16 37,-18 74,-34 42,-19 41,-20 83,-36 39,-15 39,-15 79,-27 36,-10 36,-9 73,-15 29,-5 29,-4 59,-6 23,-2 23,-1 46,-2 15,-1 15,-1 30,-3 "/><path stroke-width="9" d="M675,686c7,-1 7,-1 14,-3 "/><path stroke-width="12" d="M689,683c1,-1 1,-1 3,-2 "/><path stroke-width="15" d="M692,681c1,0 1,0 1,-1 "/><path stroke-width="17" d="M693,680c0,0 0,0 -1,0 0,-1 0,-1 -1,-1 "/><path stroke-width="16" d="M691,679c-1,0 -1,0 -2,0 "/><path stroke-width="17" d="M689,679c0,0 0,0 0,0 "/><path stroke-width="18" d="M689,679c0,0 0,0 0,0 0,-1 0,-1 0,-1 0,0 0,0 0,0 0,-1 0,-1 0,-1 0,0 0,0 0,0 0,0 0,1 0,1 0,0 0,0 0,0 1,0 1,0 1,1 "/><path stroke-width="17" d="M690,679c1,0 0,0 1,1 "/><path stroke-width="16" d="M691,680c0,1 0,1 1,2 "/><path stroke-width="15" d="M692,682c1,3 1,3 2,6 "/><path stroke-width="12" d="M694,688c3,6 3,6 5,13 "/><path stroke-width="9" d="M699,701c6,17 6,17 10,34 "/><path stroke-width="8" d="M709,735c7,35 7,35 13,70 5,33 4,33 8,67 3,29 3,29 5,58 1,19 0,19 1,39 0,11 0,11 -1,22 "/><path stroke-width="9" d="M735,991c0,6 0,6 -1,11 "/><path stroke-width="12" d="M734,1002c-1,3 -1,3 -2,6 "/><path stroke-width="14" d="M732,1008c0,1 0,1 -1,2 "/><path stroke-width="16" d="M731,1010c0,1 0,1 0,1 "/><path stroke-width="17" d="M731,1011c0,0 0,0 0,0 0,-1 0,-1 0,-1 1,-1 1,-1 1,-2 1,0 1,0 1,-1 0,0 0,0 0,0 "/><path stroke-width="18" d="M733,1007c0,0 0,0 0,0 "/><path stroke-width="17" d="M733,1007c0,-1 0,-1 0,-2 0,0 1,0 1,0 0,0 -1,0 -1,0 0,0 0,-1 0,-1 0,0 0,0 0,0 "/><path stroke-width="18" d="M733,1004c0,0 0,0 0,0 "/><path stroke-width="17" d="M733,1004c0,0 0,0 0,-1 0,-1 0,-1 0,-1 0,-1 0,-1 0,-1 0,0 0,0 0,0 "/><path stroke-width="18" d="M733,1001c0,0 0,0 0,0 0,-1 0,-1 0,-2 0,0 0,0 0,0 0,0 0,1 1,0 0,0 0,0 0,0 0,0 0,0 0,0 0,0 0,0 0,0 -1,-1 -1,-1 -1,-2 "/><path stroke-width="17" d="M733,997c0,0 0,0 0,-1 "/></g></svg>