<?xml version="1.0" encoding="UTF-8" standalone="no"?>
<svg xmlns="http://www.w3.org/2000/svg" version="1.2" baseProfile="tiny" height="1771" width="1080"><g stroke-linejoin="round" stroke-linecap="round" fill="none" stroke="black"><path stroke-width="16" d="M737,1133c0,0 0,0 0,0 "/><path stroke-width="17" d="M737,1133c-1,1 -1,1 -2,1 "/><path stroke-width="15" d="M735,1134c-2,0 -2,0 -3,0 "/><path stroke-width="14" d="M732,1134c-3,-1 -3,-1 -6,-2 "/><path stroke-width="11" d="M726,1132c-16,-9 -16,-8 -32,-19 "/><path stroke-width="8" d="M694,1113c-23,-15 -25,-13 -45,-33 -14,-14 -14,-16 -22,-35 -7,-17 -7,-18 -8,-37 0,-26 -1,-28 6,-53 10,-29 12,-29 28,-56 19,-31 20,-31 43,-59 26,-33 26,-33 55,-64 32,-34 32,-34 67,-65 36,-31 37,-30 75,-59 32,-24 33,-22 65,-46 21,-16 19,-18 39,-35 17,-13 17,-12 34,-25 "/><path stroke-width="9" d="M1031,546c4,-3 4,-3 7,-7 "/><path stroke-width="11" d="M1038,539c3,-3 3,-3 5,-7 "/><path stroke-width="12" d="M1043,532c2,-2 2,-3 2,-5 "/><path stroke-width="14" d="M1045,527c1,-2 1,-3 0,-3 "/><path stroke-width="15" d="M1045,524c0,0 0,1 -1,3 "/><path stroke-width="12" d="M1044,527c-4,9 -3,9 -8,17 "/><path stroke-width="8" d="M1036,544c-17,29 -14,32 -35,57 -34,40 -36,39 -76,74 -53,48 -57,44 -110,92 -58,53 -59,53 -112,112 -54,61 -54,61 -101,128 -43,60 -42,61 -77,126 -24,42 -22,43 -41,87 -9,22 -7,22 -15,44 -3,9 -3,9 -7,17 "/><path stroke-width="10" d="M462,1281c-2,3 -2,3 -5,4 "/><path stroke-width="13" d="M457,1285c-2,1 -2,-1 -4,-2 "/></g></svg>