<?xml version="1.0" encoding="UTF-8" standalone="no"?>
<svg xmlns="http://www.w3.org/2000/svg" version="1.2" baseProfile="tiny" height="1771" width="1080"><g stroke-linejoin="round" stroke-linecap="round" fill="none" stroke="black"><path stroke-width="16" d="M761,1205c0,0 0,0 0,0 "/><path stroke-width="17" d="M761,1205c-2,-2 -2,-2 -3,-4 "/><path stroke-width="15" d="M758,1201c-2,-2 -2,-2 -3,-3 "/><path stroke-width="14" d="M755,1198c-2,-2 -2,-2 -4,-4 -3,-1 -3,-1 -5,-3 "/><path stroke-width="11" d="M746,1191c-9,-4 -9,-4 -19,-8 "/><path stroke-width="8" d="M727,1183c-14,-7 -15,-5 -28,-13 -20,-11 -23,-9 -39,-25 -22,-21 -24,-21 -37,-48 -13,-29 -14,-31 -15,-63 -2,-43 -1,-45 11,-86 15,-54 18,-55 44,-105 29,-58 31,-57 66,-111 32,-50 33,-49 68,-97 25,-34 26,-34 52,-67 13,-17 14,-17 28,-35 5,-6 8,-8 9,-14 "/><path stroke-width="10" d="M886,519c1,-2 -3,-3 -5,-2 -33,9 -35,7 -66,22 "/><path stroke-width="8" d="M815,539c-90,41 -92,39 -178,89 -79,46 -78,48 -153,102 -61,44 -60,45 -118,94 -44,38 -43,39 -85,80 -28,26 -27,27 -53,55 -11,11 -12,13 -21,24 "/><path stroke-width="11" d="M207,983c0,0 2,0 2,-1 24,-20 23,-21 48,-41 "/><path stroke-width="8" d="M257,941c57,-46 56,-47 116,-90 63,-44 64,-43 129,-85 67,-43 67,-44 136,-84 84,-48 85,-45 170,-91 1,0 1,0 1,-1 "/></g></svg>