<?xml version="1.0" encoding="UTF-8" standalone="no"?>
<svg xmlns="http://www.w3.org/2000/svg" version="1.2" baseProfile="tiny" height="1771" width="1080"><g stroke-linejoin="round" stroke-linecap="round" fill="none" stroke="black"><path stroke-width="16" d="M374,1171c0,0 0,0 0,0 "/><path stroke-width="17" d="M374,1171c0,2 0,2 -1,3 "/><path stroke-width="16" d="M373,1174c-1,2 -1,2 -2,3 "/><path stroke-width="15" d="M371,1177c-1,2 -1,2 -2,4 "/><path stroke-width="14" d="M369,1181c-1,2 -1,2 -2,4 "/><path stroke-width="12" d="M367,1185c-2,7 -2,7 -4,13 "/><path stroke-width="11" d="M363,1198c-2,5 -1,5 -3,9 "/><path stroke-width="13" d="M360,1207c0,2 0,2 -1,4 "/><path stroke-width="16" d="M359,1211c0,0 -1,0 -1,0 "/><path stroke-width="17" d="M358,1211c0,0 0,-1 0,-2 0,0 0,0 0,-1 0,0 0,0 0,0 0,-1 0,-1 0,-1 0,0 0,0 0,0 -1,-1 -1,-1 -1,-1 0,-1 0,-1 -1,-1 0,-1 0,-1 -1,-1 0,0 0,0 0,0 -1,-1 -1,-1 -1,-1 "/><path stroke-width="16" d="M354,1203c-1,-2 -1,-2 -1,-4 "/><path stroke-width="14" d="M353,1199c-1,-4 -1,-4 -2,-7 "/><path stroke-width="11" d="M351,1192c0,-7 0,-7 -1,-13 "/><path stroke-width="10" d="M350,1179c0,-9 0,-9 -1,-17 "/><path stroke-width="9" d="M349,1162c-2,-10 -2,-10 -3,-20 "/><path stroke-width="8" d="M346,1142c-2,-13 -2,-13 -3,-25 0,-18 0,-18 1,-36 1,-22 2,-22 4,-44 2,-19 3,-19 4,-38 1,-13 1,-13 1,-26 -1,-10 -1,-10 -2,-19 "/><path stroke-width="9" d="M351,954c-1,-9 -1,-9 -2,-18 -1,-6 -1,-6 -2,-13 "/><path stroke-width="10" d="M347,923c-1,-5 -2,-5 -3,-9 "/><path stroke-width="12" d="M344,914c0,-4 -1,-4 -1,-7 "/><path stroke-width="13" d="M343,907c0,-3 -1,-4 0,-7 2,-3 2,-4 4,-7 "/><path stroke-width="10" d="M347,893c7,-8 7,-8 15,-15 "/><path stroke-width="8" d="M362,878c16,-16 16,-16 32,-32 2,-2 2,-1 4,-3 "/><path stroke-width="13" d="M572,1145c0,0 0,0 0,0 "/><path stroke-width="16" d="M572,1145c-1,0 -1,0 -2,-1 -1,0 -1,0 -2,0 "/><path stroke-width="15" d="M568,1144c-3,-1 -3,-1 -5,-3 "/><path stroke-width="12" d="M563,1141c-6,-2 -6,-2 -12,-5 "/><path stroke-width="9" d="M551,1136c-13,-7 -13,-7 -25,-14 "/><path stroke-width="8" d="M526,1122c-8,-5 -8,-6 -16,-12 -9,-6 -9,-5 -17,-12 -11,-8 -11,-8 -20,-17 -14,-13 -14,-13 -26,-27 -15,-20 -15,-21 -28,-42 -12,-20 -12,-20 -21,-41 -8,-20 -8,-20 -14,-41 -6,-21 -5,-21 -9,-43 -5,-22 -6,-22 -9,-44 -2,-20 -2,-20 -1,-40 1,-19 1,-19 5,-37 4,-17 5,-18 11,-34 8,-18 8,-18 18,-35 10,-16 10,-16 22,-30 10,-12 11,-11 21,-21 9,-9 8,-10 17,-18 10,-9 10,-9 21,-16 13,-8 13,-8 26,-15 15,-8 15,-8 31,-14 16,-7 17,-6 34,-11 13,-4 12,-5 26,-8 11,-3 11,-2 23,-4 10,-1 10,-1 20,-2 12,-1 12,-1 24,-1 16,0 16,-1 32,1 18,1 18,2 36,5 17,3 17,3 33,6 16,3 16,3 31,7 13,3 13,2 25,6 9,3 9,3 17,6 "/><path stroke-width="9" d="M838,588c7,3 7,3 13,6 "/><path stroke-width="10" d="M851,594c6,4 6,4 12,8 5,3 6,3 10,7 "/><path stroke-width="11" d="M873,609c4,3 4,3 6,7 "/><path stroke-width="12" d="M879,616c2,3 2,3 3,7 1,3 1,4 0,7 0,4 0,4 -1,8 -1,4 -1,4 -3,8 -2,5 -2,5 -5,9 "/><path stroke-width="11" d="M873,655c-4,5 -4,5 -9,10 "/><path stroke-width="10" d="M864,665c-4,5 -4,5 -8,11 -5,6 -5,6 -9,12 "/><path stroke-width="9" d="M847,688c-5,7 -5,7 -10,13 -6,8 -6,8 -12,16 "/><path stroke-width="8" d="M825,717c-7,8 -7,8 -14,16 -8,8 -8,7 -16,15 -7,6 -7,6 -14,13 -7,8 -7,8 -14,15 -10,8 -10,8 -19,16 -10,7 -10,7 -20,15 -9,7 -9,7 -18,15 -9,7 -9,7 -18,15 -9,8 -9,8 -19,16 -8,7 -8,7 -17,14 -9,7 -9,7 -18,15 -8,7 -8,7 -17,13 -9,7 -9,7 -18,14 -7,6 -7,6 -15,12 -7,6 -6,6 -13,12 "/><path stroke-width="9" d="M575,933c-8,5 -8,5 -15,10 -7,5 -7,4 -14,8 -7,4 -7,4 -13,8 "/><path stroke-width="10" d="M533,959c-6,3 -6,3 -12,8 -4,3 -4,3 -9,7 "/><path stroke-width="11" d="M512,974c-4,4 -4,4 -8,8 -4,4 -4,4 -9,8 "/><path stroke-width="10" d="M495,990c-5,4 -4,4 -9,8 -5,4 -6,4 -11,7 -5,4 -5,3 -10,7 "/><path stroke-width="11" d="M465,1012c-5,2 -5,2 -9,5 -4,3 -4,4 -8,7 -4,2 -4,2 -9,4 -4,3 -4,3 -9,5 -4,3 -4,3 -9,6 "/><path stroke-width="10" d="M421,1039c-6,3 -6,3 -12,7 -6,4 -6,4 -12,8 -6,5 -6,5 -12,9 "/><path stroke-width="9" d="M385,1063c-6,5 -5,5 -12,10 -5,5 -6,5 -12,9 "/><path stroke-width="10" d="M361,1082c-5,5 -5,5 -10,10 -5,5 -5,5 -10,10 -4,5 -4,4 -8,9 -4,5 -4,5 -8,9 "/><path stroke-width="11" d="M325,1120c-4,4 -5,4 -8,8 -3,4 -3,4 -5,8 "/><path stroke-width="12" d="M312,1136c-3,3 -3,3 -5,6 -2,3 -3,3 -5,5 "/><path stroke-width="13" d="M302,1147c-1,2 -1,2 -3,4 "/><path stroke-width="15" d="M299,1151c0,0 -1,0 -1,0 "/><path stroke-width="16" d="M298,1151c-1,1 0,1 -1,2 0,1 -1,1 -1,1 -1,2 -1,2 -2,3 "/><path stroke-width="15" d="M294,1157c-1,1 -1,1 -3,2 -1,1 -1,1 -2,2 "/><path stroke-width="16" d="M289,1161c0,1 0,1 -1,1 -1,1 -1,1 -2,2 0,0 0,0 -1,1 0,2 0,2 -1,3 "/><path stroke-width="15" d="M284,1168c-1,2 -1,2 -2,4 -2,1 -2,1 -3,2 "/><path stroke-width="14" d="M279,1174c-2,2 -2,3 -3,5 "/><path stroke-width="13" d="M276,1179c-2,3 -2,2 -4,5 -2,2 -3,2 -5,5 "/><path stroke-width="12" d="M267,1189c-2,4 -1,4 -3,7 -2,4 -3,4 -5,7 "/><path stroke-width="13" d="M259,1203c-1,2 -1,2 -3,5 -2,3 -2,3 -4,6 -1,3 -1,3 -3,6 -1,2 -1,2 -3,4 "/><path stroke-width="14" d="M246,1224c-1,2 -1,2 -2,3 "/><path stroke-width="15" d="M244,1227c-1,2 -1,2 -2,4 -1,1 -1,1 -1,3 -1,1 0,1 -1,2 "/><path stroke-width="16" d="M240,1236c0,0 0,0 0,1 "/><path stroke-width="17" d="M240,1237c0,0 0,0 0,0 "/><path stroke-width="18" d="M240,1237c0,0 0,0 0,0 0,0 0,0 0,0 "/><path stroke-width="17" d="M240,1237c1,0 1,0 1,0 0,0 0,0 0,0 0,-1 0,-1 -1,-1 0,0 1,0 1,0 0,-1 0,-1 -1,-1 "/><path stroke-width="17" d="M1050,15c0,0 0,0 0,0 "/><path stroke-width="13" d="M1050,15c1,21 0,21 1,42 "/><path stroke-width="8" d="M1051,57c1,17 2,17 3,33 0,11 0,11 0,22 0,12 1,12 1,23 0,16 0,16 1,31 0,17 1,17 1,33 0,15 0,15 0,30 0,11 0,11 0,23 0,10 0,10 0,21 0,9 0,9 0,18 0,18 0,18 1,36 "/></g></svg>