<?xml version="1.0" encoding="UTF-8" standalone="no"?>
<svg xmlns="http://www.w3.org/2000/svg" version="1.2" baseProfile="tiny" height="1850" width="1080"><g stroke-linejoin="round" stroke-linecap="round" fill="none" stroke="black"><path stroke-width="18" d="M544,1271c0,0 0,0 0,0 "/><path stroke-width="21" d="M544,1271c0,0 0,0 0,0 "/><path stroke-width="20" d="M544,1271c2,0 2,0 3,0 "/><path stroke-width="14" d="M547,1271c8,-1 8,-1 16,-2 "/><path stroke-width="9" d="M563,1269c10,-2 10,-1 19,-4 "/><path stroke-width="10" d="M582,1265c8,-3 8,-3 15,-6 "/><path stroke-width="11" d="M597,1259c7,-4 8,-4 14,-9 "/><path stroke-width="10" d="M611,1250c8,-6 9,-6 15,-13 "/><path stroke-width="9" d="M626,1237c8,-10 8,-10 14,-21 9,-12 9,-12 16,-25 8,-15 8,-16 14,-31 6,-16 5,-17 9,-33 5,-17 4,-17 8,-35 3,-15 4,-15 6,-31 2,-16 2,-16 3,-32 1,-18 1,-19 0,-37 -1,-15 -1,-15 -3,-31 -2,-17 -1,-18 -5,-35 -4,-15 -4,-15 -10,-29 -6,-18 -6,-18 -14,-36 -8,-16 -8,-16 -17,-32 -12,-19 -11,-19 -24,-37 -13,-19 -15,-18 -29,-36 -13,-16 -12,-17 -26,-33 -15,-18 -15,-17 -32,-34 -17,-17 -16,-18 -35,-34 -22,-18 -23,-17 -47,-34 -22,-15 -21,-17 -44,-31 -20,-12 -21,-11 -42,-22 -21,-9 -21,-10 -42,-18 -18,-5 -18,-7 -37,-8 -20,-2 -21,-2 -40,2 -17,4 -18,5 -33,14 -19,13 -20,13 -36,30 -15,16 -15,18 -26,37 -11,20 -11,21 -19,42 -7,18 -6,18 -10,36 -5,22 -5,22 -8,44 -3,25 -3,26 -4,51 -1,23 -1,24 0,47 2,24 0,24 6,47 5,22 6,23 17,42 10,20 10,21 26,38 22,23 22,24 49,42 27,19 28,18 58,33 34,16 34,17 70,29 37,13 37,12 75,21 36,9 36,8 72,16 28,6 28,8 56,12 26,3 26,2 53,3 21,1 21,2 42,0 15,-1 15,-3 30,-5 11,-2 11,-2 22,-4 "/><path stroke-width="10" d="M689,1119c6,-1 6,-1 12,-3 "/><path stroke-width="12" d="M701,1116c6,-1 6,-1 11,-3 "/><path stroke-width="14" d="M712,1113c3,-1 3,-2 6,-3 "/><path stroke-width="16" d="M718,1110c2,-1 2,0 3,-1 "/><path stroke-width="18" d="M721,1109c1,0 1,0 2,-1 "/><path stroke-width="19" d="M723,1108c0,0 0,-1 0,-1 "/><path stroke-width="20" d="M723,1107c0,0 1,0 1,0 0,0 0,0 0,0 "/><path stroke-width="21" d="M724,1107c0,0 0,0 0,0 "/><path stroke-width="20" d="M724,1107c1,-2 1,-1 2,-3 "/><path stroke-width="18" d="M726,1104c1,-2 1,-2 1,-3 "/><path stroke-width="17" d="M727,1101c0,-2 -1,-2 -1,-3 "/><path stroke-width="18" d="M726,1098c-1,0 0,1 1,1 "/></g></svg>