<?xml version="1.0" encoding="UTF-8" standalone="no"?>
<svg xmlns="http://www.w3.org/2000/svg" version="1.2" baseProfile="tiny" height="1700" width="1200"><g stroke-linejoin="round" stroke-linecap="round" fill="none" stroke="black"><path stroke-width="10" d="M447,675c0,0 0,0 0,0 "/><path stroke-width="9" d="M447,675c-13,10 -14,9 -26,19 "/><path stroke-width="5" d="M421,694c-23,20 -23,20 -44,42 -24,26 -22,27 -44,54 -16,19 -16,19 -31,38 -7,9 -7,9 -13,18 "/><path stroke-width="6" d="M289,846c-3,3 -6,6 -6,7 "/><path stroke-width="8" d="M283,853c1,0 3,-3 7,-5 "/><path stroke-width="7" d="M290,848c14,-12 15,-11 29,-23 "/><path stroke-width="5" d="M319,825c21,-19 21,-19 41,-38 27,-28 27,-29 54,-55 31,-29 30,-31 62,-57 27,-22 27,-24 58,-40 21,-11 23,-15 45,-14 17,0 24,2 34,15 13,18 7,24 12,48 7,28 5,29 11,56 4,18 2,20 11,35 7,10 11,17 21,14 22,-6 23,-15 45,-32 26,-21 27,-20 51,-44 30,-29 30,-30 57,-63 26,-31 27,-30 48,-65 16,-27 16,-28 27,-58 10,-26 11,-27 15,-55 3,-21 2,-22 -1,-44 -2,-20 -3,-20 -9,-39 -6,-20 -8,-20 -15,-39 -9,-21 -9,-21 -17,-42 -9,-22 -10,-22 -16,-45 -7,-22 -4,-23 -10,-45 -4,-18 -3,-19 -11,-36 -4,-7 -10,-11 -12,-12 "/></g></svg>