<?xml version="1.0" encoding="UTF-8" standalone="no"?>
<svg xmlns="http://www.w3.org/2000/svg" version="1.2" baseProfile="tiny" height="1700" width="1200"><g stroke-linejoin="round" stroke-linecap="round" fill="none" stroke="black"><path stroke-width="10" d="M244,565c0,0 0,0 0,0 "/><path stroke-width="11" d="M244,565c-1,-1 -2,-1 -3,-3 "/><path stroke-width="8" d="M241,562c-7,-11 -9,-10 -14,-22 "/><path stroke-width="5" d="M227,540c-8,-18 -12,-19 -11,-38 3,-22 6,-24 19,-43 13,-20 15,-20 35,-35 20,-15 20,-17 44,-25 24,-7 25,-6 50,-5 23,1 24,0 45,9 19,8 19,10 35,24 15,12 15,12 27,27 12,15 11,16 21,33 11,17 10,18 21,35 11,17 10,18 23,35 13,16 13,17 29,30 17,14 17,17 38,24 24,7 26,5 52,4 25,-1 27,0 50,-10 27,-11 26,-15 48,-34 23,-18 24,-18 43,-40 17,-19 15,-21 29,-43 12,-21 12,-21 23,-43 6,-15 5,-15 11,-30 3,-9 4,-9 7,-19 "/><path stroke-width="7" d="M866,396c0,-3 1,-4 -1,-6 "/><path stroke-width="9" d="M865,390c0,-1 -2,0 -3,0 "/><path stroke-width="8" d="M862,390c-7,1 -7,1 -15,2 "/><path stroke-width="6" d="M847,392c-10,1 -11,0 -21,3 "/><path stroke-width="5" d="M826,395c-16,4 -16,3 -31,10 -21,9 -20,10 -40,22 -22,13 -22,12 -42,28 -15,12 -15,14 -28,29 -9,10 -11,10 -17,22 "/><path stroke-width="6" d="M668,506c-2,3 0,5 3,7 "/><path stroke-width="7" d="M671,513c6,4 7,3 15,3 "/><path stroke-width="6" d="M686,516c14,0 14,-1 28,-3 "/><path stroke-width="5" d="M714,513c20,-3 20,-2 40,-6 26,-7 26,-7 51,-16 25,-9 26,-8 50,-20 24,-12 24,-12 46,-27 21,-14 21,-14 40,-30 15,-13 13,-15 28,-27 "/><path stroke-width="6" d="M969,387c3,-2 6,-3 6,-1 "/><path stroke-width="7" d="M975,386c1,6 -1,9 -4,17 "/><path stroke-width="5" d="M971,403c-9,24 -9,24 -18,47 -12,30 -12,30 -26,59 -13,30 -13,30 -27,58 -13,26 -14,25 -26,51 -12,22 -11,22 -23,44 -10,20 -10,20 -20,41 -11,20 -11,20 -21,40 -9,18 -8,19 -17,37 -8,15 -7,16 -16,31 -6,10 -7,10 -15,18 "/><path stroke-width="6" d="M762,829c-5,5 -7,8 -12,8 "/><path stroke-width="7" d="M750,837c-4,-1 -4,-5 -6,-10 "/><path stroke-width="6" d="M744,827c-5,-12 -6,-12 -6,-24 "/><path stroke-width="5" d="M738,803c-1,-20 0,-20 4,-39 5,-20 4,-22 15,-39 12,-18 13,-18 31,-33 18,-15 18,-15 40,-26 28,-15 29,-13 60,-25 27,-11 28,-9 56,-21 26,-11 27,-9 51,-23 25,-15 26,-14 46,-34 20,-18 20,-19 35,-42 14,-23 15,-23 24,-48 8,-23 9,-24 10,-48 0,-26 -2,-26 -8,-51 -6,-27 -6,-28 -16,-53 -9,-24 -11,-23 -23,-46 -11,-20 -11,-19 -23,-39 -8,-14 -7,-14 -16,-27 -9,-13 -9,-14 -19,-26 -7,-8 -12,-12 -15,-15 "/></g></svg>