<?xml version="1.0" encoding="UTF-8" standalone="no"?>
<svg xmlns="http://www.w3.org/2000/svg" version="1.2" baseProfile="tiny" height="1771" width="1080"><g stroke-linejoin="round" stroke-linecap="round" fill="none" stroke="black"><path stroke-width="16" d="M287,485c0,0 0,0 0,0 "/><path stroke-width="17" d="M287,485c-1,-1 -1,-1 -2,-1 "/><path stroke-width="16" d="M285,484c-2,-1 -2,-1 -3,-1 -1,0 -1,0 -3,0 "/><path stroke-width="15" d="M279,483c-1,-1 -1,-1 -2,-2 -1,-1 -1,-1 -2,-2 "/><path stroke-width="14" d="M275,479c0,-3 -1,-3 0,-6 "/><path stroke-width="11" d="M275,473c3,-15 3,-15 7,-30 "/><path stroke-width="8" d="M282,443c5,-19 5,-19 13,-38 6,-15 5,-15 13,-29 9,-17 9,-17 20,-32 11,-14 12,-15 25,-26 14,-12 14,-13 30,-21 20,-9 20,-9 42,-13 22,-5 23,-4 45,-6 23,-1 23,-2 45,0 22,1 22,1 44,6 23,6 24,5 46,15 23,9 23,10 45,22 22,12 23,11 44,25 20,14 20,14 38,31 20,17 20,18 36,37 17,20 17,20 31,41 12,17 12,17 21,36 8,15 8,15 13,30 4,13 3,14 5,27 1,11 2,11 0,21 "/><path stroke-width="9" d="M838,569c-2,7 -2,9 -8,12 -8,5 -10,6 -20,5 "/><path stroke-width="8" d="M810,586c-19,-1 -20,-2 -39,-9 -25,-9 -24,-12 -48,-23 -24,-11 -24,-11 -49,-21 -22,-9 -23,-9 -45,-17 -22,-9 -23,-8 -44,-18 -20,-9 -20,-9 -40,-19 -19,-10 -18,-10 -37,-19 -18,-9 -18,-9 -36,-18 -17,-9 -17,-9 -34,-18 -14,-7 -14,-7 -29,-15 -13,-6 -13,-5 -26,-11 -12,-6 -11,-8 -22,-14 -11,-5 -11,-4 -22,-9 -9,-5 -9,-5 -18,-9 "/><path stroke-width="9" d="M321,366c-8,-4 -8,-4 -16,-8 "/><path stroke-width="8" d="M305,358c-10,-5 -11,-5 -21,-10 -9,-5 -8,-5 -17,-10 "/></g></svg>