<?xml version="1.0" encoding="UTF-8" standalone="no"?>
<svg xmlns="http://www.w3.org/2000/svg" version="1.2" baseProfile="tiny" height="1771" width="1080"><g stroke-linejoin="round" stroke-linecap="round" fill="none" stroke="black"><path stroke-width="16" d="M602,1466c0,0 0,0 0,0 "/><path stroke-width="14" d="M602,1466c6,-7 7,-6 12,-13 "/><path stroke-width="9" d="M614,1453c8,-13 9,-12 14,-27 "/><path stroke-width="8" d="M628,1426c23,-60 29,-59 42,-122 17,-79 18,-81 18,-162 0,-87 0,-89 -18,-174 -17,-84 -20,-85 -54,-164 -33,-79 -36,-78 -79,-153 -40,-68 -40,-69 -87,-132 -36,-49 -36,-50 -79,-92 -25,-24 -27,-28 -57,-38 -21,-7 -27,-6 -46,5 -22,12 -26,16 -35,40 -13,35 -11,39 -9,78 2,58 4,59 17,116 14,65 15,65 36,128 22,64 21,65 51,125 28,55 29,55 65,106 35,49 35,49 77,92 36,38 36,39 79,69 34,24 35,26 74,38 32,10 35,13 66,8 29,-6 36,-8 54,-30 24,-31 25,-37 31,-77 10,-60 8,-63 1,-123 -9,-75 -10,-77 -32,-149 -23,-79 -24,-80 -60,-155 -36,-75 -37,-74 -82,-144 -38,-61 -41,-60 -84,-117 -28,-37 -28,-37 -58,-72 -11,-13 -12,-14 -24,-25 "/><path stroke-width="10" d="M435,302c-3,-2 -6,-4 -7,-2 "/><path stroke-width="11" d="M428,300c-1,3 1,6 2,12 "/><path stroke-width="10" d="M430,312c1,2 1,2 2,5 "/></g></svg>