<?xml version="1.0" encoding="UTF-8" standalone="no"?>
<svg xmlns="http://www.w3.org/2000/svg" version="1.2" baseProfile="tiny" height="1850" width="1080"><g stroke-linejoin="round" stroke-linecap="round" fill="none" stroke="black"><path stroke-width="18" d="M246,997c0,0 0,0 0,0 "/><path stroke-width="19" d="M246,997c2,1 2,0 4,1 "/><path stroke-width="13" d="M250,998c22,14 21,15 43,30 "/><path stroke-width="9" d="M293,1028c69,47 68,48 138,94 44,29 45,27 89,55 39,24 39,25 78,49 34,21 34,23 70,41 27,14 28,14 57,24 25,7 25,8 50,10 17,2 18,2 35,-2 15,-4 18,-3 30,-14 16,-15 19,-17 24,-39 10,-39 9,-42 5,-83 -6,-55 -9,-56 -25,-109 -16,-54 -16,-55 -39,-106 -23,-52 -23,-51 -52,-100 -30,-51 -29,-52 -65,-99 -36,-48 -36,-48 -78,-91 -40,-40 -42,-39 -86,-75 -36,-30 -35,-31 -75,-56 -31,-20 -33,-19 -67,-35 -28,-12 -28,-14 -57,-20 -21,-5 -22,-4 -43,0 -20,5 -23,4 -38,18 -20,18 -22,20 -32,46 -15,36 -17,38 -17,78 -1,52 0,54 15,105 19,61 22,61 53,118 32,58 34,58 74,110 35,46 38,44 77,86 33,37 32,38 66,72 33,33 34,33 70,63 24,22 25,22 51,41 14,10 14,9 29,17 8,5 8,5 17,9 "/><path stroke-width="11" d="M647,1235c4,2 4,2 8,4 "/><path stroke-width="15" d="M655,1239c1,0 1,0 2,1 "/><path stroke-width="19" d="M657,1240c0,0 0,0 0,0 "/><path stroke-width="20" d="M657,1240c1,0 1,0 1,0 0,0 0,0 0,0 0,1 -1,0 -1,1 "/><path stroke-width="16" d="M657,1241c-2,4 -2,4 -4,8 "/><path stroke-width="14" d="M653,1249c-2,3 -1,3 -3,6 "/><path stroke-width="16" d="M650,1255c-1,2 -1,2 -2,3 "/><path stroke-width="18" d="M648,1258c-1,1 0,1 -1,2 -1,1 -1,1 -1,2 "/><path stroke-width="19" d="M646,1262c-1,0 -1,0 -1,0 -1,1 0,1 0,1 0,1 -1,0 -1,0 -1,0 0,1 0,1 "/><path stroke-width="20" d="M644,1264c0,1 0,0 -1,0 "/><path stroke-width="21" d="M643,1264c0,0 0,0 0,0 "/><path stroke-width="19" d="M643,1264c1,-2 1,-1 2,-3 "/><path stroke-width="17" d="M645,1261c1,-2 1,-2 2,-4 "/></g></svg>