<?xml version="1.0" encoding="UTF-8" standalone="no"?>
<svg xmlns="http://www.w3.org/2000/svg" version="1.2" baseProfile="tiny" height="1700" width="1200"><g stroke-linejoin="round" stroke-linecap="round" fill="none" stroke="black"><path stroke-width="10" d="M307,563c0,0 0,0 0,0 "/><path stroke-width="11" d="M307,563c-1,-1 -1,-1 -2,-3 "/><path stroke-width="8" d="M305,560c-8,-15 -10,-14 -17,-29 "/><path stroke-width="5" d="M288,531c-8,-18 -11,-18 -14,-38 -2,-16 -1,-18 4,-33 5,-15 6,-16 16,-27 14,-16 16,-14 31,-28 17,-14 17,-14 35,-27 18,-13 18,-14 38,-24 18,-10 18,-10 38,-17 16,-5 18,-9 34,-6 17,2 17,7 31,18 17,11 17,11 31,26 15,15 14,17 27,34 13,19 13,18 25,38 12,20 11,21 21,42 11,22 10,23 21,45 8,18 8,18 18,36 9,14 9,15 20,27 10,10 11,10 24,16 13,6 13,7 28,9 16,2 17,3 32,0 18,-3 19,-4 35,-12 17,-9 19,-8 31,-22 13,-14 12,-16 21,-33 10,-20 11,-20 16,-41 6,-21 5,-22 7,-44 2,-20 2,-20 2,-41 0,-17 0,-17 -1,-34 -2,-14 -1,-14 -4,-28 -3,-11 -3,-11 -9,-22 -5,-10 -6,-10 -13,-19 -9,-10 -9,-11 -20,-19 -11,-9 -11,-10 -24,-17 -16,-7 -16,-10 -33,-11 -17,-3 -18,-1 -36,4 -19,4 -21,2 -37,12 -18,11 -17,14 -32,30 -15,16 -16,16 -28,35 -12,17 -11,17 -20,36 -7,16 -8,16 -12,34 -4,15 -3,16 -3,31 1,14 1,14 3,29 3,15 4,15 7,30 4,15 5,15 8,31 3,15 4,15 6,31 2,15 3,15 3,31 0,15 0,15 -3,30 -3,17 -4,16 -8,33 -4,18 -3,18 -9,35 -5,17 -6,17 -13,33 -7,16 -7,16 -15,31 -8,14 -8,14 -16,27 -9,14 -9,14 -18,26 -10,11 -10,11 -20,22 -10,10 -10,10 -21,20 -10,9 -10,9 -20,18 -8,6 -8,6 -16,12 "/><path stroke-width="6" d="M456,900c-6,5 -6,4 -13,9 -4,3 -4,4 -9,7 "/><path stroke-width="8" d="M434,916c-2,2 -4,3 -5,2 "/><path stroke-width="9" d="M429,918c0,-1 1,-3 2,-6 "/><path stroke-width="8" d="M431,912c3,-6 3,-6 7,-11 "/><path stroke-width="6" d="M438,901c6,-9 7,-9 15,-17 "/><path stroke-width="5" d="M453,884c10,-11 9,-12 21,-21 14,-11 14,-11 30,-18 19,-9 19,-9 38,-14 19,-6 19,-7 39,-9 16,-2 16,-1 32,0 15,1 15,0 29,4 11,3 10,5 21,10 9,4 9,4 18,8 8,5 8,6 16,10 9,4 9,5 19,8 10,3 10,4 20,5 10,1 11,1 21,0 10,-1 10,-3 20,-4 "/><path stroke-width="6" d="M777,863c6,-2 11,-2 13,-2 "/><path stroke-width="9" d="M377,1244c0,0 0,0 0,0 "/><path stroke-width="11" d="M377,1244c-1,-2 -2,-2 -3,-4 "/><path stroke-width="10" d="M374,1240c-1,-2 -1,-3 0,-4 "/><path stroke-width="9" d="M374,1236c3,-3 5,-3 10,-3 "/><path stroke-width="7" d="M384,1233c8,0 9,0 17,1 "/><path stroke-width="6" d="M401,1234c11,2 11,2 21,5 "/><path stroke-width="5" d="M422,1239c10,3 10,4 20,7 11,4 11,4 22,7 9,4 9,5 19,7 11,2 11,1 22,1 14,0 14,1 28,0 15,-1 15,0 30,-3 18,-3 19,-4 37,-9 20,-6 19,-7 39,-13 18,-6 18,-7 36,-11 17,-5 18,-4 35,-6 14,-2 15,-1 29,-2 12,0 12,0 25,0 11,0 11,0 22,0 "/><path stroke-width="6" d="M786,1217c5,0 6,2 10,0 9,-5 10,-6 17,-15 "/><path stroke-width="5" d="M813,1202c11,-12 13,-12 20,-26 6,-14 4,-16 7,-31 3,-13 1,-14 4,-27 3,-10 1,-12 7,-20 "/><path stroke-width="6" d="M851,1098c4,-6 6,-7 13,-9 10,-3 11,-2 21,-2 "/><path stroke-width="5" d="M885,1087c14,0 14,0 27,0 16,0 16,0 31,-1 11,-1 11,0 21,-2 "/><path stroke-width="6" d="M964,1084c4,-1 5,0 8,-3 16,-13 19,-12 31,-29 "/><path stroke-width="5" d="M1003,1052c10,-13 9,-14 14,-30 4,-13 0,-15 5,-28 4,-11 4,-14 13,-20 "/><path stroke-width="6" d="M1035,974c6,-4 10,-3 16,0 7,4 7,7 10,15 5,16 3,21 6,34 "/></g></svg>