<?xml version="1.0" encoding="UTF-8" standalone="no"?>
<svg xmlns="http://www.w3.org/2000/svg" version="1.2" baseProfile="tiny" height="1771" width="1080"><g stroke-linejoin="round" stroke-linecap="round" fill="none" stroke="black"><path stroke-width="16" d="M383,1384c0,0 0,0 0,0 0,-6 0,-6 0,-11 "/><path stroke-width="12" d="M383,1373c1,-6 1,-6 1,-13 "/><path stroke-width="10" d="M384,1360c1,-36 0,-36 1,-73 "/><path stroke-width="8" d="M385,1287c1,-42 2,-42 3,-84 1,-27 1,-27 2,-55 1,-24 2,-24 3,-48 1,-29 1,-29 2,-58 2,-34 2,-34 4,-67 2,-36 2,-36 5,-72 3,-38 2,-38 6,-76 3,-40 3,-40 8,-80 4,-39 5,-39 11,-77 6,-37 5,-37 12,-73 6,-31 6,-31 15,-61 7,-24 6,-24 16,-47 8,-18 9,-18 19,-33 6,-8 6,-9 14,-14 "/><path stroke-width="9" d="M505,442c5,-3 6,-3 12,-3 9,-1 9,-1 17,2 16,5 17,4 31,13 "/><path stroke-width="8" d="M565,454c29,18 30,17 57,40 30,25 30,26 56,55 24,28 24,29 45,60 17,26 17,27 31,55 12,25 13,25 21,52 8,26 7,27 10,54 3,24 4,25 3,49 -1,21 1,22 -6,42 -6,20 -6,23 -20,36 -15,14 -18,16 -39,19 -27,6 -30,6 -57,-1 -37,-9 -37,-14 -72,-31 -42,-20 -42,-21 -82,-44 -38,-22 -38,-23 -75,-47 -35,-24 -34,-26 -69,-51 -32,-22 -31,-23 -64,-44 -27,-16 -27,-16 -54,-31 -20,-10 -20,-9 -40,-19 -20,-8 -20,-7 -39,-16 -17,-9 -18,-8 -33,-19 -10,-7 -12,-7 -18,-18 -5,-8 -4,-9 -5,-19 -1,-11 0,-11 1,-23 0,-12 -1,-12 0,-25 1,-10 1,-11 3,-21 "/><path stroke-width="9" d="M119,507c2,-5 2,-5 5,-9 "/><path stroke-width="11" d="M124,498c2,-3 2,-3 5,-6 "/><path stroke-width="13" d="M129,492c1,-1 2,-1 2,-3 "/><path stroke-width="15" d="M131,489c0,-1 -1,-1 -1,-1 0,-2 1,-2 3,-3 "/><path stroke-width="14" d="M133,485c0,-1 0,-1 1,-2 "/></g></svg>