<?xml version="1.0" encoding="UTF-8" standalone="no"?>
<svg xmlns="http://www.w3.org/2000/svg" version="1.2" baseProfile="tiny" height="1771" width="1080"><g stroke-linejoin="round" stroke-linecap="round" fill="none" stroke="black"><path stroke-width="16" d="M498,1294c0,0 0,0 0,0 5,1 5,1 9,1 "/><path stroke-width="13" d="M507,1295c4,1 4,2 8,1 "/><path stroke-width="10" d="M515,1296c12,-1 13,1 24,-3 "/><path stroke-width="8" d="M539,1293c24,-8 28,-5 48,-21 21,-18 22,-21 34,-47 20,-40 21,-42 31,-85 12,-54 11,-55 15,-111 3,-66 4,-66 -1,-132 -6,-68 -8,-68 -23,-134 -13,-60 -13,-60 -34,-118 -18,-47 -17,-49 -42,-92 -22,-37 -22,-39 -53,-69 -27,-26 -28,-30 -62,-44 -31,-13 -36,-15 -69,-9 -31,5 -38,7 -57,30 -26,30 -24,36 -34,76 -11,49 -10,51 -9,101 1,52 1,53 13,104 11,44 11,45 32,85 21,40 23,40 53,75 35,39 36,39 76,74 42,37 42,38 89,70 43,30 44,31 91,53 41,19 42,19 86,30 35,8 37,12 72,8 29,-4 32,-6 55,-23 20,-15 20,-19 32,-42 11,-23 11,-25 13,-51 2,-26 0,-27 -5,-52 -8,-38 -11,-38 -23,-75 "/><path stroke-width="10" d="M867,894c0,-1 0,-1 0,-1 "/></g></svg>