<?xml version="1.0" encoding="UTF-8" standalone="no"?>
<svg xmlns="http://www.w3.org/2000/svg" version="1.2" baseProfile="tiny" height="1700" width="1200"><g stroke-linejoin="round" stroke-linecap="round" fill="none" stroke="black"><path stroke-width="10" d="M492,460c0,0 0,0 0,0 -5,4 -5,4 -11,8 "/><path stroke-width="7" d="M481,468c-14,10 -14,10 -28,21 "/><path stroke-width="5" d="M453,489c-21,16 -22,15 -41,33 -17,17 -18,17 -31,37 -11,15 -9,16 -17,33 -8,15 -7,15 -15,30 -7,14 -7,15 -16,28 -6,10 -6,11 -15,19 -7,5 -8,6 -16,8 "/><path stroke-width="6" d="M302,677c-6,1 -8,1 -13,-2 "/><path stroke-width="7" d="M289,675c-4,-2 -6,-4 -6,-9 "/><path stroke-width="6" d="M283,666c-1,-9 -1,-10 3,-19 "/><path stroke-width="5" d="M286,647c4,-12 4,-13 12,-24 14,-18 14,-19 31,-34 21,-18 23,-17 47,-31 27,-15 27,-16 55,-27 31,-12 31,-11 63,-20 31,-7 31,-7 62,-12 29,-4 30,-3 59,-4 26,-1 26,-1 52,0 21,1 21,2 42,6 19,3 19,3 38,9 15,5 15,6 30,12 16,6 16,7 31,12 15,6 15,8 30,10 15,2 15,1 30,-1 13,-2 16,1 26,-7 11,-9 10,-12 17,-25 8,-15 9,-15 11,-31 3,-18 1,-19 -1,-37 -1,-19 0,-19 -4,-37 -3,-18 -5,-17 -10,-34 -5,-16 -4,-16 -10,-31 -6,-15 -7,-14 -13,-29 -7,-15 -6,-15 -13,-30 -6,-15 -6,-15 -13,-29 -6,-13 -5,-14 -13,-26 -7,-12 -6,-15 -17,-22 -12,-9 -14,-7 -28,-10 -16,-2 -17,-4 -32,-1 -19,3 -19,6 -37,14 -20,9 -20,8 -39,20 -20,12 -20,13 -39,27 -18,13 -19,13 -36,28 -16,14 -15,15 -29,31 -13,16 -14,15 -25,33 -10,18 -10,18 -17,38 -7,19 -7,19 -11,40 -4,19 -5,19 -4,39 0,17 2,17 7,34 4,17 4,17 10,33 6,18 6,19 15,36 9,18 10,18 19,36 11,20 10,20 20,40 8,19 10,19 16,39 5,17 4,18 5,36 1,17 2,17 0,33 -2,14 -2,15 -7,28 -6,15 -5,16 -14,28 -9,12 -10,13 -23,22 -12,8 -12,10 -26,12 -16,3 -18,3 -34,-1 -16,-5 -15,-8 -30,-16 "/></g></svg>