<?xml version="1.0" encoding="UTF-8" standalone="no"?>
<svg xmlns="http://www.w3.org/2000/svg" version="1.2" baseProfile="tiny" height="1192" width="720"><g stroke-linejoin="round" stroke-linecap="round" fill="none" stroke="black"><path stroke-width="12" d="M218,865c0,0 0,0 0,0 "/><path stroke-width="14" d="M218,865c0,0 0,0 0,0 0,0 0,0 0,0 0,0 0,0 0,0 "/><path stroke-width="13" d="M218,865c1,0 1,1 1,0 2,0 2,0 3,0 "/><path stroke-width="11" d="M222,865c3,-1 3,-1 6,-3 "/><path stroke-width="9" d="M228,862c8,-4 8,-4 15,-9 "/><path stroke-width="6" d="M243,853c13,-9 14,-8 26,-18 16,-14 17,-13 32,-29 16,-18 16,-18 31,-38 13,-18 12,-19 24,-38 10,-17 11,-17 21,-35 8,-16 8,-16 14,-32 6,-15 6,-15 11,-31 7,-17 8,-17 13,-34 6,-19 6,-19 10,-39 5,-22 6,-22 9,-45 3,-23 4,-23 4,-46 1,-20 1,-20 -2,-39 -3,-15 -4,-15 -10,-28 -6,-11 -7,-11 -15,-20 "/><path stroke-width="7" d="M411,381c-5,-6 -6,-5 -12,-9 -8,-4 -8,-5 -16,-8 -9,-3 -10,-3 -20,-4 "/><path stroke-width="6" d="M363,360c-12,0 -12,-1 -24,1 -17,3 -17,3 -33,9 -21,8 -22,7 -41,18 -17,11 -17,11 -32,25 -14,13 -14,14 -26,28 -11,13 -12,13 -21,28 -8,13 -8,14 -13,29 -5,14 -5,14 -7,28 -1,14 -2,14 0,27 3,13 3,14 10,25 7,13 7,14 18,25 14,14 14,14 31,25 17,12 18,10 37,19 22,11 22,11 45,20 21,9 20,10 42,17 20,7 20,7 42,13 23,6 23,5 47,11 22,6 22,5 44,12 22,8 22,9 44,19 11,5 11,5 21,11 "/></g></svg>