<?xml version="1.0" encoding="UTF-8" standalone="no"?>
<svg xmlns="http://www.w3.org/2000/svg" version="1.2" baseProfile="tiny" height="1192" width="720"><g stroke-linejoin="round" stroke-linecap="round" fill="none" stroke="black"><path stroke-width="12" d="M350,419c0,0 0,0 0,0 "/><path stroke-width="13" d="M350,419c0,1 0,1 0,1 1,1 1,1 1,1 1,1 1,1 2,2 "/><path stroke-width="11" d="M353,423c3,2 2,3 5,3 "/><path stroke-width="9" d="M358,426c8,2 8,3 16,1 "/><path stroke-width="7" d="M374,427c14,-4 18,-1 28,-12 "/><path stroke-width="6" d="M402,415c20,-22 22,-24 32,-52 11,-27 9,-29 10,-59 0,-17 -1,-18 -6,-35 -3,-7 -5,-7 -11,-13 "/><path stroke-width="7" d="M427,256c-6,-6 -8,-4 -15,-9 "/><path stroke-width="6" d="M412,247c-10,-7 -9,-7 -20,-14 -10,-6 -10,-6 -21,-11 -14,-7 -14,-7 -28,-12 -15,-5 -15,-5 -30,-8 -14,-2 -15,-2 -28,-1 -11,1 -12,1 -21,7 -8,5 -9,6 -13,15 "/><path stroke-width="7" d="M251,223c-4,8 -4,8 -4,17 "/><path stroke-width="6" d="M247,240c-1,21 -2,22 3,42 8,39 10,39 24,76 14,40 12,41 31,78 14,28 16,28 35,51 13,15 15,13 30,27 9,9 10,8 19,17 8,9 7,9 13,19 6,9 6,9 10,20 3,9 2,10 4,20 2,11 4,11 4,21 1,12 -1,12 -1,24 "/><path stroke-width="8" d="M419,635c0,1 0,1 0,3 "/></g></svg>