<?xml version="1.0" encoding="UTF-8" standalone="no"?>
<svg xmlns="http://www.w3.org/2000/svg" version="1.2" baseProfile="tiny" height="2203" width="1440"><g stroke-linejoin="round" stroke-linecap="round" fill="none" stroke="black"><path stroke-width="23" d="M444,652c0,0 0,0 0,0 "/><path stroke-width="24" d="M444,652c-3,3 -2,3 -5,5 "/><path stroke-width="16" d="M439,657c-26,17 -27,15 -52,32 "/><path stroke-width="11" d="M387,689c-36,23 -39,20 -70,48 -17,15 -26,18 -26,38 -1,28 8,32 24,60 31,54 34,53 70,104 46,65 46,65 94,129 50,68 48,71 102,136 52,63 52,63 111,120 48,47 48,48 103,88 41,31 41,35 89,53 31,12 35,12 68,8 26,-3 30,-4 50,-20 23,-19 25,-22 37,-49 15,-34 17,-36 16,-73 -1,-54 -2,-57 -20,-108 -30,-86 -35,-85 -76,-167 -47,-95 -49,-94 -101,-187 -55,-96 -55,-97 -113,-191 -48,-78 -45,-80 -100,-154 -38,-50 -37,-55 -84,-93 -26,-21 -33,-27 -63,-26 -26,1 -36,6 -50,29 -27,43 -24,50 -32,102 -15,91 -15,93 -14,185 1,121 1,122 17,242 16,128 16,128 47,253 28,109 29,110 69,214 27,68 28,69 65,130 19,32 19,38 49,58 18,12 26,13 47,7 23,-6 24,-13 40,-33 24,-30 28,-30 39,-67 18,-59 17,-62 20,-125 3,-92 -6,-92 -9,-184 -5,-108 -8,-108 -7,-215 0,-99 -2,-99 7,-197 8,-77 6,-79 28,-152 15,-51 14,-56 45,-96 17,-22 24,-29 50,-30 30,0 36,6 61,28 40,33 36,39 67,81 34,45 33,46 64,94 25,39 24,39 48,79 18,31 19,31 36,62 12,22 10,22 21,44 "/><path stroke-width="12" d="M1206,914c4,7 4,11 8,12 "/><path stroke-width="14" d="M1214,926c5,1 10,-3 10,-8 "/><path stroke-width="13" d="M1224,918c0,-9 -5,-11 -10,-20 "/><path stroke-width="18" d="M644,717c0,0 0,0 0,0 "/><path stroke-width="24" d="M644,717c-1,1 -1,1 -1,1 "/><path stroke-width="19" d="M643,718c-5,5 -5,6 -11,11 "/><path stroke-width="13" d="M632,729c-17,15 -21,13 -34,30 "/><path stroke-width="12" d="M598,759c-4,6 1,9 1,15 "/></g></svg>