<?xml version="1.0" encoding="UTF-8" standalone="no"?>
<svg xmlns="http://www.w3.org/2000/svg" version="1.2" baseProfile="tiny" height="1192" width="720"><g stroke-linejoin="round" stroke-linecap="round" fill="none" stroke="black"><path stroke-width="12" d="M564,370c0,0 0,0 0,0 "/><path stroke-width="14" d="M564,370c0,0 0,1 0,1 "/><path stroke-width="13" d="M564,371c-1,0 -1,0 -1,0 "/><path stroke-width="12" d="M563,371c-2,1 -2,0 -4,1 "/><path stroke-width="10" d="M559,372c-7,2 -7,3 -13,6 "/><path stroke-width="7" d="M546,378c-15,7 -15,7 -29,14 "/><path stroke-width="6" d="M517,392c-30,15 -31,13 -61,29 -39,21 -40,21 -78,44 -24,14 -23,16 -46,31 -22,15 -24,12 -45,29 -15,13 -14,14 -27,30 -8,11 -6,12 -13,23 -5,7 -6,7 -11,13 "/><path stroke-width="8" d="M236,591c-3,4 -2,4 -6,7 "/><path stroke-width="10" d="M230,598c-1,2 -2,1 -4,3 "/><path stroke-width="11" d="M226,601c-1,0 -1,1 -1,1 "/><path stroke-width="12" d="M225,602c-1,0 0,-1 0,-1 "/><path stroke-width="11" d="M225,601c5,-3 6,-2 11,-5 "/><path stroke-width="7" d="M236,596c17,-8 16,-10 34,-18 "/><path stroke-width="6" d="M270,578c26,-11 26,-12 53,-20 22,-7 23,-6 47,-11 10,-2 11,-1 21,-3 "/><path stroke-width="9" d="M541,460c0,0 0,0 0,0 "/><path stroke-width="11" d="M541,460c-4,0 -4,-1 -9,-1 "/><path stroke-width="8" d="M532,459c-10,-1 -10,0 -20,0 "/><path stroke-width="6" d="M512,459c-11,0 -11,0 -21,0 -9,0 -9,0 -18,1 "/><path stroke-width="7" d="M473,460c-7,1 -7,1 -14,3 "/><path stroke-width="8" d="M459,463c-4,1 -4,2 -9,4 "/></g></svg>