<?xml version="1.0" encoding="UTF-8" standalone="no"?>
<svg xmlns="http://www.w3.org/2000/svg" version="1.2" baseProfile="tiny" height="1192" width="720"><g stroke-linejoin="round" stroke-linecap="round" fill="none" stroke="black"><path stroke-width="12" d="M294,804c0,0 0,0 0,0 "/><path stroke-width="14" d="M294,804c0,0 0,0 0,0 0,0 0,0 0,0 0,0 0,0 0,0 0,0 0,0 0,0 0,0 0,0 0,1 0,0 0,0 0,0 0,0 0,0 0,0 "/><path stroke-width="13" d="M294,805c2,-1 2,-1 3,-2 "/><path stroke-width="11" d="M297,803c3,-2 3,-2 6,-5 "/><path stroke-width="8" d="M303,798c7,-5 7,-5 14,-11 "/><path stroke-width="6" d="M317,787c11,-9 11,-9 21,-19 14,-13 14,-13 26,-28 13,-15 13,-15 25,-31 13,-16 14,-15 25,-32 11,-15 11,-15 21,-31 9,-16 10,-15 19,-31 7,-14 7,-15 12,-29 5,-14 5,-14 8,-28 2,-10 2,-10 1,-20 "/><path stroke-width="7" d="M475,538c0,-8 0,-8 -4,-15 -4,-7 -4,-8 -10,-12 -11,-6 -12,-7 -25,-8 "/><path stroke-width="6" d="M436,503c-23,-1 -24,-1 -46,5 -30,9 -31,10 -58,25 -26,14 -25,16 -48,35 -22,17 -23,17 -42,37 -17,19 -17,20 -31,41 -10,15 -11,15 -16,31 -3,8 -2,10 -1,18 "/><path stroke-width="8" d="M194,695c1,3 2,4 6,5 "/><path stroke-width="7" d="M200,700c15,5 16,4 33,5 "/><path stroke-width="6" d="M233,705c33,1 34,1 67,-1 41,-2 41,-3 82,-6 43,-4 43,-6 86,-9 41,-3 41,-2 81,-2 18,-1 18,0 35,0 "/></g></svg>