<?xml version="1.0" encoding="UTF-8" standalone="no"?>
<svg xmlns="http://www.w3.org/2000/svg" version="1.2" baseProfile="tiny" height="1192" width="720"><g stroke-linejoin="round" stroke-linecap="round" fill="none" stroke="black"><path stroke-width="12" d="M157,342c0,0 0,0 0,0 "/><path stroke-width="14" d="M157,342c0,0 0,0 0,0 0,1 0,1 1,1 "/><path stroke-width="13" d="M158,343c0,1 0,1 1,2 "/><path stroke-width="11" d="M159,345c3,2 3,2 6,4 "/><path stroke-width="8" d="M165,349c13,10 13,9 25,19 "/><path stroke-width="6" d="M190,368c26,20 26,20 52,40 29,22 29,22 57,44 23,18 26,16 46,37 16,16 15,17 27,37 8,13 8,14 13,28 6,15 5,15 9,30 4,18 4,18 8,37 5,19 6,19 10,38 3,16 3,16 5,32 2,12 3,12 3,24 "/><path stroke-width="7" d="M420,715c-1,6 -1,7 -4,11 "/><path stroke-width="9" d="M416,726c-2,3 -4,3 -7,2 "/><path stroke-width="8" d="M409,728c-9,-2 -9,-3 -17,-8 "/><path stroke-width="6" d="M392,720c-16,-11 -17,-10 -32,-22 -20,-16 -21,-16 -38,-35 -18,-20 -19,-20 -33,-45 -15,-24 -13,-25 -23,-52 -11,-27 -11,-27 -19,-55 -7,-27 -7,-27 -13,-55 -4,-22 -3,-22 -5,-45 -2,-18 -1,-18 -3,-36 -2,-16 -2,-16 -4,-31 "/><path stroke-width="8" d="M222,344c0,-2 0,-2 0,-3 "/></g></svg>