<?xml version="1.0" encoding="UTF-8" standalone="no"?>
<svg xmlns="http://www.w3.org/2000/svg" version="1.2" baseProfile="tiny" height="1192" width="720"><g stroke-linejoin="round" stroke-linecap="round" fill="none" stroke="black"><path stroke-width="12" d="M249,790c0,0 0,0 0,0 "/><path stroke-width="14" d="M249,790c0,0 0,0 0,0 0,0 0,0 0,0 0,0 0,0 0,0 0,0 0,0 0,0 0,0 0,0 0,-1 0,0 0,0 0,0 "/><path stroke-width="13" d="M249,789c1,-1 1,-1 1,-2 "/><path stroke-width="11" d="M250,787c2,-4 2,-4 4,-7 "/><path stroke-width="9" d="M254,780c3,-7 3,-7 7,-14 "/><path stroke-width="7" d="M261,766c5,-11 5,-12 11,-23 "/><path stroke-width="6" d="M272,743c7,-14 8,-14 16,-28 7,-13 7,-13 15,-26 8,-14 8,-13 17,-26 9,-13 9,-13 17,-26 8,-11 7,-12 15,-23 8,-11 9,-10 16,-21 7,-10 7,-11 13,-21 6,-10 6,-10 12,-20 4,-9 4,-9 8,-17 "/><path stroke-width="7" d="M401,535c2,-6 2,-6 5,-12 3,-8 4,-7 6,-15 2,-7 2,-8 3,-15 2,-10 3,-10 4,-20 "/><path stroke-width="6" d="M419,473c1,-11 0,-11 -1,-22 -1,-10 -1,-10 -2,-20 "/><path stroke-width="7" d="M416,431c-1,-9 -1,-9 -2,-17 -1,-8 -2,-7 -3,-15 -2,-5 -1,-5 -3,-11 "/><path stroke-width="9" d="M408,388c-1,-5 -1,-5 -2,-10 -1,-4 -1,-4 -3,-8 -2,-4 -2,-4 -5,-8 -3,-5 -4,-5 -8,-9 "/><path stroke-width="8" d="M390,353c-4,-5 -4,-5 -8,-9 -6,-4 -6,-4 -11,-8 -7,-4 -7,-3 -14,-7 -6,-3 -6,-3 -12,-5 -4,-2 -4,-2 -8,-3 "/><path stroke-width="9" d="M337,321c-4,-1 -4,-1 -8,-1 "/><path stroke-width="10" d="M329,320c-4,0 -4,0 -8,0 "/><path stroke-width="9" d="M321,320c-5,1 -6,1 -11,3 "/><path stroke-width="8" d="M310,323c-7,2 -7,3 -13,7 "/><path stroke-width="7" d="M297,330c-9,5 -8,5 -17,11 -7,4 -7,4 -14,10 -6,4 -6,4 -11,8 "/><path stroke-width="8" d="M255,359c-4,4 -4,5 -7,9 -4,5 -5,5 -8,10 -4,8 -4,8 -7,16 "/><path stroke-width="7" d="M233,394c-4,9 -5,9 -8,18 "/><path stroke-width="6" d="M225,412c-3,11 -3,11 -5,22 -3,12 -2,12 -3,24 -1,13 -1,13 -1,26 -1,11 -2,11 -1,23 1,11 3,11 5,23 2,10 2,10 4,21 2,10 2,10 5,20 "/><path stroke-width="7" d="M229,571c2,9 2,9 5,17 3,8 4,8 8,16 6,8 6,8 12,16 5,8 5,8 11,15 7,7 8,6 15,12 "/><path stroke-width="6" d="M280,647c7,7 6,7 13,14 "/><path stroke-width="7" d="M293,661c7,6 7,6 14,11 "/><path stroke-width="6" d="M307,672c9,6 9,6 18,12 7,6 7,6 15,11 "/><path stroke-width="7" d="M340,695c7,4 7,4 15,7 7,4 7,4 14,7 7,3 7,3 13,5 "/><path stroke-width="8" d="M382,714c6,2 7,2 13,3 6,2 6,2 12,3 5,0 5,0 11,1 "/><path stroke-width="9" d="M418,721c4,0 4,0 9,-1 4,0 3,0 7,-1 "/><path stroke-width="10" d="M434,719c4,-1 4,0 7,-1 4,-1 4,-1 8,-2 3,-1 3,-1 7,-2 3,-1 3,-1 6,-2 3,-1 3,-1 6,-3 2,-1 2,-1 5,-2 "/><path stroke-width="11" d="M473,707c2,-1 2,0 4,-2 2,-1 2,-1 4,-3 1,-1 1,-1 3,-2 2,-1 2,-1 4,-3 2,-1 2,-1 5,-3 "/><path stroke-width="10" d="M493,694c2,-1 3,-1 5,-3 "/><path stroke-width="11" d="M498,691c2,-1 2,-1 4,-3 1,-1 1,-2 2,-4 2,-1 2,-1 3,-3 2,-1 2,-1 3,-3 2,-2 2,-3 3,-5 1,-2 2,-2 3,-4 "/><path stroke-width="10" d="M516,669c2,-3 1,-3 3,-6 2,-4 2,-4 4,-7 "/><path stroke-width="9" d="M523,656c3,-4 4,-3 7,-7 3,-3 2,-3 5,-7 2,-3 3,-3 5,-7 2,-3 2,-4 4,-7 2,-4 2,-4 4,-8 2,-3 1,-4 3,-7 "/><path stroke-width="10" d="M551,613c1,-3 1,-3 3,-6 1,-3 1,-3 2,-6 1,-3 1,-3 2,-6 1,-3 1,-3 2,-5 2,-4 2,-4 3,-8 "/><path stroke-width="9" d="M563,582c2,-4 1,-4 2,-9 1,-4 2,-4 4,-7 3,-5 3,-5 6,-10 "/><path stroke-width="8" d="M575,556c2,-5 3,-5 5,-10 3,-6 2,-6 5,-12 2,-7 2,-7 5,-13 1,-6 1,-6 3,-12 1,-6 2,-6 3,-11 2,-5 2,-5 3,-10 "/><path stroke-width="9" d="M599,488c1,-5 1,-5 1,-11 1,-5 1,-5 2,-11 "/><path stroke-width="8" d="M602,466c0,-7 0,-7 0,-14 -1,-7 -1,-7 -2,-14 -1,-8 -1,-8 -3,-15 -2,-5 -3,-5 -6,-10 -3,-5 -3,-6 -7,-10 -3,-4 -3,-4 -7,-6 -6,-3 -6,-4 -12,-5 -8,-2 -8,-2 -17,-2 "/><path stroke-width="6" d="M548,390c-12,0 -12,1 -25,4 -14,2 -14,2 -27,7 -16,5 -16,5 -31,12 -19,9 -19,10 -37,20 -17,10 -17,10 -33,20 -15,10 -15,10 -30,21 -14,11 -14,12 -28,24 -15,14 -15,14 -30,29 -12,12 -11,12 -23,24 -10,11 -10,10 -20,21 -8,8 -7,9 -15,17 -6,6 -6,7 -12,12 "/><path stroke-width="7" d="M237,601c-5,5 -6,4 -10,8 "/><path stroke-width="9" d="M227,609c-3,3 -3,3 -6,6 "/><path stroke-width="10" d="M221,615c-1,2 -1,2 -3,4 "/><path stroke-width="12" d="M218,619c0,0 0,0 0,0 "/><path stroke-width="14" d="M218,619c0,0 0,0 0,0 0,1 0,1 0,1 0,0 0,0 0,0 0,0 0,0 0,0 -1,0 -1,0 -1,0 "/><path stroke-width="13" d="M217,620c0,0 0,0 0,1 "/><path stroke-width="14" d="M217,621c0,0 0,0 0,0 "/></g></svg>