<?xml version="1.0" encoding="UTF-8" standalone="no"?>
<svg xmlns="http://www.w3.org/2000/svg" version="1.2" baseProfile="tiny" height="2203" width="1440"><g stroke-linejoin="round" stroke-linecap="round" fill="none" stroke="black"><path stroke-width="23" d="M811,1589c0,0 0,0 0,0 "/><path stroke-width="27" d="M811,1589c0,0 0,0 0,0 0,0 0,0 0,0 0,0 0,0 0,0 "/><path stroke-width="24" d="M811,1589c-1,-3 0,-3 -1,-5 "/><path stroke-width="17" d="M810,1584c-2,-10 -3,-10 -5,-20 "/><path stroke-width="12" d="M805,1564c-3,-17 -4,-17 -4,-34 "/><path stroke-width="11" d="M801,1530c-1,-32 -5,-33 1,-65 12,-62 8,-66 35,-123 30,-65 33,-66 79,-120 35,-42 39,-39 82,-73 29,-23 32,-19 62,-42 20,-15 17,-18 37,-35 13,-11 14,-9 27,-21 9,-7 7,-10 16,-16 "/><path stroke-width="13" d="M1140,1035c4,-3 7,-5 11,-3 "/><path stroke-width="15" d="M1151,1032c4,3 5,7 5,15 "/><path stroke-width="13" d="M1156,1047c1,14 -2,14 -4,28 "/><path stroke-width="11" d="M1152,1075c-4,21 -3,21 -7,42 -6,24 -3,26 -13,48 -16,34 -20,33 -40,65 -24,37 -21,39 -49,73 -24,30 -30,25 -54,55 -9,11 -6,13 -12,27 "/><path stroke-width="15" d="M977,1385c0,2 1,3 0,4 "/><path stroke-width="22" d="M977,1389c0,1 -1,0 -1,0 -2,-3 -2,-3 -5,-6 "/><path stroke-width="17" d="M971,1383c-4,-5 -5,-5 -9,-10 "/><path stroke-width="14" d="M962,1373c-5,-7 -4,-8 -10,-15 "/><path stroke-width="12" d="M952,1358c-7,-8 -8,-8 -15,-15 "/><path stroke-width="13" d="M937,1343c-6,-6 -5,-6 -11,-11 "/><path stroke-width="16" d="M926,1332c-2,-2 -3,-2 -4,-4 "/><path stroke-width="19" d="M922,1328c-2,-3 -1,-4 -1,-7 0,-3 1,-3 2,-7 "/><path stroke-width="18" d="M923,1314c2,-5 2,-5 5,-10 "/><path stroke-width="16" d="M928,1304c2,-6 3,-6 6,-11 "/><path stroke-width="15" d="M934,1293c3,-7 2,-7 5,-15 2,-6 3,-6 3,-13 "/><path stroke-width="16" d="M942,1265c1,-4 0,-4 -2,-8 "/><path stroke-width="19" d="M940,1257c-2,-2 -2,-2 -4,-4 "/><path stroke-width="21" d="M936,1253c-1,-1 -1,-1 -2,-2 "/><path stroke-width="23" d="M934,1251c-1,-1 -1,-1 -2,-1 "/><path stroke-width="24" d="M932,1250c-1,0 -1,0 -2,0 "/><path stroke-width="25" d="M930,1250c-1,0 -1,0 -1,0 "/><path stroke-width="27" d="M929,1250c0,0 0,0 0,0 0,0 0,0 0,0 "/><path stroke-width="25" d="M929,1250c-1,1 -1,0 -2,1 "/><path stroke-width="21" d="M927,1251c-3,3 -2,4 -5,7 "/><path stroke-width="16" d="M922,1258c-4,6 -5,6 -9,12 "/><path stroke-width="14" d="M913,1270c-6,8 -7,8 -12,16 "/><path stroke-width="12" d="M901,1286c-6,11 -4,13 -11,23 "/><path stroke-width="11" d="M890,1309c-8,12 -9,11 -19,21 -11,13 -10,15 -22,26 -9,8 -10,8 -21,12 "/><path stroke-width="13" d="M828,1368c-5,1 -6,0 -11,-2 "/><path stroke-width="17" d="M817,1366c-2,-2 -1,-3 -3,-6 -2,-6 -3,-6 -4,-12 "/><path stroke-width="15" d="M810,1348c-1,-9 0,-9 0,-18 "/><path stroke-width="13" d="M810,1330c0,-9 2,-9 2,-18 "/><path stroke-width="12" d="M812,1312c1,-16 0,-16 1,-31 "/><path stroke-width="11" d="M813,1281c1,-16 1,-16 4,-32 2,-11 2,-11 6,-21 "/><path stroke-width="13" d="M823,1228c3,-7 3,-7 8,-13 "/><path stroke-width="15" d="M831,1215c4,-4 4,-4 9,-7 "/><path stroke-width="18" d="M840,1208c2,-2 2,-2 5,-2 "/><path stroke-width="19" d="M845,1206c4,-2 5,0 9,-2 "/><path stroke-width="16" d="M854,1204c5,-4 5,-5 9,-11 1,-2 0,-3 1,-5 "/></g></svg>