<?xml version="1.0" encoding="UTF-8" standalone="no"?>
<svg xmlns="http://www.w3.org/2000/svg" version="1.2" baseProfile="tiny" height="1192" width="720"><g stroke-linejoin="round" stroke-linecap="round" fill="none" stroke="black"><path stroke-width="12" d="M309,715c0,0 0,0 0,0 "/><path stroke-width="14" d="M309,715c0,0 0,0 0,0 0,0 0,0 0,0 0,0 0,0 0,0 0,0 -1,0 0,0 "/><path stroke-width="13" d="M309,715c0,1 0,1 1,1 "/><path stroke-width="11" d="M310,716c6,-1 6,1 11,-1 "/><path stroke-width="7" d="M321,715c17,-5 17,-5 33,-13 "/><path stroke-width="6" d="M354,702c24,-11 25,-10 46,-25 22,-14 22,-15 41,-34 18,-17 18,-17 33,-37 14,-17 14,-18 24,-37 11,-20 10,-21 17,-42 11,-28 12,-28 20,-57 7,-27 9,-28 10,-55 1,-25 0,-26 -5,-51 -6,-21 -5,-22 -17,-41 -10,-14 -11,-15 -26,-23 -14,-8 -16,-8 -33,-8 -31,-1 -32,0 -63,6 -34,7 -35,6 -68,20 -31,12 -31,13 -58,31 -27,18 -27,19 -51,41 -20,20 -22,20 -38,42 -12,17 -12,18 -18,38 -4,13 -5,15 -1,27 4,11 7,11 16,19 17,17 17,18 37,31 31,20 31,21 65,36 39,17 40,16 81,29 40,12 40,12 82,21 37,8 37,7 75,13 33,5 33,4 67,9 27,5 27,4 54,9 17,4 17,5 33,10 "/><path stroke-width="8" d="M677,674c1,0 1,0 2,0 "/></g></svg>