<?xml version="1.0" encoding="UTF-8" standalone="no"?>
<svg xmlns="http://www.w3.org/2000/svg" version="1.2" baseProfile="tiny" height="1192" width="720"><g stroke-linejoin="round" stroke-linecap="round" fill="none" stroke="black"><path stroke-width="12" d="M320,836c0,0 0,0 0,0 "/><path stroke-width="14" d="M320,836c0,0 0,0 0,0 -1,0 -1,0 -1,-1 "/><path stroke-width="13" d="M319,835c-1,0 -1,0 -2,-1 "/><path stroke-width="10" d="M317,834c-4,-2 -4,-1 -7,-3 "/><path stroke-width="8" d="M310,831c-6,-4 -6,-4 -11,-8 "/><path stroke-width="7" d="M299,823c-9,-8 -10,-8 -17,-17 "/><path stroke-width="6" d="M282,806c-10,-14 -11,-14 -18,-30 -9,-21 -9,-21 -14,-44 -6,-28 -5,-28 -8,-56 -3,-34 -3,-34 -3,-68 0,-32 -1,-32 4,-64 4,-29 4,-30 14,-58 8,-25 9,-25 21,-48 12,-22 12,-23 27,-43 15,-18 15,-19 33,-34 15,-12 16,-12 34,-20 15,-7 15,-8 32,-10 15,-3 15,-2 30,0 15,2 15,2 28,8 14,6 15,6 27,15 12,9 12,10 21,22 8,13 8,14 13,29 6,18 7,19 8,38 1,22 1,23 -4,44 -7,27 -8,28 -21,52 -16,29 -16,29 -37,54 -22,27 -22,28 -49,51 -27,23 -27,23 -58,41 -28,17 -29,17 -60,27 -26,10 -27,10 -54,13 -24,2 -25,3 -47,-2 -18,-5 -19,-6 -33,-18 -10,-9 -11,-11 -16,-25 -8,-20 -10,-22 -10,-44 0,-29 0,-30 9,-58 12,-33 12,-35 32,-64 24,-33 26,-34 57,-60 31,-26 32,-25 67,-45 32,-19 32,-18 66,-32 33,-12 33,-13 68,-21 32,-7 33,-5 66,-9 14,-1 15,0 30,-1 "/></g></svg>