<?xml version="1.0" encoding="UTF-8" standalone="no"?>
<svg xmlns="http://www.w3.org/2000/svg" version="1.2" baseProfile="tiny" height="1192" width="720"><g stroke-linejoin="round" stroke-linecap="round" fill="none" stroke="black"><path stroke-width="12" d="M382,765c0,0 0,0 0,0 "/><path stroke-width="14" d="M382,765c0,0 0,0 0,0 0,-1 0,-1 1,-1 "/><path stroke-width="13" d="M383,764c0,0 0,0 1,0 0,0 0,0 0,-1 1,-1 1,-1 1,-2 "/><path stroke-width="11" d="M385,761c2,-3 3,-3 4,-6 "/><path stroke-width="9" d="M389,755c3,-7 3,-7 5,-14 "/><path stroke-width="7" d="M394,741c4,-11 3,-12 7,-23 "/><path stroke-width="6" d="M401,718c4,-10 5,-10 10,-21 4,-9 4,-9 7,-18 "/><path stroke-width="7" d="M418,679c2,-8 2,-8 3,-15 2,-9 3,-9 4,-17 "/><path stroke-width="6" d="M425,647c1,-12 0,-12 0,-24 -1,-18 -1,-18 -3,-35 -3,-20 -3,-20 -7,-39 -3,-19 -2,-19 -7,-37 -3,-13 -4,-13 -9,-25 -3,-10 -3,-10 -7,-18 "/><path stroke-width="7" d="M392,469c-4,-8 -4,-8 -8,-15 -6,-9 -7,-8 -12,-18 "/><path stroke-width="6" d="M372,436c-9,-14 -8,-14 -17,-28 -9,-16 -8,-16 -18,-32 -8,-12 -8,-11 -17,-22 -5,-6 -5,-6 -11,-12 "/><path stroke-width="8" d="M309,342c-3,-4 -4,-3 -8,-6 "/><path stroke-width="9" d="M301,336c-2,-2 -2,-2 -4,-3 "/><path stroke-width="10" d="M297,333c-3,-1 -3,0 -6,-1 -3,-1 -3,-1 -6,-3 -3,-1 -3,-1 -7,-3 -2,-1 -2,-1 -5,-2 "/><path stroke-width="11" d="M273,324c-2,0 -2,-1 -5,-1 -1,0 -2,0 -3,1 "/><path stroke-width="12" d="M265,324c-1,0 -1,0 -2,1 -1,0 -1,0 -1,1 "/><path stroke-width="13" d="M262,326c0,1 0,1 0,2 "/><path stroke-width="12" d="M262,328c-1,2 -1,2 -1,4 "/><path stroke-width="11" d="M261,332c-1,3 0,3 0,6 "/><path stroke-width="10" d="M261,338c0,4 -1,4 0,8 "/><path stroke-width="8" d="M261,346c1,9 1,9 2,18 "/><path stroke-width="7" d="M263,364c3,12 2,12 6,25 "/><path stroke-width="6" d="M269,389c4,14 5,14 10,29 4,16 4,16 8,33 4,17 4,16 9,34 4,14 4,14 7,29 3,12 3,12 5,24 2,10 2,10 3,21 2,10 2,9 3,19 "/><path stroke-width="7" d="M314,578c2,9 2,9 3,18 2,9 1,10 3,19 2,8 3,8 5,15 3,8 3,8 6,15 3,7 3,7 7,14 "/><path stroke-width="8" d="M338,659c3,5 3,5 6,10 3,4 2,4 5,8 "/><path stroke-width="9" d="M349,677c2,3 3,3 5,5 "/><path stroke-width="11" d="M354,682c2,1 2,1 4,2 "/><path stroke-width="12" d="M358,684c1,0 1,0 2,-1 2,-1 1,-1 2,-3 "/><path stroke-width="11" d="M362,680c2,-2 2,-2 3,-4 0,-1 0,-1 0,-3 1,-2 0,-2 0,-4 "/><path stroke-width="10" d="M365,669c1,-5 1,-5 0,-10 "/><path stroke-width="9" d="M365,659c0,-6 0,-6 0,-13 "/><path stroke-width="7" d="M365,646c-1,-12 0,-12 -2,-24 "/><path stroke-width="6" d="M363,622c-3,-17 -3,-17 -7,-35 -4,-16 -5,-16 -10,-33 -4,-12 -3,-12 -8,-25 -4,-9 -4,-9 -9,-17 "/><path stroke-width="7" d="M329,512c-4,-8 -4,-8 -9,-16 "/><path stroke-width="6" d="M320,496c-6,-12 -6,-12 -13,-23 -8,-13 -8,-13 -17,-26 -8,-12 -9,-11 -18,-23 -7,-7 -7,-7 -14,-14 "/><path stroke-width="7" d="M258,410c-4,-4 -4,-4 -8,-8 "/><path stroke-width="9" d="M250,402c-2,-2 -2,-2 -4,-4 "/><path stroke-width="10" d="M246,398c-2,-2 -2,-2 -4,-3 -2,-2 -3,-1 -5,-3 -4,-3 -4,-3 -7,-6 "/><path stroke-width="9" d="M230,386c-4,-3 -4,-4 -8,-6 -4,-2 -4,-2 -7,-4 "/><path stroke-width="10" d="M215,376c-3,-1 -3,-1 -6,-2 -2,0 -2,0 -5,-1 "/><path stroke-width="11" d="M204,373c-2,-1 -2,0 -4,-1 -1,0 -1,0 -3,-1 "/><path stroke-width="12" d="M197,371c-2,0 -2,0 -3,-1 -1,0 -1,0 -1,-1 "/><path stroke-width="13" d="M193,369c0,0 0,0 0,0 "/><path stroke-width="14" d="M193,369c0,0 0,0 0,-1 0,0 0,0 0,0 -1,0 -1,0 -1,0 0,0 0,0 0,0 0,0 0,0 0,0 0,0 0,0 0,0 0,0 0,0 0,0 0,1 0,1 0,1 0,0 0,0 0,0 0,0 0,0 0,0 0,0 0,0 0,0 0,0 0,0 0,0 "/><path stroke-width="13" d="M192,369c1,0 0,0 1,0 "/><path stroke-width="14" d="M193,369c0,0 0,0 0,0 -1,0 -1,0 -1,0 0,0 0,0 0,0 0,0 0,0 0,1 0,0 0,0 0,0 0,0 0,0 1,0 0,0 0,-1 0,-1 0,0 0,1 0,1 0,0 0,0 0,0 0,0 0,0 0,0 0,0 0,0 0,0 0,0 0,0 0,0 0,0 0,0 0,0 0,0 0,0 0,0 0,0 0,0 0,0 0,0 0,0 0,0 0,0 0,0 0,0 0,0 0,0 0,0 0,0 0,0 0,0 0,0 0,0 0,0 0,0 0,0 0,0 "/><path stroke-width="13" d="M193,370c1,0 1,1 2,1 0,0 0,0 1,0 0,1 0,0 1,0 0,1 0,1 1,1 0,0 0,0 0,0 1,0 1,1 1,1 1,0 1,0 1,0 1,0 0,1 1,1 0,0 0,0 1,0 "/><path stroke-width="14" d="M202,374c0,0 0,0 0,0 0,0 0,0 1,0 "/><path stroke-width="13" d="M203,374c0,1 0,1 1,1 0,0 0,0 0,0 "/><path stroke-width="14" d="M204,375c0,0 0,0 1,0 0,0 0,0 0,0 0,0 0,1 0,1 0,0 0,0 0,0 0,0 0,0 1,0 0,0 0,0 0,0 "/><path stroke-width="13" d="M206,376c0,1 -1,1 0,1 0,1 0,0 1,0 "/><path stroke-width="14" d="M207,377c0,0 0,0 0,0 0,0 0,0 0,0 0,1 -1,1 0,1 "/><path stroke-width="13" d="M207,378c0,0 0,0 0,0 "/><path stroke-width="14" d="M207,378c1,0 1,0 1,0 0,0 0,0 0,0 0,0 0,0 0,0 0,0 0,0 0,0 0,0 0,0 0,0 0,0 0,0 1,0 0,0 0,0 0,0 0,0 0,0 0,0 0,0 0,1 0,1 "/><path stroke-width="13" d="M209,379c0,0 0,0 0,0 "/><path stroke-width="14" d="M209,379c1,0 1,0 1,0 0,0 0,0 0,0 0,0 0,0 0,0 0,0 0,0 0,0 0,0 0,0 0,0 0,0 0,0 0,0 0,0 0,0 0,0 0,0 0,0 0,0 0,0 0,0 0,0 0,0 0,0 0,0 0,0 0,0 0,0 0,0 0,0 0,0 0,0 0,0 0,0 -1,0 -1,0 -1,0 "/><path stroke-width="13" d="M209,379c0,0 0,0 0,1 0,1 0,0 1,1 "/></g></svg>