<?xml version="1.0" encoding="UTF-8" standalone="no"?>
<svg xmlns="http://www.w3.org/2000/svg" version="1.2" baseProfile="tiny" height="1192" width="720"><g stroke-linejoin="round" stroke-linecap="round" fill="none" stroke="black"><path stroke-width="12" d="M200,828c0,0 0,0 0,0 "/><path stroke-width="14" d="M200,828c0,0 0,0 0,0 0,0 0,0 0,0 0,-1 -1,-1 0,-1 "/><path stroke-width="12" d="M200,827c0,-2 0,-2 1,-4 "/><path stroke-width="8" d="M201,823c7,-9 7,-9 14,-18 "/><path stroke-width="6" d="M215,805c17,-22 18,-22 36,-44 26,-33 26,-33 51,-67 23,-30 23,-31 45,-62 24,-35 26,-33 48,-69 22,-36 21,-36 39,-74 16,-34 17,-34 29,-69 11,-30 10,-30 16,-61 5,-25 6,-25 6,-50 1,-18 1,-19 -4,-37 -2,-8 -3,-10 -10,-15 -9,-5 -10,-5 -21,-5 -22,-1 -23,-1 -45,3 -30,6 -30,5 -58,16 -30,12 -31,12 -58,28 -27,17 -27,18 -51,38 -23,19 -24,19 -44,40 -17,19 -18,19 -31,41 -13,20 -15,20 -22,43 -6,17 -6,19 -4,37 1,14 1,15 8,26 12,19 12,20 30,34 24,20 26,19 55,34 29,16 30,16 61,28 33,12 33,11 66,21 36,10 37,9 73,19 33,9 32,10 65,19 30,8 30,7 61,15 28,7 28,6 56,14 20,6 20,6 41,12 "/><path stroke-width="8" d="M653,720c2,1 2,1 4,2 "/></g></svg>