<?xml version="1.0" encoding="UTF-8" standalone="no"?>
<svg xmlns="http://www.w3.org/2000/svg" version="1.2" baseProfile="tiny" height="1192" width="720"><g stroke-linejoin="round" stroke-linecap="round" fill="none" stroke="black"><path stroke-width="12" d="M324,773c0,0 0,0 0,0 "/><path stroke-width="14" d="M324,773c0,0 0,0 0,0 0,0 0,0 0,0 "/><path stroke-width="12" d="M324,773c1,-3 1,-3 2,-6 "/><path stroke-width="8" d="M326,767c2,-11 2,-11 3,-21 "/><path stroke-width="6" d="M329,746c3,-20 3,-20 4,-39 2,-25 1,-25 1,-50 0,-26 2,-26 -1,-52 -2,-20 -3,-20 -9,-40 -3,-14 -4,-14 -9,-27 -4,-12 -4,-12 -9,-23 -6,-17 -6,-17 -14,-33 -10,-23 -9,-23 -20,-46 -12,-23 -12,-23 -24,-46 -9,-17 -9,-18 -19,-35 -5,-9 -5,-9 -11,-17 "/><path stroke-width="8" d="M218,338c-3,-3 -3,-3 -6,-5 "/><path stroke-width="9" d="M212,333c-3,-2 -3,-2 -6,-4 "/><path stroke-width="10" d="M206,329c-3,-2 -2,-2 -5,-5 -2,-2 -2,-2 -4,-4 "/><path stroke-width="11" d="M197,320c-2,-2 -2,-1 -4,-3 "/><path stroke-width="12" d="M193,317c-1,0 -1,0 -2,0 -1,-1 -2,-1 -2,0 "/><path stroke-width="11" d="M189,317c0,3 1,3 2,6 "/><path stroke-width="8" d="M191,323c5,9 5,9 10,18 "/><path stroke-width="6" d="M201,341c7,12 7,12 15,25 8,13 8,13 15,26 6,11 6,12 11,23 5,13 5,14 9,27 6,23 6,23 12,46 8,28 9,28 16,57 8,31 8,31 15,62 6,30 6,30 12,60 5,24 5,24 10,48 3,15 1,16 6,30 3,8 4,8 9,15 "/><path stroke-width="8" d="M331,760c1,1 2,1 4,1 "/><path stroke-width="10" d="M335,761c4,-1 4,-1 7,-3 "/><path stroke-width="8" d="M342,758c7,-6 7,-6 13,-14 "/><path stroke-width="6" d="M355,744c9,-10 9,-10 16,-20 7,-10 6,-10 12,-20 6,-10 6,-10 12,-21 "/><path stroke-width="8" d="M395,683c0,-1 0,-1 1,-2 "/></g></svg>