<?xml version="1.0" encoding="UTF-8" standalone="no"?>
<svg xmlns="http://www.w3.org/2000/svg" version="1.2" baseProfile="tiny" height="1771" width="1080"><g stroke-linejoin="round" stroke-linecap="round" fill="none" stroke="black"><path stroke-width="16" d="M565,1129c0,0 0,0 0,0 "/><path stroke-width="17" d="M565,1129c1,-1 1,0 2,-1 "/><path stroke-width="15" d="M567,1128c3,-2 3,-2 5,-4 "/><path stroke-width="11" d="M572,1124c19,-19 19,-18 37,-37 "/><path stroke-width="8" d="M609,1087c29,-32 31,-32 58,-66 21,-27 21,-28 40,-58 19,-29 20,-29 36,-60 18,-34 17,-35 32,-70 15,-35 17,-35 27,-72 9,-33 16,-36 11,-69 -5,-32 -5,-42 -31,-61 -44,-32 -53,-27 -109,-41 -59,-15 -60,-11 -121,-15 -43,-4 -43,-4 -86,0 -36,3 -37,2 -72,13 -24,8 -25,9 -45,24 -15,12 -18,13 -25,31 -6,16 -7,20 -2,36 7,20 10,22 28,37 26,21 28,19 59,34 37,18 37,18 76,31 45,16 45,14 91,28 44,13 45,9 87,26 31,12 32,13 59,32 16,11 19,12 27,29 4,9 4,15 -2,23 -10,12 -14,14 -31,18 -25,7 -26,7 -53,4 -24,-1 -23,-5 -47,-12 -24,-6 -24,-9 -48,-13 -36,-7 -36,-4 -73,-8 -30,-2 -31,1 -61,-4 -20,-4 -21,-3 -39,-13 -11,-6 -15,-8 -17,-18 -2,-16 1,-20 10,-34 21,-33 24,-32 50,-60 30,-33 31,-33 63,-64 35,-35 33,-37 70,-68 38,-32 38,-33 79,-59 44,-27 45,-27 92,-48 61,-27 62,-24 124,-48 "/><path stroke-width="9" d="M866,492c1,0 1,0 1,0 "/></g></svg>