<?xml version="1.0" encoding="UTF-8" standalone="no"?>
<svg xmlns="http://www.w3.org/2000/svg" version="1.2" baseProfile="tiny" height="1771" width="1080"><g stroke-linejoin="round" stroke-linecap="round" fill="none" stroke="black"><path stroke-width="16" d="M643,1197c0,0 0,0 0,0 "/><path stroke-width="15" d="M643,1197c-5,-3 -5,-3 -10,-5 "/><path stroke-width="11" d="M633,1192c-6,-3 -6,-3 -11,-6 "/><path stroke-width="9" d="M622,1186c-19,-13 -19,-12 -37,-26 "/><path stroke-width="8" d="M585,1160c-41,-33 -43,-31 -81,-68 -30,-28 -29,-30 -54,-62 -23,-31 -23,-31 -42,-63 -20,-33 -20,-34 -37,-68 -19,-36 -20,-36 -35,-73 -15,-39 -16,-39 -24,-79 -9,-42 -8,-42 -10,-85 -2,-42 -3,-43 3,-85 6,-43 7,-44 21,-84 14,-43 13,-44 36,-83 22,-38 23,-39 54,-71 31,-34 31,-35 69,-61 40,-27 41,-27 86,-46 43,-19 44,-19 90,-29 42,-10 42,-10 85,-11 37,-1 38,-2 73,6 30,8 31,9 56,26 19,13 22,15 32,35 11,23 11,25 11,51 1,30 1,32 -8,60 -11,36 -14,36 -33,68 -22,39 -23,39 -50,75 -33,44 -34,44 -70,86 -38,45 -40,44 -79,89 -41,47 -39,48 -80,95 -40,46 -41,46 -81,91 -39,45 -41,44 -78,91 -34,42 -34,42 -64,86 -23,33 -26,32 -43,68 -11,25 -6,27 -13,53 "/><path stroke-width="10" d="M319,1172c0,0 0,0 0,0 "/></g></svg>