<?xml version="1.0" encoding="UTF-8" standalone="no"?>
<svg xmlns="http://www.w3.org/2000/svg" version="1.2" baseProfile="tiny" height="1863" width="1080"><g stroke-linejoin="round" stroke-linecap="round" fill="none" stroke="black"><path stroke-width="18" d="M498,1284c0,0 0,0 0,0 "/><path stroke-width="21" d="M498,1284c0,0 0,0 0,0 0,0 0,0 0,0 "/><path stroke-width="15" d="M498,1284c6,-7 6,-7 11,-14 "/><path stroke-width="9" d="M509,1270c20,-27 21,-27 40,-54 23,-32 24,-31 46,-65 22,-34 24,-33 41,-70 13,-28 13,-28 19,-58 5,-31 8,-32 3,-63 -8,-51 -9,-53 -29,-101 -21,-53 -21,-54 -52,-102 -42,-64 -44,-63 -93,-121 -39,-46 -39,-48 -84,-87 -28,-24 -29,-23 -62,-41 -21,-11 -22,-11 -45,-15 -20,-4 -21,-2 -41,-2 -16,0 -16,0 -33,0 "/><path stroke-width="10" d="M219,491c-8,0 -8,0 -15,0 "/><path stroke-width="12" d="M204,491c-4,0 -4,0 -8,-1 "/><path stroke-width="14" d="M196,490c-3,0 -3,0 -6,-1 "/><path stroke-width="16" d="M190,489c-2,-1 -3,-2 -4,-1 "/><path stroke-width="17" d="M186,488c-1,0 -2,0 -2,1 "/><path stroke-width="15" d="M184,489c-1,6 -3,7 0,12 "/><path stroke-width="11" d="M184,501c14,20 15,22 35,37 "/><path stroke-width="9" d="M219,538c48,40 54,33 102,73 58,47 61,45 111,100 47,52 44,55 83,114 28,44 27,44 51,91 19,36 16,37 33,74 16,33 14,35 33,67 18,28 22,26 41,53 6,9 5,10 10,20 "/></g></svg>