<?xml version="1.0" encoding="UTF-8" standalone="no"?>
<svg xmlns="http://www.w3.org/2000/svg" version="1.2" baseProfile="tiny" height="1433" width="1080"><g stroke-linejoin="round" stroke-linecap="round" fill="none" stroke="black"><path stroke-width="18" d="M406,599c0,0 0,0 0,0 "/><path stroke-width="21" d="M406,599c0,0 0,0 0,0 0,0 0,0 0,0 "/><path stroke-width="18" d="M406,599c0,-3 0,-3 0,-6 0,0 0,0 0,0 "/><path stroke-width="21" d="M406,593c0,0 0,0 0,0 "/><path stroke-width="16" d="M406,593c4,9 4,8 7,17 "/><path stroke-width="10" d="M413,610c10,27 7,28 18,54 "/><path stroke-width="9" d="M431,664c11,24 10,24 25,45 12,17 13,17 28,29 10,8 11,7 23,10 11,2 12,3 23,1 12,-2 14,-2 23,-10 12,-12 17,-13 20,-30 7,-32 6,-35 1,-69 -9,-57 -11,-57 -28,-112 -8,-28 -8,-29 -24,-53 -11,-17 -13,-19 -30,-29 -16,-8 -19,-6 -37,-6 -12,-1 -14,-2 -23,5 -21,14 -26,14 -37,35 -13,27 -13,31 -12,61 1,40 2,42 17,80 11,31 12,34 35,57 20,20 23,21 50,28 27,8 30,6 59,2 26,-4 26,-7 51,-18 28,-13 33,-10 55,-30 19,-18 19,-22 27,-48 11,-37 12,-39 10,-77 -3,-54 -3,-56 -19,-107 -15,-48 -16,-50 -44,-92 -23,-35 -25,-37 -60,-61 -33,-24 -35,-26 -75,-36 -45,-11 -48,-12 -94,-7 -49,4 -51,5 -96,25 -51,23 -54,23 -96,59 -38,33 -37,36 -64,79 -25,41 -27,43 -39,89 -12,45 -9,47 -10,94 0,44 -3,45 7,88 15,62 17,63 43,122 24,52 23,54 57,100 19,26 21,27 48,45 18,12 20,9 41,15 27,8 26,12 53,14 40,4 43,6 82,-3 52,-12 53,-15 101,-40 38,-20 41,-19 71,-50 28,-30 23,-35 45,-70 19,-31 22,-29 37,-61 11,-25 13,-26 15,-53 2,-19 -1,-20 -6,-39 -9,-44 -7,-45 -21,-88 -13,-34 -14,-34 -33,-65 -16,-28 -14,-32 -38,-53 -22,-18 -25,-18 -53,-26 -23,-6 -25,-7 -49,-3 -35,5 -36,6 -68,21 -41,19 -42,20 -77,47 -31,23 -31,24 -55,53 -37,46 -45,44 -68,96 -17,39 -11,43 -14,87 -1,26 0,27 6,52 2,10 3,11 10,18 13,14 13,17 30,24 20,8 23,11 44,6 54,-11 55,-15 106,-39 39,-19 39,-21 74,-47 30,-23 31,-23 56,-50 22,-24 20,-26 37,-54 18,-28 19,-28 32,-58 10,-22 9,-23 13,-47 3,-18 1,-18 0,-36 "/><path stroke-width="10" d="M616,484c0,-5 -1,-5 -2,-11 -3,-10 -4,-10 -7,-21 "/></g></svg>