<?xml version="1.0" encoding="UTF-8" standalone="no"?>
<svg xmlns="http://www.w3.org/2000/svg" version="1.2" baseProfile="tiny" height="1863" width="1080"><g stroke-linejoin="round" stroke-linecap="round" fill="none" stroke="black"><path stroke-width="18" d="M124,600c0,0 0,0 0,0 "/><path stroke-width="21" d="M124,600c0,0 0,0 0,0 0,0 0,0 0,0 "/><path stroke-width="19" d="M124,600c2,0 2,0 3,-1 "/><path stroke-width="13" d="M127,599c9,-8 9,-8 18,-17 "/><path stroke-width="10" d="M145,582c10,-10 9,-10 19,-20 24,-25 24,-26 48,-51 "/><path stroke-width="9" d="M212,511c9,-9 8,-10 18,-18 13,-10 13,-11 27,-17 26,-10 26,-11 53,-15 35,-5 35,-3 70,-3 35,1 36,2 70,5 34,4 34,4 67,10 34,7 35,6 68,15 28,7 28,7 55,19 23,10 22,10 44,23 17,10 17,10 33,23 17,14 16,15 32,31 16,16 17,15 31,32 16,19 15,20 29,40 13,18 14,17 24,36 8,17 8,18 13,36 4,15 4,15 5,31 1,12 1,12 -3,24 -2,10 -2,11 -9,19 "/><path stroke-width="10" d="M839,802c-6,8 -7,9 -16,14 -16,7 -16,10 -33,11 "/><path stroke-width="9" d="M790,827c-25,1 -28,2 -50,-9 -42,-20 -43,-22 -79,-53 -44,-37 -41,-40 -81,-82 -42,-45 -41,-46 -82,-92 -37,-40 -37,-41 -75,-80 -25,-27 -25,-27 -52,-52 -17,-15 -17,-15 -35,-27 -20,-14 -20,-13 -40,-25 -29,-18 -29,-18 -57,-37 -19,-12 -20,-11 -37,-25 -15,-11 -15,-11 -28,-25 -10,-11 -10,-11 -19,-23 -8,-12 -7,-13 -14,-26 "/><path stroke-width="11" d="M141,271c-3,-6 -3,-6 -6,-12 "/><path stroke-width="14" d="M135,259c-1,-2 0,-3 -1,-4 "/><path stroke-width="17" d="M134,255c-1,-1 -1,-1 -2,-1 "/></g></svg>