<?xml version="1.0" encoding="UTF-8" standalone="no"?>
<svg xmlns="http://www.w3.org/2000/svg" version="1.2" baseProfile="tiny" height="1771" width="1080"><g stroke-linejoin="round" stroke-linecap="round" fill="none" stroke="black"><path stroke-width="16" d="M939,1230c0,0 0,0 0,0 "/><path stroke-width="17" d="M939,1230c0,0 0,-1 -1,-1 "/><path stroke-width="16" d="M938,1229c0,-1 0,-1 -1,-1 "/><path stroke-width="15" d="M937,1228c-2,-1 -2,-1 -4,-2 "/><path stroke-width="14" d="M933,1226c-2,-1 -3,-1 -5,-2 "/><path stroke-width="12" d="M928,1224c-7,-5 -8,-5 -15,-10 "/><path stroke-width="9" d="M913,1214c-9,-7 -8,-8 -17,-15 "/><path stroke-width="8" d="M896,1199c-20,-18 -19,-19 -41,-35 -36,-28 -36,-28 -73,-54 -25,-19 -25,-19 -52,-36 -11,-7 -11,-6 -23,-12 "/><path stroke-width="9" d="M707,1062c-5,-2 -5,-2 -10,-2 "/><path stroke-width="11" d="M697,1060c-5,-1 -5,-1 -11,0 -5,1 -5,1 -10,3 -6,2 -6,2 -11,5 -4,3 -6,2 -8,7 "/><path stroke-width="10" d="M657,1075c-3,7 -5,9 -2,15 "/><path stroke-width="9" d="M655,1090c11,18 12,22 32,33 "/><path stroke-width="8" d="M687,1123c44,25 46,25 96,39 57,17 58,13 117,24 56,10 56,8 113,18 32,6 32,7 63,13 "/><path stroke-width="10" d="M793,577c0,0 0,0 0,0 "/><path stroke-width="14" d="M793,577c0,-1 0,-1 -1,-2 "/><path stroke-width="15" d="M792,575c-1,-1 -1,-2 -2,-2 -2,0 -2,0 -4,0 "/><path stroke-width="11" d="M786,573c-29,10 -30,8 -58,20 "/><path stroke-width="8" d="M728,593c-60,25 -60,26 -119,54 -34,17 -34,18 -67,35 "/></g></svg>