<?xml version="1.0" encoding="UTF-8" standalone="no"?>
<svg xmlns="http://www.w3.org/2000/svg" version="1.2" baseProfile="tiny" height="1771" width="1080"><g stroke-linejoin="round" stroke-linecap="round" fill="none" stroke="black"><path stroke-width="16" d="M493,485c0,0 0,0 0,0 "/><path stroke-width="13" d="M493,485c-19,24 -21,23 -39,48 "/><path stroke-width="8" d="M454,533c-16,24 -18,24 -29,50 -15,40 -18,41 -22,83 -6,55 -8,58 3,112 9,48 14,49 37,93 17,30 19,30 44,54 17,16 19,19 41,25 17,5 23,6 38,-3 18,-11 19,-16 28,-36 15,-34 14,-35 22,-72 12,-52 10,-52 17,-105 9,-64 8,-65 16,-130 9,-71 11,-71 19,-143 11,-88 10,-88 20,-176 0,0 0,0 0,-1 "/></g></svg>