<?xml version="1.0" encoding="UTF-8" standalone="no"?>
<svg xmlns="http://www.w3.org/2000/svg" version="1.2" baseProfile="tiny" height="1771" width="1080"><g stroke-linejoin="round" stroke-linecap="round" fill="none" stroke="black"><path stroke-width="16" d="M635,880c0,0 0,0 0,0 "/><path stroke-width="15" d="M635,880c-4,4 -4,4 -9,9 "/><path stroke-width="11" d="M626,889c-5,5 -5,5 -10,10 "/><path stroke-width="9" d="M616,899c-13,12 -14,12 -26,25 "/><path stroke-width="8" d="M590,924c-19,19 -19,20 -37,40 -4,5 -9,9 -8,11 "/><path stroke-width="10" d="M545,975c1,2 7,0 12,-3 "/><path stroke-width="9" d="M557,972c25,-14 25,-14 49,-31 "/><path stroke-width="8" d="M606,941c40,-29 40,-28 78,-60 38,-32 38,-33 73,-68 35,-33 34,-34 68,-69 28,-29 30,-27 55,-59 17,-22 16,-23 28,-48 8,-17 9,-18 11,-36 2,-12 1,-13 -3,-24 -4,-10 -5,-12 -14,-17 -18,-9 -20,-11 -41,-12 -49,-4 -50,-2 -99,2 -59,6 -59,5 -117,18 -62,13 -62,14 -122,34 -57,19 -57,20 -112,43 -50,21 -50,21 -98,45 -36,18 -37,17 -71,39 -22,15 -24,15 -41,34 -8,9 -13,14 -9,24 3,12 9,15 23,19 40,13 42,12 85,16 59,5 59,2 119,3 73,2 73,0 146,3 79,4 79,4 159,11 79,7 79,8 159,18 73,10 73,11 147,21 25,3 25,3 50,5 "/></g></svg>