<?xml version="1.0" encoding="UTF-8" standalone="no"?>
<svg xmlns="http://www.w3.org/2000/svg" version="1.2" baseProfile="tiny" height="1771" width="1080"><g stroke-linejoin="round" stroke-linecap="round" fill="none" stroke="black"><path stroke-width="16" d="M400,693c0,0 0,0 0,0 "/><path stroke-width="13" d="M400,693c13,44 11,45 26,88 "/><path stroke-width="8" d="M426,781c25,64 23,66 54,127 33,63 32,65 74,122 27,37 28,40 65,67 24,18 28,19 57,23 24,3 30,4 50,-9 21,-14 23,-20 30,-45 9,-35 9,-39 2,-75 -10,-43 -14,-43 -36,-82 -25,-45 -26,-45 -59,-85 -39,-46 -40,-46 -85,-88 -47,-44 -46,-45 -98,-85 -42,-34 -42,-36 -89,-62 -30,-15 -37,-25 -64,-20 -20,4 -29,15 -32,37 -8,55 -3,60 9,117 17,86 18,87 49,168 34,87 34,89 81,169 42,72 43,74 98,136 42,48 42,54 97,85 37,22 45,27 85,21 37,-5 40,-15 70,-42 34,-31 29,-37 58,-74 "/><path stroke-width="9" d="M842,1186c1,0 1,0 1,0 "/></g></svg>