<?xml version="1.0" encoding="UTF-8" standalone="no"?>
<svg xmlns="http://www.w3.org/2000/svg" version="1.2" baseProfile="tiny" height="1433" width="1080"><g stroke-linejoin="round" stroke-linecap="round" fill="none" stroke="black"><path stroke-width="18" d="M527,650c0,0 0,0 0,0 "/><path stroke-width="15" d="M527,650c-2,3 -2,3 -4,6 "/><path stroke-width="9" d="M523,656c-5,6 -6,6 -10,13 -10,14 -9,14 -18,27 "/><path stroke-width="10" d="M495,696c-3,5 -3,5 -7,9 "/><path stroke-width="12" d="M488,705c-3,3 -3,4 -6,6 "/><path stroke-width="16" d="M482,711c-1,0 -1,-1 -2,-1 "/><path stroke-width="14" d="M480,710c-8,0 -9,-1 -16,0 "/><path stroke-width="10" d="M464,710c-11,2 -14,0 -21,7 "/><path stroke-width="9" d="M443,717c-10,9 -15,12 -14,26 2,46 5,49 20,95 14,39 15,40 37,76 13,21 17,18 33,37 12,13 11,14 23,28 "/><path stroke-width="10" d="M542,979c4,4 8,8 8,7 "/><path stroke-width="11" d="M550,986c0,-3 -4,-9 -8,-17 "/><path stroke-width="10" d="M542,969c-16,-26 -18,-25 -34,-50 "/><path stroke-width="9" d="M508,919c-15,-27 -15,-27 -29,-54 -9,-17 -8,-18 -16,-35 "/><path stroke-width="10" d="M463,830c-4,-7 -4,-8 -7,-13 "/><path stroke-width="14" d="M456,817c-1,-1 0,0 0,1 "/><path stroke-width="19" d="M456,818c0,0 0,0 0,0 "/><path stroke-width="21" d="M456,818c0,0 0,0 0,0 "/><path stroke-width="20" d="M456,818c1,0 1,0 1,0 "/><path stroke-width="19" d="M457,818c1,0 1,-1 1,-1 "/><path stroke-width="18" d="M458,817c0,-2 -1,-2 -3,-4 "/><path stroke-width="13" d="M455,813c-29,-39 -29,-39 -59,-78 "/><path stroke-width="9" d="M396,735c-38,-49 -36,-51 -76,-98 -35,-43 -36,-42 -74,-82 -23,-24 -23,-24 -46,-47 -9,-8 -11,-9 -18,-16 "/><path stroke-width="13" d="M182,492c-1,-1 0,0 1,1 "/><path stroke-width="15" d="M183,493c3,5 3,5 6,10 "/><path stroke-width="11" d="M189,503c35,63 31,65 70,126 "/><path stroke-width="9" d="M259,629c40,64 38,66 87,122 49,56 51,55 108,102 34,28 35,29 74,49 19,10 21,8 41,11 "/><path stroke-width="10" d="M569,913c5,0 7,-1 10,-4 "/><path stroke-width="11" d="M579,909c5,-5 6,-7 7,-14 "/><path stroke-width="10" d="M586,895c1,-27 3,-28 -2,-55 "/><path stroke-width="9" d="M584,840c-11,-60 -15,-60 -30,-119 -13,-46 -13,-46 -26,-92 -7,-25 -8,-25 -14,-50 "/><path stroke-width="11" d="M514,579c-1,-3 -1,-3 -1,-5 "/><path stroke-width="16" d="M513,574c0,0 1,0 1,0 "/><path stroke-width="14" d="M514,574c15,11 16,10 31,22 "/><path stroke-width="9" d="M545,596c77,68 77,68 152,138 24,22 19,28 45,48 43,33 45,30 92,58 27,17 28,20 55,30 "/><path stroke-width="10" d="M889,870c5,2 8,-1 9,-6 5,-17 8,-19 4,-37 "/><path stroke-width="9" d="M902,827c-11,-60 -16,-60 -34,-119 -32,-106 -32,-106 -65,-211 -38,-122 -42,-121 -78,-243 -16,-57 -13,-58 -26,-115 "/></g></svg>