<?xml version="1.0" encoding="UTF-8" standalone="no"?>
<svg xmlns="http://www.w3.org/2000/svg" version="1.2" baseProfile="tiny" height="1343" width="720"><g stroke-linejoin="round" stroke-linecap="round" fill="none" stroke="black"><path stroke-width="10" d="M175,742c0,0 0,0 0,0 "/><path stroke-width="12" d="M175,742c0,0 0,0 0,0 0,0 0,0 0,0 "/><path stroke-width="9" d="M175,742c6,-15 4,-16 12,-30 "/><path stroke-width="5" d="M187,712c20,-37 20,-38 44,-73 29,-42 29,-42 62,-81 28,-33 28,-34 60,-62 29,-25 30,-25 61,-46 22,-14 22,-13 46,-25 13,-7 13,-7 26,-12 "/><path stroke-width="6" d="M486,413c6,-2 6,-3 11,-4 "/><path stroke-width="8" d="M497,409c2,-1 5,0 5,0 "/><path stroke-width="9" d="M502,409c-1,1 -4,0 -6,2 "/><path stroke-width="8" d="M496,411c-7,5 -7,5 -13,10 "/><path stroke-width="6" d="M483,421c-21,16 -22,14 -41,31 "/><path stroke-width="5" d="M442,452c-51,47 -53,46 -99,97 -49,55 -49,56 -90,116 -20,29 -21,29 -34,61 -7,17 -7,19 -6,35 "/><path stroke-width="6" d="M213,761c0,6 4,8 8,8 6,0 8,-2 13,-7 9,-8 8,-10 16,-19 "/><path stroke-width="5" d="M250,743c16,-18 15,-18 32,-34 27,-26 27,-26 55,-50 32,-26 32,-26 65,-49 29,-19 29,-19 60,-35 21,-12 22,-13 44,-22 "/><path stroke-width="6" d="M506,553c4,-2 10,-4 9,-1 -3,9 -7,13 -16,25 "/><path stroke-width="5" d="M499,577c-19,29 -20,28 -40,57 -30,45 -29,45 -58,91 -28,42 -28,42 -56,85 -13,21 -12,22 -26,42 "/><path stroke-width="6" d="M319,852c-2,1 -4,2 -5,0 -5,-12 -4,-14 -6,-28 "/><path stroke-width="5" d="M308,824c-3,-26 -4,-27 -4,-53 0,-37 -1,-38 5,-75 8,-43 9,-43 25,-85 14,-39 16,-39 36,-75 13,-24 14,-23 30,-45 "/><path stroke-width="6" d="M400,491c3,-4 7,-9 6,-8 -1,1 -4,6 -9,11 -11,12 -11,13 -22,24 "/><path stroke-width="5" d="M375,518c-22,22 -25,19 -46,42 -35,38 -37,37 -67,79 -27,38 -26,39 -46,81 -12,24 -12,26 -18,52 -2,6 -1,10 3,12 "/><path stroke-width="6" d="M201,784c4,2 8,-1 12,-5 9,-8 8,-9 14,-19 "/><path stroke-width="5" d="M227,760c12,-20 11,-21 23,-40 21,-33 20,-35 45,-65 29,-35 30,-35 64,-66 32,-29 32,-28 66,-54 21,-16 21,-15 42,-28 "/><path stroke-width="6" d="M467,507c3,-2 6,-3 5,-2 -7,7 -11,8 -20,18 "/><path stroke-width="5" d="M452,523c-18,19 -18,20 -33,40 -27,37 -29,36 -52,75 -23,40 -23,40 -42,82 -8,19 -8,21 -11,40 "/><path stroke-width="6" d="M314,760c-1,4 2,7 5,7 7,0 8,-3 16,-7 "/><path stroke-width="5" d="M335,760c14,-7 13,-9 26,-15 16,-8 16,-8 32,-13 11,-4 12,-5 23,-5 "/><path stroke-width="6" d="M416,727c4,0 6,1 6,4 "/><path stroke-width="7" d="M422,731c0,9 -3,10 -7,20 "/><path stroke-width="5" d="M415,751c-10,23 -11,22 -20,45 -13,31 -14,31 -24,62 -8,25 -8,26 -11,51 -2,16 -3,17 1,31 2,9 4,11 11,16 10,8 12,7 24,10 20,6 21,5 41,8 11,2 11,1 22,2 "/></g></svg>