<?xml version="1.0" encoding="UTF-8" standalone="no"?>
<svg xmlns="http://www.w3.org/2000/svg" version="1.2" baseProfile="tiny" height="1343" width="720"><g stroke-linejoin="round" stroke-linecap="round" fill="none" stroke="black"><path stroke-width="10" d="M317,766c0,0 0,0 0,0 "/><path stroke-width="12" d="M317,766c0,0 0,0 0,0 0,1 0,1 0,1 "/><path stroke-width="8" d="M317,767c7,-38 5,-40 13,-78 "/><path stroke-width="5" d="M330,689c11,-46 12,-46 26,-91 20,-71 20,-71 42,-142 13,-43 13,-43 27,-86 10,-32 11,-31 22,-63 3,-8 8,-15 6,-16 -2,-1 -8,4 -12,11 -27,39 -27,40 -51,81 -24,42 -25,43 -45,87 -18,37 -18,37 -31,75 -8,22 -8,23 -10,45 -1,8 -2,12 3,16 "/><path stroke-width="6" d="M307,606c5,5 8,4 15,2 19,-5 19,-6 38,-14 "/><path stroke-width="5" d="M360,594c24,-12 23,-15 48,-25 24,-11 24,-12 50,-17 14,-3 20,-8 29,-1 9,7 9,14 8,28 -3,30 -7,31 -16,61 -12,36 -11,37 -27,71 -12,27 -11,28 -29,52 -11,14 -13,17 -28,22 -11,4 -17,4 -24,-3 -16,-15 -19,-19 -22,-41 -9,-49 -7,-52 -3,-102 5,-70 5,-70 19,-138 13,-58 15,-59 36,-114 12,-33 13,-33 32,-63 12,-20 12,-22 29,-36 9,-7 12,-9 22,-7 10,2 13,5 17,14 7,13 6,16 5,31 -2,25 -5,25 -12,50 -10,31 -12,31 -23,62 -11,28 -11,27 -21,55 -6,15 -6,15 -10,31 "/><path stroke-width="7" d="M440,524c-1,2 -1,3 -1,5 "/><path stroke-width="9" d="M439,529c0,0 0,-1 0,-1 2,-6 2,-6 4,-11 "/><path stroke-width="7" d="M443,517c3,-9 3,-9 7,-17 "/><path stroke-width="5" d="M450,500c6,-14 7,-14 13,-27 8,-19 7,-19 15,-38 9,-21 9,-21 20,-41 10,-20 11,-19 22,-39 11,-20 11,-20 21,-41 14,-26 15,-27 28,-52 "/></g></svg>