<?xml version="1.0" encoding="UTF-8" standalone="no"?>
<svg xmlns="http://www.w3.org/2000/svg" version="1.2" baseProfile="tiny" height="1343" width="720"><g stroke-linejoin="round" stroke-linecap="round" fill="none" stroke="black"><path stroke-width="10" d="M274,848c0,0 0,0 0,0 "/><path stroke-width="12" d="M274,848c0,0 0,0 0,0 0,0 0,0 0,0 0,0 0,0 0,0 "/><path stroke-width="9" d="M274,848c0,-9 -2,-9 0,-18 "/><path stroke-width="6" d="M274,830c10,-49 10,-50 24,-99 "/><path stroke-width="5" d="M298,731c20,-64 20,-64 45,-126 23,-60 23,-60 50,-117 23,-48 24,-48 49,-94 17,-31 16,-31 36,-60 20,-30 21,-29 44,-57 13,-16 13,-17 29,-32 5,-5 6,-6 13,-7 "/><path stroke-width="7" d="M564,238c4,-1 7,0 7,3 1,10 0,12 -3,23 "/><path stroke-width="5" d="M568,264c-11,32 -12,32 -26,63 -30,70 -31,69 -62,138 -29,69 -29,69 -58,138 -17,40 -16,40 -33,80 -14,30 -13,30 -29,59 -9,18 -9,18 -21,35 "/><path stroke-width="6" d="M339,777c-4,5 -6,7 -10,8 "/><path stroke-width="7" d="M329,785c-2,1 -2,-3 -1,-5 "/><path stroke-width="8" d="M328,780c2,-7 3,-7 7,-13 "/><path stroke-width="6" d="M335,767c11,-16 13,-15 23,-32 "/><path stroke-width="5" d="M358,735c16,-27 15,-27 29,-56 14,-32 15,-31 26,-64 8,-26 8,-27 12,-54 2,-11 4,-17 -1,-22 -5,-5 -12,-3 -18,3 -26,22 -26,24 -47,52 -27,37 -26,38 -50,77 -21,34 -20,34 -39,70 -10,18 -10,18 -19,37 "/><path stroke-width="6" d="M251,778c-2,5 -4,8 -3,9 "/><path stroke-width="7" d="M248,787c1,1 3,-2 5,-5 14,-15 13,-15 27,-30 "/><path stroke-width="5" d="M280,752c28,-31 28,-31 57,-61 38,-39 36,-41 76,-77 35,-32 35,-33 74,-59 24,-15 26,-18 53,-23 12,-3 16,0 24,8 8,8 6,11 8,23 1,6 0,6 0,12 "/></g></svg>