<?xml version="1.0" encoding="UTF-8" standalone="no"?>
<svg xmlns="http://www.w3.org/2000/svg" version="1.2" baseProfile="tiny" height="1771" width="1080"><g stroke-linejoin="round" stroke-linecap="round" fill="none" stroke="black"><path stroke-width="16" d="M599,359c0,0 0,0 0,0 -2,5 -2,5 -4,10 "/><path stroke-width="12" d="M595,369c-2,6 -2,6 -4,12 "/><path stroke-width="9" d="M591,381c-12,38 -13,37 -23,75 "/><path stroke-width="8" d="M568,456c-14,50 -14,50 -24,100 -9,42 -8,42 -14,84 -8,46 -7,46 -14,92 -8,50 -9,50 -17,101 -7,50 -7,50 -13,101 -5,50 -5,50 -9,101 -5,49 -4,49 -7,99 -3,49 -3,49 -4,98 -2,47 -1,47 -2,94 0,37 1,37 1,75 0,23 0,23 -1,46 0,7 -1,7 -3,13 "/><path stroke-width="12" d="M461,1460c0,0 0,0 0,0 "/><path stroke-width="17" d="M217,614c0,0 0,0 0,0 1,0 1,0 2,0 "/><path stroke-width="16" d="M219,614c1,0 1,0 3,0 "/><path stroke-width="12" d="M222,614c8,0 8,0 17,1 "/><path stroke-width="9" d="M239,615c27,4 28,2 55,9 "/><path stroke-width="8" d="M294,624c32,9 32,10 63,22 36,14 36,13 71,29 38,18 38,18 75,39 42,22 43,22 82,48 43,27 43,27 82,57 39,30 39,30 75,63 31,27 30,28 61,56 27,25 27,25 56,48 25,21 25,21 51,40 19,13 20,12 40,23 10,6 10,6 20,10 "/><path stroke-width="10" d="M970,1059c4,2 6,4 9,3 "/><path stroke-width="12" d="M979,1062c2,-1 2,-3 1,-6 "/><path stroke-width="10" d="M980,1056c-3,-21 -4,-21 -8,-41 "/><path stroke-width="8" d="M972,1015c-2,-5 -2,-5 -3,-11 "/><path stroke-width="12" d="M841,517c0,0 0,0 0,0 "/><path stroke-width="14" d="M841,517c-6,3 -6,2 -11,6 "/><path stroke-width="10" d="M830,523c-12,6 -12,6 -22,13 "/><path stroke-width="8" d="M808,536c-42,29 -42,30 -83,60 -56,41 -56,41 -112,82 -53,38 -53,38 -107,76 -38,27 -38,27 -77,53 -30,19 -30,19 -60,37 -21,13 -22,13 -43,25 -12,7 -12,7 -25,13 "/><path stroke-width="9" d="M301,882c-6,3 -6,3 -12,6 "/><path stroke-width="11" d="M289,888c-2,0 -2,0 -4,0 "/><path stroke-width="15" d="M427,452c0,0 0,0 0,0 "/><path stroke-width="17" d="M427,452c0,1 0,1 -1,2 "/><path stroke-width="16" d="M426,454c-1,1 -1,1 -1,3 "/><path stroke-width="13" d="M425,457c-1,7 -2,7 -1,14 "/><path stroke-width="9" d="M424,471c4,20 3,21 11,40 "/><path stroke-width="8" d="M435,511c10,25 11,25 26,48 19,27 22,25 42,52 20,28 20,29 37,59 18,34 19,34 33,69 15,37 15,37 25,75 11,39 10,40 18,79 7,40 5,40 14,79 11,47 13,47 26,94 "/><path stroke-width="9" d="M656,1066c0,0 0,0 0,0 "/></g></svg>