<?xml version="1.0" encoding="UTF-8" standalone="no"?>
<svg xmlns="http://www.w3.org/2000/svg" version="1.2" baseProfile="tiny" height="1771" width="1080"><g stroke-linejoin="round" stroke-linecap="round" fill="none" stroke="black"><path stroke-width="16" d="M660,245c0,0 0,0 0,0 -3,-1 -3,-2 -7,-3 "/><path stroke-width="13" d="M653,242c-4,0 -4,-1 -8,0 "/><path stroke-width="10" d="M645,242c-18,2 -18,2 -36,6 "/><path stroke-width="8" d="M609,248c-13,3 -13,3 -25,8 -33,15 -36,12 -65,33 -20,14 -19,17 -33,37 -15,24 -14,25 -26,51 -15,31 -16,31 -27,64 -12,36 -13,36 -21,74 -7,37 -7,38 -10,75 -3,38 -3,38 -2,75 1,36 0,37 6,72 6,36 7,36 18,71 11,35 12,35 25,68 13,31 13,31 28,61 14,28 14,28 30,55 15,25 14,26 32,48 15,21 16,21 35,38 18,17 19,17 39,31 20,15 20,16 42,27 21,12 21,12 43,20 24,8 24,8 48,11 12,2 12,-1 25,-1 "/><path stroke-width="12" d="M653,421c0,0 0,0 0,0 "/><path stroke-width="15" d="M653,421c0,-2 0,-2 1,-3 "/><path stroke-width="14" d="M654,418c1,-3 1,-3 3,-6 "/><path stroke-width="12" d="M657,412c3,-4 2,-5 7,-8 "/><path stroke-width="9" d="M664,404c14,-14 14,-16 31,-26 "/><path stroke-width="8" d="M695,378c17,-10 18,-13 37,-14 18,0 21,1 36,12 22,14 22,16 37,38 18,26 16,28 28,57 14,34 14,34 24,70 10,37 8,37 16,75 7,39 8,39 14,78 5,38 5,39 7,77 1,36 1,37 -1,73 -3,35 -3,35 -11,69 -7,32 -6,33 -18,64 -11,30 -12,29 -26,58 -15,29 -14,30 -32,57 -18,30 -18,30 -39,58 -20,26 -21,25 -43,49 -18,18 -19,18 -39,35 -9,8 -10,8 -20,16 "/><path stroke-width="12" d="M290,273c0,0 0,0 0,0 "/><path stroke-width="15" d="M290,273c-2,1 -2,1 -3,2 "/><path stroke-width="14" d="M287,275c-3,3 -3,3 -5,6 "/><path stroke-width="11" d="M282,281c-4,8 -5,8 -7,16 "/><path stroke-width="9" d="M275,297c-14,42 -17,41 -26,84 "/><path stroke-width="8" d="M249,381c-11,56 -11,56 -13,113 -2,46 0,46 4,92 3,46 4,46 11,92 6,47 5,47 14,94 10,48 10,48 24,94 15,46 13,47 33,91 19,41 21,40 45,78 25,39 25,39 54,75 26,32 28,31 57,62 25,25 25,25 50,51 "/><path stroke-width="10" d="M918,142c0,0 0,0 0,0 "/><path stroke-width="14" d="M918,142c0,1 0,1 0,2 "/><path stroke-width="15" d="M918,144c1,2 1,2 2,4 "/><path stroke-width="11" d="M920,148c9,18 8,18 17,36 "/><path stroke-width="8" d="M937,184c17,33 18,32 35,65 14,28 14,29 27,58 13,30 15,30 26,61 11,28 10,29 17,58 10,39 10,39 17,79 7,46 8,46 13,93 6,58 6,59 8,117 2,65 2,65 0,129 -3,68 -4,68 -10,136 -7,71 -9,71 -17,141 0,1 0,1 0,1 "/><path stroke-width="13" d="M631,645c0,0 0,0 0,0 "/><path stroke-width="16" d="M631,645c3,-1 3,-2 6,-3 "/><path stroke-width="14" d="M637,642c2,0 3,0 5,2 "/><path stroke-width="11" d="M642,644c12,10 16,9 22,24 "/><path stroke-width="8" d="M664,668c10,24 10,27 9,54 0,24 -1,25 -10,48 -8,20 -8,21 -22,37 -10,11 -11,12 -25,17 -8,3 -12,4 -19,-1 -9,-7 -10,-10 -12,-22 -4,-20 -4,-22 -1,-42 5,-24 5,-25 17,-47 11,-20 13,-19 29,-35 12,-13 13,-13 27,-23 "/><path stroke-width="9" d="M657,654c6,-4 7,-4 14,-4 "/><path stroke-width="11" d="M671,650c3,0 4,1 5,4 1,5 0,7 -3,13 "/><path stroke-width="9" d="M673,667c-6,16 -6,16 -13,31 "/><path stroke-width="8" d="M660,698c-10,19 -9,20 -21,37 -5,8 -6,9 -14,12 "/><path stroke-width="10" d="M625,747c-3,1 -5,0 -6,-3 -4,-9 -2,-11 -4,-21 "/></g></svg>