<?xml version="1.0" encoding="UTF-8" standalone="no"?>
<svg xmlns="http://www.w3.org/2000/svg" version="1.2" baseProfile="tiny" height="1771" width="1080"><g stroke-linejoin="round" stroke-linecap="round" fill="none" stroke="black"><path stroke-width="16" d="M764,537c0,0 0,0 0,0 "/><path stroke-width="15" d="M764,537c-1,-4 -1,-4 -2,-7 "/><path stroke-width="11" d="M762,530c-3,-7 -2,-7 -5,-13 "/><path stroke-width="9" d="M757,517c-4,-10 -4,-11 -9,-21 "/><path stroke-width="8" d="M748,496c-22,-37 -20,-39 -45,-74 -23,-31 -22,-34 -52,-57 -17,-14 -20,-13 -42,-18 -22,-4 -24,-6 -45,0 -27,7 -27,10 -52,25 -31,18 -31,18 -58,40 -27,21 -27,21 -49,46 -19,22 -20,22 -33,47 -15,29 -16,29 -24,61 -11,44 -10,44 -14,89 -5,59 -4,60 -3,119 2,58 0,58 9,115 7,48 8,49 23,94 13,39 14,39 33,76 19,36 20,36 43,70 24,34 23,35 51,66 24,27 25,27 54,51 24,20 24,21 52,36 22,12 23,13 48,17 22,3 24,4 45,-2 20,-7 20,-11 37,-25 23,-18 24,-18 44,-40 23,-24 23,-24 42,-50 22,-29 22,-29 41,-59 17,-29 18,-29 31,-59 13,-28 14,-28 21,-57 7,-33 8,-34 7,-67 -1,-37 -3,-38 -9,-75 -9,-44 -10,-44 -21,-88 -13,-50 -13,-50 -28,-98 -15,-44 -15,-44 -32,-87 -14,-33 -12,-34 -30,-65 -11,-21 -12,-21 -28,-39 -8,-10 -9,-10 -19,-19 -7,-6 -7,-5 -14,-10 "/><path stroke-width="9" d="M731,459c-5,-4 -6,-3 -11,-8 "/><path stroke-width="10" d="M720,451c-3,-3 -2,-4 -5,-8 "/><path stroke-width="14" d="M597,699c0,0 0,0 0,0 "/><path stroke-width="17" d="M597,699c0,0 0,0 1,0 "/><path stroke-width="16" d="M598,699c1,0 1,0 2,0 "/><path stroke-width="15" d="M600,699c3,0 3,-1 5,0 "/><path stroke-width="13" d="M605,699c3,2 4,2 6,5 "/><path stroke-width="10" d="M611,704c9,18 11,18 15,38 "/><path stroke-width="8" d="M626,742c6,30 7,32 3,62 -2,17 -5,17 -14,32 -5,9 -6,9 -15,15 "/><path stroke-width="9" d="M600,851c-6,3 -7,3 -13,3 "/><path stroke-width="10" d="M587,854c-6,1 -7,1 -12,-2 "/><path stroke-width="11" d="M575,852c-4,-2 -4,-3 -6,-7 -3,-6 -3,-6 -4,-13 "/><path stroke-width="10" d="M565,832c-1,-7 -1,-7 0,-14 2,-8 2,-8 5,-15 "/><path stroke-width="9" d="M570,803c3,-8 4,-8 8,-15 5,-7 4,-7 9,-14 4,-6 4,-6 9,-11 "/><path stroke-width="10" d="M596,763c3,-4 3,-5 7,-7 "/><path stroke-width="13" d="M603,756c1,-1 3,-2 4,-1 2,3 1,5 1,10 "/><path stroke-width="10" d="M608,765c1,11 1,11 0,21 "/><path stroke-width="9" d="M608,786c0,8 0,10 -2,15 "/><path stroke-width="11" d="M606,801c0,2 -1,-1 -3,-2 "/></g></svg>