<?xml version="1.0" encoding="UTF-8" standalone="no"?>
<svg xmlns="http://www.w3.org/2000/svg" version="1.2" baseProfile="tiny" height="1192" width="720"><g stroke-linejoin="round" stroke-linecap="round" fill="none" stroke="black"><path stroke-width="12" d="M362,824c0,0 0,0 0,0 "/><path stroke-width="13" d="M362,824c-2,0 -2,0 -4,1 "/><path stroke-width="11" d="M358,825c-3,0 -3,0 -7,1 "/><path stroke-width="9" d="M351,826c-5,0 -5,1 -10,0 "/><path stroke-width="8" d="M341,826c-8,-1 -8,-1 -16,-3 "/><path stroke-width="7" d="M325,823c-8,-3 -9,-1 -15,-7 -9,-8 -9,-9 -14,-20 "/><path stroke-width="6" d="M296,796c-8,-18 -9,-19 -11,-39 -4,-27 -3,-28 -1,-56 3,-32 2,-33 11,-64 8,-32 8,-32 22,-62 13,-26 14,-26 31,-49 15,-19 15,-20 33,-36 17,-15 18,-16 38,-26 16,-8 17,-9 34,-10 13,-1 15,0 27,6 11,5 11,7 19,16 7,9 8,10 12,21 3,10 3,11 1,21 -4,16 -4,17 -13,32 -15,27 -15,28 -35,51 -27,33 -29,32 -59,62 -31,29 -31,30 -63,56 -29,23 -29,23 -61,42 -22,14 -21,17 -46,24 -21,6 -23,5 -45,2 -12,-1 -13,-4 -23,-12 "/><path stroke-width="7" d="M167,775c-5,-5 -5,-6 -7,-13 -5,-17 -6,-18 -6,-36 "/><path stroke-width="6" d="M154,726c0,-36 -3,-37 5,-72 9,-41 10,-43 29,-81 18,-37 19,-38 46,-69 28,-33 30,-33 65,-59 32,-24 34,-21 69,-42 4,-2 4,-2 8,-4 "/></g></svg>