<?xml version="1.0" encoding="UTF-8" standalone="no"?>
<svg xmlns="http://www.w3.org/2000/svg" version="1.2" baseProfile="tiny" height="1192" width="720"><g stroke-linejoin="round" stroke-linecap="round" fill="none" stroke="black"><path stroke-width="12" d="M255,954c0,0 0,0 0,0 "/><path stroke-width="13" d="M255,954c-1,1 -1,2 -1,2 -1,0 -1,-1 -2,-2 "/><path stroke-width="12" d="M252,954c-3,0 -3,1 -5,-1 "/><path stroke-width="9" d="M247,953c-7,-4 -8,-3 -12,-9 "/><path stroke-width="7" d="M235,944c-7,-9 -7,-10 -11,-21 "/><path stroke-width="6" d="M224,923c-7,-21 -8,-21 -10,-43 -4,-28 -3,-28 -2,-56 2,-32 2,-32 8,-63 7,-33 7,-34 19,-66 9,-25 9,-25 22,-48 11,-22 11,-23 26,-42 14,-16 14,-17 32,-30 15,-12 16,-12 34,-19 17,-6 18,-7 35,-7 15,-1 16,1 30,6 12,4 13,5 23,12 8,6 10,6 14,14 4,8 4,9 2,17 -4,17 -4,18 -13,32 -17,28 -18,28 -40,52 -27,29 -27,29 -57,55 -29,24 -29,25 -60,45 -26,18 -26,18 -55,31 -18,8 -19,10 -38,11 -11,1 -13,-1 -22,-7 "/><path stroke-width="7" d="M172,817c-6,-3 -6,-4 -9,-11 -6,-11 -6,-12 -8,-25 "/><path stroke-width="6" d="M155,781c-3,-23 -4,-23 -2,-46 2,-29 2,-30 11,-57 10,-30 10,-31 27,-58 15,-23 16,-24 36,-42 18,-15 18,-17 40,-24 19,-6 21,-4 42,-3 21,2 22,2 42,10 20,9 21,9 38,23 17,14 18,15 30,34 14,23 13,25 20,51 8,26 6,27 11,54 3,13 3,13 5,26 "/></g></svg>