<?xml version="1.0" encoding="UTF-8" standalone="no"?>
<svg xmlns="http://www.w3.org/2000/svg" version="1.2" baseProfile="tiny" height="1143" width="720"><g stroke-linejoin="round" stroke-linecap="round" fill="none" stroke="black"><path stroke-width="12" d="M434,95c0,0 0,0 0,0 "/><path stroke-width="13" d="M434,95c0,-2 0,-2 0,-3 "/><path stroke-width="12" d="M434,92c0,-1 1,-3 1,-2 "/><path stroke-width="9" d="M435,90c-3,10 -3,12 -7,25 "/><path stroke-width="6" d="M428,115c-12,33 -11,34 -26,67 -20,45 -26,43 -44,90 -23,57 -20,58 -38,117 -16,54 -17,53 -29,108 -13,53 -9,54 -21,107 -11,51 -13,51 -25,102 -8,37 -5,38 -15,75 -4,13 -8,26 -12,25 -5,-2 -4,-16 -6,-31 -6,-38 -6,-38 -9,-76 -5,-52 -6,-52 -9,-103 -2,-53 -2,-53 -2,-105 0,-48 -1,-48 3,-96 4,-36 2,-37 12,-71 6,-19 7,-24 20,-35 6,-5 12,-3 18,2 8,7 9,10 12,22 5,25 2,26 5,51 3,32 -1,33 7,64 8,27 3,36 24,52 25,19 33,17 67,19 35,1 39,1 71,-13 35,-16 38,-18 62,-48 30,-37 27,-41 45,-85 15,-37 20,-40 21,-77 0,-16 -6,-20 -18,-30 -8,-7 -12,-5 -23,-3 -15,3 -16,5 -30,13 -22,13 -22,13 -41,29 -30,24 -32,22 -56,51 -29,36 -29,37 -50,78 -22,45 -23,45 -37,93 -12,43 -13,45 -14,90 -2,39 0,40 8,79 6,33 7,33 18,64 10,28 9,29 22,55 10,21 11,21 25,40 10,15 10,15 21,29 9,10 9,10 19,19 7,6 7,6 15,12 "/><path stroke-width="8" d="M418,895c1,0 1,0 2,1 "/></g></svg>