<?xml version="1.0" encoding="UTF-8" standalone="no"?>
<svg xmlns="http://www.w3.org/2000/svg" version="1.2" baseProfile="tiny" height="1850" width="1080"><g stroke-linejoin="round" stroke-linecap="round" fill="none" stroke="black"><path stroke-width="18" d="M262,659c0,0 0,0 0,0 "/><path stroke-width="21" d="M262,659c0,0 0,0 0,0 "/><path stroke-width="19" d="M262,659c0,-3 0,-3 0,-5 "/><path stroke-width="13" d="M262,654c0,-7 1,-7 1,-13 "/><path stroke-width="10" d="M263,641c0,-7 0,-7 0,-14 "/><path stroke-width="11" d="M263,627c0,-8 0,-8 1,-17 0,-8 0,-8 1,-16 0,-7 1,-7 1,-14 1,-11 0,-11 1,-22 "/><path stroke-width="10" d="M267,558c1,-9 1,-9 2,-19 "/><path stroke-width="9" d="M269,539c1,-10 1,-10 3,-21 3,-15 2,-15 6,-30 3,-11 3,-12 8,-23 6,-11 6,-12 14,-22 9,-13 9,-14 21,-24 14,-11 15,-10 32,-17 12,-5 12,-4 25,-6 14,-3 15,-5 29,-4 18,2 19,2 36,10 46,20 46,20 89,45 21,12 19,14 38,29 20,15 21,14 39,30 19,19 19,20 35,41 17,19 16,20 31,41 13,18 14,18 26,37 12,21 10,21 21,42 9,19 11,18 19,36 7,17 7,18 12,36 5,15 5,15 8,30 3,17 3,17 4,34 1,9 0,9 0,18 "/><path stroke-width="11" d="M765,821c0,6 2,7 0,12 "/><path stroke-width="12" d="M765,833c-2,5 -2,8 -8,10 "/><path stroke-width="10" d="M757,843c-12,3 -15,5 -27,-1 "/><path stroke-width="9" d="M730,842c-33,-16 -33,-18 -62,-42 -29,-23 -27,-26 -54,-51 -23,-21 -24,-19 -46,-40 -22,-20 -21,-21 -42,-42 -27,-27 -26,-28 -54,-52 -27,-24 -29,-22 -56,-45 -29,-25 -28,-26 -57,-52 -22,-20 -22,-19 -45,-39 -21,-18 -21,-18 -43,-36 -17,-13 -18,-12 -35,-25 -13,-10 -13,-12 -25,-22 "/></g></svg>