<?xml version="1.0" encoding="UTF-8" standalone="no"?>
<svg xmlns="http://www.w3.org/2000/svg" version="1.2" baseProfile="tiny" height="1863" width="1080"><g stroke-linejoin="round" stroke-linecap="round" fill="none" stroke="black"><path stroke-width="18" d="M433,1245c0,0 0,0 0,0 "/><path stroke-width="21" d="M433,1245c0,0 0,0 0,0 0,0 0,0 0,0 0,0 0,0 0,0 "/><path stroke-width="20" d="M433,1245c3,0 3,0 6,-1 "/><path stroke-width="14" d="M439,1244c17,-5 20,-1 35,-10 "/><path stroke-width="9" d="M474,1234c25,-16 25,-18 46,-40 28,-30 28,-31 52,-65 19,-28 17,-29 32,-59 12,-22 15,-21 22,-44 7,-22 6,-23 7,-46 1,-32 0,-32 -2,-65 -3,-49 -2,-49 -8,-98 -7,-49 -5,-50 -17,-98 -10,-40 -11,-40 -28,-78 -11,-23 -12,-24 -28,-44 -13,-16 -14,-16 -31,-29 -22,-17 -24,-15 -47,-32 -24,-17 -24,-17 -46,-37 -23,-20 -21,-22 -44,-42 -22,-19 -23,-18 -46,-34 -19,-13 -19,-13 -38,-23 "/><path stroke-width="10" d="M298,400c-5,-3 -6,-2 -11,-3 "/><path stroke-width="13" d="M287,397c-3,0 -4,-1 -6,1 "/><path stroke-width="14" d="M281,398c-4,3 -7,3 -7,9 "/><path stroke-width="11" d="M274,407c-1,14 -3,16 4,30 "/><path stroke-width="9" d="M278,437c19,38 22,38 48,73 44,60 48,57 91,118 45,62 47,61 85,127 24,40 22,41 40,84 13,30 11,31 21,61 9,24 7,25 16,49 6,17 7,17 14,34 6,13 5,14 13,26 8,11 9,11 20,19 9,7 9,8 19,12 10,5 11,4 21,6 "/><path stroke-width="10" d="M666,1046c8,2 8,1 15,2 "/><path stroke-width="12" d="M681,1048c4,0 4,0 8,0 "/><path stroke-width="15" d="M689,1048c3,0 3,-1 5,-1 "/><path stroke-width="17" d="M694,1047c1,0 1,0 2,0 "/><path stroke-width="18" d="M696,1047c1,0 1,1 2,1 "/><path stroke-width="16" d="M698,1048c4,1 4,1 8,2 "/></g></svg>