<?xml version="1.0" encoding="UTF-8" standalone="no"?>
<svg xmlns="http://www.w3.org/2000/svg" version="1.2" baseProfile="tiny" height="1850" width="1080"><g stroke-linejoin="round" stroke-linecap="round" fill="none" stroke="black"><path stroke-width="18" d="M565,1375c0,0 0,0 0,0 "/><path stroke-width="21" d="M565,1375c0,0 0,0 0,0 "/><path stroke-width="19" d="M565,1375c0,-6 -1,-6 0,-13 "/><path stroke-width="13" d="M565,1362c4,-18 6,-17 10,-36 "/><path stroke-width="9" d="M575,1326c9,-34 10,-34 16,-68 8,-49 8,-49 11,-97 2,-50 2,-50 -2,-99 -4,-40 -5,-40 -14,-78 -8,-39 -9,-39 -20,-76 -12,-39 -12,-40 -27,-78 -14,-37 -14,-37 -31,-72 -18,-37 -17,-38 -37,-73 -18,-30 -19,-31 -40,-59 -16,-21 -16,-22 -36,-40 -13,-12 -14,-12 -30,-20 -13,-7 -14,-7 -29,-12 -9,-3 -10,-2 -19,-4 "/><path stroke-width="10" d="M317,550c-9,-2 -9,-3 -17,-5 -9,-3 -9,-3 -19,-6 "/><path stroke-width="11" d="M281,539c-6,-2 -6,-3 -13,-4 "/><path stroke-width="13" d="M268,535c-4,-1 -5,-3 -9,-1 -5,2 -8,3 -10,9 "/><path stroke-width="10" d="M249,543c-5,17 -7,20 -3,38 "/><path stroke-width="9" d="M246,581c6,33 8,34 23,63 20,41 23,39 47,78 30,49 32,48 62,97 29,47 30,47 55,96 20,37 17,39 36,76 11,24 12,24 25,47 12,20 10,21 23,40 12,16 12,16 26,29 14,14 14,15 30,25 17,12 18,11 37,19 15,6 15,7 31,11 14,3 14,1 28,2 11,1 12,1 23,0 8,-1 8,-1 17,-3 "/><path stroke-width="10" d="M709,1161c9,-2 9,-3 18,-5 9,-3 9,-2 18,-4 "/><path stroke-width="11" d="M745,1152c6,-2 6,-2 13,-3 "/><path stroke-width="13" d="M758,1149c4,-1 4,0 7,-1 "/><path stroke-width="15" d="M765,1148c3,0 3,-1 5,-1 "/><path stroke-width="16" d="M770,1147c3,-1 3,-1 6,-1 2,0 2,0 4,0 "/><path stroke-width="17" d="M780,1146c3,0 3,0 5,-1 2,-1 2,-1 3,-2 2,-1 2,0 3,-1 "/><path stroke-width="18" d="M791,1142c1,-1 1,-1 2,-2 "/><path stroke-width="19" d="M793,1140c0,0 1,0 1,0 "/><path stroke-width="20" d="M794,1140c0,0 0,-1 0,-1 0,0 1,0 2,0 "/><path stroke-width="19" d="M796,1139c0,0 -1,-1 -1,-1 "/><path stroke-width="20" d="M795,1138c0,0 1,0 1,0 "/><path stroke-width="21" d="M796,1138c0,0 0,0 0,0 0,0 0,0 0,-1 0,0 0,0 0,0 "/><path stroke-width="19" d="M796,1137c3,-1 3,-1 5,-2 "/></g></svg>