<?xml version="1.0" encoding="UTF-8" standalone="no"?>
<svg xmlns="http://www.w3.org/2000/svg" version="1.2" baseProfile="tiny" height="1143" width="720"><g stroke-linejoin="round" stroke-linecap="round" fill="none" stroke="black"><path stroke-width="12" d="M328,244c0,0 0,0 0,0 -2,5 -2,5 -4,9 "/><path stroke-width="8" d="M324,253c-4,12 -4,12 -8,23 "/><path stroke-width="6" d="M316,276c-6,19 -6,19 -12,38 -8,25 -6,25 -16,50 -9,25 -10,24 -22,48 -15,32 -17,31 -32,63 -16,33 -15,34 -30,67 -14,28 -14,28 -28,56 -11,21 -10,21 -22,42 -9,14 -10,13 -20,27 -8,12 -7,13 -16,24 -8,8 -8,8 -18,13 "/><path stroke-width="7" d="M100,704c-6,3 -6,4 -13,4 "/><path stroke-width="8" d="M87,708c-4,0 -5,0 -8,-3 "/><path stroke-width="9" d="M79,705c-2,-3 -1,-4 0,-8 "/><path stroke-width="8" d="M79,697c0,-8 0,-8 2,-15 "/><path stroke-width="7" d="M81,682c3,-11 3,-11 8,-21 "/><path stroke-width="6" d="M89,661c7,-15 7,-14 16,-28 8,-13 8,-14 18,-25 12,-13 13,-12 26,-23 15,-11 15,-12 31,-20 18,-8 19,-8 39,-12 21,-4 21,-2 42,-3 18,-2 19,-1 37,-4 16,-2 17,-1 32,-6 17,-5 18,-4 33,-13 16,-9 15,-10 30,-23 15,-13 16,-13 29,-29 10,-11 9,-12 16,-26 5,-10 5,-10 7,-21 3,-10 3,-10 3,-20 "/><path stroke-width="7" d="M448,408c0,-6 -1,-7 -4,-12 "/><path stroke-width="8" d="M444,396c-2,-5 -2,-5 -6,-8 "/><path stroke-width="9" d="M438,388c-5,-2 -6,-2 -10,-1 "/><path stroke-width="8" d="M428,387c-8,1 -10,0 -16,5 "/><path stroke-width="7" d="M412,392c-10,6 -9,8 -16,18 "/><path stroke-width="6" d="M396,410c-13,18 -14,18 -24,38 -15,28 -14,29 -27,59 -10,26 -9,27 -20,53 -11,27 -11,27 -24,53 -10,20 -9,20 -20,40 -9,17 -8,17 -19,33 -9,13 -11,12 -20,24 -9,12 -7,13 -16,25 -7,8 -8,7 -16,14 -7,7 -7,7 -15,13 "/><path stroke-width="7" d="M195,762c-3,4 -3,4 -7,7 "/><path stroke-width="10" d="M188,769c-1,1 -1,2 -1,2 "/><path stroke-width="12" d="M187,771c-1,-1 -1,-2 0,-3 1,-1 1,-1 2,-2 "/><path stroke-width="10" d="M189,766c3,-4 3,-5 6,-9 "/><path stroke-width="8" d="M195,757c6,-9 7,-9 13,-18 "/><path stroke-width="6" d="M208,739c11,-15 10,-16 22,-30 19,-21 19,-21 39,-41 14,-14 14,-15 30,-27 12,-8 12,-9 25,-13 "/><path stroke-width="7" d="M324,628c5,-2 5,-1 10,1 "/><path stroke-width="8" d="M334,629c5,2 4,3 8,6 "/><path stroke-width="9" d="M342,635c5,3 4,4 9,7 "/><path stroke-width="8" d="M351,642c6,3 7,2 13,5 "/><path stroke-width="7" d="M364,647c8,3 8,4 17,7 "/><path stroke-width="6" d="M381,654c12,4 12,3 25,6 12,2 12,3 23,5 10,1 10,1 19,1 "/><path stroke-width="7" d="M448,666c9,0 9,1 17,-1 6,-1 6,-2 11,-5 "/><path stroke-width="8" d="M476,660c4,-2 4,-2 8,-5 "/><path stroke-width="9" d="M484,655c4,-3 4,-2 8,-6 2,-3 1,-4 4,-8 "/><path stroke-width="8" d="M496,641c6,-7 7,-6 13,-13 "/><path stroke-width="7" d="M509,628c4,-6 4,-6 7,-13 "/><path stroke-width="8" d="M516,615c2,-4 2,-4 3,-8 "/><path stroke-width="10" d="M519,607c1,-2 1,-2 1,-4 "/><path stroke-width="12" d="M520,603c0,-2 0,-2 -1,-3 -1,0 -2,0 -4,1 "/><path stroke-width="11" d="M515,601c-3,1 -4,1 -7,3 "/><path stroke-width="8" d="M508,604c-7,4 -7,5 -14,10 "/><path stroke-width="7" d="M494,614c-13,9 -14,8 -26,19 "/><path stroke-width="6" d="M468,633c-15,13 -15,14 -28,29 -14,15 -16,15 -27,32 -11,17 -11,18 -18,37 -8,20 -7,20 -13,40 -3,12 -2,12 -4,24 "/></g></svg>